<?xml version="1.0" encoding="utf-8" standalone="no"?>
<!DOCTYPE svg PUBLIC "-//W3C//DTD SVG 1.1//EN"
  "http://www.w3.org/Graphics/SVG/1.1/DTD/svg11.dtd">
<svg xmlns:xlink="http://www.w3.org/1999/xlink" width="406.885938pt" height="211.07625pt" viewBox="0 0 406.885938 211.07625" xmlns="http://www.w3.org/2000/svg" version="1.1">
 <metadata>
  <rdf:RDF xmlns:dc="http://purl.org/dc/elements/1.1/" xmlns:cc="http://creativecommons.org/ns#" xmlns:rdf="http://www.w3.org/1999/02/22-rdf-syntax-ns#">
   <cc:Work>
    <dc:type rdf:resource="http://purl.org/dc/dcmitype/StillImage"/>
    <dc:date>2024-04-30T23:32:38.684020</dc:date>
    <dc:format>image/svg+xml</dc:format>
    <dc:creator>
     <cc:Agent>
      <dc:title>Matplotlib v3.5.1, https://matplotlib.org/</dc:title>
     </cc:Agent>
    </dc:creator>
   </cc:Work>
  </rdf:RDF>
 </metadata>
 <defs>
  <style type="text/css">*{stroke-linejoin: round; stroke-linecap: butt}</style>
 </defs>
 <g id="figure_1">
  <g id="patch_1">
   <path d="M 0 211.07625 
L 406.885938 211.07625 
L 406.885938 0 
L 0 0 
z
" style="fill: #ffffff"/>
  </g>
  <g id="axes_1">
   <g id="patch_2">
    <path d="M 52.160938 173.52 
L 386.960938 173.52 
L 386.960938 7.2 
L 52.160938 7.2 
z
" style="fill: #ffffff"/>
   </g>
   <g id="matplotlib.axis_1">
    <g id="xtick_1">
     <g id="line2d_1">
      <path d="M 117.775008 173.52 
L 117.775008 7.2 
" clip-path="url(#p0073c7b6da)" style="fill: none; stroke: #b0b0b0; stroke-width: 0.8; stroke-linecap: square"/>
     </g>
     <g id="line2d_2">
      <defs>
       <path id="m340398ab60" d="M 0 0 
L 0 3.5 
" style="stroke: #000000; stroke-width: 0.8"/>
      </defs>
      <g>
       <use xlink:href="#m340398ab60" x="117.775008" y="173.52" style="stroke: #000000; stroke-width: 0.8"/>
      </g>
     </g>
     <g id="text_1">
      <!-- 200 -->
      <g transform="translate(108.231258 188.118438)scale(0.1 -0.1)">
       <defs>
        <path id="DejaVuSans-32" d="M 1228 531 
L 3431 531 
L 3431 0 
L 469 0 
L 469 531 
Q 828 903 1448 1529 
Q 2069 2156 2228 2338 
Q 2531 2678 2651 2914 
Q 2772 3150 2772 3378 
Q 2772 3750 2511 3984 
Q 2250 4219 1831 4219 
Q 1534 4219 1204 4116 
Q 875 4013 500 3803 
L 500 4441 
Q 881 4594 1212 4672 
Q 1544 4750 1819 4750 
Q 2544 4750 2975 4387 
Q 3406 4025 3406 3419 
Q 3406 3131 3298 2873 
Q 3191 2616 2906 2266 
Q 2828 2175 2409 1742 
Q 1991 1309 1228 531 
z
" transform="scale(0.015625)"/>
        <path id="DejaVuSans-30" d="M 2034 4250 
Q 1547 4250 1301 3770 
Q 1056 3291 1056 2328 
Q 1056 1369 1301 889 
Q 1547 409 2034 409 
Q 2525 409 2770 889 
Q 3016 1369 3016 2328 
Q 3016 3291 2770 3770 
Q 2525 4250 2034 4250 
z
M 2034 4750 
Q 2819 4750 3233 4129 
Q 3647 3509 3647 2328 
Q 3647 1150 3233 529 
Q 2819 -91 2034 -91 
Q 1250 -91 836 529 
Q 422 1150 422 2328 
Q 422 3509 836 4129 
Q 1250 4750 2034 4750 
z
" transform="scale(0.015625)"/>
       </defs>
       <use xlink:href="#DejaVuSans-32"/>
       <use xlink:href="#DejaVuSans-30" x="63.623047"/>
       <use xlink:href="#DejaVuSans-30" x="127.246094"/>
      </g>
     </g>
    </g>
    <g id="xtick_2">
     <g id="line2d_3">
      <path d="M 185.07149 173.52 
L 185.07149 7.2 
" clip-path="url(#p0073c7b6da)" style="fill: none; stroke: #b0b0b0; stroke-width: 0.8; stroke-linecap: square"/>
     </g>
     <g id="line2d_4">
      <g>
       <use xlink:href="#m340398ab60" x="185.07149" y="173.52" style="stroke: #000000; stroke-width: 0.8"/>
      </g>
     </g>
     <g id="text_2">
      <!-- 400 -->
      <g transform="translate(175.52774 188.118438)scale(0.1 -0.1)">
       <defs>
        <path id="DejaVuSans-34" d="M 2419 4116 
L 825 1625 
L 2419 1625 
L 2419 4116 
z
M 2253 4666 
L 3047 4666 
L 3047 1625 
L 3713 1625 
L 3713 1100 
L 3047 1100 
L 3047 0 
L 2419 0 
L 2419 1100 
L 313 1100 
L 313 1709 
L 2253 4666 
z
" transform="scale(0.015625)"/>
       </defs>
       <use xlink:href="#DejaVuSans-34"/>
       <use xlink:href="#DejaVuSans-30" x="63.623047"/>
       <use xlink:href="#DejaVuSans-30" x="127.246094"/>
      </g>
     </g>
    </g>
    <g id="xtick_3">
     <g id="line2d_5">
      <path d="M 252.367973 173.52 
L 252.367973 7.2 
" clip-path="url(#p0073c7b6da)" style="fill: none; stroke: #b0b0b0; stroke-width: 0.8; stroke-linecap: square"/>
     </g>
     <g id="line2d_6">
      <g>
       <use xlink:href="#m340398ab60" x="252.367973" y="173.52" style="stroke: #000000; stroke-width: 0.8"/>
      </g>
     </g>
     <g id="text_3">
      <!-- 600 -->
      <g transform="translate(242.824223 188.118438)scale(0.1 -0.1)">
       <defs>
        <path id="DejaVuSans-36" d="M 2113 2584 
Q 1688 2584 1439 2293 
Q 1191 2003 1191 1497 
Q 1191 994 1439 701 
Q 1688 409 2113 409 
Q 2538 409 2786 701 
Q 3034 994 3034 1497 
Q 3034 2003 2786 2293 
Q 2538 2584 2113 2584 
z
M 3366 4563 
L 3366 3988 
Q 3128 4100 2886 4159 
Q 2644 4219 2406 4219 
Q 1781 4219 1451 3797 
Q 1122 3375 1075 2522 
Q 1259 2794 1537 2939 
Q 1816 3084 2150 3084 
Q 2853 3084 3261 2657 
Q 3669 2231 3669 1497 
Q 3669 778 3244 343 
Q 2819 -91 2113 -91 
Q 1303 -91 875 529 
Q 447 1150 447 2328 
Q 447 3434 972 4092 
Q 1497 4750 2381 4750 
Q 2619 4750 2861 4703 
Q 3103 4656 3366 4563 
z
" transform="scale(0.015625)"/>
       </defs>
       <use xlink:href="#DejaVuSans-36"/>
       <use xlink:href="#DejaVuSans-30" x="63.623047"/>
       <use xlink:href="#DejaVuSans-30" x="127.246094"/>
      </g>
     </g>
    </g>
    <g id="xtick_4">
     <g id="line2d_7">
      <path d="M 319.664455 173.52 
L 319.664455 7.2 
" clip-path="url(#p0073c7b6da)" style="fill: none; stroke: #b0b0b0; stroke-width: 0.8; stroke-linecap: square"/>
     </g>
     <g id="line2d_8">
      <g>
       <use xlink:href="#m340398ab60" x="319.664455" y="173.52" style="stroke: #000000; stroke-width: 0.8"/>
      </g>
     </g>
     <g id="text_4">
      <!-- 800 -->
      <g transform="translate(310.120705 188.118438)scale(0.1 -0.1)">
       <defs>
        <path id="DejaVuSans-38" d="M 2034 2216 
Q 1584 2216 1326 1975 
Q 1069 1734 1069 1313 
Q 1069 891 1326 650 
Q 1584 409 2034 409 
Q 2484 409 2743 651 
Q 3003 894 3003 1313 
Q 3003 1734 2745 1975 
Q 2488 2216 2034 2216 
z
M 1403 2484 
Q 997 2584 770 2862 
Q 544 3141 544 3541 
Q 544 4100 942 4425 
Q 1341 4750 2034 4750 
Q 2731 4750 3128 4425 
Q 3525 4100 3525 3541 
Q 3525 3141 3298 2862 
Q 3072 2584 2669 2484 
Q 3125 2378 3379 2068 
Q 3634 1759 3634 1313 
Q 3634 634 3220 271 
Q 2806 -91 2034 -91 
Q 1263 -91 848 271 
Q 434 634 434 1313 
Q 434 1759 690 2068 
Q 947 2378 1403 2484 
z
M 1172 3481 
Q 1172 3119 1398 2916 
Q 1625 2713 2034 2713 
Q 2441 2713 2670 2916 
Q 2900 3119 2900 3481 
Q 2900 3844 2670 4047 
Q 2441 4250 2034 4250 
Q 1625 4250 1398 4047 
Q 1172 3844 1172 3481 
z
" transform="scale(0.015625)"/>
       </defs>
       <use xlink:href="#DejaVuSans-38"/>
       <use xlink:href="#DejaVuSans-30" x="63.623047"/>
       <use xlink:href="#DejaVuSans-30" x="127.246094"/>
      </g>
     </g>
    </g>
    <g id="xtick_5">
     <g id="line2d_9">
      <path d="M 386.960938 173.52 
L 386.960938 7.2 
" clip-path="url(#p0073c7b6da)" style="fill: none; stroke: #b0b0b0; stroke-width: 0.8; stroke-linecap: square"/>
     </g>
     <g id="line2d_10">
      <g>
       <use xlink:href="#m340398ab60" x="386.960938" y="173.52" style="stroke: #000000; stroke-width: 0.8"/>
      </g>
     </g>
     <g id="text_5">
      <!-- 1000 -->
      <g transform="translate(374.235938 188.118438)scale(0.1 -0.1)">
       <defs>
        <path id="DejaVuSans-31" d="M 794 531 
L 1825 531 
L 1825 4091 
L 703 3866 
L 703 4441 
L 1819 4666 
L 2450 4666 
L 2450 531 
L 3481 531 
L 3481 0 
L 794 0 
L 794 531 
z
" transform="scale(0.015625)"/>
       </defs>
       <use xlink:href="#DejaVuSans-31"/>
       <use xlink:href="#DejaVuSans-30" x="63.623047"/>
       <use xlink:href="#DejaVuSans-30" x="127.246094"/>
       <use xlink:href="#DejaVuSans-30" x="190.869141"/>
      </g>
     </g>
    </g>
    <g id="text_6">
     <!-- time -->
     <g transform="translate(208.264844 201.796563)scale(0.1 -0.1)">
      <defs>
       <path id="DejaVuSans-74" d="M 1172 4494 
L 1172 3500 
L 2356 3500 
L 2356 3053 
L 1172 3053 
L 1172 1153 
Q 1172 725 1289 603 
Q 1406 481 1766 481 
L 2356 481 
L 2356 0 
L 1766 0 
Q 1100 0 847 248 
Q 594 497 594 1153 
L 594 3053 
L 172 3053 
L 172 3500 
L 594 3500 
L 594 4494 
L 1172 4494 
z
" transform="scale(0.015625)"/>
       <path id="DejaVuSans-69" d="M 603 3500 
L 1178 3500 
L 1178 0 
L 603 0 
L 603 3500 
z
M 603 4863 
L 1178 4863 
L 1178 4134 
L 603 4134 
L 603 4863 
z
" transform="scale(0.015625)"/>
       <path id="DejaVuSans-6d" d="M 3328 2828 
Q 3544 3216 3844 3400 
Q 4144 3584 4550 3584 
Q 5097 3584 5394 3201 
Q 5691 2819 5691 2113 
L 5691 0 
L 5113 0 
L 5113 2094 
Q 5113 2597 4934 2840 
Q 4756 3084 4391 3084 
Q 3944 3084 3684 2787 
Q 3425 2491 3425 1978 
L 3425 0 
L 2847 0 
L 2847 2094 
Q 2847 2600 2669 2842 
Q 2491 3084 2119 3084 
Q 1678 3084 1418 2786 
Q 1159 2488 1159 1978 
L 1159 0 
L 581 0 
L 581 3500 
L 1159 3500 
L 1159 2956 
Q 1356 3278 1631 3431 
Q 1906 3584 2284 3584 
Q 2666 3584 2933 3390 
Q 3200 3197 3328 2828 
z
" transform="scale(0.015625)"/>
       <path id="DejaVuSans-65" d="M 3597 1894 
L 3597 1613 
L 953 1613 
Q 991 1019 1311 708 
Q 1631 397 2203 397 
Q 2534 397 2845 478 
Q 3156 559 3463 722 
L 3463 178 
Q 3153 47 2828 -22 
Q 2503 -91 2169 -91 
Q 1331 -91 842 396 
Q 353 884 353 1716 
Q 353 2575 817 3079 
Q 1281 3584 2069 3584 
Q 2775 3584 3186 3129 
Q 3597 2675 3597 1894 
z
M 3022 2063 
Q 3016 2534 2758 2815 
Q 2500 3097 2075 3097 
Q 1594 3097 1305 2825 
Q 1016 2553 972 2059 
L 3022 2063 
z
" transform="scale(0.015625)"/>
      </defs>
      <use xlink:href="#DejaVuSans-74"/>
      <use xlink:href="#DejaVuSans-69" x="39.208984"/>
      <use xlink:href="#DejaVuSans-6d" x="66.992188"/>
      <use xlink:href="#DejaVuSans-65" x="164.404297"/>
     </g>
    </g>
   </g>
   <g id="matplotlib.axis_2">
    <g id="ytick_1">
     <g id="line2d_11">
      <path d="M 52.160938 156.374163 
L 386.960938 156.374163 
" clip-path="url(#p0073c7b6da)" style="fill: none; stroke: #b0b0b0; stroke-width: 0.8; stroke-linecap: square"/>
     </g>
     <g id="line2d_12">
      <defs>
       <path id="mac97a07b2b" d="M 0 0 
L -3.5 0 
" style="stroke: #000000; stroke-width: 0.8"/>
      </defs>
      <g>
       <use xlink:href="#mac97a07b2b" x="52.160938" y="156.374163" style="stroke: #000000; stroke-width: 0.8"/>
      </g>
     </g>
     <g id="text_7">
      <!-- −1.0 -->
      <g transform="translate(20.878125 160.173382)scale(0.1 -0.1)">
       <defs>
        <path id="DejaVuSans-2212" d="M 678 2272 
L 4684 2272 
L 4684 1741 
L 678 1741 
L 678 2272 
z
" transform="scale(0.015625)"/>
        <path id="DejaVuSans-2e" d="M 684 794 
L 1344 794 
L 1344 0 
L 684 0 
L 684 794 
z
" transform="scale(0.015625)"/>
       </defs>
       <use xlink:href="#DejaVuSans-2212"/>
       <use xlink:href="#DejaVuSans-31" x="83.789062"/>
       <use xlink:href="#DejaVuSans-2e" x="147.412109"/>
       <use xlink:href="#DejaVuSans-30" x="179.199219"/>
      </g>
     </g>
    </g>
    <g id="ytick_2">
     <g id="line2d_13">
      <path d="M 52.160938 123.597771 
L 386.960938 123.597771 
" clip-path="url(#p0073c7b6da)" style="fill: none; stroke: #b0b0b0; stroke-width: 0.8; stroke-linecap: square"/>
     </g>
     <g id="line2d_14">
      <g>
       <use xlink:href="#mac97a07b2b" x="52.160938" y="123.597771" style="stroke: #000000; stroke-width: 0.8"/>
      </g>
     </g>
     <g id="text_8">
      <!-- −0.5 -->
      <g transform="translate(20.878125 127.39699)scale(0.1 -0.1)">
       <defs>
        <path id="DejaVuSans-35" d="M 691 4666 
L 3169 4666 
L 3169 4134 
L 1269 4134 
L 1269 2991 
Q 1406 3038 1543 3061 
Q 1681 3084 1819 3084 
Q 2600 3084 3056 2656 
Q 3513 2228 3513 1497 
Q 3513 744 3044 326 
Q 2575 -91 1722 -91 
Q 1428 -91 1123 -41 
Q 819 9 494 109 
L 494 744 
Q 775 591 1075 516 
Q 1375 441 1709 441 
Q 2250 441 2565 725 
Q 2881 1009 2881 1497 
Q 2881 1984 2565 2268 
Q 2250 2553 1709 2553 
Q 1456 2553 1204 2497 
Q 953 2441 691 2322 
L 691 4666 
z
" transform="scale(0.015625)"/>
       </defs>
       <use xlink:href="#DejaVuSans-2212"/>
       <use xlink:href="#DejaVuSans-30" x="83.789062"/>
       <use xlink:href="#DejaVuSans-2e" x="147.412109"/>
       <use xlink:href="#DejaVuSans-35" x="179.199219"/>
      </g>
     </g>
    </g>
    <g id="ytick_3">
     <g id="line2d_15">
      <path d="M 52.160938 90.82138 
L 386.960938 90.82138 
" clip-path="url(#p0073c7b6da)" style="fill: none; stroke: #b0b0b0; stroke-width: 0.8; stroke-linecap: square"/>
     </g>
     <g id="line2d_16">
      <g>
       <use xlink:href="#mac97a07b2b" x="52.160938" y="90.82138" style="stroke: #000000; stroke-width: 0.8"/>
      </g>
     </g>
     <g id="text_9">
      <!-- 0.0 -->
      <g transform="translate(29.257812 94.620599)scale(0.1 -0.1)">
       <use xlink:href="#DejaVuSans-30"/>
       <use xlink:href="#DejaVuSans-2e" x="63.623047"/>
       <use xlink:href="#DejaVuSans-30" x="95.410156"/>
      </g>
     </g>
    </g>
    <g id="ytick_4">
     <g id="line2d_17">
      <path d="M 52.160938 58.044988 
L 386.960938 58.044988 
" clip-path="url(#p0073c7b6da)" style="fill: none; stroke: #b0b0b0; stroke-width: 0.8; stroke-linecap: square"/>
     </g>
     <g id="line2d_18">
      <g>
       <use xlink:href="#mac97a07b2b" x="52.160938" y="58.044988" style="stroke: #000000; stroke-width: 0.8"/>
      </g>
     </g>
     <g id="text_10">
      <!-- 0.5 -->
      <g transform="translate(29.257812 61.844207)scale(0.1 -0.1)">
       <use xlink:href="#DejaVuSans-30"/>
       <use xlink:href="#DejaVuSans-2e" x="63.623047"/>
       <use xlink:href="#DejaVuSans-35" x="95.410156"/>
      </g>
     </g>
    </g>
    <g id="ytick_5">
     <g id="line2d_19">
      <path d="M 52.160938 25.268597 
L 386.960938 25.268597 
" clip-path="url(#p0073c7b6da)" style="fill: none; stroke: #b0b0b0; stroke-width: 0.8; stroke-linecap: square"/>
     </g>
     <g id="line2d_20">
      <g>
       <use xlink:href="#mac97a07b2b" x="52.160938" y="25.268597" style="stroke: #000000; stroke-width: 0.8"/>
      </g>
     </g>
     <g id="text_11">
      <!-- 1.0 -->
      <g transform="translate(29.257812 29.067815)scale(0.1 -0.1)">
       <use xlink:href="#DejaVuSans-31"/>
       <use xlink:href="#DejaVuSans-2e" x="63.623047"/>
       <use xlink:href="#DejaVuSans-30" x="95.410156"/>
      </g>
     </g>
    </g>
    <g id="text_12">
     <!-- x -->
     <g transform="translate(14.798438 93.319375)rotate(-90)scale(0.1 -0.1)">
      <defs>
       <path id="DejaVuSans-78" d="M 3513 3500 
L 2247 1797 
L 3578 0 
L 2900 0 
L 1881 1375 
L 863 0 
L 184 0 
L 1544 1831 
L 300 3500 
L 978 3500 
L 1906 2253 
L 2834 3500 
L 3513 3500 
z
" transform="scale(0.015625)"/>
      </defs>
      <use xlink:href="#DejaVuSans-78"/>
     </g>
    </g>
   </g>
   <g id="line2d_21">
    <path d="M 52.160938 87.621217 
L 52.49742 81.264177 
L 52.833902 82.975785 
L 53.170385 95.384259 
L 53.506867 94.380397 
L 53.84335 95.234359 
L 54.516314 74.747452 
L 54.852797 69.327316 
L 55.189279 62.027219 
L 55.525762 60.165703 
L 56.198726 67.646048 
L 56.535209 74.015306 
L 56.871691 74.596738 
L 57.208174 80.015516 
L 57.544656 88.918711 
L 57.881139 78.758278 
L 58.217621 80.667576 
L 58.554103 75.397998 
L 58.890586 71.958564 
L 59.227068 73.077169 
L 59.563551 64.57391 
L 59.900033 60.699453 
L 60.236515 59.378363 
L 60.572998 64.369858 
L 60.90948 63.623293 
L 61.245963 61.9536 
L 61.582445 62.923145 
L 61.918927 58.908203 
L 62.25541 59.039708 
L 62.591892 58.986341 
L 62.928375 60.696019 
L 63.264857 82.722913 
L 63.60134 82.635391 
L 63.937822 91.49245 
L 64.274304 84.200681 
L 64.610787 60.527313 
L 64.947269 53.168974 
L 65.283752 52.63526 
L 65.620234 54.690231 
L 65.956716 60.209943 
L 66.293199 57.862985 
L 66.629681 58.372365 
L 66.966164 56.965735 
L 67.302646 59.588399 
L 67.639128 59.869246 
L 67.975611 54.947492 
L 68.312093 52.049742 
L 68.648576 50.827328 
L 69.321541 56.448728 
L 69.658023 50.633302 
L 69.994505 52.863685 
L 70.330988 49.271648 
L 70.66747 48.75368 
L 71.003953 46.0434 
L 71.340435 52.286553 
L 71.676917 52.609917 
L 72.0134 53.715372 
L 72.686365 41.890673 
L 73.359329 47.169376 
L 73.695812 44.667048 
L 74.368777 45.532519 
L 74.705259 44.997382 
L 75.041742 43.45666 
L 75.378224 43.345068 
L 75.714706 45.03243 
L 76.051189 48.795136 
L 76.724154 38.766599 
L 77.060636 38.032591 
L 77.397118 38.666699 
L 77.733601 37.441877 
L 78.070083 42.468602 
L 78.406566 49.38735 
L 78.743048 51.979326 
L 79.07953 47.861701 
L 79.416013 47.705927 
L 79.752495 50.451591 
L 80.088978 50.080449 
L 80.42546 50.965582 
L 80.761943 45.953604 
L 81.098425 42.819114 
L 81.434907 44.398018 
L 81.77139 43.948598 
L 82.107872 46.216108 
L 82.444355 43.886637 
L 82.780837 40.451289 
L 83.117319 31.607345 
L 83.453802 34.286531 
L 83.790284 43.100521 
L 84.126767 47.74607 
L 84.463249 48.491019 
L 84.799731 46.330497 
L 85.136214 38.29115 
L 85.809179 29.946771 
L 86.145661 31.095362 
L 86.482144 23.929566 
L 87.155108 27.039152 
L 87.491591 26.569344 
L 87.828073 28.080168 
L 88.164556 28.172973 
L 88.501038 32.955588 
L 88.83752 35.586457 
L 89.174003 36.653832 
L 89.510485 35.812953 
L 89.846968 32.054678 
L 90.18345 32.819467 
L 90.519932 31.13792 
L 90.856415 32.981728 
L 91.52938 27.000923 
L 92.202345 30.566602 
L 92.538827 29.480996 
L 93.211792 21.606143 
L 93.548274 14.76 
L 93.884757 15.288354 
L 94.221239 19.807566 
L 94.557721 26.841656 
L 94.894204 29.646303 
L 95.230686 27.441966 
L 95.567169 19.883304 
L 95.903651 19.247836 
L 96.240133 21.209128 
L 96.576616 28.845528 
L 96.913098 32.498166 
L 97.249581 30.911401 
L 97.586063 27.549079 
L 97.922546 28.337429 
L 98.259028 30.847127 
L 98.59551 27.93331 
L 98.931993 22.813093 
L 99.268475 25.331941 
L 99.604958 24.485928 
L 99.94144 25.433686 
L 100.277922 32.616126 
L 100.614405 36.866511 
L 100.950887 37.195721 
L 101.28737 39.585965 
L 101.623852 34.924209 
L 101.960334 34.300081 
L 102.296817 29.890366 
L 102.633299 29.890538 
L 102.969782 29.110565 
L 103.306264 29.549935 
L 103.642747 25.253132 
L 103.979229 23.36407 
L 104.315711 19.307993 
L 104.652194 22.728509 
L 104.988676 32.526963 
L 105.325159 37.285626 
L 105.661641 37.28322 
L 105.998123 36.632803 
L 106.334606 29.681883 
L 106.671088 25.931712 
L 107.007571 26.390368 
L 107.344053 33.244303 
L 107.680535 32.544022 
L 108.017018 30.906548 
L 108.3535 34.654992 
L 108.689983 36.778559 
L 109.026465 37.5373 
L 109.362948 35.264992 
L 110.035912 27.487798 
L 110.372395 25.877956 
L 110.708877 20.969809 
L 111.04536 17.90579 
L 111.718324 29.045392 
L 112.054807 30.070576 
L 112.391289 30.152722 
L 112.727772 28.637123 
L 113.737219 36.022803 
L 114.073701 34.097935 
L 114.410184 33.517623 
L 114.746666 27.922253 
L 115.083149 25.478189 
L 115.419631 29.179887 
L 115.756113 36.304469 
L 116.092596 41.024693 
L 116.429078 41.301897 
L 116.765561 42.929204 
L 117.102043 33.877887 
L 117.438525 21.345108 
L 118.11149 32.100354 
L 118.447973 32.835675 
L 118.784455 28.292183 
L 119.120937 30.749078 
L 119.45742 38.312936 
L 119.793902 37.760592 
L 120.130385 32.429258 
L 120.466867 30.072037 
L 120.80335 30.779383 
L 121.139832 33.196212 
L 121.476314 27.255051 
L 121.812797 30.025385 
L 122.149279 28.4964 
L 122.485762 28.240029 
L 122.822244 34.32633 
L 123.158726 38.120348 
L 123.495209 37.343735 
L 123.831691 32.242632 
L 124.168174 30.944276 
L 124.504656 31.359992 
L 125.177621 35.95899 
L 125.514103 34.97956 
L 125.850586 39.859653 
L 126.187068 36.830885 
L 126.523551 36.442121 
L 126.860033 35.57211 
L 127.196515 37.860547 
L 127.532998 38.271254 
L 127.86948 34.356181 
L 128.205963 35.415781 
L 129.21541 43.440734 
L 129.551892 47.559468 
L 129.888375 45.602248 
L 130.224857 45.679182 
L 130.56134 36.089914 
L 130.897822 33.885701 
L 131.234304 35.739676 
L 131.570787 36.713277 
L 131.907269 45.914031 
L 132.243752 49.741269 
L 132.916716 54.600669 
L 133.589681 51.375249 
L 133.926164 47.150902 
L 134.262646 48.232835 
L 134.599128 48.537484 
L 134.935611 49.444333 
L 135.272093 48.1917 
L 135.608576 49.51632 
L 135.945058 54.84295 
L 136.281541 54.530471 
L 136.618023 57.021726 
L 136.954505 51.327362 
L 137.290988 54.731507 
L 137.62747 55.481051 
L 137.963953 59.844019 
L 138.300435 58.115026 
L 138.636917 58.733401 
L 138.9734 53.527472 
L 139.309882 54.695732 
L 139.646365 54.118631 
L 139.982847 57.138123 
L 140.319329 57.863301 
L 140.655812 65.642807 
L 140.992294 68.139659 
L 141.328777 63.511403 
L 141.665259 63.539463 
L 142.338224 55.133743 
L 142.674706 60.372668 
L 143.011189 60.568267 
L 143.347671 63.891192 
L 143.684154 65.292025 
L 144.020636 58.914291 
L 144.357118 58.055276 
L 144.693601 51.017361 
L 145.366566 62.415937 
L 145.703048 76.878985 
L 146.03953 76.762347 
L 146.376013 76.396091 
L 146.712495 69.919177 
L 147.048978 72.699301 
L 147.38546 72.961555 
L 147.721943 76.596296 
L 148.058425 77.412197 
L 148.394907 76.048389 
L 148.73139 76.733639 
L 149.404355 62.221868 
L 149.740837 63.59059 
L 150.077319 69.686682 
L 150.413802 79.753632 
L 150.750284 83.472888 
L 151.086767 83.228319 
L 151.423249 81.573073 
L 151.759731 83.854312 
L 152.096214 77.591593 
L 152.432696 79.086662 
L 152.769179 77.51161 
L 153.105661 83.299121 
L 153.442144 95.427446 
L 153.778626 95.223975 
L 154.115108 99.294837 
L 155.124556 77.753551 
L 155.461038 81.238995 
L 156.134003 101.505965 
L 156.806968 108.490318 
L 157.479932 101.866591 
L 157.816415 101.996759 
L 158.152897 96.968874 
L 158.48938 104.526961 
L 158.825862 104.921466 
L 159.162345 103.415872 
L 159.498827 103.00889 
L 159.835309 104.457507 
L 160.171792 109.797947 
L 160.508274 108.212569 
L 160.844757 108.410786 
L 161.181239 111.164274 
L 161.854204 97.428028 
L 162.190686 102.663196 
L 162.527169 98.061462 
L 162.863651 102.876048 
L 163.200133 114.336932 
L 163.536616 115.091936 
L 163.873098 118.636605 
L 164.209581 123.462274 
L 164.546063 119.612542 
L 164.882546 121.9586 
L 165.219028 125.447909 
L 165.55551 118.018798 
L 165.891993 117.884381 
L 166.228475 110.558369 
L 166.564958 105.810996 
L 166.90144 105.9702 
L 167.237922 106.462187 
L 167.910887 124.404548 
L 168.24737 123.665547 
L 168.583852 127.458111 
L 168.920334 124.819272 
L 169.593299 121.849064 
L 169.929782 115.88987 
L 170.266264 121.947107 
L 170.602747 116.909999 
L 170.939229 127.383858 
L 171.275711 118.102615 
L 171.612194 129.454497 
L 171.948676 128.830009 
L 172.285159 126.048125 
L 172.621641 133.538801 
L 172.958123 124.260793 
L 173.294606 125.225477 
L 173.631088 118.550497 
L 173.967571 124.638382 
L 174.304053 124.220087 
L 174.640535 123.528717 
L 174.977018 134.720463 
L 175.3135 127.869013 
L 175.649983 127.313934 
L 175.986465 122.759055 
L 176.322948 122.255701 
L 176.65943 126.60594 
L 176.995912 124.359466 
L 177.668877 122.564181 
L 178.00536 124.28494 
L 178.341842 126.779664 
L 178.678324 122.674111 
L 179.014807 136.338393 
L 179.351289 135.576799 
L 179.687772 134.253257 
L 180.024254 139.602932 
L 180.360736 138.119536 
L 180.697219 139.21874 
L 181.370184 130.781017 
L 181.706666 135.968767 
L 182.043149 132.017912 
L 182.379631 129.483372 
L 182.716113 138.131641 
L 183.052596 134.145472 
L 183.389078 122.653938 
L 183.725561 128.562535 
L 184.062043 129.22111 
L 184.398525 128.150351 
L 184.735008 128.545366 
L 185.07149 131.46005 
L 185.407973 138.7976 
L 185.744455 141.419725 
L 186.080938 137.475106 
L 186.41742 146.761342 
L 186.753902 143.960938 
L 187.090385 137.164706 
L 187.426867 142.335991 
L 187.76335 140.137498 
L 188.099832 136.468981 
L 188.436314 140.597741 
L 188.772797 138.528688 
L 189.445762 144.265336 
L 189.782244 145.247291 
L 190.118726 149.851196 
L 190.791691 141.468878 
L 191.128174 150.981415 
L 191.464656 138.605911 
L 191.801139 134.406343 
L 192.137621 142.608568 
L 192.474103 136.727242 
L 192.810586 136.956309 
L 193.147068 148.239823 
L 193.483551 151.289213 
L 194.156515 154.68205 
L 194.492998 150.461579 
L 194.82948 148.687476 
L 195.165963 140.376888 
L 195.502445 138.469274 
L 195.838927 138.133212 
L 196.17541 145.5991 
L 196.511892 142.212748 
L 196.848375 143.354759 
L 197.52134 140.20618 
L 197.857822 143.526733 
L 198.194304 138.330129 
L 198.530787 143.184685 
L 198.867269 145.868653 
L 199.203752 145.677885 
L 199.540234 142.186304 
L 199.876716 145.241414 
L 200.213199 145.948775 
L 200.549681 145.433682 
L 200.886164 146.276687 
L 201.222646 148.306769 
L 201.559128 155.348908 
L 201.895611 156.443431 
L 202.232093 155.697466 
L 202.568576 151.16758 
L 202.905058 152.931117 
L 203.241541 143.27216 
L 203.578023 142.484794 
L 203.914505 153.626717 
L 204.58747 147.168697 
L 204.923953 151.536495 
L 205.596917 144.530013 
L 205.9334 142.398163 
L 206.606365 156.011429 
L 206.942847 149.272063 
L 207.279329 158.992411 
L 207.615812 158.092478 
L 208.288777 146.153054 
L 208.625259 151.85828 
L 208.961742 151.565705 
L 209.298224 145.317168 
L 209.634706 159.655964 
L 209.971189 160.079151 
L 210.307671 161.862693 
L 210.644154 162.236851 
L 210.980636 158.746841 
L 211.317118 160.102922 
L 211.653601 146.407736 
L 211.990083 146.551554 
L 212.326566 152.140798 
L 212.663048 150.2253 
L 212.99953 149.074669 
L 213.336013 148.416204 
L 213.672495 151.15807 
L 214.008978 144.444726 
L 214.34546 146.778495 
L 214.681943 155.38566 
L 215.018425 154.724741 
L 215.354907 151.046502 
L 215.69139 165.96 
L 216.364355 146.246023 
L 216.700837 157.154777 
L 217.037319 150.432611 
L 217.373802 150.104191 
L 217.710284 156.221225 
L 218.046767 149.561325 
L 218.383249 155.703507 
L 218.719731 148.970939 
L 219.056214 149.747584 
L 219.392696 148.156801 
L 220.065661 142.539457 
L 220.402144 146.521828 
L 220.738626 141.921963 
L 221.075108 147.883091 
L 221.411591 147.779431 
L 221.748073 138.525718 
L 222.084556 141.393218 
L 222.75752 136.736987 
L 223.094003 138.022511 
L 223.766968 148.848088 
L 224.10345 148.347475 
L 224.439932 155.728537 
L 224.776415 155.058959 
L 225.112897 157.548339 
L 225.785862 154.566013 
L 226.122345 154.422749 
L 227.131792 144.01206 
L 227.468274 146.503315 
L 227.804757 142.232839 
L 228.141239 146.184414 
L 228.814204 149.716451 
L 229.150686 143.549262 
L 229.487169 150.425304 
L 229.823651 144.371965 
L 230.160133 136.277236 
L 230.496616 150.041049 
L 230.833098 133.870698 
L 231.506063 145.402932 
L 231.842546 143.3972 
L 232.179028 143.163539 
L 232.51551 156.410219 
L 232.851993 151.426443 
L 233.188475 143.845619 
L 233.524958 146.852694 
L 234.534405 130.577191 
L 234.870887 134.225086 
L 235.20737 133.304397 
L 235.543852 131.319037 
L 236.216817 138.706983 
L 236.553299 137.49647 
L 236.889782 137.735539 
L 237.226264 137.735727 
L 237.562747 142.405454 
L 237.899229 135.646872 
L 238.235711 139.187536 
L 238.572194 131.529232 
L 238.908676 130.478338 
L 239.245159 134.351368 
L 239.581641 126.931586 
L 239.918123 136.14396 
L 240.254606 140.914361 
L 240.591088 127.00126 
L 241.264053 132.316121 
L 241.937018 115.409435 
L 242.2735 121.742437 
L 242.609983 110.969278 
L 242.946465 107.583318 
L 243.61943 134.171588 
L 243.955912 127.701838 
L 244.292395 137.071112 
L 244.96536 126.60022 
L 245.301842 126.132897 
L 245.974807 115.623408 
L 246.311289 114.452453 
L 246.984254 125.256681 
L 247.320736 127.088712 
L 247.657219 132.229223 
L 247.993701 135.268627 
L 248.330184 123.792071 
L 248.666666 131.275487 
L 249.003149 124.141457 
L 249.339631 123.261371 
L 249.676113 124.647642 
L 250.012596 114.323323 
L 250.349078 118.201214 
L 250.685561 115.197631 
L 251.022043 115.508605 
L 251.358525 122.219256 
L 251.695008 110.600582 
L 252.03149 115.287861 
L 252.367973 108.442622 
L 252.704455 96.851475 
L 253.040938 102.484518 
L 253.37742 112.945841 
L 253.713902 109.868073 
L 254.050385 118.101526 
L 254.386867 108.134504 
L 254.72335 104.843393 
L 255.059832 108.890072 
L 255.396314 106.360954 
L 255.732797 115.538669 
L 256.069279 105.147028 
L 256.405762 104.978691 
L 256.742244 100.627001 
L 257.078726 99.981932 
L 257.415209 100.27227 
L 257.751691 104.831959 
L 258.088174 107.193722 
L 258.424656 107.569713 
L 258.761139 109.557618 
L 259.097621 109.925918 
L 259.434103 113.283388 
L 259.770586 112.170043 
L 260.107068 112.873047 
L 260.443551 111.226362 
L 260.780033 114.713757 
L 261.116515 104.431717 
L 261.452998 102.956161 
L 261.78948 102.691739 
L 262.125963 86.708731 
L 262.462445 92.458536 
L 262.798927 93.355651 
L 263.13541 97.094146 
L 263.471892 98.340367 
L 263.808375 98.534618 
L 264.144857 93.737873 
L 264.48134 80.005538 
L 264.817822 86.63769 
L 265.154304 89.031426 
L 265.490787 94.231772 
L 265.827269 94.765865 
L 266.163752 92.607789 
L 266.500234 94.343588 
L 267.173199 102.709722 
L 267.509681 95.020493 
L 267.846164 98.921975 
L 268.519128 85.765261 
L 269.192093 81.200665 
L 269.528576 71.908962 
L 269.865058 68.306881 
L 270.201541 72.504585 
L 271.210988 90.752728 
L 272.220435 63.226977 
L 272.556917 60.797613 
L 272.8934 61.975039 
L 273.229882 59.361046 
L 273.566365 60.145407 
L 273.902847 57.643518 
L 274.239329 59.830438 
L 274.575812 64.326163 
L 275.585259 56.297885 
L 275.921742 50.333115 
L 276.258224 54.891736 
L 276.594706 54.807198 
L 276.931189 60.708008 
L 277.267671 58.515333 
L 277.604154 58.585173 
L 277.940636 57.454509 
L 278.277118 58.276229 
L 278.613601 56.906486 
L 278.950083 58.113082 
L 279.286566 56.026042 
L 279.623048 52.083439 
L 279.95953 53.861558 
L 280.296013 53.559262 
L 280.632495 63.471692 
L 280.968978 66.737636 
L 281.641943 61.283163 
L 281.978425 45.249048 
L 282.314907 37.894173 
L 282.987872 49.988402 
L 283.324355 52.408936 
L 283.660837 51.944317 
L 283.997319 46.535674 
L 284.670284 42.761724 
L 285.006767 41.354395 
L 285.343249 41.267318 
L 285.679731 39.104162 
L 286.016214 41.946882 
L 286.352696 42.950655 
L 286.689179 41.872152 
L 287.025661 42.377899 
L 287.362144 39.546213 
L 288.035108 51.940582 
L 288.371591 50.578756 
L 288.708073 49.871036 
L 289.044556 42.423161 
L 289.381038 44.286731 
L 290.054003 50.522242 
L 290.390485 49.290044 
L 290.726968 52.428035 
L 291.06345 50.148646 
L 291.399932 46.872018 
L 291.736415 46.913685 
L 292.072897 39.864779 
L 292.40938 39.060518 
L 292.745862 39.399644 
L 293.418827 40.923894 
L 293.755309 34.649475 
L 294.428274 47.621163 
L 294.764757 48.395236 
L 295.101239 44.597209 
L 295.437721 38.149191 
L 295.774204 38.038765 
L 296.110686 36.497643 
L 296.447169 31.790329 
L 297.120133 34.179995 
L 297.456616 38.159975 
L 298.129581 27.35642 
L 298.466063 33.031709 
L 298.802546 36.055608 
L 299.139028 35.370746 
L 299.47551 18.905022 
L 299.811993 28.196417 
L 300.148475 44.339784 
L 300.484958 45.564527 
L 300.82144 48.564272 
L 301.494405 35.447132 
L 301.830887 37.321315 
L 302.16737 37.654541 
L 302.503852 37.229089 
L 302.840334 26.217168 
L 303.176817 20.022066 
L 303.849782 33.366826 
L 304.186264 33.094241 
L 304.522747 30.695861 
L 304.859229 29.711508 
L 305.195711 34.130702 
L 305.532194 33.493445 
L 305.868676 33.170604 
L 306.205159 28.934731 
L 306.541641 29.763951 
L 306.878123 33.338225 
L 307.214606 34.538572 
L 307.551088 31.98062 
L 307.887571 31.176547 
L 308.224053 32.380605 
L 308.560535 37.230237 
L 309.2335 35.362579 
L 309.569983 30.918973 
L 309.906465 29.10175 
L 310.242948 30.683319 
L 310.57943 26.167874 
L 310.915912 28.061968 
L 311.588877 25.053846 
L 311.92536 25.0489 
L 312.261842 22.1858 
L 312.598324 25.76402 
L 312.934807 25.776531 
L 313.271289 27.935428 
L 313.607772 26.081875 
L 313.944254 22.264921 
L 314.280736 20.702334 
L 314.617219 20.475198 
L 315.290184 23.678143 
L 315.626666 26.071693 
L 315.963149 32.615618 
L 316.299631 33.296425 
L 316.636113 33.142964 
L 316.972596 26.203336 
L 317.309078 30.854582 
L 317.645561 33.891109 
L 318.655008 47.292978 
L 318.99149 44.436606 
L 319.327973 40.265335 
L 319.664455 31.423024 
L 320.000938 31.48404 
L 321.010385 37.297606 
L 321.346867 36.415474 
L 321.68335 38.216912 
L 322.019832 34.152246 
L 322.356314 37.955829 
L 322.692797 43.793277 
L 323.029279 45.668515 
L 323.365762 43.172556 
L 323.702244 23.677017 
L 324.038726 21.148589 
L 324.375209 28.037751 
L 324.711691 31.241274 
L 325.048174 28.773689 
L 325.384656 33.84287 
L 325.721139 36.353607 
L 326.057621 35.813953 
L 326.394103 34.205799 
L 326.730586 28.532331 
L 327.067068 27.992403 
L 327.403551 29.446135 
L 327.740033 32.808324 
L 328.076515 30.146814 
L 328.412998 34.644466 
L 328.74948 37.58972 
L 329.085963 36.59588 
L 329.758927 30.390025 
L 330.09541 29.25507 
L 330.768375 44.271407 
L 331.104857 46.271474 
L 331.44134 44.694305 
L 332.114304 26.906477 
L 332.450787 28.771814 
L 332.787269 38.29855 
L 333.460234 46.952383 
L 333.796716 48.655272 
L 334.133199 46.92765 
L 334.806164 29.654806 
L 335.479128 26.030432 
L 335.815611 29.703013 
L 336.152093 29.823583 
L 337.161541 42.577528 
L 337.498023 44.899842 
L 337.834505 45.638281 
L 338.170988 45.028515 
L 338.50747 43.981661 
L 338.843953 43.374732 
L 339.180435 41.847568 
L 339.516917 38.399607 
L 339.8534 39.406146 
L 340.189882 42.878926 
L 340.526365 44.0589 
L 340.862847 46.234363 
L 341.535812 47.311709 
L 341.872294 45.928386 
L 342.208777 47.249302 
L 342.545259 41.802588 
L 342.881742 45.309149 
L 343.218224 39.273167 
L 343.554706 41.87681 
L 343.891189 40.509694 
L 344.227671 38.224234 
L 344.564154 45.066353 
L 344.900636 49.108482 
L 345.237118 50.843973 
L 345.573601 53.824095 
L 345.910083 51.930931 
L 346.246566 49.078052 
L 346.583048 50.518772 
L 346.91953 49.845834 
L 347.256013 50.115192 
L 347.592495 51.12556 
L 348.601943 64.865484 
L 348.938425 65.021608 
L 349.947872 53.122283 
L 350.620837 57.005011 
L 350.957319 56.912425 
L 351.293802 56.560514 
L 351.630284 57.460628 
L 351.966767 60.822815 
L 352.303249 61.160305 
L 352.639731 58.217212 
L 352.976214 53.978306 
L 353.312696 51.998643 
L 353.985661 53.00437 
L 354.658626 54.470987 
L 355.668073 63.130306 
L 356.004556 65.43759 
L 356.341038 63.245255 
L 356.67752 69.034825 
L 357.350485 65.891618 
L 357.686968 68.221983 
L 358.02345 61.413669 
L 358.359932 59.70143 
L 358.696415 59.047368 
L 359.032897 57.622114 
L 359.705862 66.582469 
L 360.042345 67.490381 
L 360.378827 74.128907 
L 360.715309 67.761894 
L 361.051792 70.310009 
L 361.388274 68.25908 
L 361.724757 66.903582 
L 362.061239 72.28681 
L 362.397721 69.444389 
L 362.734204 62.900739 
L 363.070686 63.527701 
L 363.407169 63.44669 
L 363.743651 62.456186 
L 364.080133 72.337673 
L 364.416616 66.909705 
L 364.753098 72.230292 
L 365.089581 70.972841 
L 365.426063 76.080484 
L 365.762546 96.448791 
L 365.762546 96.448791 
" clip-path="url(#p0073c7b6da)" style="fill: none; stroke: #1f77b4; stroke-width: 1.5; stroke-linecap: square"/>
   </g>
   <g id="line2d_22">
    <path d="M 53.170385 83.60646 
L 53.506867 82.31074 
L 53.84335 95.77934 
L 54.179832 104.594761 
L 54.516314 98.070853 
L 54.852797 94.609943 
L 55.525762 68.940393 
L 55.862244 58.541129 
L 56.198726 53.158331 
L 56.535209 59.939577 
L 56.871691 62.591981 
L 57.208174 61.665818 
L 57.544656 72.024796 
L 57.881139 74.764694 
L 58.554103 98.682539 
L 58.890586 70.732344 
L 59.227068 75.203725 
L 59.563551 76.300723 
L 60.236515 59.897537 
L 60.572998 56.244449 
L 60.90948 58.861684 
L 61.245963 52.558873 
L 61.582445 63.002158 
L 61.918927 56.692892 
L 62.25541 57.235308 
L 62.591892 57.425548 
L 62.928375 53.681309 
L 63.264857 56.048719 
L 63.60134 52.99271 
L 63.937822 60.225586 
L 64.274304 102.706524 
L 64.610787 92.22075 
L 64.947269 85.645722 
L 65.283752 69.558528 
L 65.620234 47.279529 
L 65.956716 51.396755 
L 66.293199 49.910757 
L 66.629681 57.219355 
L 66.966164 54.097274 
L 67.302646 52.817509 
L 67.639128 54.211421 
L 67.975611 53.875905 
L 68.312093 58.256296 
L 68.648576 49.362554 
L 68.985058 47.779141 
L 69.321541 51.843971 
L 69.658023 47.594031 
L 69.994505 54.202122 
L 70.330988 47.680397 
L 70.66747 49.069909 
L 71.003953 49.36686 
L 71.676917 40.830472 
L 72.0134 48.913307 
L 72.349882 53.956692 
L 72.686365 45.348878 
L 73.022847 44.919096 
L 73.359329 44.047545 
L 73.695812 40.507623 
L 74.032294 46.339062 
L 74.705259 40.891917 
L 75.041742 44.058306 
L 75.378224 45.51843 
L 75.714706 38.903298 
L 76.051189 43.281279 
L 76.387671 41.52665 
L 76.724154 48.535241 
L 77.060636 40.576797 
L 77.397118 36.486547 
L 77.733601 42.380095 
L 78.070083 35.7132 
L 78.406566 34.071413 
L 78.743048 42.14616 
L 79.07953 46.106088 
L 79.416013 48.716053 
L 79.752495 44.259013 
L 80.088978 42.778494 
L 80.42546 50.494243 
L 81.098425 45.308032 
L 81.434907 45.192838 
L 81.77139 40.962795 
L 82.107872 43.296103 
L 82.444355 41.520469 
L 82.780837 44.531216 
L 83.117319 43.285592 
L 83.453802 37.045745 
L 83.790284 32.884953 
L 84.126767 34.220029 
L 84.463249 39.300494 
L 84.799731 46.103869 
L 85.136214 45.873177 
L 85.472696 44.158378 
L 85.809179 36.509826 
L 86.145661 37.845809 
L 86.482144 30.498569 
L 86.818626 31.014427 
L 87.155108 27.059149 
L 87.828073 27.93027 
L 88.164556 27.767768 
L 88.501038 29.288298 
L 88.83752 28.042268 
L 89.174003 34.066584 
L 89.510485 35.026142 
L 89.846968 34.043968 
L 90.18345 36.80988 
L 90.519932 32.116405 
L 90.856415 32.177803 
L 91.192897 31.694218 
L 91.52938 33.102462 
L 91.865862 29.886498 
L 92.202345 28.490625 
L 92.538827 31.12265 
L 92.875309 30.134327 
L 93.211792 30.05215 
L 93.548274 28.226948 
L 94.221239 21.047852 
L 94.557721 20.25858 
L 94.894204 20.882364 
L 95.230686 28.689137 
L 95.567169 29.268605 
L 95.903651 28.259698 
L 96.240133 24.669092 
L 96.576616 23.281025 
L 96.913098 22.408857 
L 97.249581 30.119714 
L 97.586063 31.978799 
L 97.922546 29.923718 
L 98.259028 30.054056 
L 98.59551 28.589197 
L 98.931993 31.660288 
L 99.268475 28.015425 
L 99.604958 26.136038 
L 99.94144 28.312423 
L 100.277922 25.418565 
L 100.614405 27.570928 
L 100.950887 28.73414 
L 101.28737 38.917708 
L 101.623852 34.961195 
L 101.960334 37.165494 
L 102.633299 33.531017 
L 102.969782 30.638995 
L 103.306264 31.663914 
L 103.642747 29.616382 
L 103.979229 30.377319 
L 104.315711 27.017982 
L 104.652194 26.667963 
L 104.988676 23.007143 
L 105.661641 27.471536 
L 105.998123 39.933132 
L 106.334606 34.561241 
L 106.671088 34.495506 
L 107.007571 31.962514 
L 107.344053 27.80652 
L 107.680535 25.396551 
L 108.017018 38.498492 
L 108.3535 30.990241 
L 108.689983 33.642881 
L 109.026465 32.907912 
L 109.69943 38.16153 
L 110.372395 30.807413 
L 110.708877 30.275136 
L 111.381842 24.612202 
L 111.718324 22.731494 
L 112.054807 22.853963 
L 112.391289 31.929411 
L 112.727772 29.198994 
L 113.064254 30.163733 
L 113.400736 29.904784 
L 113.737219 31.533951 
L 114.073701 32.189212 
L 114.410184 36.756249 
L 114.746666 33.182779 
L 115.083149 32.861658 
L 115.756113 27.374042 
L 116.092596 30.471905 
L 116.429078 31.562075 
L 116.765561 42.467906 
L 117.102043 38.813354 
L 117.438525 41.893353 
L 118.11149 27.50091 
L 118.447973 26.393478 
L 118.784455 32.658356 
L 119.120937 31.907671 
L 119.45742 28.523508 
L 120.130385 36.730289 
L 120.466867 36.781833 
L 120.80335 31.540296 
L 121.139832 36.150336 
L 121.476314 29.526679 
L 121.812797 33.103337 
L 122.149279 29.36817 
L 122.485762 30.673957 
L 122.822244 29.444744 
L 123.158726 28.688511 
L 123.831691 38.598924 
L 124.168174 34.649381 
L 124.504656 32.102721 
L 124.841139 34.018814 
L 125.177621 30.833264 
L 125.514103 31.808779 
L 125.850586 38.058082 
L 126.187068 32.755185 
L 126.523551 40.560903 
L 126.860033 35.791119 
L 127.196515 33.685705 
L 127.532998 36.717942 
L 127.86948 37.849193 
L 128.205963 36.047427 
L 128.542445 33.360887 
L 128.878927 37.417246 
L 129.21541 35.798386 
L 129.551892 38.939941 
L 129.888375 37.956822 
L 130.224857 49.058883 
L 130.56134 43.261305 
L 130.897822 40.537225 
L 131.570787 33.242349 
L 131.907269 37.110293 
L 132.243752 33.101532 
L 132.916716 48.869874 
L 133.253199 47.098459 
L 133.589681 50.663083 
L 133.926164 52.391666 
L 134.599128 42.996831 
L 135.272093 49.202709 
L 135.608576 44.607915 
L 135.945058 45.266693 
L 136.281541 43.498014 
L 136.618023 54.294817 
L 136.954505 50.728177 
L 137.290988 51.980756 
L 137.62747 45.82432 
L 137.963953 53.830315 
L 138.300435 50.423943 
L 138.636917 55.706093 
L 138.9734 54.267209 
L 139.309882 55.366771 
L 139.646365 49.408926 
L 139.982847 51.177941 
L 140.319329 52.314123 
L 140.655812 51.297198 
L 140.992294 55.537338 
L 141.328777 52.614707 
L 141.665259 69.053055 
L 142.001742 64.334915 
L 142.338224 51.798366 
L 142.674706 59.557811 
L 143.011189 55.764139 
L 143.347671 49.526003 
L 143.684154 59.564379 
L 144.020636 55.573098 
L 144.357118 61.848556 
L 144.693601 54.826555 
L 145.030083 54.400446 
L 145.366566 47.220256 
L 146.03953 56.668644 
L 146.376013 63.25955 
L 146.712495 83.990238 
L 147.048978 70.843988 
L 147.38546 67.793275 
L 147.721943 62.083583 
L 148.058425 77.392782 
L 148.394907 66.822919 
L 148.73139 74.737264 
L 149.067872 77.680756 
L 149.404355 75.42284 
L 149.740837 69.308856 
L 150.077319 56.805515 
L 150.413802 57.867412 
L 150.750284 62.063355 
L 151.086767 70.114401 
L 151.423249 84.745152 
L 151.759731 86.550498 
L 152.432696 80.442576 
L 152.769179 92.646499 
L 153.105661 71.113399 
L 153.442144 76.601213 
L 153.778626 77.853753 
L 154.115108 95.645131 
L 154.451591 105.621603 
L 154.788073 100.267431 
L 155.124556 102.190859 
L 155.79752 79.080938 
L 156.134003 73.493072 
L 156.470485 92.416111 
L 157.14345 111.813854 
L 157.479932 110.788998 
L 157.816415 112.147563 
L 158.152897 105.326818 
L 158.48938 104.01532 
L 158.825862 108.859258 
L 159.162345 102.584352 
L 159.498827 110.503841 
L 159.835309 109.091684 
L 160.171792 108.729162 
L 160.508274 104.195044 
L 161.181239 116.317917 
L 161.517721 113.912389 
L 161.854204 107.332277 
L 162.190686 114.027018 
L 162.527169 108.425451 
L 162.863651 99.1416 
L 163.200133 107.443169 
L 163.536616 104.050043 
L 163.873098 111.085652 
L 164.209581 120.649472 
L 164.546063 121.597867 
L 164.882546 120.068989 
L 165.219028 123.387868 
L 165.55551 121.150311 
L 166.228475 127.207766 
L 166.564958 118.613937 
L 166.90144 115.91753 
L 167.237922 106.060182 
L 167.574405 110.395606 
L 167.910887 111.137218 
L 168.24737 112.798198 
L 168.583852 120.15068 
L 168.920334 130.262548 
L 169.256817 127.38024 
L 169.593299 126.596578 
L 169.929782 121.538312 
L 170.266264 123.534898 
L 170.602747 123.72589 
L 170.939229 117.252235 
L 171.275711 122.013547 
L 171.612194 118.330862 
L 171.948676 132.211844 
L 172.285159 119.430624 
L 172.621641 130.437515 
L 172.958123 127.839068 
L 173.294606 129.192852 
L 173.631088 132.607242 
L 173.967571 123.649355 
L 174.304053 122.88309 
L 174.640535 116.689712 
L 174.977018 128.073691 
L 175.3135 128.330194 
L 175.649983 125.741703 
L 175.986465 133.117545 
L 176.322948 128.198254 
L 176.65943 127.200569 
L 176.995912 118.932757 
L 177.332395 122.051327 
L 177.668877 129.738023 
L 178.00536 129.124616 
L 178.678324 116.630568 
L 179.351289 133.197768 
L 179.687772 126.38189 
L 180.024254 134.322845 
L 180.360736 134.35848 
L 180.697219 135.905008 
L 181.033701 138.301176 
L 181.370184 136.62917 
L 181.706666 136.927364 
L 182.379631 127.952128 
L 182.716113 135.222091 
L 183.052596 133.678665 
L 183.389078 128.833479 
L 183.725561 135.587872 
L 184.062043 134.365903 
L 184.398525 121.032449 
L 184.735008 124.390974 
L 185.07149 130.356166 
L 185.407973 133.781113 
L 185.744455 128.520782 
L 186.080938 128.060727 
L 186.753902 145.922972 
L 187.090385 137.183797 
L 187.426867 140.889597 
L 187.76335 139.617912 
L 188.099832 136.483211 
L 188.436314 139.951286 
L 188.772797 138.338389 
L 189.109279 134.033834 
L 189.445762 137.765477 
L 189.782244 137.658512 
L 190.118726 141.751865 
L 190.455209 142.643687 
L 190.791691 143.055941 
L 191.128174 147.04025 
L 191.801139 136.518236 
L 192.137621 147.723831 
L 192.810586 130.608058 
L 193.147068 137.079489 
L 193.483551 138.131031 
L 193.820033 138.13733 
L 194.156515 146.653018 
L 194.492998 150.493759 
L 194.82948 151.530009 
L 195.165963 149.204827 
L 195.502445 143.721939 
L 195.838927 143.061333 
L 196.17541 136.130042 
L 196.511892 135.26983 
L 196.848375 135.693517 
L 197.184857 147.120395 
L 197.52134 142.252782 
L 197.857822 139.57444 
L 198.194304 134.275826 
L 198.530787 138.128835 
L 198.867269 144.450212 
L 199.203752 138.180075 
L 199.540234 138.72523 
L 200.213199 146.157399 
L 200.549681 140.052711 
L 200.886164 140.348849 
L 201.222646 142.011853 
L 201.559128 145.193316 
L 201.895611 144.570149 
L 202.232093 144.750929 
L 202.568576 152.356705 
L 202.905058 155.139425 
L 203.241541 152.036552 
L 203.578023 142.607216 
L 203.914505 145.84192 
L 204.250988 139.601236 
L 204.58747 140.716725 
L 204.923953 151.939371 
L 205.260435 150.377667 
L 205.596917 142.155577 
L 205.9334 143.463928 
L 206.269882 144.209955 
L 206.606365 143.878042 
L 206.942847 138.514559 
L 207.615812 156.058426 
L 207.952294 148.253936 
L 208.288777 152.37485 
L 208.625259 151.424669 
L 208.961742 148.728963 
L 209.298224 139.387955 
L 209.634706 146.937239 
L 209.971189 150.329756 
L 210.307671 144.208728 
L 210.644154 154.91643 
L 211.317118 159.962496 
L 211.990083 150.292614 
L 212.326566 153.286998 
L 212.663048 141.360866 
L 212.99953 140.852009 
L 213.336013 148.370395 
L 213.672495 151.420192 
L 214.34546 140.646449 
L 214.681943 145.66832 
L 215.018425 143.10704 
L 215.354907 145.442411 
L 215.69139 152.500484 
L 216.027872 152.846127 
L 216.364355 145.760485 
L 216.700837 160.97613 
L 217.037319 153.940907 
L 217.373802 142.222501 
L 217.710284 147.103336 
L 218.046767 147.645842 
L 218.719731 152.875087 
L 219.056214 143.637918 
L 219.392696 149.933358 
L 219.729179 144.679653 
L 220.065661 147.712766 
L 220.402144 142.988056 
L 220.738626 141.528581 
L 221.075108 137.611797 
L 221.411591 145.181063 
L 221.748073 140.499599 
L 222.084556 146.324676 
L 222.421038 143.738342 
L 222.75752 134.416448 
L 223.430485 137.119475 
L 223.766968 137.691427 
L 224.10345 136.320959 
L 224.776415 148.895772 
L 225.112897 147.7504 
L 225.44938 151.787153 
L 225.785862 149.926879 
L 226.122345 153.915385 
L 226.795309 149.532333 
L 227.468274 146.351745 
L 228.141239 139.339294 
L 228.477721 143.53983 
L 228.814204 140.693727 
L 229.150686 144.402231 
L 229.487169 144.69143 
L 229.823651 147.834523 
L 230.160133 138.909043 
L 230.496616 146.496697 
L 230.833098 140.936453 
L 231.169581 133.240271 
L 231.506063 146.298958 
L 231.842546 132.723803 
L 232.851993 145.677643 
L 233.188475 140.681817 
L 233.524958 153.435254 
L 233.86144 148.664924 
L 234.197922 139.442805 
L 234.534405 138.149395 
L 234.870887 137.590026 
L 235.20737 133.924071 
L 235.543852 127.677433 
L 235.880334 131.799082 
L 236.216817 134.246607 
L 236.553299 132.833331 
L 236.889782 133.269146 
L 237.226264 137.509552 
L 237.562747 137.614923 
L 237.899229 136.566857 
L 238.235711 134.550052 
L 238.572194 141.1343 
L 238.908676 134.654985 
L 239.245159 137.343845 
L 239.581641 126.515409 
L 239.918123 128.502215 
L 240.254606 134.499914 
L 240.591088 129.570738 
L 241.264053 140.340652 
L 241.600535 125.578372 
L 241.937018 123.842092 
L 242.2735 130.680264 
L 242.609983 128.204459 
L 242.946465 113.478393 
L 243.282948 111.986453 
L 243.61943 114.011876 
L 243.955912 115.120574 
L 244.292395 125.486747 
L 244.628877 139.607011 
L 244.96536 129.986532 
L 245.301842 133.901245 
L 245.638324 127.786649 
L 245.974807 126.734801 
L 246.311289 125.142737 
L 246.647772 121.428183 
L 246.984254 113.689348 
L 247.320736 114.481264 
L 247.657219 128.352473 
L 247.993701 133.076323 
L 248.330184 128.629513 
L 248.666666 127.553589 
L 249.003149 134.455747 
L 249.339631 125.083785 
L 249.676113 131.110586 
L 250.012596 121.446906 
L 250.349078 123.618691 
L 250.685561 124.695467 
L 251.022043 116.175926 
L 251.358525 117.531431 
L 251.695008 116.229426 
L 252.03149 119.787056 
L 252.367973 126.316374 
L 252.704455 111.730169 
L 253.040938 110.038208 
L 253.713902 101.495044 
L 254.386867 121.491687 
L 254.72335 114.762263 
L 255.059832 117.278652 
L 255.396314 102.349109 
L 255.732797 111.774565 
L 256.069279 114.638034 
L 256.405762 113.741555 
L 256.742244 116.748637 
L 257.078726 103.219603 
L 257.415209 106.666532 
L 257.751691 104.144402 
L 258.088174 108.671131 
L 258.424656 104.188499 
L 258.761139 110.909908 
L 259.097621 111.762269 
L 259.434103 113.339401 
L 259.770586 111.899812 
L 260.107068 112.841012 
L 260.443551 117.076176 
L 260.780033 116.64869 
L 261.116515 115.333704 
L 261.452998 111.907753 
L 261.78948 117.508142 
L 262.125963 107.197848 
L 262.462445 103.270946 
L 262.798927 106.128682 
L 263.13541 86.143026 
L 263.471892 101.084318 
L 263.808375 99.049367 
L 264.144857 109.491834 
L 264.48134 102.235062 
L 264.817822 100.822233 
L 265.490787 78.384952 
L 265.827269 99.086531 
L 266.163752 97.592529 
L 266.500234 97.772923 
L 266.836716 99.030976 
L 267.173199 101.531374 
L 267.509681 100.005139 
L 267.846164 107.16187 
L 268.182646 108.795097 
L 268.519128 97.44244 
L 268.855611 96.867416 
L 269.192093 99.097587 
L 269.528576 91.603202 
L 269.865058 76.736884 
L 270.201541 80.896599 
L 270.538023 65.47938 
L 270.874505 58.865396 
L 271.54747 90.565223 
L 271.883953 86.63922 
L 272.220435 94.28125 
L 272.8934 58.976156 
L 273.229882 52.507547 
L 273.566365 62.819672 
L 273.902847 55.552327 
L 274.239329 52.705473 
L 274.575812 56.406108 
L 274.912294 54.343173 
L 275.585259 60.219858 
L 275.921742 51.533938 
L 276.258224 54.57188 
L 276.594706 45.236318 
L 276.931189 53.371432 
L 277.267671 50.066828 
L 277.604154 55.616171 
L 277.940636 56.676786 
L 278.277118 53.396298 
L 278.613601 51.87022 
L 278.950083 56.507532 
L 279.286566 53.746778 
L 279.623048 52.56614 
L 279.95953 54.910991 
L 280.296013 48.038215 
L 280.632495 49.365805 
L 280.968978 52.711467 
L 281.30546 50.383292 
L 281.641943 67.506256 
L 282.314907 53.752022 
L 282.65139 43.660579 
L 282.987872 37.207927 
L 283.660837 48.081453 
L 283.997319 48.625795 
L 284.333802 48.723 
L 284.670284 43.777062 
L 285.006767 42.707804 
L 285.343249 42.972465 
L 285.679731 38.523873 
L 286.016214 39.864982 
L 286.352696 39.046249 
L 286.689179 39.281161 
L 287.025661 42.852872 
L 287.362144 39.439459 
L 287.698626 40.36511 
L 288.035108 39.392752 
L 288.371591 37.96616 
L 288.708073 53.44281 
L 289.381038 42.449034 
L 289.71752 42.662605 
L 290.054003 45.390014 
L 290.390485 40.992912 
L 290.726968 49.115585 
L 291.06345 47.15495 
L 291.736415 49.156603 
L 292.072897 42.648843 
L 292.40938 46.670201 
L 292.745862 38.191515 
L 293.082345 36.52272 
L 293.418827 40.650222 
L 293.755309 39.110883 
L 294.091792 38.545848 
L 294.428274 34.001395 
L 294.764757 38.870048 
L 295.101239 46.298489 
L 295.437721 45.950493 
L 295.774204 39.997274 
L 296.110686 37.970177 
L 296.447169 40.139631 
L 296.783651 34.170009 
L 297.120133 31.442677 
L 297.456616 37.291144 
L 297.793098 31.620223 
L 298.129581 38.554483 
L 298.802546 28.24793 
L 299.139028 37.01029 
L 299.811993 32.150867 
L 300.148475 25.58667 
L 300.484958 24.670967 
L 300.82144 43.213652 
L 301.157922 43.070334 
L 301.494405 43.508141 
L 301.830887 41.551883 
L 302.16737 33.898158 
L 302.503852 41.227128 
L 302.840334 36.122352 
L 303.513299 30.841664 
L 303.849782 24.044729 
L 304.186264 27.747724 
L 304.522747 32.911053 
L 304.859229 32.241827 
L 305.532194 29.630206 
L 305.868676 36.195082 
L 306.205159 31.971758 
L 306.541641 32.352317 
L 307.214606 29.559797 
L 307.551088 34.775867 
L 307.887571 33.245561 
L 308.224053 31.190644 
L 308.560535 34.024987 
L 308.897018 29.999792 
L 309.2335 38.76102 
L 309.569983 34.888255 
L 309.906465 33.222407 
L 310.242948 33.3356 
L 310.57943 29.756738 
L 310.915912 31.880368 
L 311.252395 27.644814 
L 311.588877 31.380959 
L 311.92536 26.943572 
L 312.261842 27.088672 
L 312.598324 27.533591 
L 312.934807 24.353831 
L 313.271289 29.584303 
L 313.607772 25.849519 
L 313.944254 30.590655 
L 314.617219 24.88299 
L 314.953701 24.933863 
L 315.290184 23.307235 
L 315.626666 24.762459 
L 315.963149 25.665917 
L 316.299631 25.374929 
L 316.636113 36.383255 
L 316.972596 31.563958 
L 317.309078 33.166767 
L 317.645561 27.368212 
L 317.982043 36.318379 
L 318.318525 30.56936 
L 318.655008 38.028973 
L 318.99149 40.049404 
L 319.327973 46.833555 
L 320.33742 33.281828 
L 320.673902 33.171667 
L 321.010385 32.685675 
L 321.346867 33.06614 
L 321.68335 38.880347 
L 322.019832 34.574151 
L 322.356314 36.363304 
L 322.692797 34.59139 
L 323.029279 35.137897 
L 323.702244 46.231057 
L 324.375209 29.610427 
L 324.711691 26.413445 
L 325.048174 25.742984 
L 325.384656 33.022183 
L 325.721139 29.113198 
L 326.394103 37.858804 
L 326.730586 33.391997 
L 327.067068 34.074672 
L 327.403551 30.342239 
L 327.740033 29.016322 
L 328.076515 29.412501 
L 328.412998 33.617586 
L 328.74948 30.269002 
L 329.085963 32.493087 
L 329.422445 39.974245 
L 329.758927 34.092387 
L 330.09541 32.983072 
L 330.431892 32.785334 
L 330.768375 29.415088 
L 331.104857 34.258758 
L 331.44134 41.596043 
L 331.777822 45.86544 
L 332.114304 39.84722 
L 332.450787 37.096226 
L 332.787269 28.435048 
L 333.123752 37.131235 
L 333.460234 31.819157 
L 334.133199 45.713511 
L 334.469681 47.438687 
L 335.142646 36.438761 
L 335.815611 28.993972 
L 336.152093 27.532911 
L 336.488576 31.620864 
L 336.825058 29.151208 
L 337.161541 34.488598 
L 337.498023 35.411592 
L 338.170988 44.337377 
L 338.50747 43.43077 
L 338.843953 41.385379 
L 339.180435 43.168047 
L 339.516917 43.09899 
L 339.8534 38.716751 
L 340.189882 36.495088 
L 340.526365 37.328012 
L 340.862847 43.138477 
L 341.199329 41.55504 
L 341.872294 44.725649 
L 342.208777 46.379267 
L 342.545259 41.340798 
L 342.881742 47.062794 
L 343.218224 39.708247 
L 343.554706 43.025557 
L 343.891189 38.982678 
L 344.227671 39.351945 
L 344.564154 41.553665 
L 344.900636 35.524004 
L 345.237118 41.130494 
L 345.573601 48.777069 
L 345.910083 46.756926 
L 346.246566 48.970712 
L 346.583048 52.370043 
L 346.91953 44.423688 
L 347.256013 45.94017 
L 347.592495 51.270746 
L 347.928978 46.219922 
L 348.26546 45.138254 
L 348.938425 57.463074 
L 349.274907 58.386918 
L 349.61139 57.939039 
L 349.947872 59.747158 
L 350.284355 52.470796 
L 350.620837 48.152643 
L 350.957319 50.237638 
L 351.293802 56.556162 
L 351.630284 52.080094 
L 351.966767 51.172909 
L 352.303249 53.527425 
L 352.639731 56.766513 
L 352.976214 57.760869 
L 353.312696 53.051358 
L 353.649179 50.452638 
L 353.985661 49.359733 
L 354.322144 50.588564 
L 354.658626 48.87382 
L 354.995108 51.110752 
L 355.331591 49.629568 
L 355.668073 53.916947 
L 356.004556 54.30446 
L 356.341038 59.174565 
L 356.67752 58.024366 
L 357.014003 60.252919 
L 357.350485 53.587996 
L 357.686968 73.996027 
L 358.02345 59.976307 
L 358.359932 57.169057 
L 358.696415 65.953343 
L 359.032897 54.753653 
L 359.36938 52.66204 
L 359.705862 54.221025 
L 360.378827 59.498095 
L 360.715309 60.787159 
L 361.051792 60.88367 
L 361.388274 78.713747 
L 361.724757 58.662322 
L 362.061239 61.987523 
L 362.397721 67.07151 
L 362.734204 63.665171 
L 363.070686 65.255481 
L 363.743651 55.60048 
L 364.080133 59.872233 
L 364.416616 59.235736 
L 364.753098 56.343857 
L 365.089581 76.543264 
L 365.426063 57.531697 
L 365.762546 69.425035 
L 366.099028 68.917784 
L 366.43551 83.190548 
L 366.771993 112.909084 
L 366.771993 112.909084 
" clip-path="url(#p0073c7b6da)" style="fill: none; stroke-dasharray: 5.55,2.4; stroke-dashoffset: 0; stroke: #bf00bf; stroke-width: 1.5"/>
   </g>
   <g id="line2d_23">
    <path d="M 57.208174 100.37769 
L 57.544656 95.749649 
L 57.881139 115.457134 
L 58.217621 118.931336 
L 58.890586 114.901023 
L 59.563551 47.682484 
L 59.900033 43.306902 
L 60.236515 40.802605 
L 60.90948 44.822845 
L 61.245963 44.623747 
L 61.918927 53.549642 
L 62.25541 107.838838 
L 62.591892 116.637911 
L 62.928375 51.307185 
L 63.264857 51.289157 
L 63.60134 55.469759 
L 63.937822 47.937182 
L 64.274304 43.940096 
L 64.610787 41.771924 
L 64.947269 42.45409 
L 65.283752 40.933115 
L 65.620234 43.993594 
L 65.956716 42.668286 
L 66.293199 42.206535 
L 66.629681 42.198525 
L 66.966164 41.055568 
L 67.302646 41.427937 
L 67.639128 40.745395 
L 67.975611 42.851919 
L 68.312093 116.837832 
L 68.648576 115.51251 
L 68.985058 109.443189 
L 69.321541 47.462388 
L 69.658023 39.085978 
L 69.994505 38.910808 
L 70.330988 39.16796 
L 70.66747 41.558674 
L 71.003953 41.440393 
L 71.340435 40.508444 
L 72.0134 40.777184 
L 72.349882 42.250421 
L 73.022847 38.234526 
L 73.359329 39.18112 
L 73.695812 38.635722 
L 74.032294 40.311737 
L 74.368777 38.939995 
L 74.705259 38.46031 
L 75.041742 38.793427 
L 75.378224 37.544513 
L 75.714706 35.769285 
L 76.051189 37.513388 
L 76.387671 40.498871 
L 76.724154 38.269425 
L 77.060636 36.957652 
L 77.397118 36.320082 
L 77.733601 35.424799 
L 78.070083 36.978181 
L 78.406566 36.660623 
L 78.743048 35.558747 
L 79.07953 36.132011 
L 79.416013 37.052309 
L 79.752495 35.153143 
L 80.088978 35.645011 
L 80.42546 35.676222 
L 80.761943 37.797586 
L 81.098425 36.010441 
L 81.434907 33.488146 
L 81.77139 34.849925 
L 82.107872 33.9053 
L 82.444355 32.453491 
L 83.453802 38.624071 
L 84.126767 36.095736 
L 84.463249 38.338654 
L 84.799731 38.706318 
L 85.136214 37.612148 
L 85.472696 37.035031 
L 85.809179 35.609565 
L 86.145661 35.90407 
L 86.482144 35.763393 
L 86.818626 36.473379 
L 87.155108 36.471746 
L 87.828073 31.825252 
L 88.164556 31.904819 
L 88.83752 36.988808 
L 89.174003 37.627745 
L 89.510485 36.946344 
L 89.846968 33.563556 
L 90.18345 33.331216 
L 90.519932 31.552338 
L 90.856415 31.385124 
L 91.192897 30.772451 
L 92.538827 31.142288 
L 92.875309 30.976558 
L 93.548274 32.851429 
L 93.884757 32.606046 
L 94.221239 33.181021 
L 94.557721 31.862582 
L 94.894204 31.602437 
L 95.230686 31.56599 
L 95.567169 31.779701 
L 96.240133 30.966493 
L 96.576616 31.352975 
L 96.913098 31.383389 
L 97.249581 31.255098 
L 97.586063 30.956756 
L 98.259028 29.729997 
L 98.59551 29.653766 
L 98.931993 29.784659 
L 99.268475 30.927717 
L 99.604958 31.267867 
L 99.94144 30.951083 
L 100.277922 30.335245 
L 100.950887 30.027292 
L 101.28737 31.109311 
L 101.623852 31.731916 
L 101.960334 31.279729 
L 102.633299 31.05947 
L 102.969782 31.469973 
L 103.642747 30.546049 
L 103.979229 30.93139 
L 104.315711 30.568016 
L 104.988676 31.103286 
L 105.325159 33.54148 
L 105.661641 33.416464 
L 105.998123 33.508558 
L 106.334606 33.166713 
L 107.007571 31.396595 
L 107.344053 31.454423 
L 107.680535 31.270086 
L 108.017018 31.31577 
L 108.3535 30.776077 
L 108.689983 30.676372 
L 109.026465 30.109508 
L 109.69943 30.913112 
L 110.035912 33.803235 
L 110.372395 33.359621 
L 111.381842 30.892396 
L 111.718324 30.472976 
L 112.054807 33.104923 
L 112.391289 31.451055 
L 113.064254 31.989708 
L 113.737219 33.789505 
L 114.073701 32.943374 
L 114.410184 31.387398 
L 114.746666 31.266085 
L 115.756113 30.037529 
L 116.092596 30.100576 
L 116.429078 31.382373 
L 117.438525 31.249612 
L 118.11149 31.668954 
L 118.447973 33.023309 
L 119.793902 30.808507 
L 120.466867 31.58523 
L 120.80335 34.906947 
L 121.139832 35.017749 
L 121.476314 35.433895 
L 121.812797 32.032453 
L 122.149279 30.801209 
L 122.485762 30.688539 
L 122.822244 31.607235 
L 123.158726 31.739183 
L 123.495209 30.961249 
L 123.831691 31.471966 
L 124.168174 33.295761 
L 124.504656 33.834923 
L 124.841139 31.505733 
L 125.177621 32.357771 
L 125.514103 31.388906 
L 125.850586 31.721577 
L 126.187068 31.239876 
L 126.523551 31.311839 
L 127.196515 31.031471 
L 127.532998 31.713153 
L 127.86948 33.939043 
L 128.205963 33.176074 
L 128.542445 31.625388 
L 128.878927 31.857065 
L 129.21541 31.547579 
L 129.551892 31.553057 
L 129.888375 33.366623 
L 130.224857 32.32438 
L 130.56134 34.212691 
L 130.897822 33.808088 
L 131.234304 32.281041 
L 131.907269 33.838869 
L 132.243752 33.57881 
L 132.580234 32.177389 
L 132.916716 33.083043 
L 133.253199 33.359973 
L 133.589681 34.208315 
L 133.926164 34.171251 
L 134.262646 37.530048 
L 134.599128 37.096766 
L 135.608576 32.02653 
L 135.945058 33.093795 
L 136.281541 32.426164 
L 136.618023 34.873868 
L 136.954505 38.216349 
L 137.290988 38.360409 
L 137.963953 39.970118 
L 138.300435 38.546121 
L 138.636917 36.633796 
L 138.9734 36.755702 
L 139.309882 38.423551 
L 139.646365 37.520171 
L 139.982847 37.092827 
L 140.319329 36.442668 
L 140.655812 39.803044 
L 140.992294 40.078537 
L 141.328777 39.987459 
L 141.665259 38.095654 
L 142.001742 39.639956 
L 142.338224 39.820189 
L 142.674706 41.10687 
L 143.347671 41.295239 
L 143.684154 39.594702 
L 144.020636 39.252825 
L 144.357118 39.951762 
L 144.693601 39.865592 
L 145.030083 41.076089 
L 145.366566 40.620308 
L 145.703048 46.293737 
L 146.03953 46.00786 
L 146.376013 40.943235 
L 146.712495 42.108338 
L 147.048978 41.849506 
L 147.38546 39.679442 
L 147.721943 42.138978 
L 148.058425 41.961269 
L 148.394907 43.991265 
L 148.73139 41.975077 
L 149.067872 40.876913 
L 149.404355 38.689134 
L 149.740837 39.050469 
L 150.077319 41.530729 
L 150.413802 44.856526 
L 150.750284 105.214164 
L 151.086767 50.367366 
L 151.423249 46.654619 
L 151.759731 44.373777 
L 152.096214 56.960031 
L 152.432696 47.274371 
L 152.769179 51.750877 
L 153.105661 61.12018 
L 153.442144 55.788442 
L 154.115108 42.621711 
L 154.451591 42.061787 
L 154.788073 44.175476 
L 155.124556 48.480125 
L 155.461038 106.92411 
L 155.79752 110.471442 
L 156.134003 104.449209 
L 156.470485 84.61914 
L 156.806968 113.543871 
L 157.14345 50.868971 
L 157.479932 54.474801 
L 157.816415 61.885337 
L 158.152897 115.281492 
L 158.48938 119.147353 
L 158.825862 117.922289 
L 159.162345 118.178421 
L 159.498827 113.51032 
L 159.835309 72.144245 
L 160.171792 51.149817 
L 160.508274 113.172696 
L 161.181239 121.339668 
L 161.854204 122.217424 
L 162.190686 120.051139 
L 162.527169 118.992465 
L 162.863651 120.291665 
L 163.200133 118.834179 
L 163.536616 121.044862 
L 164.209581 120.924751 
L 164.546063 119.429173 
L 165.219028 123.252552 
L 165.55551 123.100798 
L 165.891993 121.062788 
L 166.228475 122.311112 
L 166.564958 120.936209 
L 166.90144 117.691863 
L 167.237922 119.674804 
L 167.574405 119.081641 
L 167.910887 121.229632 
L 168.24737 124.644493 
L 168.583852 125.728895 
L 168.920334 125.613725 
L 169.256817 126.38175 
L 169.593299 125.742727 
L 170.266264 127.787383 
L 170.602747 125.414838 
L 170.939229 124.084037 
L 171.275711 120.491996 
L 171.948676 121.531436 
L 172.285159 122.317957 
L 172.621641 124.773346 
L 172.958123 128.300319 
L 173.294606 128.33575 
L 173.631088 128.160924 
L 173.967571 126.304824 
L 174.640535 126.545182 
L 174.977018 124.725404 
L 175.3135 125.781174 
L 175.649983 124.716972 
L 175.986465 128.880921 
L 176.322948 125.92493 
L 176.65943 128.763313 
L 176.995912 128.293583 
L 177.332395 128.730039 
L 177.668877 129.961877 
L 178.00536 127.357617 
L 178.341842 126.617005 
L 178.678324 124.362967 
L 179.014807 127.389899 
L 179.351289 128.234974 
L 179.687772 127.864778 
L 180.024254 129.934519 
L 180.360736 128.650518 
L 180.697219 128.261559 
L 181.033701 125.591508 
L 181.370184 125.788215 
L 181.706666 128.187345 
L 182.043149 128.733961 
L 182.379631 127.010387 
L 182.716113 124.681189 
L 183.052596 126.407905 
L 183.389078 129.391997 
L 183.725561 128.350363 
L 184.062043 130.563414 
L 184.398525 130.650171 
L 184.735008 131.288592 
L 185.07149 132.2656 
L 185.407973 131.870436 
L 185.744455 131.885901 
L 186.41742 128.710729 
L 186.753902 130.540018 
L 187.090385 130.496366 
L 187.426867 129.23852 
L 187.76335 130.910823 
L 188.099832 130.722134 
L 188.436314 126.831115 
L 188.772797 126.947309 
L 189.445762 130.14172 
L 189.782244 129.182529 
L 190.118726 128.655934 
L 190.791691 134.481495 
L 191.128174 132.801284 
L 191.464656 133.482521 
L 191.801139 132.818538 
L 192.137621 131.842851 
L 192.474103 132.838848 
L 192.810586 132.453648 
L 193.147068 131.130497 
L 193.483551 131.939477 
L 193.820033 131.993538 
L 194.156515 133.406642 
L 194.492998 134.017619 
L 194.82948 134.260994 
L 195.165963 135.498857 
L 195.502445 134.178379 
L 195.838927 132.28548 
L 196.17541 135.150081 
L 196.848375 130.256164 
L 197.184857 131.460128 
L 197.857822 132.357413 
L 198.194304 135.090104 
L 198.530787 136.707003 
L 198.867269 137.511459 
L 199.203752 136.976173 
L 199.540234 135.025783 
L 199.876716 134.306615 
L 200.213199 132.004002 
L 200.549681 131.329821 
L 200.886164 131.264414 
L 201.222646 134.78623 
L 201.559128 134.211786 
L 201.895611 133.402696 
L 202.232093 131.338878 
L 202.568576 131.893036 
L 202.905058 134.071383 
L 203.241541 132.837707 
L 203.578023 132.797486 
L 203.914505 133.534964 
L 204.250988 134.948701 
L 204.58747 133.613508 
L 204.923953 133.387098 
L 205.260435 133.610405 
L 205.596917 134.679984 
L 206.269882 135.00248 
L 206.606365 137.242179 
L 206.942847 138.581303 
L 207.279329 138.103892 
L 207.615812 135.051313 
L 207.952294 135.127786 
L 208.288777 133.139589 
L 208.625259 133.297012 
L 208.961742 136.753882 
L 209.298224 137.040791 
L 209.634706 134.826592 
L 209.971189 134.505619 
L 210.307671 134.388776 
L 210.644154 134.488466 
L 210.980636 133.023052 
L 211.317118 135.177338 
L 211.653601 138.317407 
L 211.990083 136.881993 
L 212.326566 137.930332 
L 212.663048 137.469737 
L 212.99953 136.603843 
L 213.336013 133.686323 
L 214.008978 136.499559 
L 214.34546 135.203446 
L 214.681943 138.261127 
L 215.354907 140.635915 
L 215.69139 139.41915 
L 216.027872 137.577554 
L 216.364355 137.949039 
L 216.700837 134.392723 
L 217.037319 133.636599 
L 217.710284 137.003071 
L 218.046767 136.030306 
L 218.383249 134.017252 
L 218.719731 134.813283 
L 219.056214 134.202361 
L 219.392696 135.07235 
L 219.729179 137.37837 
L 220.065661 137.93806 
L 220.402144 136.024594 
L 220.738626 140.127464 
L 221.075108 138.718088 
L 221.411591 135.083845 
L 221.748073 135.716609 
L 222.084556 135.609784 
L 222.75752 137.948641 
L 223.094003 135.287585 
L 223.430485 136.566373 
L 223.766968 135.075077 
L 224.10345 135.877915 
L 224.439932 134.606363 
L 224.776415 133.832024 
L 225.112897 132.425063 
L 225.44938 134.404999 
L 225.785862 133.476269 
L 226.122345 135.205251 
L 226.458827 134.673787 
L 226.795309 131.707957 
L 227.131792 131.421939 
L 227.468274 131.586801 
L 227.804757 132.009464 
L 228.141239 131.822041 
L 228.814204 135.850057 
L 229.150686 136.155111 
L 229.487169 137.517445 
L 229.823651 137.051943 
L 230.160133 138.172862 
L 230.496616 137.69524 
L 231.506063 135.622819 
L 232.179028 133.077566 
L 232.51551 134.049377 
L 232.851993 133.419091 
L 233.188475 134.562454 
L 233.524958 134.83003 
L 233.86144 135.8543 
L 234.197922 133.377166 
L 234.534405 135.118315 
L 234.870887 133.651799 
L 235.20737 131.158926 
L 235.543852 134.545496 
L 235.880334 130.969792 
L 236.216817 131.856644 
L 236.889782 134.767092 
L 237.226264 133.84459 
L 237.562747 137.424397 
L 237.899229 136.576133 
L 238.235711 133.798563 
L 238.572194 132.650824 
L 238.908676 131.919699 
L 239.245159 130.862944 
L 239.581641 128.868035 
L 240.254606 130.383259 
L 240.591088 130.347828 
L 240.927571 130.540729 
L 241.264053 131.711247 
L 241.600535 132.004455 
L 241.937018 131.870616 
L 242.2735 131.167928 
L 242.609983 132.92537 
L 242.946465 131.355 
L 243.282948 131.978902 
L 243.61943 128.662592 
L 243.955912 128.480975 
L 244.292395 130.216294 
L 244.628877 129.238841 
L 245.301842 132.681417 
L 245.638324 128.598763 
L 245.974807 127.278698 
L 246.311289 128.62827 
L 246.647772 128.321121 
L 246.984254 124.322316 
L 247.320736 122.481155 
L 247.657219 122.24683 
L 247.993701 123.022845 
L 248.330184 126.64656 
L 248.666666 131.670791 
L 249.003149 129.902847 
L 249.339631 130.785956 
L 249.676113 128.670219 
L 250.349078 127.356906 
L 250.685561 126.0834 
L 251.022043 123.506426 
L 251.358525 123.040807 
L 252.03149 129.770946 
L 252.704455 128.581157 
L 253.040938 130.176002 
L 253.37742 127.777138 
L 253.713902 129.342555 
L 254.050385 126.49935 
L 254.386867 126.568634 
L 254.72335 126.866522 
L 255.059832 124.386927 
L 255.396314 124.366031 
L 255.732797 123.733158 
L 256.069279 124.789608 
L 256.405762 127.131825 
L 256.742244 123.259499 
L 257.078726 121.79159 
L 257.751691 118.028512 
L 258.424656 125.022449 
L 258.761139 123.863402 
L 259.097621 124.318909 
L 259.434103 119.357668 
L 260.107068 122.659783 
L 260.443551 122.910988 
L 260.780033 123.951221 
L 261.116515 119.662395 
L 261.452998 119.731448 
L 261.78948 119.014504 
L 262.125963 120.359147 
L 262.462445 119.460226 
L 262.798927 121.198096 
L 263.471892 122.536662 
L 263.808375 122.275511 
L 264.144857 122.393375 
L 264.48134 123.692804 
L 264.817822 123.895137 
L 265.154304 123.630256 
L 265.490787 122.426747 
L 265.827269 123.783155 
L 266.500234 119.045557 
L 266.836716 119.41752 
L 267.173199 111.804752 
L 267.509681 117.000377 
L 267.846164 117.119255 
L 268.182646 120.287324 
L 268.855611 117.848374 
L 269.192093 111.605449 
L 269.528576 61.835941 
L 269.865058 116.269583 
L 270.201541 116.829724 
L 270.538023 116.645587 
L 270.874505 116.740535 
L 271.210988 117.712364 
L 271.54747 117.489905 
L 271.883953 119.660679 
L 272.220435 120.684492 
L 272.556917 117.103777 
L 272.8934 115.905738 
L 273.229882 116.474452 
L 273.566365 114.197136 
L 273.902847 60.635898 
L 274.239329 77.136698 
L 274.575812 46.324237 
L 274.912294 43.342419 
L 275.248777 49.57078 
L 275.585259 112.983866 
L 275.921742 111.696693 
L 276.258224 114.466209 
L 276.594706 52.432567 
L 276.931189 43.438522 
L 277.267671 40.58487 
L 277.604154 43.736434 
L 278.277118 40.654278 
L 278.613601 41.272804 
L 278.950083 41.153187 
L 279.623048 43.485956 
L 279.95953 40.679331 
L 280.296013 40.575266 
L 280.632495 38.035592 
L 280.968978 39.502186 
L 281.30546 39.637924 
L 281.978425 41.993715 
L 282.65139 40.108365 
L 282.987872 41.25594 
L 283.324355 41.099462 
L 283.660837 40.425923 
L 283.997319 40.896699 
L 284.333802 39.053181 
L 284.670284 38.607754 
L 285.006767 39.854542 
L 285.343249 39.633399 
L 285.679731 45.609758 
L 286.016214 44.920464 
L 287.025661 33.737077 
L 287.362144 34.863366 
L 287.698626 37.857539 
L 288.035108 38.786644 
L 288.371591 38.699254 
L 288.708073 37.053004 
L 289.044556 35.975072 
L 289.381038 35.97304 
L 289.71752 34.787245 
L 290.390485 34.496076 
L 290.726968 34.516519 
L 291.06345 35.729392 
L 291.399932 35.121275 
L 292.072897 34.683992 
L 292.40938 34.131546 
L 292.745862 39.057635 
L 293.082345 39.089776 
L 293.418827 36.508467 
L 293.755309 35.685639 
L 294.091792 36.589972 
L 294.428274 35.985528 
L 294.764757 37.905645 
L 295.101239 38.213005 
L 295.437721 38.337036 
L 295.774204 38.696863 
L 296.110686 36.768564 
L 296.447169 37.105784 
L 297.120133 33.392059 
L 297.456616 34.506321 
L 297.793098 34.731926 
L 298.129581 34.45355 
L 298.466063 32.600185 
L 298.802546 33.553804 
L 299.139028 36.977258 
L 299.47551 37.747651 
L 300.148475 33.987032 
L 300.484958 34.384048 
L 301.157922 31.471911 
L 301.494405 32.762703 
L 301.830887 31.8918 
L 302.16737 33.57563 
L 302.840334 30.904415 
L 303.176817 32.437682 
L 303.513299 33.140659 
L 304.186264 30.470444 
L 304.522747 30.364159 
L 304.859229 35.209189 
L 305.195711 36.812498 
L 305.532194 36.537169 
L 305.868676 35.755172 
L 306.205159 32.471621 
L 306.541641 34.224218 
L 306.878123 33.989353 
L 307.214606 32.385317 
L 307.887571 30.254444 
L 308.224053 30.777148 
L 308.560535 31.755625 
L 308.897018 31.837443 
L 309.569983 31.188995 
L 309.906465 32.544553 
L 310.57943 31.640767 
L 311.252395 31.198724 
L 311.588877 32.137011 
L 311.92536 32.352082 
L 312.261842 31.486017 
L 312.598324 31.847875 
L 312.934807 31.391375 
L 313.271289 33.41344 
L 313.607772 33.349736 
L 313.944254 32.082607 
L 314.280736 31.87918 
L 314.617219 31.284121 
L 314.953701 31.496949 
L 315.290184 30.905134 
L 315.626666 31.318935 
L 315.963149 30.862162 
L 316.299631 30.724111 
L 316.636113 30.871656 
L 316.972596 30.327603 
L 317.309078 31.016592 
L 317.645561 30.664642 
L 317.982043 31.22656 
L 318.318525 30.907689 
L 318.655008 30.361862 
L 318.99149 30.402966 
L 319.327973 30.18931 
L 320.000938 30.577221 
L 320.33742 30.507352 
L 320.673902 32.359006 
L 321.010385 31.822783 
L 321.346867 31.858276 
L 321.68335 30.832904 
L 322.019832 32.21686 
L 322.356314 31.586519 
L 323.365762 37.209552 
L 323.702244 36.438605 
L 324.375209 31.985207 
L 324.711691 31.717177 
L 325.384656 31.982683 
L 325.721139 33.747658 
L 326.057621 33.187538 
L 326.394103 33.161141 
L 326.730586 32.75685 
L 327.067068 32.646634 
L 327.740033 37.143043 
L 328.412998 31.168201 
L 328.74948 30.625539 
L 329.085963 30.638729 
L 329.422445 31.616956 
L 329.758927 31.236164 
L 330.09541 31.627951 
L 330.431892 33.583812 
L 330.768375 32.583251 
L 331.104857 32.250923 
L 331.44134 31.375676 
L 331.777822 31.080085 
L 332.114304 31.177985 
L 332.450787 31.833496 
L 332.787269 31.420547 
L 333.123752 31.575477 
L 333.460234 34.120144 
L 334.133199 31.840412 
L 334.469681 31.70108 
L 334.806164 31.233944 
L 335.142646 31.898896 
L 335.815611 37.162658 
L 336.488576 33.795459 
L 336.825058 30.881096 
L 337.161541 32.618861 
L 337.498023 32.289871 
L 338.50747 38.028356 
L 338.843953 36.388475 
L 339.180435 33.567667 
L 339.516917 31.698884 
L 339.8534 31.107467 
L 340.189882 30.84622 
L 340.526365 31.40076 
L 340.862847 31.240493 
L 341.535812 32.949368 
L 341.872294 34.303879 
L 342.208777 36.255871 
L 342.545259 36.588557 
L 342.881742 35.810225 
L 343.554706 36.137583 
L 344.227671 33.598511 
L 344.564154 33.432445 
L 344.900636 35.551393 
L 345.237118 35.911767 
L 345.573601 36.08889 
L 346.246566 37.431953 
L 346.583048 36.148765 
L 346.91953 37.123194 
L 347.256013 35.630664 
L 347.592495 35.685014 
L 348.26546 34.444712 
L 348.601943 35.266969 
L 348.938425 33.598401 
L 349.274907 34.618483 
L 349.61139 37.940318 
L 350.284355 38.548544 
L 350.620837 39.754477 
L 350.957319 37.667427 
L 351.293802 37.150311 
L 351.630284 38.966979 
L 352.303249 37.300583 
L 352.639731 39.050696 
L 352.976214 41.913241 
L 353.312696 42.951546 
L 353.649179 42.745415 
L 353.985661 43.05483 
L 354.658626 38.755136 
L 354.995108 38.74904 
L 355.331591 41.288511 
L 355.668073 40.685591 
L 356.004556 39.817915 
L 356.341038 40.222191 
L 356.67752 41.685823 
L 357.014003 42.501345 
L 357.686968 39.522223 
L 358.02345 38.768436 
L 358.359932 39.171398 
L 358.696415 38.915458 
L 359.032897 39.367746 
L 359.36938 39.147978 
L 359.705862 40.336876 
L 360.042345 41.022177 
L 360.378827 42.653993 
L 360.715309 42.832508 
L 361.051792 43.446852 
L 361.388274 41.331678 
L 361.724757 48.858136 
L 362.061239 44.466731 
L 362.397721 42.517943 
L 362.734204 45.095478 
L 363.070686 42.061654 
L 363.407169 40.537858 
L 363.743651 40.560684 
L 364.416616 43.257546 
L 364.753098 43.969197 
L 365.089581 43.92803 
L 365.426063 61.133695 
L 365.762546 44.013982 
L 366.099028 43.821769 
L 366.43551 46.012415 
L 366.771993 45.516523 
L 367.108475 45.711245 
L 367.78144 41.910873 
L 368.117922 42.88431 
L 368.454405 43.238065 
L 368.790887 42.228689 
L 369.12737 52.4145 
L 369.463852 43.617396 
L 369.800334 46.416386 
L 370.136817 47.781962 
L 370.473299 103.281629 
L 370.809782 120.801616 
L 370.809782 120.801616 
" clip-path="url(#p0073c7b6da)" style="fill: none; stroke-dasharray: 9.6,2.4,1.5,2.4; stroke-dashoffset: 0; stroke: #008000; stroke-width: 1.5"/>
   </g>
   <g id="line2d_24">
    <path d="M 73.359329 127.896763 
L 73.695812 127.787696 
L 74.032294 128.272031 
L 74.368777 128.358014 
L 75.041742 128.257996 
L 75.378224 127.092572 
L 75.714706 31.70108 
L 76.387671 31.581643 
L 77.733601 31.733088 
L 78.070083 31.862457 
L 78.406566 128.082928 
L 78.743048 128.30121 
L 79.07953 31.793564 
L 79.416013 31.793345 
L 79.752495 31.928224 
L 80.088978 31.706948 
L 80.761943 31.59413 
L 84.126767 31.609705 
L 84.463249 128.305922 
L 84.799731 128.273758 
L 85.136214 128.122258 
L 85.472696 31.695953 
L 85.809179 31.562778 
L 112.054807 31.526035 
L 161.517721 31.579509 
L 162.190686 31.665711 
L 162.863651 31.598702 
L 166.564958 31.643549 
L 166.90144 128.019474 
L 167.237922 31.767878 
L 167.910887 31.634734 
L 168.24737 31.978424 
L 168.583852 31.69196 
L 168.920334 31.805942 
L 169.256817 32.131104 
L 170.266264 31.606297 
L 170.939229 31.631413 
L 171.275711 31.719787 
L 171.612194 128.060961 
L 171.948676 128.148515 
L 172.285159 127.999953 
L 172.621641 127.260772 
L 172.958123 128.224487 
L 173.294606 31.781717 
L 173.631088 31.894606 
L 173.967571 32.154672 
L 174.304053 128.267647 
L 174.640535 128.36332 
L 175.649983 128.223573 
L 175.986465 32.599466 
L 176.322948 31.789594 
L 176.65943 128.21536 
L 177.332395 128.417576 
L 179.014807 128.391585 
L 179.687772 128.410277 
L 184.398525 128.499362 
L 186.41742 128.577359 
L 187.76335 128.408698 
L 188.772797 128.502613 
L 189.445762 128.591128 
L 195.838927 128.579492 
L 196.511892 128.59888 
L 199.876716 128.59162 
L 200.886164 128.664139 
L 201.895611 128.678955 
L 202.905058 128.645415 
L 210.644154 128.73175 
L 212.663048 128.697311 
L 213.336013 128.668202 
L 216.700837 128.665178 
L 221.748073 128.748067 
L 226.795309 128.743425 
L 227.468274 128.760288 
L 228.141239 128.802948 
L 229.150686 128.795876 
L 229.823651 128.761336 
L 231.842546 128.865706 
L 233.188475 128.722349 
L 234.197922 128.781802 
L 235.20737 128.736337 
L 237.226264 128.84828 
L 237.899229 128.773722 
L 245.974807 128.806949 
L 246.984254 128.806206 
L 249.676113 128.751864 
L 250.685561 128.758851 
L 252.367973 128.678213 
L 254.050385 128.795196 
L 255.059832 128.679705 
L 256.742244 128.640906 
L 261.452998 128.698515 
L 262.125963 128.56491 
L 262.798927 128.590659 
L 263.471892 128.445927 
L 264.144857 128.45936 
L 265.154304 128.630099 
L 265.827269 128.599349 
L 267.846164 128.557698 
L 268.519128 128.614064 
L 272.220435 128.50309 
L 272.556917 128.561034 
L 273.566365 128.377542 
L 273.902847 128.33568 
L 274.912294 128.480467 
L 275.248777 128.491517 
L 275.585259 128.368782 
L 276.931189 128.482366 
L 277.604154 128.37773 
L 278.950083 128.414083 
L 281.978425 128.478076 
L 283.324355 128.181617 
L 283.660837 128.310025 
L 285.006767 128.331218 
L 285.343249 128.176522 
L 285.679731 32.153133 
L 286.016214 128.291997 
L 288.708073 128.312947 
L 289.71752 128.24078 
L 290.054003 32.110989 
L 290.390485 33.371757 
L 290.726968 31.671869 
L 291.06345 31.617355 
L 291.399932 31.747044 
L 291.736415 128.210882 
L 292.40938 128.247227 
L 292.745862 31.82447 
L 293.082345 31.618879 
L 294.091792 31.602726 
L 295.437721 31.600187 
L 296.447169 31.578736 
L 297.793098 31.58387 
L 300.148475 31.58276 
L 301.494405 31.568327 
L 302.16737 31.644823 
L 303.513299 31.533435 
L 305.532194 31.538874 
L 310.915912 31.551987 
L 322.019832 31.537694 
L 325.721139 31.525933 
L 359.705862 31.539804 
L 365.426063 31.53245 
L 367.78144 31.561544 
L 372.492194 31.574727 
L 374.174606 31.559668 
L 377.53943 31.588449 
L 377.875912 31.72911 
L 378.548877 31.604602 
L 379.221842 31.598389 
L 380.567772 31.616152 
L 381.240736 31.627123 
L 381.577219 32.131784 
L 381.913701 31.628584 
L 384.942043 31.600608 
L 385.278525 31.824306 
L 385.615008 31.62202 
L 386.287973 31.703752 
L 386.624455 127.969953 
L 386.960938 128.40401 
L 386.960938 128.40401 
" clip-path="url(#p0073c7b6da)" style="fill: none; stroke-dasharray: 1.5,2.475; stroke-dashoffset: 0; stroke: #ff0000; stroke-width: 1.5"/>
   </g>
   <g id="patch_3">
    <path d="M 52.160938 173.52 
L 52.160938 7.2 
" style="fill: none; stroke: #000000; stroke-width: 0.8; stroke-linejoin: miter; stroke-linecap: square"/>
   </g>
   <g id="patch_4">
    <path d="M 386.960938 173.52 
L 386.960938 7.2 
" style="fill: none; stroke: #000000; stroke-width: 0.8; stroke-linejoin: miter; stroke-linecap: square"/>
   </g>
   <g id="patch_5">
    <path d="M 52.160938 173.52 
L 386.960938 173.52 
" style="fill: none; stroke: #000000; stroke-width: 0.8; stroke-linejoin: miter; stroke-linecap: square"/>
   </g>
   <g id="patch_6">
    <path d="M 52.160938 7.2 
L 386.960938 7.2 
" style="fill: none; stroke: #000000; stroke-width: 0.8; stroke-linejoin: miter; stroke-linecap: square"/>
   </g>
   <g id="legend_1">
    <g id="patch_7">
     <path d="M 169.017188 73.9125 
L 270.104688 73.9125 
Q 272.104688 73.9125 272.104688 71.9125 
L 272.104688 14.2 
Q 272.104688 12.2 270.104688 12.2 
L 169.017188 12.2 
Q 167.017188 12.2 167.017188 14.2 
L 167.017188 71.9125 
Q 167.017188 73.9125 169.017188 73.9125 
z
" style="fill: #ffffff; opacity: 0.8; stroke: #cccccc; stroke-linejoin: miter"/>
    </g>
    <g id="line2d_25">
     <path d="M 171.017188 20.298438 
L 181.017188 20.298438 
L 191.017188 20.298438 
" style="fill: none; stroke: #1f77b4; stroke-width: 1.5; stroke-linecap: square"/>
    </g>
    <g id="text_13">
     <!-- 1-step preds -->
     <g transform="translate(199.017188 23.798438)scale(0.1 -0.1)">
      <defs>
       <path id="DejaVuSans-2d" d="M 313 2009 
L 1997 2009 
L 1997 1497 
L 313 1497 
L 313 2009 
z
" transform="scale(0.015625)"/>
       <path id="DejaVuSans-73" d="M 2834 3397 
L 2834 2853 
Q 2591 2978 2328 3040 
Q 2066 3103 1784 3103 
Q 1356 3103 1142 2972 
Q 928 2841 928 2578 
Q 928 2378 1081 2264 
Q 1234 2150 1697 2047 
L 1894 2003 
Q 2506 1872 2764 1633 
Q 3022 1394 3022 966 
Q 3022 478 2636 193 
Q 2250 -91 1575 -91 
Q 1294 -91 989 -36 
Q 684 19 347 128 
L 347 722 
Q 666 556 975 473 
Q 1284 391 1588 391 
Q 1994 391 2212 530 
Q 2431 669 2431 922 
Q 2431 1156 2273 1281 
Q 2116 1406 1581 1522 
L 1381 1569 
Q 847 1681 609 1914 
Q 372 2147 372 2553 
Q 372 3047 722 3315 
Q 1072 3584 1716 3584 
Q 2034 3584 2315 3537 
Q 2597 3491 2834 3397 
z
" transform="scale(0.015625)"/>
       <path id="DejaVuSans-70" d="M 1159 525 
L 1159 -1331 
L 581 -1331 
L 581 3500 
L 1159 3500 
L 1159 2969 
Q 1341 3281 1617 3432 
Q 1894 3584 2278 3584 
Q 2916 3584 3314 3078 
Q 3713 2572 3713 1747 
Q 3713 922 3314 415 
Q 2916 -91 2278 -91 
Q 1894 -91 1617 61 
Q 1341 213 1159 525 
z
M 3116 1747 
Q 3116 2381 2855 2742 
Q 2594 3103 2138 3103 
Q 1681 3103 1420 2742 
Q 1159 2381 1159 1747 
Q 1159 1113 1420 752 
Q 1681 391 2138 391 
Q 2594 391 2855 752 
Q 3116 1113 3116 1747 
z
" transform="scale(0.015625)"/>
       <path id="DejaVuSans-20" transform="scale(0.015625)"/>
       <path id="DejaVuSans-72" d="M 2631 2963 
Q 2534 3019 2420 3045 
Q 2306 3072 2169 3072 
Q 1681 3072 1420 2755 
Q 1159 2438 1159 1844 
L 1159 0 
L 581 0 
L 581 3500 
L 1159 3500 
L 1159 2956 
Q 1341 3275 1631 3429 
Q 1922 3584 2338 3584 
Q 2397 3584 2469 3576 
Q 2541 3569 2628 3553 
L 2631 2963 
z
" transform="scale(0.015625)"/>
       <path id="DejaVuSans-64" d="M 2906 2969 
L 2906 4863 
L 3481 4863 
L 3481 0 
L 2906 0 
L 2906 525 
Q 2725 213 2448 61 
Q 2172 -91 1784 -91 
Q 1150 -91 751 415 
Q 353 922 353 1747 
Q 353 2572 751 3078 
Q 1150 3584 1784 3584 
Q 2172 3584 2448 3432 
Q 2725 3281 2906 2969 
z
M 947 1747 
Q 947 1113 1208 752 
Q 1469 391 1925 391 
Q 2381 391 2643 752 
Q 2906 1113 2906 1747 
Q 2906 2381 2643 2742 
Q 2381 3103 1925 3103 
Q 1469 3103 1208 2742 
Q 947 2381 947 1747 
z
" transform="scale(0.015625)"/>
      </defs>
      <use xlink:href="#DejaVuSans-31"/>
      <use xlink:href="#DejaVuSans-2d" x="63.623047"/>
      <use xlink:href="#DejaVuSans-73" x="99.707031"/>
      <use xlink:href="#DejaVuSans-74" x="151.806641"/>
      <use xlink:href="#DejaVuSans-65" x="191.015625"/>
      <use xlink:href="#DejaVuSans-70" x="252.539062"/>
      <use xlink:href="#DejaVuSans-20" x="316.015625"/>
      <use xlink:href="#DejaVuSans-70" x="347.802734"/>
      <use xlink:href="#DejaVuSans-72" x="411.279297"/>
      <use xlink:href="#DejaVuSans-65" x="450.142578"/>
      <use xlink:href="#DejaVuSans-64" x="511.666016"/>
      <use xlink:href="#DejaVuSans-73" x="575.142578"/>
     </g>
    </g>
    <g id="line2d_26">
     <path d="M 171.017188 34.976562 
L 181.017188 34.976562 
L 191.017188 34.976562 
" style="fill: none; stroke-dasharray: 5.55,2.4; stroke-dashoffset: 0; stroke: #bf00bf; stroke-width: 1.5"/>
    </g>
    <g id="text_14">
     <!-- 4-step preds -->
     <g transform="translate(199.017188 38.476562)scale(0.1 -0.1)">
      <use xlink:href="#DejaVuSans-34"/>
      <use xlink:href="#DejaVuSans-2d" x="63.623047"/>
      <use xlink:href="#DejaVuSans-73" x="99.707031"/>
      <use xlink:href="#DejaVuSans-74" x="151.806641"/>
      <use xlink:href="#DejaVuSans-65" x="191.015625"/>
      <use xlink:href="#DejaVuSans-70" x="252.539062"/>
      <use xlink:href="#DejaVuSans-20" x="316.015625"/>
      <use xlink:href="#DejaVuSans-70" x="347.802734"/>
      <use xlink:href="#DejaVuSans-72" x="411.279297"/>
      <use xlink:href="#DejaVuSans-65" x="450.142578"/>
      <use xlink:href="#DejaVuSans-64" x="511.666016"/>
      <use xlink:href="#DejaVuSans-73" x="575.142578"/>
     </g>
    </g>
    <g id="line2d_27">
     <path d="M 171.017188 49.654687 
L 181.017188 49.654687 
L 191.017188 49.654687 
" style="fill: none; stroke-dasharray: 9.6,2.4,1.5,2.4; stroke-dashoffset: 0; stroke: #008000; stroke-width: 1.5"/>
    </g>
    <g id="text_15">
     <!-- 16-step preds -->
     <g transform="translate(199.017188 53.154687)scale(0.1 -0.1)">
      <use xlink:href="#DejaVuSans-31"/>
      <use xlink:href="#DejaVuSans-36" x="63.623047"/>
      <use xlink:href="#DejaVuSans-2d" x="127.246094"/>
      <use xlink:href="#DejaVuSans-73" x="163.330078"/>
      <use xlink:href="#DejaVuSans-74" x="215.429688"/>
      <use xlink:href="#DejaVuSans-65" x="254.638672"/>
      <use xlink:href="#DejaVuSans-70" x="316.162109"/>
      <use xlink:href="#DejaVuSans-20" x="379.638672"/>
      <use xlink:href="#DejaVuSans-70" x="411.425781"/>
      <use xlink:href="#DejaVuSans-72" x="474.902344"/>
      <use xlink:href="#DejaVuSans-65" x="513.765625"/>
      <use xlink:href="#DejaVuSans-64" x="575.289062"/>
      <use xlink:href="#DejaVuSans-73" x="638.765625"/>
     </g>
    </g>
    <g id="line2d_28">
     <path d="M 171.017188 64.332813 
L 181.017188 64.332813 
L 191.017188 64.332813 
" style="fill: none; stroke-dasharray: 1.5,2.475; stroke-dashoffset: 0; stroke: #ff0000; stroke-width: 1.5"/>
    </g>
    <g id="text_16">
     <!-- 64-step preds -->
     <g transform="translate(199.017188 67.832813)scale(0.1 -0.1)">
      <use xlink:href="#DejaVuSans-36"/>
      <use xlink:href="#DejaVuSans-34" x="63.623047"/>
      <use xlink:href="#DejaVuSans-2d" x="127.246094"/>
      <use xlink:href="#DejaVuSans-73" x="163.330078"/>
      <use xlink:href="#DejaVuSans-74" x="215.429688"/>
      <use xlink:href="#DejaVuSans-65" x="254.638672"/>
      <use xlink:href="#DejaVuSans-70" x="316.162109"/>
      <use xlink:href="#DejaVuSans-20" x="379.638672"/>
      <use xlink:href="#DejaVuSans-70" x="411.425781"/>
      <use xlink:href="#DejaVuSans-72" x="474.902344"/>
      <use xlink:href="#DejaVuSans-65" x="513.765625"/>
      <use xlink:href="#DejaVuSans-64" x="575.289062"/>
      <use xlink:href="#DejaVuSans-73" x="638.765625"/>
     </g>
    </g>
   </g>
  </g>
 </g>
 <defs>
  <clipPath id="p0073c7b6da">
   <rect x="52.160938" y="7.2" width="334.8" height="166.32"/>
  </clipPath>
 </defs>
</svg>
