<?xml version="1.0" encoding="utf-8" standalone="no"?>
<!DOCTYPE svg PUBLIC "-//W3C//DTD SVG 1.1//EN"
  "http://www.w3.org/Graphics/SVG/1.1/DTD/svg11.dtd">
<svg xmlns:xlink="http://www.w3.org/1999/xlink" width="392.14375pt" height="294.23625pt" viewBox="0 0 392.14375 294.23625" xmlns="http://www.w3.org/2000/svg" version="1.1">
 <metadata>
  <rdf:RDF xmlns:dc="http://purl.org/dc/elements/1.1/" xmlns:cc="http://creativecommons.org/ns#" xmlns:rdf="http://www.w3.org/1999/02/22-rdf-syntax-ns#">
   <cc:Work>
    <dc:type rdf:resource="http://purl.org/dc/dcmitype/StillImage"/>
    <dc:date>2024-02-02T19:42:27.272177</dc:date>
    <dc:format>image/svg+xml</dc:format>
    <dc:creator>
     <cc:Agent>
      <dc:title>Matplotlib v3.5.1, https://matplotlib.org/</dc:title>
     </cc:Agent>
    </dc:creator>
   </cc:Work>
  </rdf:RDF>
 </metadata>
 <defs>
  <style type="text/css">*{stroke-linejoin: round; stroke-linecap: butt}</style>
 </defs>
 <g id="figure_1">
  <g id="patch_1">
   <path d="M 0 294.23625 
L 392.14375 294.23625 
L 392.14375 0 
L 0 0 
z
" style="fill: #ffffff"/>
  </g>
  <g id="axes_1">
   <g id="patch_2">
    <path d="M 50.14375 256.68 
L 384.94375 256.68 
L 384.94375 7.2 
L 50.14375 7.2 
z
" style="fill: #ffffff"/>
   </g>
   <g id="matplotlib.axis_1">
    <g id="xtick_1">
     <g id="line2d_1">
      <defs>
       <path id="m1d4f32faf3" d="M 0 0 
L 0 3.5 
" style="stroke: #000000; stroke-width: 0.8"/>
      </defs>
      <g>
       <use xlink:href="#m1d4f32faf3" x="65.361932" y="256.68" style="stroke: #000000; stroke-width: 0.8"/>
      </g>
     </g>
     <g id="text_1">
      <!-- 0 -->
      <g transform="translate(62.180682 271.278437)scale(0.1 -0.1)">
       <defs>
        <path id="DejaVuSans-30" d="M 2034 4250 
Q 1547 4250 1301 3770 
Q 1056 3291 1056 2328 
Q 1056 1369 1301 889 
Q 1547 409 2034 409 
Q 2525 409 2770 889 
Q 3016 1369 3016 2328 
Q 3016 3291 2770 3770 
Q 2525 4250 2034 4250 
z
M 2034 4750 
Q 2819 4750 3233 4129 
Q 3647 3509 3647 2328 
Q 3647 1150 3233 529 
Q 2819 -91 2034 -91 
Q 1250 -91 836 529 
Q 422 1150 422 2328 
Q 422 3509 836 4129 
Q 1250 4750 2034 4750 
z
" transform="scale(0.015625)"/>
       </defs>
       <use xlink:href="#DejaVuSans-30"/>
      </g>
     </g>
    </g>
    <g id="xtick_2">
     <g id="line2d_2">
      <g>
       <use xlink:href="#m1d4f32faf3" x="126.356649" y="256.68" style="stroke: #000000; stroke-width: 0.8"/>
      </g>
     </g>
     <g id="text_2">
      <!-- 100 -->
      <g transform="translate(116.812899 271.278437)scale(0.1 -0.1)">
       <defs>
        <path id="DejaVuSans-31" d="M 794 531 
L 1825 531 
L 1825 4091 
L 703 3866 
L 703 4441 
L 1819 4666 
L 2450 4666 
L 2450 531 
L 3481 531 
L 3481 0 
L 794 0 
L 794 531 
z
" transform="scale(0.015625)"/>
       </defs>
       <use xlink:href="#DejaVuSans-31"/>
       <use xlink:href="#DejaVuSans-30" x="63.623047"/>
       <use xlink:href="#DejaVuSans-30" x="127.246094"/>
      </g>
     </g>
    </g>
    <g id="xtick_3">
     <g id="line2d_3">
      <g>
       <use xlink:href="#m1d4f32faf3" x="187.351365" y="256.68" style="stroke: #000000; stroke-width: 0.8"/>
      </g>
     </g>
     <g id="text_3">
      <!-- 200 -->
      <g transform="translate(177.807615 271.278437)scale(0.1 -0.1)">
       <defs>
        <path id="DejaVuSans-32" d="M 1228 531 
L 3431 531 
L 3431 0 
L 469 0 
L 469 531 
Q 828 903 1448 1529 
Q 2069 2156 2228 2338 
Q 2531 2678 2651 2914 
Q 2772 3150 2772 3378 
Q 2772 3750 2511 3984 
Q 2250 4219 1831 4219 
Q 1534 4219 1204 4116 
Q 875 4013 500 3803 
L 500 4441 
Q 881 4594 1212 4672 
Q 1544 4750 1819 4750 
Q 2544 4750 2975 4387 
Q 3406 4025 3406 3419 
Q 3406 3131 3298 2873 
Q 3191 2616 2906 2266 
Q 2828 2175 2409 1742 
Q 1991 1309 1228 531 
z
" transform="scale(0.015625)"/>
       </defs>
       <use xlink:href="#DejaVuSans-32"/>
       <use xlink:href="#DejaVuSans-30" x="63.623047"/>
       <use xlink:href="#DejaVuSans-30" x="127.246094"/>
      </g>
     </g>
    </g>
    <g id="xtick_4">
     <g id="line2d_4">
      <g>
       <use xlink:href="#m1d4f32faf3" x="248.346082" y="256.68" style="stroke: #000000; stroke-width: 0.8"/>
      </g>
     </g>
     <g id="text_4">
      <!-- 300 -->
      <g transform="translate(238.802332 271.278437)scale(0.1 -0.1)">
       <defs>
        <path id="DejaVuSans-33" d="M 2597 2516 
Q 3050 2419 3304 2112 
Q 3559 1806 3559 1356 
Q 3559 666 3084 287 
Q 2609 -91 1734 -91 
Q 1441 -91 1130 -33 
Q 819 25 488 141 
L 488 750 
Q 750 597 1062 519 
Q 1375 441 1716 441 
Q 2309 441 2620 675 
Q 2931 909 2931 1356 
Q 2931 1769 2642 2001 
Q 2353 2234 1838 2234 
L 1294 2234 
L 1294 2753 
L 1863 2753 
Q 2328 2753 2575 2939 
Q 2822 3125 2822 3475 
Q 2822 3834 2567 4026 
Q 2313 4219 1838 4219 
Q 1578 4219 1281 4162 
Q 984 4106 628 3988 
L 628 4550 
Q 988 4650 1302 4700 
Q 1616 4750 1894 4750 
Q 2613 4750 3031 4423 
Q 3450 4097 3450 3541 
Q 3450 3153 3228 2886 
Q 3006 2619 2597 2516 
z
" transform="scale(0.015625)"/>
       </defs>
       <use xlink:href="#DejaVuSans-33"/>
       <use xlink:href="#DejaVuSans-30" x="63.623047"/>
       <use xlink:href="#DejaVuSans-30" x="127.246094"/>
      </g>
     </g>
    </g>
    <g id="xtick_5">
     <g id="line2d_5">
      <g>
       <use xlink:href="#m1d4f32faf3" x="309.340799" y="256.68" style="stroke: #000000; stroke-width: 0.8"/>
      </g>
     </g>
     <g id="text_5">
      <!-- 400 -->
      <g transform="translate(299.797049 271.278437)scale(0.1 -0.1)">
       <defs>
        <path id="DejaVuSans-34" d="M 2419 4116 
L 825 1625 
L 2419 1625 
L 2419 4116 
z
M 2253 4666 
L 3047 4666 
L 3047 1625 
L 3713 1625 
L 3713 1100 
L 3047 1100 
L 3047 0 
L 2419 0 
L 2419 1100 
L 313 1100 
L 313 1709 
L 2253 4666 
z
" transform="scale(0.015625)"/>
       </defs>
       <use xlink:href="#DejaVuSans-34"/>
       <use xlink:href="#DejaVuSans-30" x="63.623047"/>
       <use xlink:href="#DejaVuSans-30" x="127.246094"/>
      </g>
     </g>
    </g>
    <g id="xtick_6">
     <g id="line2d_6">
      <g>
       <use xlink:href="#m1d4f32faf3" x="370.335515" y="256.68" style="stroke: #000000; stroke-width: 0.8"/>
      </g>
     </g>
     <g id="text_6">
      <!-- 500 -->
      <g transform="translate(360.791765 271.278437)scale(0.1 -0.1)">
       <defs>
        <path id="DejaVuSans-35" d="M 691 4666 
L 3169 4666 
L 3169 4134 
L 1269 4134 
L 1269 2991 
Q 1406 3038 1543 3061 
Q 1681 3084 1819 3084 
Q 2600 3084 3056 2656 
Q 3513 2228 3513 1497 
Q 3513 744 3044 326 
Q 2575 -91 1722 -91 
Q 1428 -91 1123 -41 
Q 819 9 494 109 
L 494 744 
Q 775 591 1075 516 
Q 1375 441 1709 441 
Q 2250 441 2565 725 
Q 2881 1009 2881 1497 
Q 2881 1984 2565 2268 
Q 2250 2553 1709 2553 
Q 1456 2553 1204 2497 
Q 953 2441 691 2322 
L 691 4666 
z
" transform="scale(0.015625)"/>
       </defs>
       <use xlink:href="#DejaVuSans-35"/>
       <use xlink:href="#DejaVuSans-30" x="63.623047"/>
       <use xlink:href="#DejaVuSans-30" x="127.246094"/>
      </g>
     </g>
    </g>
    <g id="text_7">
     <!-- Groups of experiments -->
     <g transform="translate(160.397656 284.956562)scale(0.1 -0.1)">
      <defs>
       <path id="DejaVuSans-47" d="M 3809 666 
L 3809 1919 
L 2778 1919 
L 2778 2438 
L 4434 2438 
L 4434 434 
Q 4069 175 3628 42 
Q 3188 -91 2688 -91 
Q 1594 -91 976 548 
Q 359 1188 359 2328 
Q 359 3472 976 4111 
Q 1594 4750 2688 4750 
Q 3144 4750 3555 4637 
Q 3966 4525 4313 4306 
L 4313 3634 
Q 3963 3931 3569 4081 
Q 3175 4231 2741 4231 
Q 1884 4231 1454 3753 
Q 1025 3275 1025 2328 
Q 1025 1384 1454 906 
Q 1884 428 2741 428 
Q 3075 428 3337 486 
Q 3600 544 3809 666 
z
" transform="scale(0.015625)"/>
       <path id="DejaVuSans-72" d="M 2631 2963 
Q 2534 3019 2420 3045 
Q 2306 3072 2169 3072 
Q 1681 3072 1420 2755 
Q 1159 2438 1159 1844 
L 1159 0 
L 581 0 
L 581 3500 
L 1159 3500 
L 1159 2956 
Q 1341 3275 1631 3429 
Q 1922 3584 2338 3584 
Q 2397 3584 2469 3576 
Q 2541 3569 2628 3553 
L 2631 2963 
z
" transform="scale(0.015625)"/>
       <path id="DejaVuSans-6f" d="M 1959 3097 
Q 1497 3097 1228 2736 
Q 959 2375 959 1747 
Q 959 1119 1226 758 
Q 1494 397 1959 397 
Q 2419 397 2687 759 
Q 2956 1122 2956 1747 
Q 2956 2369 2687 2733 
Q 2419 3097 1959 3097 
z
M 1959 3584 
Q 2709 3584 3137 3096 
Q 3566 2609 3566 1747 
Q 3566 888 3137 398 
Q 2709 -91 1959 -91 
Q 1206 -91 779 398 
Q 353 888 353 1747 
Q 353 2609 779 3096 
Q 1206 3584 1959 3584 
z
" transform="scale(0.015625)"/>
       <path id="DejaVuSans-75" d="M 544 1381 
L 544 3500 
L 1119 3500 
L 1119 1403 
Q 1119 906 1312 657 
Q 1506 409 1894 409 
Q 2359 409 2629 706 
Q 2900 1003 2900 1516 
L 2900 3500 
L 3475 3500 
L 3475 0 
L 2900 0 
L 2900 538 
Q 2691 219 2414 64 
Q 2138 -91 1772 -91 
Q 1169 -91 856 284 
Q 544 659 544 1381 
z
M 1991 3584 
L 1991 3584 
z
" transform="scale(0.015625)"/>
       <path id="DejaVuSans-70" d="M 1159 525 
L 1159 -1331 
L 581 -1331 
L 581 3500 
L 1159 3500 
L 1159 2969 
Q 1341 3281 1617 3432 
Q 1894 3584 2278 3584 
Q 2916 3584 3314 3078 
Q 3713 2572 3713 1747 
Q 3713 922 3314 415 
Q 2916 -91 2278 -91 
Q 1894 -91 1617 61 
Q 1341 213 1159 525 
z
M 3116 1747 
Q 3116 2381 2855 2742 
Q 2594 3103 2138 3103 
Q 1681 3103 1420 2742 
Q 1159 2381 1159 1747 
Q 1159 1113 1420 752 
Q 1681 391 2138 391 
Q 2594 391 2855 752 
Q 3116 1113 3116 1747 
z
" transform="scale(0.015625)"/>
       <path id="DejaVuSans-73" d="M 2834 3397 
L 2834 2853 
Q 2591 2978 2328 3040 
Q 2066 3103 1784 3103 
Q 1356 3103 1142 2972 
Q 928 2841 928 2578 
Q 928 2378 1081 2264 
Q 1234 2150 1697 2047 
L 1894 2003 
Q 2506 1872 2764 1633 
Q 3022 1394 3022 966 
Q 3022 478 2636 193 
Q 2250 -91 1575 -91 
Q 1294 -91 989 -36 
Q 684 19 347 128 
L 347 722 
Q 666 556 975 473 
Q 1284 391 1588 391 
Q 1994 391 2212 530 
Q 2431 669 2431 922 
Q 2431 1156 2273 1281 
Q 2116 1406 1581 1522 
L 1381 1569 
Q 847 1681 609 1914 
Q 372 2147 372 2553 
Q 372 3047 722 3315 
Q 1072 3584 1716 3584 
Q 2034 3584 2315 3537 
Q 2597 3491 2834 3397 
z
" transform="scale(0.015625)"/>
       <path id="DejaVuSans-20" transform="scale(0.015625)"/>
       <path id="DejaVuSans-66" d="M 2375 4863 
L 2375 4384 
L 1825 4384 
Q 1516 4384 1395 4259 
Q 1275 4134 1275 3809 
L 1275 3500 
L 2222 3500 
L 2222 3053 
L 1275 3053 
L 1275 0 
L 697 0 
L 697 3053 
L 147 3053 
L 147 3500 
L 697 3500 
L 697 3744 
Q 697 4328 969 4595 
Q 1241 4863 1831 4863 
L 2375 4863 
z
" transform="scale(0.015625)"/>
       <path id="DejaVuSans-65" d="M 3597 1894 
L 3597 1613 
L 953 1613 
Q 991 1019 1311 708 
Q 1631 397 2203 397 
Q 2534 397 2845 478 
Q 3156 559 3463 722 
L 3463 178 
Q 3153 47 2828 -22 
Q 2503 -91 2169 -91 
Q 1331 -91 842 396 
Q 353 884 353 1716 
Q 353 2575 817 3079 
Q 1281 3584 2069 3584 
Q 2775 3584 3186 3129 
Q 3597 2675 3597 1894 
z
M 3022 2063 
Q 3016 2534 2758 2815 
Q 2500 3097 2075 3097 
Q 1594 3097 1305 2825 
Q 1016 2553 972 2059 
L 3022 2063 
z
" transform="scale(0.015625)"/>
       <path id="DejaVuSans-78" d="M 3513 3500 
L 2247 1797 
L 3578 0 
L 2900 0 
L 1881 1375 
L 863 0 
L 184 0 
L 1544 1831 
L 300 3500 
L 978 3500 
L 1906 2253 
L 2834 3500 
L 3513 3500 
z
" transform="scale(0.015625)"/>
       <path id="DejaVuSans-69" d="M 603 3500 
L 1178 3500 
L 1178 0 
L 603 0 
L 603 3500 
z
M 603 4863 
L 1178 4863 
L 1178 4134 
L 603 4134 
L 603 4863 
z
" transform="scale(0.015625)"/>
       <path id="DejaVuSans-6d" d="M 3328 2828 
Q 3544 3216 3844 3400 
Q 4144 3584 4550 3584 
Q 5097 3584 5394 3201 
Q 5691 2819 5691 2113 
L 5691 0 
L 5113 0 
L 5113 2094 
Q 5113 2597 4934 2840 
Q 4756 3084 4391 3084 
Q 3944 3084 3684 2787 
Q 3425 2491 3425 1978 
L 3425 0 
L 2847 0 
L 2847 2094 
Q 2847 2600 2669 2842 
Q 2491 3084 2119 3084 
Q 1678 3084 1418 2786 
Q 1159 2488 1159 1978 
L 1159 0 
L 581 0 
L 581 3500 
L 1159 3500 
L 1159 2956 
Q 1356 3278 1631 3431 
Q 1906 3584 2284 3584 
Q 2666 3584 2933 3390 
Q 3200 3197 3328 2828 
z
" transform="scale(0.015625)"/>
       <path id="DejaVuSans-6e" d="M 3513 2113 
L 3513 0 
L 2938 0 
L 2938 2094 
Q 2938 2591 2744 2837 
Q 2550 3084 2163 3084 
Q 1697 3084 1428 2787 
Q 1159 2491 1159 1978 
L 1159 0 
L 581 0 
L 581 3500 
L 1159 3500 
L 1159 2956 
Q 1366 3272 1645 3428 
Q 1925 3584 2291 3584 
Q 2894 3584 3203 3211 
Q 3513 2838 3513 2113 
z
" transform="scale(0.015625)"/>
       <path id="DejaVuSans-74" d="M 1172 4494 
L 1172 3500 
L 2356 3500 
L 2356 3053 
L 1172 3053 
L 1172 1153 
Q 1172 725 1289 603 
Q 1406 481 1766 481 
L 2356 481 
L 2356 0 
L 1766 0 
Q 1100 0 847 248 
Q 594 497 594 1153 
L 594 3053 
L 172 3053 
L 172 3500 
L 594 3500 
L 594 4494 
L 1172 4494 
z
" transform="scale(0.015625)"/>
      </defs>
      <use xlink:href="#DejaVuSans-47"/>
      <use xlink:href="#DejaVuSans-72" x="77.490234"/>
      <use xlink:href="#DejaVuSans-6f" x="116.353516"/>
      <use xlink:href="#DejaVuSans-75" x="177.535156"/>
      <use xlink:href="#DejaVuSans-70" x="240.914062"/>
      <use xlink:href="#DejaVuSans-73" x="304.390625"/>
      <use xlink:href="#DejaVuSans-20" x="356.490234"/>
      <use xlink:href="#DejaVuSans-6f" x="388.277344"/>
      <use xlink:href="#DejaVuSans-66" x="449.458984"/>
      <use xlink:href="#DejaVuSans-20" x="484.664062"/>
      <use xlink:href="#DejaVuSans-65" x="516.451172"/>
      <use xlink:href="#DejaVuSans-78" x="576.224609"/>
      <use xlink:href="#DejaVuSans-70" x="635.404297"/>
      <use xlink:href="#DejaVuSans-65" x="698.880859"/>
      <use xlink:href="#DejaVuSans-72" x="760.404297"/>
      <use xlink:href="#DejaVuSans-69" x="801.517578"/>
      <use xlink:href="#DejaVuSans-6d" x="829.300781"/>
      <use xlink:href="#DejaVuSans-65" x="926.712891"/>
      <use xlink:href="#DejaVuSans-6e" x="988.236328"/>
      <use xlink:href="#DejaVuSans-74" x="1051.615234"/>
      <use xlink:href="#DejaVuSans-73" x="1090.824219"/>
     </g>
    </g>
   </g>
   <g id="matplotlib.axis_2">
    <g id="ytick_1">
     <g id="line2d_7">
      <defs>
       <path id="m9848cf72ee" d="M 0 0 
L -3.5 0 
" style="stroke: #000000; stroke-width: 0.8"/>
      </defs>
      <g>
       <use xlink:href="#m9848cf72ee" x="50.14375" y="245.34" style="stroke: #000000; stroke-width: 0.8"/>
      </g>
     </g>
     <g id="text_8">
      <!-- 0.00 -->
      <g transform="translate(20.878125 249.139219)scale(0.1 -0.1)">
       <defs>
        <path id="DejaVuSans-2e" d="M 684 794 
L 1344 794 
L 1344 0 
L 684 0 
L 684 794 
z
" transform="scale(0.015625)"/>
       </defs>
       <use xlink:href="#DejaVuSans-30"/>
       <use xlink:href="#DejaVuSans-2e" x="63.623047"/>
       <use xlink:href="#DejaVuSans-30" x="95.410156"/>
       <use xlink:href="#DejaVuSans-30" x="159.033203"/>
      </g>
     </g>
    </g>
    <g id="ytick_2">
     <g id="line2d_8">
      <g>
       <use xlink:href="#m9848cf72ee" x="50.14375" y="207.540002" style="stroke: #000000; stroke-width: 0.8"/>
      </g>
     </g>
     <g id="text_9">
      <!-- 0.05 -->
      <g transform="translate(20.878125 211.33922)scale(0.1 -0.1)">
       <use xlink:href="#DejaVuSans-30"/>
       <use xlink:href="#DejaVuSans-2e" x="63.623047"/>
       <use xlink:href="#DejaVuSans-30" x="95.410156"/>
       <use xlink:href="#DejaVuSans-35" x="159.033203"/>
      </g>
     </g>
    </g>
    <g id="ytick_3">
     <g id="line2d_9">
      <g>
       <use xlink:href="#m9848cf72ee" x="50.14375" y="169.740003" style="stroke: #000000; stroke-width: 0.8"/>
      </g>
     </g>
     <g id="text_10">
      <!-- 0.10 -->
      <g transform="translate(20.878125 173.539222)scale(0.1 -0.1)">
       <use xlink:href="#DejaVuSans-30"/>
       <use xlink:href="#DejaVuSans-2e" x="63.623047"/>
       <use xlink:href="#DejaVuSans-31" x="95.410156"/>
       <use xlink:href="#DejaVuSans-30" x="159.033203"/>
      </g>
     </g>
    </g>
    <g id="ytick_4">
     <g id="line2d_10">
      <g>
       <use xlink:href="#m9848cf72ee" x="50.14375" y="131.940005" style="stroke: #000000; stroke-width: 0.8"/>
      </g>
     </g>
     <g id="text_11">
      <!-- 0.15 -->
      <g transform="translate(20.878125 135.739223)scale(0.1 -0.1)">
       <use xlink:href="#DejaVuSans-30"/>
       <use xlink:href="#DejaVuSans-2e" x="63.623047"/>
       <use xlink:href="#DejaVuSans-31" x="95.410156"/>
       <use xlink:href="#DejaVuSans-35" x="159.033203"/>
      </g>
     </g>
    </g>
    <g id="ytick_5">
     <g id="line2d_11">
      <g>
       <use xlink:href="#m9848cf72ee" x="50.14375" y="94.140006" style="stroke: #000000; stroke-width: 0.8"/>
      </g>
     </g>
     <g id="text_12">
      <!-- 0.20 -->
      <g transform="translate(20.878125 97.939225)scale(0.1 -0.1)">
       <use xlink:href="#DejaVuSans-30"/>
       <use xlink:href="#DejaVuSans-2e" x="63.623047"/>
       <use xlink:href="#DejaVuSans-32" x="95.410156"/>
       <use xlink:href="#DejaVuSans-30" x="159.033203"/>
      </g>
     </g>
    </g>
    <g id="ytick_6">
     <g id="line2d_12">
      <g>
       <use xlink:href="#m9848cf72ee" x="50.14375" y="56.340008" style="stroke: #000000; stroke-width: 0.8"/>
      </g>
     </g>
     <g id="text_13">
      <!-- 0.25 -->
      <g transform="translate(20.878125 60.139226)scale(0.1 -0.1)">
       <use xlink:href="#DejaVuSans-30"/>
       <use xlink:href="#DejaVuSans-2e" x="63.623047"/>
       <use xlink:href="#DejaVuSans-32" x="95.410156"/>
       <use xlink:href="#DejaVuSans-35" x="159.033203"/>
      </g>
     </g>
    </g>
    <g id="ytick_7">
     <g id="line2d_13">
      <g>
       <use xlink:href="#m9848cf72ee" x="50.14375" y="18.540009" style="stroke: #000000; stroke-width: 0.8"/>
      </g>
     </g>
     <g id="text_14">
      <!-- 0.30 -->
      <g transform="translate(20.878125 22.339228)scale(0.1 -0.1)">
       <use xlink:href="#DejaVuSans-30"/>
       <use xlink:href="#DejaVuSans-2e" x="63.623047"/>
       <use xlink:href="#DejaVuSans-33" x="95.410156"/>
       <use xlink:href="#DejaVuSans-30" x="159.033203"/>
      </g>
     </g>
    </g>
    <g id="text_15">
     <!-- Estimated probability -->
     <g transform="translate(14.798438 185.463437)rotate(-90)scale(0.1 -0.1)">
      <defs>
       <path id="DejaVuSans-45" d="M 628 4666 
L 3578 4666 
L 3578 4134 
L 1259 4134 
L 1259 2753 
L 3481 2753 
L 3481 2222 
L 1259 2222 
L 1259 531 
L 3634 531 
L 3634 0 
L 628 0 
L 628 4666 
z
" transform="scale(0.015625)"/>
       <path id="DejaVuSans-61" d="M 2194 1759 
Q 1497 1759 1228 1600 
Q 959 1441 959 1056 
Q 959 750 1161 570 
Q 1363 391 1709 391 
Q 2188 391 2477 730 
Q 2766 1069 2766 1631 
L 2766 1759 
L 2194 1759 
z
M 3341 1997 
L 3341 0 
L 2766 0 
L 2766 531 
Q 2569 213 2275 61 
Q 1981 -91 1556 -91 
Q 1019 -91 701 211 
Q 384 513 384 1019 
Q 384 1609 779 1909 
Q 1175 2209 1959 2209 
L 2766 2209 
L 2766 2266 
Q 2766 2663 2505 2880 
Q 2244 3097 1772 3097 
Q 1472 3097 1187 3025 
Q 903 2953 641 2809 
L 641 3341 
Q 956 3463 1253 3523 
Q 1550 3584 1831 3584 
Q 2591 3584 2966 3190 
Q 3341 2797 3341 1997 
z
" transform="scale(0.015625)"/>
       <path id="DejaVuSans-64" d="M 2906 2969 
L 2906 4863 
L 3481 4863 
L 3481 0 
L 2906 0 
L 2906 525 
Q 2725 213 2448 61 
Q 2172 -91 1784 -91 
Q 1150 -91 751 415 
Q 353 922 353 1747 
Q 353 2572 751 3078 
Q 1150 3584 1784 3584 
Q 2172 3584 2448 3432 
Q 2725 3281 2906 2969 
z
M 947 1747 
Q 947 1113 1208 752 
Q 1469 391 1925 391 
Q 2381 391 2643 752 
Q 2906 1113 2906 1747 
Q 2906 2381 2643 2742 
Q 2381 3103 1925 3103 
Q 1469 3103 1208 2742 
Q 947 2381 947 1747 
z
" transform="scale(0.015625)"/>
       <path id="DejaVuSans-62" d="M 3116 1747 
Q 3116 2381 2855 2742 
Q 2594 3103 2138 3103 
Q 1681 3103 1420 2742 
Q 1159 2381 1159 1747 
Q 1159 1113 1420 752 
Q 1681 391 2138 391 
Q 2594 391 2855 752 
Q 3116 1113 3116 1747 
z
M 1159 2969 
Q 1341 3281 1617 3432 
Q 1894 3584 2278 3584 
Q 2916 3584 3314 3078 
Q 3713 2572 3713 1747 
Q 3713 922 3314 415 
Q 2916 -91 2278 -91 
Q 1894 -91 1617 61 
Q 1341 213 1159 525 
L 1159 0 
L 581 0 
L 581 4863 
L 1159 4863 
L 1159 2969 
z
" transform="scale(0.015625)"/>
       <path id="DejaVuSans-6c" d="M 603 4863 
L 1178 4863 
L 1178 0 
L 603 0 
L 603 4863 
z
" transform="scale(0.015625)"/>
       <path id="DejaVuSans-79" d="M 2059 -325 
Q 1816 -950 1584 -1140 
Q 1353 -1331 966 -1331 
L 506 -1331 
L 506 -850 
L 844 -850 
Q 1081 -850 1212 -737 
Q 1344 -625 1503 -206 
L 1606 56 
L 191 3500 
L 800 3500 
L 1894 763 
L 2988 3500 
L 3597 3500 
L 2059 -325 
z
" transform="scale(0.015625)"/>
      </defs>
      <use xlink:href="#DejaVuSans-45"/>
      <use xlink:href="#DejaVuSans-73" x="63.183594"/>
      <use xlink:href="#DejaVuSans-74" x="115.283203"/>
      <use xlink:href="#DejaVuSans-69" x="154.492188"/>
      <use xlink:href="#DejaVuSans-6d" x="182.275391"/>
      <use xlink:href="#DejaVuSans-61" x="279.6875"/>
      <use xlink:href="#DejaVuSans-74" x="340.966797"/>
      <use xlink:href="#DejaVuSans-65" x="380.175781"/>
      <use xlink:href="#DejaVuSans-64" x="441.699219"/>
      <use xlink:href="#DejaVuSans-20" x="505.175781"/>
      <use xlink:href="#DejaVuSans-70" x="536.962891"/>
      <use xlink:href="#DejaVuSans-72" x="600.439453"/>
      <use xlink:href="#DejaVuSans-6f" x="639.302734"/>
      <use xlink:href="#DejaVuSans-62" x="700.484375"/>
      <use xlink:href="#DejaVuSans-61" x="763.960938"/>
      <use xlink:href="#DejaVuSans-62" x="825.240234"/>
      <use xlink:href="#DejaVuSans-69" x="888.716797"/>
      <use xlink:href="#DejaVuSans-6c" x="916.5"/>
      <use xlink:href="#DejaVuSans-69" x="944.283203"/>
      <use xlink:href="#DejaVuSans-74" x="972.066406"/>
      <use xlink:href="#DejaVuSans-79" x="1011.275391"/>
     </g>
    </g>
   </g>
   <g id="line2d_14">
    <path d="M 65.361932 94.140004 
L 65.971879 94.140004 
L 66.581826 68.940006 
L 67.191773 94.140004 
L 67.80172 94.140004 
L 68.411668 81.540005 
L 69.021615 61.740007 
L 69.631562 75.240011 
L 70.241509 85.740005 
L 70.851456 71.460004 
L 71.461403 80.394552 
L 72.071351 94.140004 
L 72.681298 94.140004 
L 73.291245 99.540003 
L 75.121086 98.587062 
L 75.731034 102.540003 
L 76.340981 98.118956 
L 78.780769 97.426964 
L 79.390717 94.140004 
L 80.610611 99.955388 
L 81.830505 104.940003 
L 82.440452 109.78138 
L 83.0504 109.26 
L 83.660347 106.333551 
L 84.270294 105.952503 
L 84.880241 107.885456 
L 85.490188 107.481179 
L 86.100135 104.940003 
L 86.710083 108.840008 
L 88.539924 107.709233 
L 89.149871 109.26 
L 90.979713 118.753959 
L 91.58966 119.912728 
L 92.199607 119.340001 
L 92.809554 120.435662 
L 93.419502 119.876172 
L 95.249343 122.868005 
L 95.85929 123.78706 
L 96.469237 126.124616 
L 98.299079 124.380008 
L 99.518973 125.971588 
L 101.348815 131.94 
L 101.958762 127.602305 
L 102.568709 129.501293 
L 104.398551 127.869236 
L 105.008498 129.649093 
L 105.618445 130.247471 
L 106.228392 129.716471 
L 106.838339 130.296531 
L 108.668181 128.790003 
L 109.278128 127.279735 
L 109.888075 127.853521 
L 110.498022 127.404002 
L 111.107969 127.961059 
L 111.717917 129.485454 
L 112.327864 129.032308 
L 112.937811 127.633679 
L 113.547758 127.215005 
L 114.157705 128.67334 
L 114.767652 127.330248 
L 115.3776 126.930365 
L 118.427335 129.36273 
L 119.037283 129.816405 
L 120.257177 129.032308 
L 120.867124 127.831305 
L 122.087018 128.722986 
L 123.306913 128.002504 
L 123.91686 129.212169 
L 124.526807 128.854294 
L 125.136754 129.267279 
L 125.746701 130.428008 
L 126.356649 129.320203 
L 126.966596 130.457647 
L 127.576543 130.105055 
L 128.18649 131.213085 
L 128.796437 130.860009 
L 129.406384 129.800386 
L 130.016332 130.17365 
L 130.626279 129.840006 
L 131.236226 130.89964 
L 131.846173 129.878184 
L 132.45612 130.237298 
L 133.066067 129.91501 
L 133.676015 130.936467 
L 137.335698 132.892941 
L 137.945645 132.569999 
L 138.555592 133.501987 
L 139.165539 132.55968 
L 140.995381 131.637606 
L 141.605328 130.74 
L 142.215275 131.642371 
L 142.825222 131.349384 
L 143.435169 132.233032 
L 144.045116 131.358464 
L 145.265011 130.794547 
L 145.874958 131.6558 
L 146.484905 131.375824 
L 147.094852 132.22001 
L 147.704799 131.94 
L 148.314747 130.560443 
L 151.97443 132.20434 
L 152.584377 131.94 
L 153.194324 132.20069 
L 153.804271 131.94 
L 154.414218 132.711435 
L 155.634113 130.164164 
L 156.24406 130.932006 
L 156.854007 130.688349 
L 158.073901 129.222353 
L 158.683848 129.485454 
L 159.293796 128.769681 
L 159.903743 129.516929 
L 160.51369 128.328544 
L 161.123637 127.633679 
L 161.733584 126.472082 
L 163.563426 127.273336 
L 164.173373 127.070066 
L 164.78332 127.330248 
L 165.393267 127.129096 
L 166.003214 127.385786 
L 167.223109 128.790003 
L 167.833056 128.137642 
L 168.443003 128.382358 
L 169.05295 127.74 
L 169.662897 127.544661 
L 170.272845 127.788565 
L 170.882792 127.595174 
L 172.102686 128.074095 
L 172.712633 127.455259 
L 173.32258 128.117534 
L 173.932528 126.660674 
L 175.762369 128.616923 
L 176.372316 128.841643 
L 176.982263 129.474786 
L 177.592211 129.692442 
L 178.202158 129.501293 
L 178.812105 129.716471 
L 179.422052 129.527237 
L 181.861841 130.365002 
L 182.471788 129.785606 
L 184.301629 130.397153 
L 185.521524 130.030918 
L 186.131471 130.610359 
L 188.57126 131.381389 
L 189.181207 131.94 
L 189.791154 131.01805 
L 190.401101 131.573011 
L 191.620995 131.94 
L 192.230943 131.759147 
L 192.84089 131.94 
L 193.450837 131.044275 
L 194.060784 131.583398 
L 195.280678 131.233464 
L 195.890626 130.357679 
L 197.720467 130.89964 
L 198.330414 130.731788 
L 198.940361 130.22182 
L 199.550309 130.400634 
L 200.770203 131.431485 
L 201.38015 131.602504 
L 202.600044 131.270978 
L 203.209992 131.773488 
L 203.819939 131.94 
L 204.429886 131.444812 
L 205.039833 130.625218 
L 205.64978 130.794547 
L 206.259727 130.636551 
L 207.479622 129.678462 
L 208.089569 129.527237 
L 209.309463 129.866592 
L 209.91941 129.716471 
L 210.529358 130.200258 
L 211.749252 129.900996 
L 212.969146 130.228894 
L 213.579093 130.080993 
L 214.189041 130.551431 
L 214.798988 130.403416 
L 215.408935 129.950529 
L 216.018882 130.415808 
L 216.628829 129.966515 
L 218.458671 131.34 
L 219.678565 131.047092 
L 220.288512 130.309419 
L 220.898459 130.463438 
L 221.508407 130.910433 
L 222.118354 129.59582 
L 222.728301 129.750819 
L 223.338248 129.032308 
L 224.558142 129.343061 
L 225.16809 128.921751 
L 225.778037 127.64455 
L 226.387984 127.803401 
L 226.997931 128.245271 
L 229.43772 128.860006 
L 230.047667 129.289821 
L 230.657614 129.160597 
L 231.267561 129.586154 
L 234.317297 128.948641 
L 235.537191 128.160004 
L 236.147139 128.577011 
L 236.757086 128.186815 
L 237.367033 128.333647 
L 237.97698 128.213243 
L 238.586927 128.358949 
L 239.196874 128.2393 
L 239.806822 127.593664 
L 240.416769 127.74 
L 241.026716 127.362152 
L 241.636663 127.247595 
L 242.24661 127.393616 
L 242.856557 126.761927 
L 244.076452 126.540001 
L 244.686399 125.661365 
L 245.296346 125.81027 
L 245.906293 125.703644 
L 246.51624 126.105105 
L 247.126188 125.49251 
L 247.736135 125.136009 
L 248.346082 125.033033 
L 249.565976 125.328127 
L 250.175923 125.225534 
L 250.785871 124.875747 
L 251.395818 125.022354 
L 252.615712 124.82182 
L 253.225659 124.477869 
L 253.835606 124.623878 
L 254.445554 124.525859 
L 255.055501 124.186155 
L 255.665448 123.607097 
L 256.275395 123.513257 
L 256.885342 123.180008 
L 257.495289 122.609624 
L 258.105237 122.758303 
L 259.325131 122.578881 
L 259.935078 122.726254 
L 261.154972 123.487831 
L 261.76492 122.92886 
L 262.374867 123.306674 
L 262.984814 123.449541 
L 263.594761 123.823435 
L 264.204708 123.963857 
L 265.424603 124.70171 
L 266.03455 124.150917 
L 266.644497 124.060243 
L 267.254444 124.197837 
L 267.864391 123.653521 
L 268.474338 123.338803 
L 269.084286 122.8003 
L 270.30418 122.630217 
L 270.914127 122.993263 
L 271.524074 123.13115 
L 272.134021 123.490591 
L 272.743969 123.626225 
L 273.353916 123.540001 
L 273.963863 123.895105 
L 275.183757 123.722611 
L 275.793704 123.418617 
L 277.623546 123.16694 
L 278.233493 122.868005 
L 279.453387 123.134327 
L 280.063335 123.052192 
L 280.673282 123.184074 
L 281.283229 122.889296 
L 281.893176 122.808546 
L 282.503123 122.304707 
L 283.723018 122.147804 
L 284.332965 121.86001 
L 284.942912 121.783215 
L 285.552859 121.915694 
L 286.162806 121.839181 
L 286.772753 121.555386 
L 287.382701 121.066033 
L 288.602595 121.331285 
L 289.822489 122.003417 
L 290.432436 121.928109 
L 291.042384 122.056983 
L 292.262278 121.907302 
L 294.092119 122.288935 
L 294.702067 122.013747 
L 295.921961 122.265594 
L 296.531908 122.191581 
L 298.36175 122.564022 
L 298.971697 122.490009 
L 299.581644 122.612733 
L 300.801538 123.24698 
L 302.021433 123.097332 
L 302.63138 123.216924 
L 303.241327 122.949216 
L 304.461221 122.802598 
L 305.071168 123.11361 
L 306.291063 123.349099 
L 306.90101 123.275526 
L 307.510957 123.582212 
L 308.120904 123.697895 
L 309.950746 124.605674 
L 313.000482 125.160151 
L 313.610429 124.342945 
L 314.220376 124.269101 
L 314.830323 124.380008 
L 315.44027 124.306423 
L 317.270112 124.635662 
L 317.880059 124.926509 
L 318.490006 125.034238 
L 319.099953 124.960147 
L 319.7099 125.06728 
L 320.319848 124.813034 
L 320.929795 124.740001 
L 321.539742 124.487749 
L 322.149689 124.057539 
L 322.759636 123.986816 
L 323.369583 123.203214 
L 323.979531 123.490591 
L 324.589478 123.599155 
L 325.199425 123.176076 
L 325.809372 123.108225 
L 327.029266 123.325116 
L 328.249161 123.890002 
L 328.859108 123.995895 
L 330.079002 123.511038 
L 331.298897 123.376621 
L 331.908844 123.482469 
L 332.518791 123.415632 
L 333.128738 123.177281 
L 333.738685 123.454295 
L 334.95858 123.663254 
L 336.178474 123.530572 
L 336.788421 123.634179 
L 338.008315 123.50251 
L 338.618263 123.268733 
L 340.448104 123.075398 
L 341.058051 123.345303 
L 341.667998 123.280978 
L 342.887893 123.484745 
L 343.49784 123.420533 
L 344.107787 123.521661 
L 344.717734 123.457652 
L 345.327681 123.558262 
L 345.937629 123.494455 
L 346.547576 123.594547 
L 347.157523 123.530932 
L 347.76747 123.630517 
L 348.377417 123.892266 
L 349.597312 123.764845 
L 350.207259 123.055391 
L 351.427153 122.932341 
L 352.0371 123.19223 
L 354.476889 122.947582 
L 355.086836 123.045883 
L 355.696783 123.30227 
L 357.526625 123.592508 
L 358.746519 123.156598 
L 359.356466 123.409571 
L 359.966414 123.505293 
L 360.576361 123.444742 
L 363.016149 123.823435 
L 364.236044 123.394589 
L 364.845991 123.027814 
L 367.28578 122.794848 
L 367.895727 122.889296 
L 368.505674 122.831573 
L 369.115621 122.925581 
L 369.725568 123.17041 
L 369.725568 123.17041 
" clip-path="url(#p4b4a27c6c4)" style="fill: none; stroke: #1f77b4; stroke-width: 1.5; stroke-linecap: square"/>
   </g>
   <g id="line2d_15">
    <path d="M 65.361932 245.34 
L 65.971879 131.94 
L 66.581826 119.340001 
L 67.191773 75.240011 
L 67.80172 63.900011 
L 68.411668 56.340008 
L 69.021615 61.740007 
L 69.631562 75.240011 
L 70.241509 77.340005 
L 70.851456 79.020008 
L 71.461403 94.140004 
L 72.071351 100.440009 
L 72.681298 111.586156 
L 73.291245 104.940003 
L 74.511139 84.690002 
L 75.121086 94.140004 
L 75.731034 81.540005 
L 76.340981 90.161063 
L 76.950928 90.360008 
L 77.560875 83.340005 
L 78.170822 83.830912 
L 78.780769 87.566095 
L 79.390717 84.690002 
L 80.610611 91.232312 
L 81.220558 91.340008 
L 81.830505 88.740004 
L 82.440452 91.533106 
L 83.0504 96.660001 
L 84.270294 101.227508 
L 84.880241 98.721829 
L 86.100135 102.78001 
L 86.710083 102.540003 
L 87.32003 104.356225 
L 87.929977 104.087379 
L 88.539924 105.770772 
L 90.979713 104.688843 
L 91.58966 104.449096 
L 92.199607 100.860001 
L 92.809554 102.357393 
L 93.419502 102.182556 
L 94.029449 100.440009 
L 95.85929 100.069415 
L 96.469237 101.409239 
L 97.079185 98.419255 
L 98.909026 102.240009 
L 99.518973 102.097897 
L 100.12892 104.567595 
L 100.738868 104.390854 
L 101.348815 100.440009 
L 102.568709 102.67549 
L 103.788603 102.408751 
L 104.398551 103.444616 
L 105.008498 105.594549 
L 105.618445 103.166871 
L 106.228392 104.145891 
L 106.838339 106.192183 
L 107.448286 106.020005 
L 108.058234 106.917476 
L 108.668181 106.740003 
L 109.278128 104.496173 
L 111.107969 110.05579 
L 111.717917 109.849095 
L 112.327864 108.678464 
L 112.937811 105.623546 
L 113.547758 105.480004 
L 114.157705 106.273338 
L 114.767652 107.96927 
L 115.3776 106.891813 
L 115.987547 108.540002 
L 116.597494 109.26 
L 117.207441 107.326056 
L 117.817388 108.912421 
L 118.427335 109.603647 
L 119.037283 108.580456 
L 119.64723 108.420005 
L 120.257177 109.924618 
L 120.867124 108.931313 
L 121.477071 110.398075 
L 122.696966 110.05579 
L 123.306913 109.1025 
L 125.746701 111.528005 
L 126.356649 111.355849 
L 127.576543 109.553596 
L 128.18649 109.40539 
L 129.406384 110.54378 
L 131.236226 108.011571 
L 131.846173 109.26 
L 133.676015 110.865674 
L 134.285962 110.718955 
L 134.895909 109.917397 
L 135.505856 108.477942 
L 136.115803 109.001541 
L 137.335698 108.751767 
L 137.945645 109.26 
L 138.555592 108.510251 
L 139.165539 108.392461 
L 139.775486 108.89122 
L 141.605328 108.540002 
L 142.215275 107.236069 
L 142.825222 105.361876 
L 143.435169 105.274886 
L 144.045116 106.352308 
L 144.655064 106.259088 
L 147.094852 108.140006 
L 147.704799 108.037064 
L 148.314747 108.48745 
L 148.924694 107.287833 
L 149.534641 106.649362 
L 150.144588 105.480004 
L 150.754535 106.471923 
L 151.364482 106.917476 
L 151.97443 106.82812 
L 152.584377 105.690011 
L 153.194324 105.088975 
L 153.804271 105.013982 
L 154.414218 103.911438 
L 155.024165 103.334599 
L 155.634113 104.287653 
L 156.24406 104.220005 
L 156.854007 105.154572 
L 158.073901 105.010591 
L 158.683848 105.43091 
L 159.293796 105.358068 
L 159.903743 104.316931 
L 161.733584 105.551324 
L 162.343531 105.480004 
L 164.173373 106.6627 
L 164.78332 106.125369 
L 166.003214 105.980971 
L 167.223109 106.740003 
L 167.833056 107.560126 
L 168.443003 107.925887 
L 169.05295 107.845273 
L 169.662897 107.326056 
L 170.272845 105.501858 
L 170.882792 105.871044 
L 171.492739 105.804004 
L 172.712633 106.526447 
L 173.32258 105.607425 
L 173.932528 105.965706 
L 175.152422 104.999675 
L 175.762369 105.355387 
L 176.372316 104.880984 
L 176.982263 103.590006 
L 177.592211 103.130281 
L 178.202158 103.081942 
L 178.812105 102.629844 
L 179.422052 102.986818 
L 180.031999 102.140007 
L 180.641946 102.495798 
L 181.251894 101.264616 
L 181.861841 102.015007 
L 182.471788 101.190783 
L 183.081735 101.933818 
L 183.691682 101.893849 
L 184.911577 102.582642 
L 185.521524 102.158189 
L 186.741418 102.834004 
L 187.351365 102.414632 
L 187.961312 102.373671 
L 189.181207 103.034121 
L 189.791154 102.621958 
L 190.401101 103.314761 
L 192.230943 104.268232 
L 193.450837 104.172229 
L 194.060784 103.768312 
L 194.670731 104.078029 
L 195.280678 104.031593 
L 195.890626 104.33722 
L 197.11052 104.243234 
L 197.720467 104.890469 
L 199.550309 105.770772 
L 200.160256 105.377839 
L 200.770203 105.666467 
L 201.990097 104.220005 
L 202.600044 104.509917 
L 203.819939 104.41895 
L 204.429886 105.034327 
L 205.039833 104.986968 
L 205.64978 105.267282 
L 206.869675 106.469625 
L 207.479622 106.093849 
L 208.089569 106.686391 
L 208.699516 106.312891 
L 209.309463 106.580509 
L 209.91941 106.528238 
L 210.529358 106.160089 
L 211.139305 106.425003 
L 211.749252 106.374027 
L 213.579093 107.153123 
L 214.189041 106.791428 
L 214.798988 106.740003 
L 215.408935 107.301137 
L 216.018882 106.63839 
L 216.628829 107.195424 
L 217.238776 106.840804 
L 218.458671 106.740003 
L 219.068618 107.287833 
L 220.898459 108.019693 
L 221.508407 107.671528 
L 222.118354 108.205119 
L 222.728301 108.150821 
L 223.338248 108.678464 
L 223.948195 108.622768 
L 224.558142 108.278941 
L 225.16809 107.650271 
L 226.387984 107.548309 
L 226.997931 107.782108 
L 228.827773 107.629971 
L 230.047667 108.088344 
L 230.657614 107.481179 
L 232.487456 108.160374 
L 233.097403 108.109567 
L 233.70735 107.78622 
L 234.317297 108.00907 
L 234.927244 107.959356 
L 235.537191 108.450004 
L 236.147139 108.130036 
L 237.367033 108.031172 
L 238.586927 108.464221 
L 239.196874 108.942804 
L 239.806822 108.89122 
L 240.416769 108.315001 
L 241.026716 108.004361 
L 241.636663 107.956562 
L 242.24661 107.129691 
L 242.856557 107.344114 
L 243.466505 107.815093 
L 244.076452 108.02572 
L 244.686399 108.49119 
L 245.296346 108.187298 
L 245.906293 108.394556 
L 247.126188 107.79352 
L 249.565976 108.611289 
L 250.785871 108.516402 
L 252.005765 109.407755 
L 253.835606 108.528388 
L 254.445554 108.482133 
L 255.055501 108.92078 
L 256.885342 109.500007 
L 258.105237 109.403092 
L 258.715184 109.117359 
L 259.325131 109.070417 
L 259.935078 108.551256 
L 260.545025 107.799817 
L 261.154972 107.992183 
L 261.76492 108.417402 
L 262.374867 107.440004 
L 262.984814 107.864311 
L 263.594761 107.590317 
L 264.204708 107.549176 
L 265.424603 107.927239 
L 266.03455 108.343637 
L 266.644497 107.843932 
L 267.864391 108.669733 
L 268.474338 108.85258 
L 269.694233 108.765004 
L 270.30418 109.170272 
L 270.914127 108.678464 
L 271.524074 108.635577 
L 272.743969 108.993959 
L 273.353916 108.950532 
L 273.963863 108.246125 
L 275.183757 109.040879 
L 275.793704 108.997812 
L 277.013599 109.3469 
L 277.623546 109.736566 
L 278.233493 109.908001 
L 278.84344 109.863087 
L 279.453387 110.247965 
L 281.893176 110.066977 
L 283.11307 110.400339 
L 283.723018 110.776216 
L 284.942912 111.102887 
L 285.552859 111.473706 
L 286.162806 111.425952 
L 286.772753 111.170771 
L 287.382701 111.124111 
L 287.992648 111.490829 
L 288.602595 111.443549 
L 289.212542 111.191094 
L 290.432436 111.916217 
L 291.042384 112.072084 
L 291.652331 111.820654 
L 292.872225 112.130381 
L 293.482172 112.485609 
L 294.092119 112.235746 
L 294.702067 112.388277 
L 295.312014 112.740002 
L 295.921961 112.092508 
L 296.531908 112.244217 
L 297.141855 112.593553 
L 297.751802 112.347339 
L 298.36175 112.49719 
L 298.971697 112.843136 
L 299.581644 112.990913 
L 300.191591 112.942078 
L 300.801538 112.69814 
L 302.021433 112.602735 
L 302.63138 112.749239 
L 303.241327 112.701644 
L 303.851274 112.847146 
L 304.461221 112.79955 
L 306.291063 113.230909 
L 306.90101 113.563685 
L 307.510957 113.324929 
L 308.120904 113.276849 
L 309.950746 112.569851 
L 310.560693 112.524125 
L 311.780587 112.060007 
L 313.000482 111.971947 
L 314.220376 112.624116 
L 314.830323 112.579032 
L 315.44027 112.718102 
L 316.050217 113.040008 
L 316.660165 112.628138 
L 317.270112 112.583482 
L 319.099953 112.994676 
L 319.7099 112.768717 
L 320.319848 112.904678 
L 320.929795 112.680003 
L 322.149689 112.592134 
L 323.369583 113.218303 
L 323.979531 113.173422 
L 324.589478 112.773809 
L 325.809372 112.68674 
L 326.419319 112.467281 
L 327.029266 111.897213 
L 327.639214 112.031416 
L 328.859108 111.948785 
L 330.688949 112.866612 
L 331.298897 112.823759 
L 331.908844 112.435896 
L 332.518791 112.222013 
L 333.128738 112.352735 
L 333.738685 111.968578 
L 334.348632 111.928237 
L 334.95858 112.058746 
L 336.178474 111.97821 
L 336.788421 111.76871 
L 337.398368 111.898396 
L 338.008315 111.858753 
L 338.618263 111.987662 
L 339.838157 111.908523 
L 340.448104 112.036463 
L 341.058051 111.830072 
L 341.667998 111.45807 
L 342.277946 111.586156 
L 342.887893 111.547899 
L 344.107787 111.80201 
L 344.717734 111.43412 
L 345.327681 111.396527 
L 346.547576 111.649095 
L 347.157523 111.937847 
L 347.76747 111.899488 
L 348.987365 111.498805 
L 349.597312 111.461629 
L 350.207259 111.586156 
L 351.427153 111.511918 
L 352.647048 111.117971 
L 353.866942 111.046335 
L 354.476889 111.169904 
L 355.086836 111.451772 
L 355.696783 111.573967 
L 356.306731 111.853808 
L 356.916678 111.659008 
L 358.136572 111.900502 
L 358.746519 111.706807 
L 360.576361 112.065775 
L 361.796255 111.681685 
L 362.406202 111.645738 
L 363.016149 111.300739 
L 363.626097 111.420004 
L 364.236044 111.230838 
L 364.845991 111.349765 
L 365.455938 111.161511 
L 366.065885 111.28009 
L 366.675832 111.092737 
L 367.28578 111.210977 
L 367.895727 111.480848 
L 368.505674 111.597838 
L 369.725568 111.528005 
L 369.725568 111.528005 
" clip-path="url(#p4b4a27c6c4)" style="fill: none; stroke: #ff7f0e; stroke-width: 1.5; stroke-linecap: square"/>
   </g>
   <g id="line2d_16">
    <path d="M 65.361932 94.140004 
L 65.971879 131.94 
L 66.581826 119.340001 
L 67.191773 113.040008 
L 67.80172 124.380008 
L 68.411668 131.94 
L 69.021615 126.540001 
L 69.631562 122.490009 
L 70.241509 136.14 
L 71.461403 142.249092 
L 72.071351 131.94 
L 73.291245 126.540001 
L 73.901192 124.380008 
L 74.511139 127.215005 
L 75.121086 134.163529 
L 75.731034 136.14 
L 76.340981 133.929482 
L 76.950928 128.160004 
L 77.560875 126.540001 
L 78.170822 131.94 
L 78.780769 130.296531 
L 79.390717 135.090008 
L 80.000664 130.428008 
L 81.220558 133.340004 
L 81.830505 137.339999 
L 82.440452 130.636551 
L 83.0504 131.94 
L 84.270294 139.027504 
L 84.880241 135.376371 
L 86.100135 133.020002 
L 86.710083 129.840006 
L 87.32003 128.875135 
L 87.929977 131.94 
L 88.539924 130.970769 
L 89.149871 131.94 
L 89.759819 129.174149 
L 90.979713 127.544661 
L 92.199607 132.780007 
L 92.809554 131.94 
L 94.029449 133.51501 
L 95.249343 128.916005 
L 96.469237 127.578468 
L 97.079185 128.373965 
L 97.689132 130.540008 
L 98.299079 131.252728 
L 98.909026 133.290008 
L 99.518973 131.276847 
L 100.12892 130.636551 
L 101.348815 131.94 
L 101.958762 130.080993 
L 103.178656 131.34 
L 103.788603 130.758757 
L 105.008498 127.358186 
L 106.228392 128.604712 
L 106.838339 125.913921 
L 108.668181 130.890009 
L 109.278128 131.422192 
L 109.888075 129.89676 
L 111.107969 124.976842 
L 112.937811 129.547604 
L 113.547758 130.050002 
L 114.157705 127.74 
L 114.767652 126.408298 
L 115.3776 126.019522 
L 115.987547 126.540001 
L 116.597494 125.269412 
L 117.207441 125.786511 
L 117.817388 125.422767 
L 119.037283 126.418651 
L 120.867124 125.366091 
L 121.477071 126.656134 
L 122.087018 127.114473 
L 122.696966 125.971588 
L 123.306913 125.640006 
L 123.91686 126.094639 
L 125.136754 125.449094 
L 126.356649 127.823172 
L 126.966596 126.751765 
L 127.576543 127.169132 
L 128.18649 128.305393 
L 128.796437 128.700005 
L 129.406384 129.800386 
L 130.016332 128.05402 
L 130.626279 128.440002 
L 131.236226 128.125329 
L 132.45612 128.875135 
L 133.066067 127.890009 
L 133.676015 128.260355 
L 135.505856 125.422767 
L 136.72575 124.892544 
L 137.335698 123.998824 
L 137.945645 125.010007 
L 138.555592 124.754882 
L 139.165539 125.743286 
L 139.775486 124.871714 
L 140.385433 125.233555 
L 140.995381 126.194404 
L 141.605328 125.940001 
L 142.215275 123.903779 
L 142.825222 124.26188 
L 143.435169 124.028373 
L 144.045116 124.961544 
L 144.655064 125.303366 
L 145.265011 124.494553 
L 145.874958 123.129483 
L 146.484905 124.041497 
L 147.094852 123.819999 
L 147.704799 124.157653 
L 148.314747 125.042192 
L 148.924694 125.366091 
L 149.534641 125.141439 
L 150.144588 125.46001 
L 150.754535 124.70171 
L 151.364482 124.486487 
L 151.97443 125.331608 
L 153.804271 126.244118 
L 154.414218 125.511436 
L 155.634113 126.105105 
L 156.24406 124.884005 
L 156.854007 124.179745 
L 158.073901 124.775295 
L 158.683848 124.576373 
L 162.953479 126.540001 
L 164.173373 126.14246 
L 164.78332 124.564398 
L 165.393267 124.380008 
L 166.003214 123.742415 
L 167.223109 124.290009 
L 167.833056 124.111601 
L 168.443003 123.490591 
L 169.05295 123.761059 
L 169.662897 124.46791 
L 170.882792 124.119318 
L 172.102686 125.496825 
L 172.712633 125.74679 
L 173.32258 125.569215 
L 173.932528 125.815981 
L 174.542475 125.640006 
L 175.762369 123.632309 
L 176.372316 123.884268 
L 176.982263 123.311744 
L 179.422052 124.299585 
L 180.031999 124.940004 
L 180.641946 124.777897 
L 181.251894 125.013308 
L 182.471788 124.693374 
L 183.081735 124.925574 
L 184.301629 123.840006 
L 186.131471 125.671662 
L 188.57126 125.050348 
L 189.181207 125.269412 
L 189.791154 125.855128 
L 190.401101 124.967188 
L 191.011048 125.183481 
L 191.620995 125.034238 
L 192.230943 125.60986 
L 192.84089 125.820003 
L 193.450837 125.669859 
L 194.060784 125.164533 
L 195.890626 125.786511 
L 196.500573 124.940004 
L 197.11052 124.798073 
L 197.720467 124.310647 
L 198.330414 124.863288 
L 198.940361 124.723644 
L 199.550309 125.269412 
L 200.160256 125.469732 
L 200.770203 125.329242 
L 201.990097 125.724 
L 202.600044 125.249743 
L 203.209992 125.11269 
L 204.429886 125.502446 
L 205.039833 125.366091 
L 205.64978 125.558187 
L 206.259727 125.422767 
L 206.869675 125.61297 
L 207.479622 126.124616 
L 208.089569 125.666818 
L 209.309463 125.400766 
L 209.91941 125.587059 
L 210.529358 125.455481 
L 211.139305 125.640006 
L 211.749252 126.136681 
L 212.359199 126.004472 
L 212.969146 126.495559 
L 213.579093 126.053115 
L 214.189041 126.231433 
L 214.798988 126.715615 
L 215.408935 126.583732 
L 216.018882 126.757747 
L 216.628829 126.626754 
L 217.238776 125.891999 
L 218.458671 125.040006 
L 219.678565 125.391979 
L 220.288512 125.269412 
L 220.898459 123.966572 
L 221.508407 123.556347 
L 222.118354 124.028373 
L 222.728301 123.329194 
L 223.338248 123.798471 
L 225.16809 124.32251 
L 225.778037 124.208189 
L 226.387984 124.665289 
L 226.997931 123.982107 
L 227.607878 123.870344 
L 228.217825 123.195227 
L 230.047667 122.036683 
L 230.657614 122.212061 
L 231.267561 122.109232 
L 231.877508 122.283066 
L 233.097403 122.079131 
L 234.317297 122.422023 
L 234.927244 122.320647 
L 236.757086 122.825106 
L 237.367033 122.723753 
L 237.97698 122.889296 
L 239.196874 122.688256 
L 239.806822 122.852199 
L 240.416769 122.752502 
L 241.026716 123.176684 
L 241.636663 123.337248 
L 242.856557 124.172884 
L 243.466505 124.070381 
L 244.076452 124.482859 
L 244.686399 124.380008 
L 245.296346 123.76703 
L 245.906293 123.412737 
L 247.126188 124.228298 
L 247.736135 124.128003 
L 248.346082 123.777214 
L 248.956029 123.679082 
L 249.565976 123.082574 
L 250.785871 122.892788 
L 251.395818 122.057648 
L 252.005765 121.720456 
L 253.835606 122.185171 
L 254.445554 121.608817 
L 255.055501 121.278463 
L 256.275395 121.587142 
L 257.495289 122.370383 
L 258.105237 122.281331 
L 258.715184 122.668305 
L 259.935078 122.490009 
L 260.545025 122.872713 
L 261.154972 122.783481 
L 262.374867 123.540001 
L 263.594761 123.359632 
L 264.204708 122.807893 
L 264.814655 123.181472 
L 266.644497 123.603447 
L 267.864391 123.426492 
L 268.474338 123.791498 
L 269.084286 123.928664 
L 269.694233 123.840006 
L 270.30418 124.20054 
L 271.524074 124.469206 
L 272.134021 124.157653 
L 272.743969 123.404525 
L 273.353916 123.097895 
L 273.963863 123.013473 
L 275.183757 123.284358 
L 275.793704 123.637119 
L 276.403652 123.769981 
L 277.013599 123.684827 
L 277.623546 123.38356 
L 278.233493 123.732006 
L 278.84344 123.863078 
L 279.453387 123.778644 
L 280.063335 123.48052 
L 281.893176 124.507418 
L 283.723018 124.885413 
L 284.332965 124.8 
L 284.942912 124.924492 
L 285.552859 124.839451 
L 286.772753 125.501545 
L 287.992648 125.743286 
L 289.212542 125.571525 
L 289.822489 125.076585 
L 290.432436 125.197303 
L 291.042384 124.909814 
L 292.262278 125.55555 
L 292.872225 125.673689 
L 293.482172 125.992801 
L 294.092119 126.109149 
L 294.702067 125.623289 
L 295.312014 125.340001 
L 296.531908 125.573688 
L 297.751802 125.409113 
L 298.36175 125.130083 
L 298.971697 124.458752 
L 299.581644 124.772738 
L 302.021433 125.235121 
L 302.63138 125.54308 
L 303.241327 125.656116 
L 303.851274 125.961438 
L 304.461221 125.880464 
L 305.071168 125.608024 
L 305.681116 125.528356 
L 306.90101 124.98938 
L 308.120904 125.213694 
L 308.730851 125.136009 
L 309.340799 124.681647 
L 309.950746 124.605674 
L 310.560693 124.717673 
L 311.17064 125.016248 
L 311.780587 124.753339 
L 312.390534 124.305521 
L 313.000482 124.045654 
L 313.610429 123.972362 
L 314.220376 124.269101 
L 314.830323 124.380008 
L 315.44027 124.122483 
L 316.050217 123.682721 
L 317.270112 123.540001 
L 317.880059 123.833495 
L 318.490006 123.398655 
L 319.099953 123.147203 
L 320.319848 123.369602 
L 320.929795 123.300005 
L 321.539742 123.410315 
L 322.149689 123.699247 
L 323.369583 123.916419 
L 324.589478 123.776628 
L 325.809372 123.991412 
L 326.419319 124.274272 
L 327.639214 124.485248 
L 328.859108 123.995895 
L 332.518791 124.621096 
L 333.128738 124.551826 
L 333.738685 124.825718 
L 334.348632 124.75629 
L 334.95858 124.345874 
L 335.568527 124.277843 
L 336.788421 124.48171 
L 337.398368 124.752088 
L 338.008315 124.683753 
L 339.22821 124.884005 
L 339.838157 125.151093 
L 341.058051 125.347954 
L 341.667998 125.612249 
L 344.107787 125.337387 
L 345.937629 125.626341 
L 346.547576 125.394547 
L 347.157523 124.837198 
L 347.76747 124.933966 
L 349.597312 125.707451 
L 350.207259 125.801539 
L 350.817206 126.056427 
L 352.0371 125.920895 
L 352.647048 126.013732 
L 353.256995 125.626691 
L 353.866942 125.400766 
L 354.476889 125.49411 
L 355.086836 125.428242 
L 355.696783 125.045661 
L 357.526625 124.852507 
L 358.136572 124.945829 
L 358.746519 124.881909 
L 359.356466 124.974792 
L 359.966414 125.223473 
L 360.576361 125.159384 
L 361.186308 124.940004 
L 361.796255 125.187232 
L 362.406202 125.278526 
L 363.016149 125.524053 
L 364.845991 125.793665 
L 365.455938 125.422767 
L 367.28578 125.690813 
L 367.895727 125.475218 
L 368.505674 125.41229 
L 369.115621 124.895112 
L 369.725568 124.984806 
L 369.725568 124.984806 
" clip-path="url(#p4b4a27c6c4)" style="fill: none; stroke: #2ca02c; stroke-width: 1.5; stroke-linecap: square"/>
   </g>
   <g id="line2d_17">
    <path d="M 65.361932 94.140004 
L 65.971879 169.740002 
L 66.581826 194.939999 
L 67.191773 188.64 
L 67.80172 184.860004 
L 68.411668 194.939999 
L 69.021615 191.34 
L 69.631562 179.190004 
L 70.241509 161.340003 
L 70.851456 169.740002 
L 71.461403 162.867276 
L 72.071351 150.840004 
L 72.681298 134.847692 
L 73.901192 149.580005 
L 74.511139 150.840004 
L 75.121086 147.504704 
L 75.731034 152.940004 
L 76.340981 149.845268 
L 77.560875 151.740004 
L 78.170822 149.121824 
L 78.780769 150.018269 
L 79.390717 153.990006 
L 80.000664 151.596005 
L 80.610611 146.47846 
L 81.220558 150.140002 
L 81.830505 150.840004 
L 82.440452 154.098626 
L 83.0504 154.620006 
L 83.660347 152.669034 
L 84.270294 148.477506 
L 84.880241 149.121824 
L 85.490188 147.504704 
L 86.100135 148.139998 
L 86.710083 150.840004 
L 87.929977 151.834739 
L 89.149871 141.390002 
L 89.759819 143.925365 
L 90.369766 142.739999 
L 90.979713 143.367914 
L 91.58966 142.249092 
L 92.199607 142.860008 
L 92.809554 138.51392 
L 94.029449 133.51501 
L 94.639396 135.797152 
L 95.249343 133.452003 
L 95.85929 129.716471 
L 96.469237 130.48616 
L 97.079185 129.800386 
L 97.689132 127.74 
L 98.299079 128.50364 
L 98.909026 125.190003 
L 99.518973 125.971588 
L 100.12892 121.51242 
L 100.738868 123.611186 
L 101.348815 121.86001 
L 101.958762 122.644918 
L 103.178656 121.740001 
L 104.398551 125.54308 
L 105.008498 122.776373 
L 105.618445 122.348957 
L 106.228392 124.157653 
L 107.448286 125.46001 
L 108.058234 125.018873 
L 108.668181 123.540001 
L 109.278128 125.208501 
L 109.888075 125.81027 
L 111.107969 124.976842 
L 111.717917 125.558187 
L 112.327864 125.155385 
L 112.937811 125.719753 
L 113.547758 125.325007 
L 114.157705 124.006676 
L 114.767652 121.798547 
L 115.3776 122.376151 
L 115.987547 120.240007 
L 117.817388 119.340001 
L 119.037283 115.375964 
L 119.64723 115.140002 
L 120.867124 116.326956 
L 121.477071 116.088392 
L 123.306913 117.765003 
L 123.91686 116.742071 
L 124.526807 117.28286 
L 125.136754 117.049094 
L 125.746701 115.308001 
L 126.356649 115.846932 
L 126.966596 115.634119 
L 127.576543 116.893408 
L 128.18649 115.9477 
L 128.796437 117.180008 
L 129.406384 117.675849 
L 130.016332 118.868977 
L 131.236226 118.415235 
L 132.45612 119.340001 
L 133.066067 120.465008 
L 133.676015 119.563009 
L 134.285962 120.666319 
L 135.505856 121.51242 
L 136.115803 120.632309 
L 136.72575 119.126445 
L 137.335698 120.18706 
L 137.945645 119.970001 
L 138.555592 119.13174 
L 139.165539 118.926892 
L 139.775486 119.954635 
L 140.385433 120.356129 
L 140.995381 118.936806 
L 142.825222 120.1275 
L 143.435169 119.926055 
L 144.045116 119.14616 
L 145.265011 118.767275 
L 145.874958 118.013684 
L 147.094852 117.66001 
L 147.704799 116.931181 
L 148.314747 116.764826 
L 148.924694 117.696521 
L 149.534641 117.527058 
L 150.144588 117.900006 
L 150.754535 117.7315 
L 151.364482 118.097757 
L 151.97443 117.930219 
L 153.194324 119.687591 
L 153.804271 117.959182 
L 155.024165 119.680551 
L 155.634113 120.016515 
L 156.24406 119.340001 
L 156.854007 119.173117 
L 157.463954 119.505792 
L 158.073901 118.845884 
L 158.683848 119.66728 
L 159.293796 119.990323 
L 159.903743 120.793853 
L 160.51369 121.105608 
L 161.123637 120.934939 
L 162.343531 121.54501 
L 162.953479 120.905221 
L 164.173373 120.576816 
L 164.78332 121.337572 
L 166.003214 121.92073 
L 166.613162 120.39629 
L 167.223109 119.790004 
L 167.833056 120.085571 
L 168.443003 119.932949 
L 169.662897 120.512097 
L 170.272845 121.233649 
L 170.882792 121.51242 
L 171.492739 120.492 
L 172.102686 120.771818 
L 173.32258 120.47259 
L 173.932528 121.170169 
L 174.542475 120.180008 
L 176.982263 121.257397 
L 177.592211 120.702165 
L 178.202158 120.559355 
L 178.812105 120.822354 
L 179.422052 121.484685 
L 180.031999 120.940009 
L 180.641946 121.196846 
L 181.251894 120.659379 
L 181.861841 120.521256 
L 182.471788 121.167984 
L 183.081735 120.638978 
L 183.691682 120.890779 
L 184.911577 120.619196 
L 185.521524 120.86728 
L 186.741418 119.088008 
L 187.961312 118.840995 
L 188.57126 119.464145 
L 190.401101 119.095342 
L 191.011048 119.340001 
L 191.620995 118.491929 
L 192.230943 118.013684 
L 193.450837 119.220578 
L 194.060784 119.10227 
L 194.670731 118.630142 
L 195.890626 119.105582 
L 197.11052 120.269037 
L 197.720467 119.455606 
L 198.330414 120.030416 
L 198.940361 119.569092 
L 201.38015 119.115 
L 201.990097 119.340001 
L 202.600044 119.228498 
L 203.209992 118.784939 
L 203.819939 119.00843 
L 204.429886 119.560091 
L 205.039833 119.778266 
L 206.259727 118.905522 
L 206.869675 119.123697 
L 207.479622 119.663078 
L 210.529358 119.129127 
L 211.749252 118.294358 
L 212.359199 118.819343 
L 212.969146 117.784447 
L 213.579093 117.997383 
L 214.189041 117.591439 
L 214.798988 117.803417 
L 216.628829 117.518316 
L 217.238776 118.029602 
L 217.848724 117.934433 
L 218.458671 118.140001 
L 219.068618 118.045148 
L 219.678565 117.355758 
L 220.898459 118.35563 
L 221.508407 118.555566 
L 222.118354 118.460938 
L 222.728301 118.95082 
L 223.338248 118.855392 
L 223.948195 118.471043 
L 224.558142 118.666721 
L 225.778037 119.626365 
L 226.387984 119.530193 
L 226.997931 119.718954 
L 227.607878 119.340001 
L 228.217825 119.528064 
L 228.827773 119.433683 
L 229.43772 118.780004 
L 230.047667 118.689082 
L 231.267561 119.063078 
L 232.487456 118.88182 
L 233.097403 119.066097 
L 233.70735 118.97611 
L 234.927244 119.340001 
L 235.537191 119.790004 
L 236.147139 119.698721 
L 236.757086 119.071921 
L 237.367033 119.25096 
L 237.97698 119.162539 
L 238.586927 118.809474 
L 239.196874 118.987556 
L 239.806822 119.427814 
L 240.416769 119.602505 
L 241.026716 119.252808 
L 241.636663 119.426902 
L 242.24661 119.080213 
L 242.856557 118.994799 
L 243.466505 119.167992 
L 244.076452 118.825719 
L 244.686399 118.998314 
L 245.906293 118.830912 
L 246.51624 118.494362 
L 247.126188 118.665763 
L 247.736135 118.332007 
L 248.346082 118.753959 
L 248.956029 118.672455 
L 249.565976 118.341988 
L 250.175923 118.262376 
L 250.785871 118.679022 
L 252.005765 119.011663 
L 252.615712 118.930914 
L 253.225659 119.095342 
L 253.835606 118.77097 
L 254.445554 118.934857 
L 255.055501 118.613087 
L 258.715184 118.151323 
L 259.325131 118.313047 
L 259.935078 118.237502 
L 261.154972 117.618261 
L 261.76492 116.843413 
L 262.374867 116.540005 
L 263.594761 116.866383 
L 265.424603 115.969791 
L 266.644497 116.294693 
L 267.254444 115.544819 
L 267.864391 115.934598 
L 268.474338 115.642996 
L 269.084286 115.804484 
L 269.694233 116.190004 
L 270.30418 115.675913 
L 270.914127 115.612197 
L 271.524074 115.77186 
L 272.134021 115.708245 
L 272.743969 116.088392 
L 273.353916 115.803166 
L 273.963863 115.960418 
L 274.57381 115.677209 
L 275.793704 115.552716 
L 276.403652 115.273146 
L 277.013599 115.429666 
L 277.623546 115.368653 
L 278.84344 115.678471 
L 279.453387 115.402505 
L 280.063335 115.34227 
L 280.673282 115.709495 
L 281.283229 115.648742 
L 282.503123 115.951766 
L 283.11307 115.468497 
L 283.723018 115.619666 
L 284.942912 115.500671 
L 285.552859 115.650499 
L 286.162806 115.591244 
L 287.382701 115.887948 
L 287.992648 115.415415 
L 289.822489 115.242448 
L 290.432436 115.38973 
L 291.042384 115.332458 
L 291.652331 115.072264 
L 292.262278 115.01614 
L 292.872225 114.758188 
L 293.482172 114.904805 
L 294.092119 114.64852 
L 294.702067 114.995175 
L 295.312014 114.940009 
L 295.921961 115.284073 
L 296.531908 115.228423 
L 297.141855 114.776223 
L 297.751802 114.722206 
L 298.36175 114.86585 
L 298.971697 114.615006 
L 299.581644 114.758188 
L 300.191591 114.508921 
L 300.801538 114.846981 
L 302.021433 114.740524 
L 302.63138 115.075395 
L 303.241327 114.635148 
L 303.851274 114.582866 
L 304.461221 114.915575 
L 306.90101 114.706255 
L 307.510957 114.844525 
L 308.120904 114.792637 
L 308.730851 114.552011 
L 309.340799 114.878163 
L 310.560693 114.775243 
L 311.17064 114.349911 
L 312.390534 114.622768 
L 313.000482 114.572434 
L 313.610429 114.707652 
L 314.220376 114.472523 
L 314.830323 114.607323 
L 315.44027 114.925409 
L 316.660165 114.824754 
L 317.270112 114.409572 
L 319.099953 114.263743 
L 319.7099 114.034743 
L 320.929795 114.300006 
L 322.149689 114.204465 
L 322.759636 113.978304 
L 323.369583 114.109815 
L 324.589478 114.016065 
L 325.199425 114.146562 
L 325.809372 113.923183 
L 327.029266 113.831168 
L 327.639214 113.434664 
L 329.469055 113.823879 
L 330.688949 113.733588 
L 331.298897 113.861742 
L 332.518791 113.771901 
L 333.128738 113.899098 
L 334.95858 113.765289 
L 335.568527 113.380546 
L 336.788421 112.955248 
L 337.398368 113.082286 
L 338.618263 113.671404 
L 342.887893 113.37159 
L 343.49784 113.494933 
L 344.107787 113.122537 
L 344.717734 113.41059 
L 345.327681 113.204357 
L 345.937629 113.32699 
L 346.547576 113.285455 
L 347.157523 113.57067 
L 347.76747 113.691726 
L 348.377417 113.161943 
L 348.987365 113.121118 
L 349.597312 112.91859 
L 350.207259 113.20154 
L 350.817206 113.160895 
L 351.427153 113.442133 
L 352.0371 113.240642 
L 352.647048 113.360347 
L 353.866942 113.917223 
L 354.476889 113.875587 
L 355.696783 114.109815 
L 356.306731 113.909878 
L 356.916678 113.868602 
L 357.526625 113.985007 
L 358.136572 113.943742 
L 358.746519 114.21635 
L 359.356466 113.392183 
L 359.966414 113.508598 
L 360.576361 113.468663 
L 361.186308 113.584447 
L 363.016149 113.465159 
L 363.626097 113.580009 
L 364.236044 113.848359 
L 364.845991 113.961958 
L 365.455938 114.228438 
L 366.065885 114.034743 
L 367.28578 114.259361 
L 367.895727 114.06677 
L 369.115621 114.289901 
L 369.725568 113.9472 
L 369.725568 113.9472 
" clip-path="url(#p4b4a27c6c4)" style="fill: none; stroke: #d62728; stroke-width: 1.5; stroke-linecap: square"/>
   </g>
   <g id="line2d_18">
    <path d="M 65.361932 169.740002 
L 65.971879 131.94 
L 66.581826 144.539999 
L 67.191773 169.740002 
L 69.021615 169.740002 
L 69.631562 160.290006 
L 70.241509 169.740002 
L 70.851456 177.3 
L 72.071351 163.440003 
L 72.681298 163.924618 
L 73.291245 153.540003 
L 73.901192 154.620006 
L 74.511139 150.840004 
L 75.121086 143.057646 
L 75.731034 148.739998 
L 76.950928 150.840004 
L 77.560875 155.340003 
L 78.170822 152.558184 
L 79.390717 141.390002 
L 80.610611 143.570768 
L 81.830505 140.040005 
L 82.440452 138.457245 
L 83.0504 131.94 
L 83.660347 128.281939 
L 84.270294 122.490009 
L 84.880241 123.921826 
L 86.100135 122.220003 
L 86.710083 125.640006 
L 87.32003 124.788655 
L 87.929977 120.003166 
L 88.539924 121.278463 
L 89.149871 124.380008 
L 90.369766 119.340001 
L 90.979713 118.753959 
L 91.58966 116.476368 
L 92.199607 117.66001 
L 92.809554 117.148702 
L 94.029449 119.340001 
L 94.639396 117.28286 
L 95.85929 122.304707 
L 96.469237 117.40154 
L 97.079185 119.815475 
L 97.689132 120.740005 
L 98.299079 117.507276 
L 99.518973 119.340001 
L 100.12892 118.905522 
L 100.738868 115.923051 
L 101.958762 120.16623 
L 102.568709 117.307745 
L 103.178656 116.940001 
L 103.788603 115.402505 
L 104.398551 117.40154 
L 105.008498 117.049094 
L 105.618445 117.835523 
L 106.228392 114.151766 
L 107.448286 111.420004 
L 108.058234 109.047052 
L 108.668181 107.790005 
L 109.888075 109.46433 
L 111.107969 109.061055 
L 111.717917 106.903642 
L 112.327864 108.678464 
L 114.157705 110.940002 
L 114.767652 112.579032 
L 115.3776 113.267713 
L 115.987547 113.040008 
L 116.597494 113.70707 
L 117.207441 115.237683 
L 117.817388 114.995175 
L 119.64723 116.820004 
L 120.257177 115.740002 
L 120.867124 117.148702 
L 121.477071 115.275489 
L 122.087018 115.854896 
L 123.306913 118.552502 
L 123.91686 116.742071 
L 124.526807 117.28286 
L 125.136754 115.521827 
L 125.746701 114.552011 
L 127.576543 113.957485 
L 128.18649 113.040008 
L 128.796437 113.580009 
L 130.016332 113.216636 
L 130.626279 113.740009 
L 131.236226 114.947343 
L 131.846173 113.383644 
L 132.45612 113.210271 
L 133.066067 112.365003 
L 133.676015 112.203718 
L 134.285962 111.382108 
L 134.895909 111.889575 
L 135.505856 113.040008 
L 136.115803 112.878463 
L 136.72575 113.360347 
L 137.335698 112.563531 
L 137.945645 112.410008 
L 138.555592 112.883803 
L 139.165539 112.730167 
L 139.775486 111.964399 
L 140.995381 112.888805 
L 142.825222 115.993132 
L 143.435169 115.237683 
L 144.045116 115.075395 
L 144.655064 115.492672 
L 145.265011 116.476368 
L 145.874958 116.876848 
L 147.094852 116.540005 
L 147.704799 117.487066 
L 148.924694 117.148702 
L 149.534641 117.527058 
L 150.144588 116.820004 
L 150.754535 117.195329 
L 151.364482 117.032963 
L 151.97443 115.815524 
L 153.194324 116.559314 
L 153.804271 117.441374 
L 154.414218 116.768578 
L 155.024165 117.126487 
L 155.634113 116.97222 
L 156.24406 117.324001 
L 156.854007 118.171792 
L 157.463954 118.511057 
L 158.073901 119.340001 
L 158.683848 118.685455 
L 159.293796 119.502582 
L 159.903743 118.855392 
L 160.51369 118.697971 
L 161.733584 119.340001 
L 162.343531 118.710002 
L 163.563426 118.406673 
L 164.173373 117.793988 
L 165.393267 119.340001 
L 166.613162 119.943595 
L 169.662897 119.193496 
L 170.272845 119.922664 
L 171.492739 119.628009 
L 172.102686 118.624093 
L 172.712633 118.485767 
L 174.542475 119.340001 
L 175.152422 119.200774 
L 175.762369 118.232309 
L 176.372316 118.513772 
L 177.592211 119.884869 
L 178.202158 119.746452 
L 178.812105 120.0138 
L 179.422052 119.474047 
L 180.031999 120.140005 
L 180.641946 118.809474 
L 181.251894 119.47194 
L 181.861841 118.552502 
L 182.471788 119.209437 
L 183.081735 118.690524 
L 183.691682 118.564623 
L 184.301629 118.825719 
L 184.911577 118.700415 
L 185.521524 118.194548 
L 186.131471 118.073671 
L 186.741418 118.332007 
L 187.351365 118.211649 
L 187.961312 117.718218 
L 188.57126 117.974492 
L 189.181207 117.857648 
L 189.791154 118.479514 
L 190.401101 117.994375 
L 191.011048 118.244352 
L 191.620995 118.128466 
L 192.230943 117.651967 
L 192.84089 116.460011 
L 194.670731 117.210424 
L 195.280678 116.749348 
L 196.500573 117.240007 
L 198.330414 116.923565 
L 198.940361 117.16364 
L 199.550309 116.717377 
L 200.160256 115.934598 
L 200.770203 115.497854 
L 201.38015 115.402505 
L 202.600044 115.883364 
L 203.209992 115.787586 
L 204.429886 114.277994 
L 205.039833 114.519138 
L 206.259727 114.343456 
L 206.869675 113.607811 
L 207.479622 113.524617 
L 209.91941 114.469414 
L 210.529358 114.384361 
L 211.139305 114.615006 
L 211.749252 114.530043 
L 212.359199 114.133393 
L 212.969146 114.051111 
L 213.579093 114.279346 
L 214.189041 114.197143 
L 214.798988 113.808299 
L 215.408935 114.034743 
L 216.018882 113.649684 
L 217.848724 114.320081 
L 218.458671 114.240007 
L 219.068618 113.56293 
L 219.678565 114.081742 
L 220.898459 113.925943 
L 221.508407 114.143115 
L 222.118354 114.065587 
L 222.728301 114.280551 
L 223.338248 113.621544 
L 223.948195 113.836553 
L 224.558142 113.76138 
L 225.16809 113.974226 
L 225.778037 114.471824 
L 227.607878 114.243376 
L 228.827773 114.655989 
L 229.43772 115.140002 
L 230.657614 115.541474 
L 231.877508 114.83344 
L 232.487456 115.308001 
L 233.70735 115.701012 
L 234.317297 115.351519 
L 234.927244 115.546453 
L 235.537191 115.470007 
L 236.147139 115.125064 
L 236.757086 115.586816 
L 237.367033 115.511035 
L 237.97698 115.701981 
L 238.586927 116.156851 
L 239.196874 116.079864 
L 239.806822 116.53025 
L 240.416769 116.452508 
L 241.026716 116.898478 
L 241.636663 117.080694 
L 242.24661 117.521448 
L 243.466505 117.361852 
L 244.686399 117.716956 
L 245.296346 118.148112 
L 245.906293 118.067273 
L 247.126188 118.412914 
L 247.736135 118.836004 
L 248.346082 119.005118 
L 248.956029 118.672455 
L 250.175923 119.00843 
L 250.785871 119.422632 
L 251.395818 119.340001 
L 252.005765 118.765416 
L 252.615712 118.930914 
L 253.835606 118.77097 
L 255.055501 119.097696 
L 255.665448 119.017961 
L 256.275395 119.179494 
L 256.885342 119.580008 
L 257.495289 119.738736 
L 259.325131 119.497997 
L 259.935078 119.891256 
L 260.545025 120.046548 
L 261.154972 119.731312 
L 262.374867 120.506667 
L 262.984814 120.192929 
L 263.594761 120.113013 
L 264.204708 120.495965 
L 264.814655 119.954635 
L 265.424603 120.105961 
L 266.03455 120.027273 
L 267.864391 120.475136 
L 268.474338 120.39629 
L 269.084286 120.769261 
L 269.694233 120.465008 
L 271.524074 120.232042 
L 272.134021 119.932949 
L 272.743969 120.079003 
L 273.963863 120.809388 
L 274.57381 120.951634 
L 275.183757 120.435662 
L 275.793704 120.359655 
L 276.403652 120.719829 
L 277.623546 121.000751 
L 278.233493 120.708 
L 278.84344 120.201547 
L 279.453387 120.1275 
L 280.063335 120.48221 
L 280.673282 120.621359 
L 281.283229 120.54676 
L 281.893176 120.047866 
L 283.11307 119.90313 
L 283.723018 119.410195 
L 284.332965 119.340001 
L 284.942912 119.479612 
L 285.552859 119.200774 
L 286.162806 118.715206 
L 286.772753 118.647694 
L 287.382701 118.787676 
L 288.602595 119.477336 
L 289.212542 119.408483 
L 290.432436 119.680551 
L 292.262278 119.475128 
L 292.872225 119.811667 
L 293.482172 119.541605 
L 294.702067 119.807905 
L 295.921961 119.672462 
L 297.141855 119.935281 
L 297.751802 119.867757 
L 298.36175 119.603192 
L 298.971697 119.930628 
L 299.581644 119.078185 
L 300.191591 119.013579 
L 300.801538 118.363257 
L 301.411485 118.10598 
L 302.021433 118.04437 
L 302.63138 117.595393 
L 303.241327 117.922097 
L 304.461221 117.031611 
L 305.071168 116.973504 
L 305.681116 117.298485 
L 306.291063 117.43092 
L 306.90101 117.753107 
L 307.510957 117.503829 
L 308.120904 117.445272 
L 309.340799 117.706085 
L 309.950746 117.647472 
L 310.560693 117.77673 
L 311.17064 118.092484 
L 311.780587 118.033342 
L 312.390534 118.160696 
L 313.000482 118.101677 
L 313.610429 118.413534 
L 314.220376 118.169347 
L 314.830323 118.295124 
L 315.44027 118.052414 
L 316.050217 117.994375 
L 316.660165 118.302717 
L 317.270112 118.426962 
L 318.490006 118.310197 
L 319.099953 118.433529 
L 319.7099 118.737129 
L 320.929795 118.620004 
L 322.149689 119.220578 
L 322.759636 119.161278 
L 323.369583 119.458872 
L 323.979531 119.399302 
L 325.199425 119.635084 
L 325.809372 119.928792 
L 326.419319 120.044903 
L 327.029266 120.33628 
L 327.639214 120.100103 
L 328.249161 120.040003 
L 328.859108 120.154785 
L 329.469055 119.920647 
L 330.079002 119.861381 
L 330.688949 119.97578 
L 331.298897 120.262661 
L 331.908844 120.203023 
L 333.128738 120.428182 
L 333.738685 120.197142 
L 334.348632 120.138191 
L 335.568527 120.702165 
L 336.178474 120.642481 
L 336.788421 120.922063 
L 337.398368 121.03128 
L 338.008315 120.971258 
L 338.618263 120.743125 
L 340.448104 120.566553 
L 341.667998 120.783173 
L 342.277946 120.724616 
L 342.887893 120.500528 
L 343.49784 120.442849 
L 344.107787 120.550489 
L 345.327681 120.435662 
L 345.937629 120.214626 
L 347.157523 120.101996 
L 347.76747 119.883112 
L 348.377417 119.827743 
L 348.987365 119.61039 
L 350.207259 119.824622 
L 350.817206 119.447472 
L 351.427153 119.232767 
L 352.0371 119.340001 
L 353.256995 119.87277 
L 353.866942 119.658989 
L 354.476889 119.605265 
L 355.086836 118.916472 
L 355.696783 118.864539 
L 356.306731 118.970962 
L 356.916678 119.234784 
L 358.136572 119.130445 
L 358.746519 119.235437 
L 359.356466 119.496532 
L 359.966414 118.975547 
L 360.576361 118.768457 
L 361.186308 118.717786 
L 361.796255 118.512082 
L 363.016149 118.412396 
L 364.845991 118.725368 
L 365.455938 118.982194 
L 366.675832 118.88182 
L 367.28578 118.679518 
L 367.895727 118.782257 
L 368.505674 118.73278 
L 369.725568 119.2392 
L 369.725568 119.2392 
" clip-path="url(#p4b4a27c6c4)" style="fill: none; stroke: #9467bd; stroke-width: 1.5; stroke-linecap: square"/>
   </g>
   <g id="line2d_19">
    <path d="M 65.361932 18.54 
L 65.971879 56.340008 
L 66.581826 68.940006 
L 67.191773 75.240011 
L 67.80172 79.020008 
L 68.411668 81.540005 
L 69.021615 104.940003 
L 69.631562 103.590006 
L 70.241509 85.740005 
L 70.851456 79.020008 
L 71.461403 66.649099 
L 72.681298 82.509236 
L 73.901192 94.140004 
L 74.511139 103.590006 
L 75.731034 94.140004 
L 76.340981 94.140004 
L 77.560875 101.340003 
L 78.170822 101.012735 
L 79.390717 106.740003 
L 80.000664 106.236005 
L 80.610611 102.86308 
L 81.220558 96.940011 
L 82.440452 91.533106 
L 83.0504 91.620006 
L 83.660347 94.140004 
L 84.270294 98.86501 
L 86.100135 104.940003 
L 86.710083 98.340003 
L 87.32003 98.226494 
L 87.929977 100.108427 
L 88.539924 103.83231 
L 89.759819 103.359518 
L 90.369766 104.940003 
L 90.979713 102.930705 
L 92.199607 102.540003 
L 92.809554 105.644353 
L 94.639396 109.568578 
L 96.469237 113.040008 
L 97.079185 114.109815 
L 97.689132 112.340006 
L 98.299079 113.383644 
L 98.909026 111.69001 
L 99.518973 111.382108 
L 100.12892 112.388277 
L 100.738868 110.797632 
L 101.348815 111.780009 
L 101.958762 113.969517 
L 102.568709 113.649684 
L 103.788603 115.402505 
L 104.398551 112.749239 
L 106.838339 116.053052 
L 107.448286 115.740002 
L 108.058234 116.500566 
L 108.668181 118.29001 
L 109.278128 118.994799 
L 109.888075 116.615685 
L 110.498022 118.332007 
L 111.107969 119.00843 
L 112.327864 116.432309 
L 112.937811 118.064051 
L 113.547758 117.765003 
L 114.157705 118.406673 
L 114.767652 119.954635 
L 115.3776 120.554466 
L 117.207441 119.633034 
L 117.817388 118.471043 
L 118.427335 118.194548 
L 119.037283 119.623154 
L 119.64723 120.180008 
L 120.257177 119.893847 
L 120.867124 120.435662 
L 121.477071 119.340001 
L 122.087018 117.463409 
L 123.306913 116.977504 
L 123.91686 117.521448 
L 124.526807 116.511437 
L 125.136754 117.812734 
L 126.356649 117.343963 
L 126.966596 118.598825 
L 128.18649 118.128466 
L 128.796437 115.740002 
L 129.406384 114.823019 
L 130.016332 116.042812 
L 130.626279 116.540005 
L 131.236226 115.640923 
L 131.846173 116.132732 
L 132.45612 114.572434 
L 133.066067 115.065009 
L 133.676015 114.210797 
L 136.115803 116.109232 
L 136.72575 117.204409 
L 137.335698 117.645884 
L 137.945645 116.820004 
L 139.775486 118.110734 
L 140.385433 117.307745 
L 140.995381 117.727208 
L 141.605328 117.540001 
L 142.215275 118.546306 
L 143.435169 119.340001 
L 145.265011 118.767275 
L 145.874958 119.150531 
L 147.094852 117.66001 
L 147.704799 117.487066 
L 148.314747 117.868474 
L 148.924694 117.696521 
L 149.534641 118.070945 
L 150.144588 118.980008 
L 151.364482 117.56536 
L 151.97443 117.930219 
L 152.584377 117.765003 
L 153.194324 116.559314 
L 154.414218 118.311436 
L 155.024165 118.658925 
L 155.634113 118.494362 
L 156.24406 119.340001 
L 156.854007 118.672455 
L 157.463954 118.511057 
L 158.073901 118.845884 
L 159.293796 117.551616 
L 159.903743 117.40154 
L 160.51369 117.734913 
L 163.563426 117.006669 
L 164.173373 117.793988 
L 164.78332 118.110734 
L 165.393267 117.507276 
L 166.613162 117.227435 
L 167.223109 116.640007 
L 167.833056 116.506874 
L 169.05295 117.129483 
L 169.662897 116.995821 
L 170.272845 117.300693 
L 170.882792 117.167594 
L 171.492739 117.468005 
L 172.102686 116.905913 
L 173.32258 117.499559 
L 173.932528 117.369051 
L 175.762369 119.478463 
L 176.372316 118.926892 
L 176.982263 119.203049 
L 177.592211 119.067573 
L 178.202158 119.340001 
L 179.422052 118.267659 
L 180.031999 118.140001 
L 181.251894 119.47194 
L 182.471788 119.992858 
L 183.081735 119.85959 
L 183.691682 120.11539 
L 184.301629 119.982866 
L 184.911577 119.467918 
L 185.521524 119.721827 
L 186.131471 119.213368 
L 186.741418 119.466003 
L 187.961312 120.712281 
L 188.57126 119.464145 
L 189.181207 118.598825 
L 190.401101 119.095342 
L 191.011048 117.879131 
L 191.620995 118.491929 
L 194.060784 119.458872 
L 194.670731 119.340001 
L 195.280678 119.575524 
L 196.500573 119.340001 
L 197.11052 118.875489 
L 197.720467 119.455606 
L 198.330414 118.304384 
L 198.940361 118.88182 
L 199.550309 118.427784 
L 200.160256 118.999463 
L 200.770203 118.887982 
L 201.38015 119.452508 
L 203.819939 120.334737 
L 204.429886 120.220349 
L 205.039833 120.764349 
L 205.64978 120.649094 
L 206.869675 121.070472 
L 208.089569 120.84128 
L 208.699516 121.048482 
L 209.309463 120.615952 
L 209.91941 120.504707 
L 210.529358 120.710715 
L 211.139305 120.6 
L 211.749252 120.803902 
L 212.359199 120.38133 
L 212.969146 120.584454 
L 213.579093 120.476071 
L 214.189041 120.677145 
L 215.408935 120.462271 
L 216.018882 120.965806 
L 218.458671 120.540001 
L 219.068618 120.734474 
L 219.678565 120.629774 
L 220.288512 120.822354 
L 220.898459 121.308755 
L 221.508407 121.203042 
L 222.118354 121.684193 
L 222.728301 121.577837 
L 223.338248 122.053852 
L 224.558142 121.840769 
L 225.16809 122.022895 
L 225.778037 122.490009 
L 226.387984 122.097741 
L 226.997931 121.992636 
L 227.607878 122.454614 
L 229.43772 122.980004 
L 230.047667 122.594619 
L 230.657614 122.767946 
L 231.267561 122.386155 
L 231.877508 122.558987 
L 232.487456 122.180732 
L 233.097403 122.079131 
L 233.70735 122.251197 
L 234.317297 122.15008 
L 234.927244 122.320647 
L 235.537191 121.680002 
L 236.147139 121.851032 
L 236.757086 122.288935 
L 237.367033 122.189474 
L 239.806822 120.744883 
L 240.416769 121.177503 
L 241.026716 121.345536 
L 241.636663 120.99104 
L 242.856557 121.324932 
L 244.076452 120.625719 
L 244.686399 120.792208 
L 245.906293 121.630919 
L 246.51624 121.284974 
L 247.736135 121.608006 
L 248.346082 121.265586 
L 248.956029 121.426094 
L 249.565976 121.835057 
L 250.175923 121.992636 
L 250.785871 121.65345 
L 251.395818 121.810589 
L 252.005765 122.212974 
L 252.615712 122.367274 
L 255.665448 124.331702 
L 256.275395 123.99478 
L 256.885342 123.420003 
L 262.374867 124.706667 
L 262.984814 124.380008 
L 263.594761 124.287249 
L 264.204708 124.657437 
L 264.814655 124.564398 
L 265.424603 124.012343 
L 266.03455 123.921826 
L 267.254444 124.197837 
L 267.864391 123.88055 
L 268.474338 124.017851 
L 269.084286 123.928664 
L 269.694233 124.065008 
L 270.30418 123.976204 
L 270.914127 124.111601 
L 271.524074 123.800184 
L 272.134021 123.935299 
L 272.743969 123.847926 
L 273.353916 124.203165 
L 273.963863 124.11551 
L 274.57381 123.80861 
L 275.793704 124.07411 
L 277.013599 123.467588 
L 278.233493 123.300005 
L 278.84344 123.432316 
L 279.453387 123.349099 
L 280.063335 123.48052 
L 280.673282 122.543396 
L 282.503123 122.940001 
L 283.11307 123.281902 
L 283.723018 123.200724 
L 284.332965 123.540001 
L 285.552859 122.959895 
L 286.162806 123.297031 
L 287.382701 123.551514 
L 287.992648 123.058038 
L 288.602595 122.773252 
L 289.212542 122.900877 
L 289.822489 122.618051 
L 290.432436 121.928109 
L 291.042384 122.056983 
L 291.652331 122.388397 
L 292.262278 122.109975 
L 292.872225 121.630919 
L 293.482172 120.952806 
L 294.702067 121.211626 
L 295.312014 121.140001 
L 295.921961 121.268234 
L 296.531908 120.997901 
L 297.141855 120.927403 
L 297.751802 121.253093 
L 298.36175 121.379692 
L 298.971697 121.70251 
L 299.581644 121.827273 
L 300.191591 121.755547 
L 300.801538 121.879544 
L 301.411485 122.197732 
L 302.021433 122.319949 
L 302.63138 121.86001 
L 303.241327 122.17581 
L 303.851274 122.297148 
L 304.461221 122.610232 
L 305.071168 122.537977 
L 305.681116 122.083299 
L 306.291063 122.012733 
L 306.90101 121.7521 
L 308.120904 121.613695 
L 308.730851 121.734008 
L 309.340799 121.665188 
L 309.950746 121.78478 
L 310.560693 121.528586 
L 311.17064 121.460802 
L 311.780587 121.766677 
L 312.390534 121.884827 
L 313.000482 122.188168 
L 313.610429 122.304707 
L 314.220376 122.235853 
L 314.830323 121.798547 
L 316.660165 122.14679 
L 317.270112 122.444351 
L 317.880059 121.829639 
L 318.490006 122.126546 
L 319.099953 122.24072 
L 320.319848 122.106596 
L 320.929795 122.4 
L 323.979531 122.067539 
L 324.589478 122.35691 
L 325.199425 122.467873 
L 325.809372 122.40169 
L 326.419319 122.159588 
L 327.639214 122.380376 
L 330.079002 122.1207 
L 331.298897 121.300644 
L 331.908844 121.583842 
L 332.518791 121.693532 
L 333.128738 121.630919 
L 334.348632 121.848598 
L 334.95858 121.786053 
L 336.178474 122.341353 
L 336.788421 122.278121 
L 337.398368 121.707794 
L 338.618263 121.584991 
L 339.22821 121.692 
L 340.448104 121.570098 
L 341.058051 121.342652 
L 341.667998 121.449255 
L 342.277946 121.389234 
L 342.887893 121.661054 
L 343.49784 121.600841 
L 345.327681 121.914793 
L 345.937629 121.854535 
L 347.157523 122.061388 
L 347.76747 122.001209 
L 348.987365 122.530564 
L 349.597312 122.469766 
L 350.207259 122.57077 
L 350.817206 122.832541 
L 352.0371 123.031723 
L 352.647048 122.810349 
L 353.256995 122.74973 
L 353.866942 123.008359 
L 354.476889 122.947582 
L 355.086836 123.204712 
L 355.696783 123.143778 
L 356.306731 122.924939 
L 356.916678 122.86485 
L 357.526625 122.647509 
L 359.356466 122.940001 
L 359.966414 122.880498 
L 361.186308 123.38445 
L 361.796255 123.47963 
L 362.406202 123.419507 
L 363.016149 123.514237 
L 363.626097 123.300005 
L 364.845991 123.181472 
L 366.675832 123.463645 
L 368.505674 123.286994 
L 369.115621 123.38009 
L 369.725568 123.17041 
L 369.725568 123.17041 
" clip-path="url(#p4b4a27c6c4)" style="fill: none; stroke: #8c564b; stroke-width: 1.5; stroke-linecap: square"/>
   </g>
   <g id="line2d_20">
    <path d="M 50.14375 119.088005 
L 384.94375 119.088005 
" clip-path="url(#p4b4a27c6c4)" style="fill: none; stroke-dasharray: 5.55,2.4; stroke-dashoffset: 0; stroke: #000000; stroke-width: 1.5"/>
   </g>
   <g id="patch_3">
    <path d="M 50.14375 256.68 
L 50.14375 7.2 
" style="fill: none; stroke: #000000; stroke-width: 0.8; stroke-linejoin: miter; stroke-linecap: square"/>
   </g>
   <g id="patch_4">
    <path d="M 384.94375 256.68 
L 384.94375 7.2 
" style="fill: none; stroke: #000000; stroke-width: 0.8; stroke-linejoin: miter; stroke-linecap: square"/>
   </g>
   <g id="patch_5">
    <path d="M 50.14375 256.68 
L 384.94375 256.68 
" style="fill: none; stroke: #000000; stroke-width: 0.8; stroke-linejoin: miter; stroke-linecap: square"/>
   </g>
   <g id="patch_6">
    <path d="M 50.14375 7.2 
L 384.94375 7.2 
" style="fill: none; stroke: #000000; stroke-width: 0.8; stroke-linejoin: miter; stroke-linecap: square"/>
   </g>
   <g id="legend_1">
    <g id="patch_7">
     <path d="M 302.089063 103.26875 
L 377.94375 103.26875 
Q 379.94375 103.26875 379.94375 101.26875 
L 379.94375 14.2 
Q 379.94375 12.2 377.94375 12.2 
L 302.089063 12.2 
Q 300.089063 12.2 300.089063 14.2 
L 300.089063 101.26875 
Q 300.089063 103.26875 302.089063 103.26875 
z
" style="fill: #ffffff; opacity: 0.8; stroke: #cccccc; stroke-linejoin: miter"/>
    </g>
    <g id="line2d_21">
     <path d="M 304.089063 20.298437 
L 314.089063 20.298437 
L 324.089063 20.298437 
" style="fill: none; stroke: #1f77b4; stroke-width: 1.5; stroke-linecap: square"/>
    </g>
    <g id="text_16">
     <!-- P(die=1) -->
     <g transform="translate(332.089063 23.798437)scale(0.1 -0.1)">
      <defs>
       <path id="DejaVuSans-50" d="M 1259 4147 
L 1259 2394 
L 2053 2394 
Q 2494 2394 2734 2622 
Q 2975 2850 2975 3272 
Q 2975 3691 2734 3919 
Q 2494 4147 2053 4147 
L 1259 4147 
z
M 628 4666 
L 2053 4666 
Q 2838 4666 3239 4311 
Q 3641 3956 3641 3272 
Q 3641 2581 3239 2228 
Q 2838 1875 2053 1875 
L 1259 1875 
L 1259 0 
L 628 0 
L 628 4666 
z
" transform="scale(0.015625)"/>
       <path id="DejaVuSans-28" d="M 1984 4856 
Q 1566 4138 1362 3434 
Q 1159 2731 1159 2009 
Q 1159 1288 1364 580 
Q 1569 -128 1984 -844 
L 1484 -844 
Q 1016 -109 783 600 
Q 550 1309 550 2009 
Q 550 2706 781 3412 
Q 1013 4119 1484 4856 
L 1984 4856 
z
" transform="scale(0.015625)"/>
       <path id="DejaVuSans-3d" d="M 678 2906 
L 4684 2906 
L 4684 2381 
L 678 2381 
L 678 2906 
z
M 678 1631 
L 4684 1631 
L 4684 1100 
L 678 1100 
L 678 1631 
z
" transform="scale(0.015625)"/>
       <path id="DejaVuSans-29" d="M 513 4856 
L 1013 4856 
Q 1481 4119 1714 3412 
Q 1947 2706 1947 2009 
Q 1947 1309 1714 600 
Q 1481 -109 1013 -844 
L 513 -844 
Q 928 -128 1133 580 
Q 1338 1288 1338 2009 
Q 1338 2731 1133 3434 
Q 928 4138 513 4856 
z
" transform="scale(0.015625)"/>
      </defs>
      <use xlink:href="#DejaVuSans-50"/>
      <use xlink:href="#DejaVuSans-28" x="60.302734"/>
      <use xlink:href="#DejaVuSans-64" x="99.316406"/>
      <use xlink:href="#DejaVuSans-69" x="162.792969"/>
      <use xlink:href="#DejaVuSans-65" x="190.576172"/>
      <use xlink:href="#DejaVuSans-3d" x="252.099609"/>
      <use xlink:href="#DejaVuSans-31" x="335.888672"/>
      <use xlink:href="#DejaVuSans-29" x="399.511719"/>
     </g>
    </g>
    <g id="line2d_22">
     <path d="M 304.089063 34.976562 
L 314.089063 34.976562 
L 324.089063 34.976562 
" style="fill: none; stroke: #ff7f0e; stroke-width: 1.5; stroke-linecap: square"/>
    </g>
    <g id="text_17">
     <!-- P(die=2) -->
     <g transform="translate(332.089063 38.476562)scale(0.1 -0.1)">
      <use xlink:href="#DejaVuSans-50"/>
      <use xlink:href="#DejaVuSans-28" x="60.302734"/>
      <use xlink:href="#DejaVuSans-64" x="99.316406"/>
      <use xlink:href="#DejaVuSans-69" x="162.792969"/>
      <use xlink:href="#DejaVuSans-65" x="190.576172"/>
      <use xlink:href="#DejaVuSans-3d" x="252.099609"/>
      <use xlink:href="#DejaVuSans-32" x="335.888672"/>
      <use xlink:href="#DejaVuSans-29" x="399.511719"/>
     </g>
    </g>
    <g id="line2d_23">
     <path d="M 304.089063 49.654687 
L 314.089063 49.654687 
L 324.089063 49.654687 
" style="fill: none; stroke: #2ca02c; stroke-width: 1.5; stroke-linecap: square"/>
    </g>
    <g id="text_18">
     <!-- P(die=3) -->
     <g transform="translate(332.089063 53.154687)scale(0.1 -0.1)">
      <use xlink:href="#DejaVuSans-50"/>
      <use xlink:href="#DejaVuSans-28" x="60.302734"/>
      <use xlink:href="#DejaVuSans-64" x="99.316406"/>
      <use xlink:href="#DejaVuSans-69" x="162.792969"/>
      <use xlink:href="#DejaVuSans-65" x="190.576172"/>
      <use xlink:href="#DejaVuSans-3d" x="252.099609"/>
      <use xlink:href="#DejaVuSans-33" x="335.888672"/>
      <use xlink:href="#DejaVuSans-29" x="399.511719"/>
     </g>
    </g>
    <g id="line2d_24">
     <path d="M 304.089063 64.332812 
L 314.089063 64.332812 
L 324.089063 64.332812 
" style="fill: none; stroke: #d62728; stroke-width: 1.5; stroke-linecap: square"/>
    </g>
    <g id="text_19">
     <!-- P(die=4) -->
     <g transform="translate(332.089063 67.832812)scale(0.1 -0.1)">
      <use xlink:href="#DejaVuSans-50"/>
      <use xlink:href="#DejaVuSans-28" x="60.302734"/>
      <use xlink:href="#DejaVuSans-64" x="99.316406"/>
      <use xlink:href="#DejaVuSans-69" x="162.792969"/>
      <use xlink:href="#DejaVuSans-65" x="190.576172"/>
      <use xlink:href="#DejaVuSans-3d" x="252.099609"/>
      <use xlink:href="#DejaVuSans-34" x="335.888672"/>
      <use xlink:href="#DejaVuSans-29" x="399.511719"/>
     </g>
    </g>
    <g id="line2d_25">
     <path d="M 304.089063 79.010937 
L 314.089063 79.010937 
L 324.089063 79.010937 
" style="fill: none; stroke: #9467bd; stroke-width: 1.5; stroke-linecap: square"/>
    </g>
    <g id="text_20">
     <!-- P(die=5) -->
     <g transform="translate(332.089063 82.510937)scale(0.1 -0.1)">
      <use xlink:href="#DejaVuSans-50"/>
      <use xlink:href="#DejaVuSans-28" x="60.302734"/>
      <use xlink:href="#DejaVuSans-64" x="99.316406"/>
      <use xlink:href="#DejaVuSans-69" x="162.792969"/>
      <use xlink:href="#DejaVuSans-65" x="190.576172"/>
      <use xlink:href="#DejaVuSans-3d" x="252.099609"/>
      <use xlink:href="#DejaVuSans-35" x="335.888672"/>
      <use xlink:href="#DejaVuSans-29" x="399.511719"/>
     </g>
    </g>
    <g id="line2d_26">
     <path d="M 304.089063 93.689062 
L 314.089063 93.689062 
L 324.089063 93.689062 
" style="fill: none; stroke: #8c564b; stroke-width: 1.5; stroke-linecap: square"/>
    </g>
    <g id="text_21">
     <!-- P(die=6) -->
     <g transform="translate(332.089063 97.189062)scale(0.1 -0.1)">
      <defs>
       <path id="DejaVuSans-36" d="M 2113 2584 
Q 1688 2584 1439 2293 
Q 1191 2003 1191 1497 
Q 1191 994 1439 701 
Q 1688 409 2113 409 
Q 2538 409 2786 701 
Q 3034 994 3034 1497 
Q 3034 2003 2786 2293 
Q 2538 2584 2113 2584 
z
M 3366 4563 
L 3366 3988 
Q 3128 4100 2886 4159 
Q 2644 4219 2406 4219 
Q 1781 4219 1451 3797 
Q 1122 3375 1075 2522 
Q 1259 2794 1537 2939 
Q 1816 3084 2150 3084 
Q 2853 3084 3261 2657 
Q 3669 2231 3669 1497 
Q 3669 778 3244 343 
Q 2819 -91 2113 -91 
Q 1303 -91 875 529 
Q 447 1150 447 2328 
Q 447 3434 972 4092 
Q 1497 4750 2381 4750 
Q 2619 4750 2861 4703 
Q 3103 4656 3366 4563 
z
" transform="scale(0.015625)"/>
      </defs>
      <use xlink:href="#DejaVuSans-50"/>
      <use xlink:href="#DejaVuSans-28" x="60.302734"/>
      <use xlink:href="#DejaVuSans-64" x="99.316406"/>
      <use xlink:href="#DejaVuSans-69" x="162.792969"/>
      <use xlink:href="#DejaVuSans-65" x="190.576172"/>
      <use xlink:href="#DejaVuSans-3d" x="252.099609"/>
      <use xlink:href="#DejaVuSans-36" x="335.888672"/>
      <use xlink:href="#DejaVuSans-29" x="399.511719"/>
     </g>
    </g>
   </g>
  </g>
 </g>
 <defs>
  <clipPath id="p4b4a27c6c4">
   <rect x="50.14375" y="7.2" width="334.8" height="249.48"/>
  </clipPath>
 </defs>
</svg>
