<?xml version="1.0" encoding="utf-8" standalone="no"?>
<!DOCTYPE svg PUBLIC "-//W3C//DTD SVG 1.1//EN"
  "http://www.w3.org/Graphics/SVG/1.1/DTD/svg11.dtd">
<svg xmlns:xlink="http://www.w3.org/1999/xlink" width="406.885938pt" height="211.07625pt" viewBox="0 0 406.885938 211.07625" xmlns="http://www.w3.org/2000/svg" version="1.1">
 <metadata>
  <rdf:RDF xmlns:dc="http://purl.org/dc/elements/1.1/" xmlns:cc="http://creativecommons.org/ns#" xmlns:rdf="http://www.w3.org/1999/02/22-rdf-syntax-ns#">
   <cc:Work>
    <dc:type rdf:resource="http://purl.org/dc/dcmitype/StillImage"/>
    <dc:date>2024-04-30T23:32:37.862538</dc:date>
    <dc:format>image/svg+xml</dc:format>
    <dc:creator>
     <cc:Agent>
      <dc:title>Matplotlib v3.5.1, https://matplotlib.org/</dc:title>
     </cc:Agent>
    </dc:creator>
   </cc:Work>
  </rdf:RDF>
 </metadata>
 <defs>
  <style type="text/css">*{stroke-linejoin: round; stroke-linecap: butt}</style>
 </defs>
 <g id="figure_1">
  <g id="patch_1">
   <path d="M 0 211.07625 
L 406.885938 211.07625 
L 406.885938 0 
L 0 0 
z
" style="fill: #ffffff"/>
  </g>
  <g id="axes_1">
   <g id="patch_2">
    <path d="M 52.160938 173.52 
L 386.960938 173.52 
L 386.960938 7.2 
L 52.160938 7.2 
z
" style="fill: #ffffff"/>
   </g>
   <g id="matplotlib.axis_1">
    <g id="xtick_1">
     <g id="line2d_1">
      <path d="M 118.852829 173.52 
L 118.852829 7.2 
" clip-path="url(#p515beae11b)" style="fill: none; stroke: #b0b0b0; stroke-width: 0.8; stroke-linecap: square"/>
     </g>
     <g id="line2d_2">
      <defs>
       <path id="m58bab9b20d" d="M 0 0 
L 0 3.5 
" style="stroke: #000000; stroke-width: 0.8"/>
      </defs>
      <g>
       <use xlink:href="#m58bab9b20d" x="118.852829" y="173.52" style="stroke: #000000; stroke-width: 0.8"/>
      </g>
     </g>
     <g id="text_1">
      <!-- 200 -->
      <g transform="translate(109.309079 188.118438)scale(0.1 -0.1)">
       <defs>
        <path id="DejaVuSans-32" d="M 1228 531 
L 3431 531 
L 3431 0 
L 469 0 
L 469 531 
Q 828 903 1448 1529 
Q 2069 2156 2228 2338 
Q 2531 2678 2651 2914 
Q 2772 3150 2772 3378 
Q 2772 3750 2511 3984 
Q 2250 4219 1831 4219 
Q 1534 4219 1204 4116 
Q 875 4013 500 3803 
L 500 4441 
Q 881 4594 1212 4672 
Q 1544 4750 1819 4750 
Q 2544 4750 2975 4387 
Q 3406 4025 3406 3419 
Q 3406 3131 3298 2873 
Q 3191 2616 2906 2266 
Q 2828 2175 2409 1742 
Q 1991 1309 1228 531 
z
" transform="scale(0.015625)"/>
        <path id="DejaVuSans-30" d="M 2034 4250 
Q 1547 4250 1301 3770 
Q 1056 3291 1056 2328 
Q 1056 1369 1301 889 
Q 1547 409 2034 409 
Q 2525 409 2770 889 
Q 3016 1369 3016 2328 
Q 3016 3291 2770 3770 
Q 2525 4250 2034 4250 
z
M 2034 4750 
Q 2819 4750 3233 4129 
Q 3647 3509 3647 2328 
Q 3647 1150 3233 529 
Q 2819 -91 2034 -91 
Q 1250 -91 836 529 
Q 422 1150 422 2328 
Q 422 3509 836 4129 
Q 1250 4750 2034 4750 
z
" transform="scale(0.015625)"/>
       </defs>
       <use xlink:href="#DejaVuSans-32"/>
       <use xlink:href="#DejaVuSans-30" x="63.623047"/>
       <use xlink:href="#DejaVuSans-30" x="127.246094"/>
      </g>
     </g>
    </g>
    <g id="xtick_2">
     <g id="line2d_3">
      <path d="M 185.879856 173.52 
L 185.879856 7.2 
" clip-path="url(#p515beae11b)" style="fill: none; stroke: #b0b0b0; stroke-width: 0.8; stroke-linecap: square"/>
     </g>
     <g id="line2d_4">
      <g>
       <use xlink:href="#m58bab9b20d" x="185.879856" y="173.52" style="stroke: #000000; stroke-width: 0.8"/>
      </g>
     </g>
     <g id="text_2">
      <!-- 400 -->
      <g transform="translate(176.336106 188.118438)scale(0.1 -0.1)">
       <defs>
        <path id="DejaVuSans-34" d="M 2419 4116 
L 825 1625 
L 2419 1625 
L 2419 4116 
z
M 2253 4666 
L 3047 4666 
L 3047 1625 
L 3713 1625 
L 3713 1100 
L 3047 1100 
L 3047 0 
L 2419 0 
L 2419 1100 
L 313 1100 
L 313 1709 
L 2253 4666 
z
" transform="scale(0.015625)"/>
       </defs>
       <use xlink:href="#DejaVuSans-34"/>
       <use xlink:href="#DejaVuSans-30" x="63.623047"/>
       <use xlink:href="#DejaVuSans-30" x="127.246094"/>
      </g>
     </g>
    </g>
    <g id="xtick_3">
     <g id="line2d_5">
      <path d="M 252.906883 173.52 
L 252.906883 7.2 
" clip-path="url(#p515beae11b)" style="fill: none; stroke: #b0b0b0; stroke-width: 0.8; stroke-linecap: square"/>
     </g>
     <g id="line2d_6">
      <g>
       <use xlink:href="#m58bab9b20d" x="252.906883" y="173.52" style="stroke: #000000; stroke-width: 0.8"/>
      </g>
     </g>
     <g id="text_3">
      <!-- 600 -->
      <g transform="translate(243.363133 188.118438)scale(0.1 -0.1)">
       <defs>
        <path id="DejaVuSans-36" d="M 2113 2584 
Q 1688 2584 1439 2293 
Q 1191 2003 1191 1497 
Q 1191 994 1439 701 
Q 1688 409 2113 409 
Q 2538 409 2786 701 
Q 3034 994 3034 1497 
Q 3034 2003 2786 2293 
Q 2538 2584 2113 2584 
z
M 3366 4563 
L 3366 3988 
Q 3128 4100 2886 4159 
Q 2644 4219 2406 4219 
Q 1781 4219 1451 3797 
Q 1122 3375 1075 2522 
Q 1259 2794 1537 2939 
Q 1816 3084 2150 3084 
Q 2853 3084 3261 2657 
Q 3669 2231 3669 1497 
Q 3669 778 3244 343 
Q 2819 -91 2113 -91 
Q 1303 -91 875 529 
Q 447 1150 447 2328 
Q 447 3434 972 4092 
Q 1497 4750 2381 4750 
Q 2619 4750 2861 4703 
Q 3103 4656 3366 4563 
z
" transform="scale(0.015625)"/>
       </defs>
       <use xlink:href="#DejaVuSans-36"/>
       <use xlink:href="#DejaVuSans-30" x="63.623047"/>
       <use xlink:href="#DejaVuSans-30" x="127.246094"/>
      </g>
     </g>
    </g>
    <g id="xtick_4">
     <g id="line2d_7">
      <path d="M 319.93391 173.52 
L 319.93391 7.2 
" clip-path="url(#p515beae11b)" style="fill: none; stroke: #b0b0b0; stroke-width: 0.8; stroke-linecap: square"/>
     </g>
     <g id="line2d_8">
      <g>
       <use xlink:href="#m58bab9b20d" x="319.93391" y="173.52" style="stroke: #000000; stroke-width: 0.8"/>
      </g>
     </g>
     <g id="text_4">
      <!-- 800 -->
      <g transform="translate(310.39016 188.118438)scale(0.1 -0.1)">
       <defs>
        <path id="DejaVuSans-38" d="M 2034 2216 
Q 1584 2216 1326 1975 
Q 1069 1734 1069 1313 
Q 1069 891 1326 650 
Q 1584 409 2034 409 
Q 2484 409 2743 651 
Q 3003 894 3003 1313 
Q 3003 1734 2745 1975 
Q 2488 2216 2034 2216 
z
M 1403 2484 
Q 997 2584 770 2862 
Q 544 3141 544 3541 
Q 544 4100 942 4425 
Q 1341 4750 2034 4750 
Q 2731 4750 3128 4425 
Q 3525 4100 3525 3541 
Q 3525 3141 3298 2862 
Q 3072 2584 2669 2484 
Q 3125 2378 3379 2068 
Q 3634 1759 3634 1313 
Q 3634 634 3220 271 
Q 2806 -91 2034 -91 
Q 1263 -91 848 271 
Q 434 634 434 1313 
Q 434 1759 690 2068 
Q 947 2378 1403 2484 
z
M 1172 3481 
Q 1172 3119 1398 2916 
Q 1625 2713 2034 2713 
Q 2441 2713 2670 2916 
Q 2900 3119 2900 3481 
Q 2900 3844 2670 4047 
Q 2441 4250 2034 4250 
Q 1625 4250 1398 4047 
Q 1172 3844 1172 3481 
z
" transform="scale(0.015625)"/>
       </defs>
       <use xlink:href="#DejaVuSans-38"/>
       <use xlink:href="#DejaVuSans-30" x="63.623047"/>
       <use xlink:href="#DejaVuSans-30" x="127.246094"/>
      </g>
     </g>
    </g>
    <g id="xtick_5">
     <g id="line2d_9">
      <path d="M 386.960938 173.52 
L 386.960938 7.2 
" clip-path="url(#p515beae11b)" style="fill: none; stroke: #b0b0b0; stroke-width: 0.8; stroke-linecap: square"/>
     </g>
     <g id="line2d_10">
      <g>
       <use xlink:href="#m58bab9b20d" x="386.960938" y="173.52" style="stroke: #000000; stroke-width: 0.8"/>
      </g>
     </g>
     <g id="text_5">
      <!-- 1000 -->
      <g transform="translate(374.235937 188.118438)scale(0.1 -0.1)">
       <defs>
        <path id="DejaVuSans-31" d="M 794 531 
L 1825 531 
L 1825 4091 
L 703 3866 
L 703 4441 
L 1819 4666 
L 2450 4666 
L 2450 531 
L 3481 531 
L 3481 0 
L 794 0 
L 794 531 
z
" transform="scale(0.015625)"/>
       </defs>
       <use xlink:href="#DejaVuSans-31"/>
       <use xlink:href="#DejaVuSans-30" x="63.623047"/>
       <use xlink:href="#DejaVuSans-30" x="127.246094"/>
       <use xlink:href="#DejaVuSans-30" x="190.869141"/>
      </g>
     </g>
    </g>
    <g id="text_6">
     <!-- time -->
     <g transform="translate(208.264844 201.796563)scale(0.1 -0.1)">
      <defs>
       <path id="DejaVuSans-74" d="M 1172 4494 
L 1172 3500 
L 2356 3500 
L 2356 3053 
L 1172 3053 
L 1172 1153 
Q 1172 725 1289 603 
Q 1406 481 1766 481 
L 2356 481 
L 2356 0 
L 1766 0 
Q 1100 0 847 248 
Q 594 497 594 1153 
L 594 3053 
L 172 3053 
L 172 3500 
L 594 3500 
L 594 4494 
L 1172 4494 
z
" transform="scale(0.015625)"/>
       <path id="DejaVuSans-69" d="M 603 3500 
L 1178 3500 
L 1178 0 
L 603 0 
L 603 3500 
z
M 603 4863 
L 1178 4863 
L 1178 4134 
L 603 4134 
L 603 4863 
z
" transform="scale(0.015625)"/>
       <path id="DejaVuSans-6d" d="M 3328 2828 
Q 3544 3216 3844 3400 
Q 4144 3584 4550 3584 
Q 5097 3584 5394 3201 
Q 5691 2819 5691 2113 
L 5691 0 
L 5113 0 
L 5113 2094 
Q 5113 2597 4934 2840 
Q 4756 3084 4391 3084 
Q 3944 3084 3684 2787 
Q 3425 2491 3425 1978 
L 3425 0 
L 2847 0 
L 2847 2094 
Q 2847 2600 2669 2842 
Q 2491 3084 2119 3084 
Q 1678 3084 1418 2786 
Q 1159 2488 1159 1978 
L 1159 0 
L 581 0 
L 581 3500 
L 1159 3500 
L 1159 2956 
Q 1356 3278 1631 3431 
Q 1906 3584 2284 3584 
Q 2666 3584 2933 3390 
Q 3200 3197 3328 2828 
z
" transform="scale(0.015625)"/>
       <path id="DejaVuSans-65" d="M 3597 1894 
L 3597 1613 
L 953 1613 
Q 991 1019 1311 708 
Q 1631 397 2203 397 
Q 2534 397 2845 478 
Q 3156 559 3463 722 
L 3463 178 
Q 3153 47 2828 -22 
Q 2503 -91 2169 -91 
Q 1331 -91 842 396 
Q 353 884 353 1716 
Q 353 2575 817 3079 
Q 1281 3584 2069 3584 
Q 2775 3584 3186 3129 
Q 3597 2675 3597 1894 
z
M 3022 2063 
Q 3016 2534 2758 2815 
Q 2500 3097 2075 3097 
Q 1594 3097 1305 2825 
Q 1016 2553 972 2059 
L 3022 2063 
z
" transform="scale(0.015625)"/>
      </defs>
      <use xlink:href="#DejaVuSans-74"/>
      <use xlink:href="#DejaVuSans-69" x="39.208984"/>
      <use xlink:href="#DejaVuSans-6d" x="66.992188"/>
      <use xlink:href="#DejaVuSans-65" x="164.404297"/>
     </g>
    </g>
   </g>
   <g id="matplotlib.axis_2">
    <g id="ytick_1">
     <g id="line2d_11">
      <path d="M 52.160938 165.374294 
L 386.960938 165.374294 
" clip-path="url(#p515beae11b)" style="fill: none; stroke: #b0b0b0; stroke-width: 0.8; stroke-linecap: square"/>
     </g>
     <g id="line2d_12">
      <defs>
       <path id="m39da2a7bbf" d="M 0 0 
L -3.5 0 
" style="stroke: #000000; stroke-width: 0.8"/>
      </defs>
      <g>
       <use xlink:href="#m39da2a7bbf" x="52.160938" y="165.374294" style="stroke: #000000; stroke-width: 0.8"/>
      </g>
     </g>
     <g id="text_7">
      <!-- −1.5 -->
      <g transform="translate(20.878125 169.173512)scale(0.1 -0.1)">
       <defs>
        <path id="DejaVuSans-2212" d="M 678 2272 
L 4684 2272 
L 4684 1741 
L 678 1741 
L 678 2272 
z
" transform="scale(0.015625)"/>
        <path id="DejaVuSans-2e" d="M 684 794 
L 1344 794 
L 1344 0 
L 684 0 
L 684 794 
z
" transform="scale(0.015625)"/>
        <path id="DejaVuSans-35" d="M 691 4666 
L 3169 4666 
L 3169 4134 
L 1269 4134 
L 1269 2991 
Q 1406 3038 1543 3061 
Q 1681 3084 1819 3084 
Q 2600 3084 3056 2656 
Q 3513 2228 3513 1497 
Q 3513 744 3044 326 
Q 2575 -91 1722 -91 
Q 1428 -91 1123 -41 
Q 819 9 494 109 
L 494 744 
Q 775 591 1075 516 
Q 1375 441 1709 441 
Q 2250 441 2565 725 
Q 2881 1009 2881 1497 
Q 2881 1984 2565 2268 
Q 2250 2553 1709 2553 
Q 1456 2553 1204 2497 
Q 953 2441 691 2322 
L 691 4666 
z
" transform="scale(0.015625)"/>
       </defs>
       <use xlink:href="#DejaVuSans-2212"/>
       <use xlink:href="#DejaVuSans-31" x="83.789062"/>
       <use xlink:href="#DejaVuSans-2e" x="147.412109"/>
       <use xlink:href="#DejaVuSans-35" x="179.199219"/>
      </g>
     </g>
    </g>
    <g id="ytick_2">
     <g id="line2d_13">
      <path d="M 52.160938 140.916332 
L 386.960938 140.916332 
" clip-path="url(#p515beae11b)" style="fill: none; stroke: #b0b0b0; stroke-width: 0.8; stroke-linecap: square"/>
     </g>
     <g id="line2d_14">
      <g>
       <use xlink:href="#m39da2a7bbf" x="52.160938" y="140.916332" style="stroke: #000000; stroke-width: 0.8"/>
      </g>
     </g>
     <g id="text_8">
      <!-- −1.0 -->
      <g transform="translate(20.878125 144.715551)scale(0.1 -0.1)">
       <use xlink:href="#DejaVuSans-2212"/>
       <use xlink:href="#DejaVuSans-31" x="83.789062"/>
       <use xlink:href="#DejaVuSans-2e" x="147.412109"/>
       <use xlink:href="#DejaVuSans-30" x="179.199219"/>
      </g>
     </g>
    </g>
    <g id="ytick_3">
     <g id="line2d_15">
      <path d="M 52.160938 116.458371 
L 386.960938 116.458371 
" clip-path="url(#p515beae11b)" style="fill: none; stroke: #b0b0b0; stroke-width: 0.8; stroke-linecap: square"/>
     </g>
     <g id="line2d_16">
      <g>
       <use xlink:href="#m39da2a7bbf" x="52.160938" y="116.458371" style="stroke: #000000; stroke-width: 0.8"/>
      </g>
     </g>
     <g id="text_9">
      <!-- −0.5 -->
      <g transform="translate(20.878125 120.25759)scale(0.1 -0.1)">
       <use xlink:href="#DejaVuSans-2212"/>
       <use xlink:href="#DejaVuSans-30" x="83.789062"/>
       <use xlink:href="#DejaVuSans-2e" x="147.412109"/>
       <use xlink:href="#DejaVuSans-35" x="179.199219"/>
      </g>
     </g>
    </g>
    <g id="ytick_4">
     <g id="line2d_17">
      <path d="M 52.160938 92.00041 
L 386.960938 92.00041 
" clip-path="url(#p515beae11b)" style="fill: none; stroke: #b0b0b0; stroke-width: 0.8; stroke-linecap: square"/>
     </g>
     <g id="line2d_18">
      <g>
       <use xlink:href="#m39da2a7bbf" x="52.160938" y="92.00041" style="stroke: #000000; stroke-width: 0.8"/>
      </g>
     </g>
     <g id="text_10">
      <!-- 0.0 -->
      <g transform="translate(29.257812 95.799629)scale(0.1 -0.1)">
       <use xlink:href="#DejaVuSans-30"/>
       <use xlink:href="#DejaVuSans-2e" x="63.623047"/>
       <use xlink:href="#DejaVuSans-30" x="95.410156"/>
      </g>
     </g>
    </g>
    <g id="ytick_5">
     <g id="line2d_19">
      <path d="M 52.160938 67.542449 
L 386.960938 67.542449 
" clip-path="url(#p515beae11b)" style="fill: none; stroke: #b0b0b0; stroke-width: 0.8; stroke-linecap: square"/>
     </g>
     <g id="line2d_20">
      <g>
       <use xlink:href="#m39da2a7bbf" x="52.160938" y="67.542449" style="stroke: #000000; stroke-width: 0.8"/>
      </g>
     </g>
     <g id="text_11">
      <!-- 0.5 -->
      <g transform="translate(29.257812 71.341668)scale(0.1 -0.1)">
       <use xlink:href="#DejaVuSans-30"/>
       <use xlink:href="#DejaVuSans-2e" x="63.623047"/>
       <use xlink:href="#DejaVuSans-35" x="95.410156"/>
      </g>
     </g>
    </g>
    <g id="ytick_6">
     <g id="line2d_21">
      <path d="M 52.160938 43.084488 
L 386.960938 43.084488 
" clip-path="url(#p515beae11b)" style="fill: none; stroke: #b0b0b0; stroke-width: 0.8; stroke-linecap: square"/>
     </g>
     <g id="line2d_22">
      <g>
       <use xlink:href="#m39da2a7bbf" x="52.160938" y="43.084488" style="stroke: #000000; stroke-width: 0.8"/>
      </g>
     </g>
     <g id="text_12">
      <!-- 1.0 -->
      <g transform="translate(29.257812 46.883707)scale(0.1 -0.1)">
       <use xlink:href="#DejaVuSans-31"/>
       <use xlink:href="#DejaVuSans-2e" x="63.623047"/>
       <use xlink:href="#DejaVuSans-30" x="95.410156"/>
      </g>
     </g>
    </g>
    <g id="ytick_7">
     <g id="line2d_23">
      <path d="M 52.160938 18.626527 
L 386.960938 18.626527 
" clip-path="url(#p515beae11b)" style="fill: none; stroke: #b0b0b0; stroke-width: 0.8; stroke-linecap: square"/>
     </g>
     <g id="line2d_24">
      <g>
       <use xlink:href="#m39da2a7bbf" x="52.160938" y="18.626527" style="stroke: #000000; stroke-width: 0.8"/>
      </g>
     </g>
     <g id="text_13">
      <!-- 1.5 -->
      <g transform="translate(29.257812 22.425746)scale(0.1 -0.1)">
       <use xlink:href="#DejaVuSans-31"/>
       <use xlink:href="#DejaVuSans-2e" x="63.623047"/>
       <use xlink:href="#DejaVuSans-35" x="95.410156"/>
      </g>
     </g>
    </g>
    <g id="text_14">
     <!-- x -->
     <g transform="translate(14.798438 93.319375)rotate(-90)scale(0.1 -0.1)">
      <defs>
       <path id="DejaVuSans-78" d="M 3513 3500 
L 2247 1797 
L 3578 0 
L 2900 0 
L 1881 1375 
L 863 0 
L 184 0 
L 1544 1831 
L 300 3500 
L 978 3500 
L 1906 2253 
L 2834 3500 
L 3513 3500 
z
" transform="scale(0.015625)"/>
      </defs>
      <use xlink:href="#DejaVuSans-78"/>
     </g>
    </g>
   </g>
   <g id="line2d_25">
    <path d="M 52.160938 83.627718 
L 52.496073 105.854363 
L 52.831208 69.241933 
L 53.166343 83.445249 
L 53.501478 88.618071 
L 53.836613 96.262639 
L 54.171748 97.570675 
L 54.506883 83.651798 
L 55.177154 81.196829 
L 55.512289 78.0267 
L 55.847424 69.91022 
L 56.182559 66.322331 
L 56.517694 83.222232 
L 56.852829 81.970588 
L 57.187965 74.531117 
L 57.5231 85.564791 
L 57.858235 84.027808 
L 58.528505 94.949715 
L 58.86364 66.440352 
L 59.198775 84.314335 
L 59.53391 87.483896 
L 59.869046 75.752378 
L 60.204181 69.172561 
L 60.539316 71.92353 
L 60.874451 79.880042 
L 61.209586 64.917648 
L 61.544721 85.750729 
L 61.879856 70.01009 
L 62.550127 75.320381 
L 62.885262 68.943817 
L 63.220397 74.690925 
L 63.555532 68.488957 
L 63.890667 82.506622 
L 64.225802 116.987299 
L 64.560938 77.783554 
L 64.896073 74.063741 
L 65.231208 74.688048 
L 65.566343 51.058585 
L 65.901478 71.742164 
L 66.236613 68.644465 
L 66.571748 80.221972 
L 66.906883 69.041348 
L 67.242019 67.499315 
L 67.577154 72.636571 
L 67.912289 72.096324 
L 68.247424 78.871076 
L 68.582559 56.33059 
L 68.917694 61.324828 
L 69.252829 74.248062 
L 69.587965 63.159523 
L 69.9231 74.969844 
L 70.258235 59.34015 
L 70.59337 66.527389 
L 70.928505 67.469293 
L 71.598775 51.915921 
L 71.93391 73.179064 
L 72.269046 76.626083 
L 72.604181 49.598657 
L 72.939316 57.815843 
L 73.274451 62.870174 
L 73.609586 56.100638 
L 73.944721 67.022691 
L 74.279856 58.453103 
L 74.614992 54.427792 
L 74.950127 63.493676 
L 75.285262 65.185579 
L 75.620397 45.662948 
L 75.955532 62.939225 
L 76.290667 58.906379 
L 76.625802 70.977097 
L 76.960938 44.934563 
L 77.296073 44.26319 
L 77.631208 66.744987 
L 77.966343 49.226776 
L 78.301478 41.188894 
L 78.636613 67.505899 
L 78.971748 67.594939 
L 79.306883 66.327051 
L 79.642019 55.903519 
L 79.977154 57.376888 
L 80.312289 74.850835 
L 80.982559 57.851711 
L 81.317694 60.700997 
L 81.652829 55.37274 
L 81.987965 62.383998 
L 82.3231 57.524444 
L 82.658235 63.577112 
L 82.99337 59.565116 
L 83.328505 41.978793 
L 83.66364 40.216851 
L 83.998775 55.285164 
L 84.669046 68.067837 
L 85.339316 58.2038 
L 85.674451 31.189031 
L 86.009586 58.403579 
L 86.344721 38.300218 
L 86.679856 46.324965 
L 87.014992 32.25014 
L 87.350127 46.518407 
L 88.020397 39.833821 
L 88.355532 47.805981 
L 88.690667 38.799559 
L 89.025802 56.643608 
L 89.360938 53.04004 
L 89.696073 47.64438 
L 90.031208 55.221883 
L 90.366343 42.505762 
L 90.701478 48.469028 
L 91.036613 47.594771 
L 91.371748 51.318999 
L 91.706883 38.002767 
L 92.042019 39.677841 
L 92.377154 51.74381 
L 92.712289 44.531797 
L 93.382559 39.619943 
L 93.717694 27.621518 
L 94.052829 26.357808 
L 94.387965 32.804766 
L 94.7231 32.228413 
L 95.058235 52.246628 
L 96.06364 30.322335 
L 96.398775 36.4544 
L 96.73391 31.981897 
L 97.069046 54.26499 
L 97.404181 49.719494 
L 97.739316 35.234915 
L 98.074451 46.31437 
L 98.409586 42.8644 
L 98.744721 50.895523 
L 99.079856 31.445512 
L 99.414992 34.491666 
L 99.750127 49.472612 
L 100.085262 28.246206 
L 100.420397 46.118857 
L 100.755532 46.297092 
L 101.090667 62.948187 
L 101.425802 48.974616 
L 101.760938 53.353259 
L 102.431208 48.561765 
L 102.766343 39.365188 
L 103.101478 50.503402 
L 103.436613 42.080542 
L 103.771748 46.76783 
L 104.106883 32.577575 
L 104.442019 41.129311 
L 104.777154 26.788864 
L 105.112289 46.50345 
L 105.447424 44.604585 
L 105.782559 65.372315 
L 106.117694 45.841136 
L 106.452829 46.378245 
L 106.787965 45.019352 
L 107.1231 36.306683 
L 107.458235 34.525213 
L 107.79337 67.64701 
L 108.128505 14.76 
L 108.46364 53.577662 
L 108.798775 50.410767 
L 109.13391 52.715345 
L 109.469046 57.521389 
L 110.139316 36.449549 
L 110.474451 48.01336 
L 110.809586 36.033828 
L 111.144721 30.130849 
L 111.814992 36.53318 
L 112.150127 56.350466 
L 112.485262 38.78736 
L 112.820397 43.426178 
L 113.155532 45.993387 
L 113.490667 50.050292 
L 113.825802 49.032185 
L 114.160938 57.112777 
L 114.496073 45.485399 
L 114.831208 47.09681 
L 115.166343 40.095876 
L 115.501478 38.04537 
L 115.836613 51.344391 
L 116.171748 49.061848 
L 116.506883 67.2864 
L 116.842019 53.635368 
L 117.177154 59.215304 
L 117.512289 16.368639 
L 117.847424 35.289402 
L 118.517694 53.638301 
L 118.852829 46.5018 
L 119.187965 27.298088 
L 119.5231 56.057408 
L 119.858235 57.718415 
L 120.19337 51.614972 
L 120.528505 25.443949 
L 120.86364 60.382769 
L 121.198775 36.016422 
L 121.53391 51.152033 
L 121.869046 37.900954 
L 122.204181 49.547024 
L 122.539316 41.890957 
L 122.874451 41.026722 
L 123.209586 55.546094 
L 123.544721 59.612617 
L 123.879856 45.243776 
L 124.214992 39.280145 
L 124.550127 54.639174 
L 124.885262 44.077561 
L 125.220397 47.504757 
L 125.555532 60.308062 
L 125.890667 40.920932 
L 126.225802 63.614301 
L 126.560938 49.289634 
L 126.896073 43.057933 
L 127.231208 56.7773 
L 127.566343 57.184533 
L 128.236613 42.595108 
L 128.571748 59.203787 
L 128.906883 52.546732 
L 129.242019 56.758098 
L 129.577154 53.754223 
L 129.912289 75.019953 
L 130.247424 56.844893 
L 130.917694 47.968168 
L 131.252829 47.82949 
L 131.587965 58.163886 
L 131.9231 45.220095 
L 132.258235 66.077743 
L 132.59337 71.457022 
L 132.928505 62.26537 
L 133.26364 69.212916 
L 133.598775 71.737333 
L 133.93391 59.830175 
L 134.269046 54.049683 
L 134.604181 65.832216 
L 134.939316 70.677078 
L 135.274451 57.901195 
L 135.609586 60.422261 
L 135.944721 59.550521 
L 136.279856 80.541628 
L 136.614992 66.521683 
L 136.950127 67.9334 
L 137.285262 56.384928 
L 137.620397 78.121025 
L 137.955532 66.843416 
L 138.290667 75.668887 
L 138.625802 70.71966 
L 138.960938 73.308048 
L 139.296073 60.665067 
L 139.631208 69.503991 
L 139.966343 71.668176 
L 140.301478 67.991072 
L 140.636613 75.580364 
L 140.971748 68.301906 
L 141.306883 92.550252 
L 141.977154 54.834584 
L 142.312289 81.709883 
L 142.647424 74.399379 
L 142.982559 59.599424 
L 143.317694 82.925314 
L 143.652829 72.559217 
L 143.987965 81.433843 
L 144.3231 65.056525 
L 144.658235 70.781928 
L 144.99337 58.397284 
L 145.328505 72.401093 
L 146.33391 91.374219 
L 146.669046 72.404296 
L 147.004181 77.762306 
L 147.339316 77.513668 
L 147.674451 92.028527 
L 148.009586 72.270491 
L 148.344721 85.172028 
L 148.679856 85.416657 
L 149.350127 76.055162 
L 149.685262 67.319973 
L 150.355532 83.64269 
L 150.690667 83.799431 
L 151.025802 89.127252 
L 151.360938 84.970616 
L 151.696073 82.489061 
L 152.031208 83.225727 
L 152.366343 93.535193 
L 152.701478 71.263399 
L 153.036613 85.168232 
L 153.371748 85.748103 
L 153.706883 96.598557 
L 154.042019 100.45778 
L 154.377154 86.253537 
L 154.712289 92.147529 
L 155.047424 79.65158 
L 155.382559 80.960002 
L 155.717694 81.083853 
L 156.052829 96.799381 
L 156.387965 96.528594 
L 156.7231 109.926048 
L 157.058235 99.478204 
L 157.39337 102.550021 
L 157.728505 88.889042 
L 158.06364 93.211671 
L 158.398775 104.616356 
L 158.73391 88.56234 
L 159.069046 106.138796 
L 159.404181 98.380983 
L 159.739316 98.613028 
L 160.074451 89.50191 
L 160.409586 108.82176 
L 160.744721 111.915656 
L 161.079856 102.786699 
L 161.414992 89.413139 
L 161.750127 110.197554 
L 162.420397 82.981923 
L 162.755532 103.663762 
L 163.090667 92.43913 
L 163.760938 119.557654 
L 164.431208 108.079525 
L 164.766343 116.137123 
L 165.101478 111.345802 
L 165.436613 118.200706 
L 165.771748 121.104137 
L 166.106883 102.66861 
L 166.442019 102.307428 
L 166.777154 87.18093 
L 167.112289 105.816744 
L 167.447424 103.112358 
L 167.782559 104.96662 
L 168.117694 116.099797 
L 168.452829 131.336784 
L 168.787965 117.227289 
L 169.1231 115.289824 
L 169.458235 107.421455 
L 169.79337 116.839279 
L 170.128505 116.06205 
L 170.46364 102.851043 
L 170.798775 115.458066 
L 171.13391 107.28098 
L 171.469046 135.672398 
L 171.804181 101.036086 
L 172.139316 128.79302 
L 172.474451 117.993222 
L 172.809586 122.965613 
L 173.144721 126.045212 
L 173.479856 108.261955 
L 173.814992 111.6983 
L 174.150127 102.489533 
L 174.485262 129.600103 
L 175.155532 114.481095 
L 175.490667 128.960825 
L 175.825802 117.387292 
L 176.160938 117.233779 
L 176.496073 101.607027 
L 177.166343 129.146751 
L 177.501478 122.003943 
L 177.836613 106.34023 
L 178.171748 99.230313 
L 178.506883 124.964291 
L 178.842019 134.660082 
L 179.177154 112.793019 
L 179.512289 129.437347 
L 179.847424 127.427389 
L 180.182559 130.364645 
L 180.517694 131.775281 
L 180.852829 127.648903 
L 181.187965 128.902128 
L 181.5231 119.179781 
L 181.858235 115.973499 
L 182.19337 133.261653 
L 182.528505 126.367941 
L 182.86364 115.785596 
L 183.198775 131.546431 
L 183.53391 127.224966 
L 183.869046 101.032164 
L 184.539316 128.922406 
L 184.874451 131.080041 
L 185.209586 114.630239 
L 185.544721 117.086235 
L 185.879856 140.329384 
L 186.214992 147.62709 
L 186.550127 122.082612 
L 186.885262 132.960855 
L 187.220397 131.840894 
L 187.555532 127.532578 
L 187.890667 134.297904 
L 188.225802 130.017488 
L 188.560938 122.327448 
L 188.896073 132.257608 
L 189.231208 131.047412 
L 189.566343 138.022277 
L 189.901478 135.945469 
L 190.236613 135.928996 
L 190.571748 142.974373 
L 190.906883 131.030676 
L 191.242019 123.219222 
L 191.577154 149.345192 
L 191.912289 124.199105 
L 192.247424 114.938531 
L 192.582559 132.729171 
L 192.917694 134.539644 
L 193.252829 130.889491 
L 193.587965 145.242582 
L 193.9231 148.004563 
L 194.258235 145.959526 
L 194.928505 131.335676 
L 195.26364 134.952128 
L 195.598775 123.438887 
L 196.269046 128.398429 
L 196.604181 150.551925 
L 196.939316 132.247929 
L 197.274451 127.896736 
L 197.609586 120.428487 
L 198.279856 144.017848 
L 198.614992 126.233237 
L 198.950127 129.138415 
L 199.620397 144.231003 
L 199.955532 127.591736 
L 200.290667 131.207377 
L 200.960938 142.166082 
L 201.296073 136.996316 
L 201.631208 136.941508 
L 201.966343 151.851053 
L 202.301478 152.582226 
L 202.636613 142.665241 
L 202.971748 125.733658 
L 203.306883 140.421727 
L 203.642019 128.965522 
L 203.977154 134.222684 
L 204.312289 154.323723 
L 204.647424 144.527078 
L 204.982559 126.518218 
L 205.317694 134.856084 
L 205.652829 139.299693 
L 205.987965 137.784485 
L 206.3231 125.671269 
L 206.658235 145.954949 
L 206.99337 159.174667 
L 207.328505 136.288847 
L 207.66364 145.976116 
L 207.998775 144.309789 
L 208.33391 140.920362 
L 208.669046 123.20776 
L 209.004181 145.161464 
L 209.339316 148.645707 
L 209.674451 132.964325 
L 210.009586 154.797307 
L 210.344721 154.39694 
L 210.679856 157.031841 
L 211.014992 143.022317 
L 211.350127 138.772185 
L 211.685262 149.129017 
L 212.020397 125.848303 
L 212.355532 131.391011 
L 212.690667 147.951219 
L 213.025802 150.026385 
L 213.360938 134.209418 
L 213.696073 126.305019 
L 214.031208 142.400177 
L 214.366343 136.124896 
L 214.701478 140.06846 
L 215.036613 151.173249 
L 215.371748 147.800761 
L 215.706883 132.091138 
L 216.042019 165.96 
L 216.712289 125.326387 
L 217.047424 140.376115 
L 217.382559 144.132438 
L 217.717694 146.580173 
L 218.052829 147.838932 
L 218.387965 128.536947 
L 218.7231 146.864294 
L 219.058235 134.818318 
L 219.39337 143.412065 
L 219.728505 131.418666 
L 220.06364 132.713456 
L 220.398775 126.420408 
L 220.73391 144.713992 
L 221.069046 130.510271 
L 221.404181 143.192513 
L 221.739316 134.346688 
L 222.074451 118.795124 
L 222.409586 127.183935 
L 222.744721 132.06479 
L 223.079856 131.720275 
L 223.414992 126.692493 
L 224.085262 148.504591 
L 224.420397 140.637795 
L 224.755532 146.948585 
L 225.090667 141.676754 
L 225.425802 150.858304 
L 225.760938 143.279189 
L 226.096073 140.763126 
L 226.766343 138.364906 
L 227.101478 131.733678 
L 227.436613 128.961277 
L 227.771748 139.815795 
L 228.106883 132.174566 
L 228.442019 139.745584 
L 228.777154 137.767103 
L 229.112289 143.788494 
L 229.447424 123.866051 
L 229.782559 144.386854 
L 230.452829 118.731272 
L 230.787965 148.195413 
L 231.1231 116.68646 
L 231.458235 130.725163 
L 232.128505 144.116338 
L 232.46364 128.383174 
L 232.798775 155.819434 
L 233.469046 123.588307 
L 233.804181 126.688315 
L 234.139316 131.089155 
L 234.474451 124.25177 
L 234.809586 113.212041 
L 235.144721 126.112271 
L 235.479856 129.943385 
L 235.814992 124.35172 
L 236.150127 124.234104 
L 236.485262 133.177389 
L 236.820397 131.039773 
L 237.490667 124.125655 
L 237.825802 139.157784 
L 238.160938 122.73697 
L 238.496073 130.606772 
L 238.831208 108.589122 
L 239.501478 132.369373 
L 239.836613 119.191435 
L 240.171748 130.459787 
L 240.506883 137.240044 
L 240.842019 105.822841 
L 241.177154 109.958451 
L 241.512289 128.807087 
L 241.847424 121.122923 
L 242.182559 88.954877 
L 242.517694 96.598427 
L 242.852829 109.856069 
L 243.187965 108.987787 
L 243.858235 144.045914 
L 244.19337 114.84198 
L 244.528505 125.597574 
L 244.86364 114.28467 
L 245.198775 118.254924 
L 245.53391 114.923579 
L 245.869046 109.812344 
L 246.204181 96.682019 
L 246.539316 105.171868 
L 246.874451 134.504458 
L 247.209586 130.991864 
L 247.544721 115.098131 
L 247.879856 115.096408 
L 248.214992 132.810905 
L 248.550127 110.971836 
L 248.885262 125.96896 
L 249.220397 104.742321 
L 249.555532 116.275798 
L 249.890667 117.118219 
L 250.225802 100.972389 
L 250.560938 107.401368 
L 250.896073 106.493798 
L 251.566343 123.312571 
L 251.901478 90.186721 
L 252.236613 95.056827 
L 252.906883 90.587514 
L 253.242019 114.9286 
L 253.577154 120.245949 
L 253.912289 99.690049 
L 254.247424 106.811195 
L 254.582559 79.631468 
L 254.917694 112.05004 
L 255.587965 104.353835 
L 255.9231 107.442755 
L 256.258235 82.413295 
L 256.59337 99.178897 
L 256.928505 92.916108 
L 257.26364 104.066173 
L 257.598775 89.73218 
L 257.93391 106.597615 
L 258.269046 103.109096 
L 258.604181 105.406848 
L 258.939316 100.057999 
L 259.274451 103.766232 
L 259.609586 111.491169 
L 260.279856 104.10042 
L 260.614992 98.611225 
L 260.950127 112.802008 
L 261.285262 89.911434 
L 261.620397 89.296297 
L 261.955532 99.065431 
L 262.290667 75.215182 
L 262.625802 98.386931 
L 262.960938 89.957665 
L 263.296073 109.43148 
L 263.631208 85.601422 
L 263.966343 89.262961 
L 264.301478 76.327183 
L 264.636613 84.620358 
L 264.971748 102.234058 
L 265.306883 87.64421 
L 265.642019 86.121232 
L 266.312289 95.367195 
L 266.647424 88.72847 
L 266.982559 103.236962 
L 267.317694 100.272561 
L 267.652829 80.327885 
L 267.987965 84.347252 
L 268.3231 96.785386 
L 268.658235 83.134174 
L 268.99337 74.250043 
L 269.328505 88.769674 
L 269.66364 74.015269 
L 269.998775 70.950495 
L 270.33391 91.942733 
L 270.669046 94.960562 
L 271.004181 80.401798 
L 271.339316 88.533663 
L 271.674451 73.271859 
L 272.009586 69.9909 
L 272.344721 65.321537 
L 272.679856 88.667128 
L 273.014992 67.000171 
L 273.350127 65.065324 
L 273.685262 76.694102 
L 274.020397 72.231085 
L 274.355532 77.036859 
L 274.690667 78.807415 
L 275.025802 59.98968 
L 275.360937 73.309672 
L 275.696073 54.917373 
L 276.031208 76.899578 
L 276.366343 66.414639 
L 276.701478 76.183079 
L 277.036613 75.04976 
L 277.371748 67.978844 
L 277.706883 66.451965 
L 278.042019 78.15219 
L 278.377154 70.220893 
L 278.712289 67.665446 
L 279.047424 74.037082 
L 279.382559 59.589042 
L 280.052829 73.619582 
L 280.387965 66.595425 
L 280.7231 93.116225 
L 281.058235 72.703894 
L 281.39337 61.243829 
L 281.728505 43.377974 
L 282.06364 50.603183 
L 282.398775 65.327823 
L 282.73391 71.03655 
L 283.069046 65.573117 
L 283.404181 64.438989 
L 283.739316 55.73039 
L 284.409586 61.220352 
L 284.744721 51.727762 
L 285.079856 56.620842 
L 285.414992 55.94481 
L 285.750127 56.672892 
L 286.085262 62.646296 
L 286.420397 53.602433 
L 286.755532 56.708419 
L 287.090667 55.676553 
L 287.425802 53.731105 
L 287.760938 82.438414 
L 288.431208 43.453139 
L 288.766343 59.106079 
L 289.101478 67.86498 
L 289.436613 54.561735 
L 289.771748 71.023167 
L 290.106883 64.191922 
L 290.777154 66.829365 
L 291.112289 53.766606 
L 291.447424 66.351458 
L 291.782559 44.447483 
L 292.117694 50.723227 
L 292.452829 61.988192 
L 292.787965 56.136538 
L 293.1231 53.337211 
L 293.458235 41.541544 
L 293.79337 61.634422 
L 294.128505 69.660856 
L 294.46364 62.279287 
L 294.798775 44.857935 
L 295.469046 61.230123 
L 295.804181 42.243397 
L 296.139316 37.928769 
L 296.474451 61.693114 
L 296.809586 40.347453 
L 297.144721 59.663475 
L 297.479856 38.415292 
L 297.814992 29.647369 
L 298.150127 65.0674 
L 299.155532 23.941246 
L 299.825802 73.717747 
L 300.160938 59.299218 
L 300.496073 57.84185 
L 300.831208 55.527373 
L 301.166343 33.979788 
L 301.501478 67.011909 
L 301.836613 50.669796 
L 302.171748 39.748014 
L 302.506883 40.281986 
L 302.842019 27.057066 
L 303.177154 50.736966 
L 303.512289 53.541564 
L 303.847424 45.206561 
L 304.182559 42.696764 
L 304.517694 43.634117 
L 304.852829 59.61574 
L 305.187965 42.018072 
L 305.5231 45.870228 
L 306.19337 44.189157 
L 306.528505 56.405437 
L 307.198775 38.792001 
L 307.53391 54.379535 
L 307.869046 40.723562 
L 308.204181 62.525916 
L 308.539316 49.165778 
L 308.874451 42.210205 
L 309.209586 50.475488 
L 309.544721 41.124978 
L 309.879856 50.639039 
L 310.214992 29.554828 
L 310.550127 53.220039 
L 310.885262 30.887737 
L 311.220397 39.43581 
L 311.555532 44.581088 
L 311.890667 26.530984 
L 312.225802 53.212158 
L 312.560938 27.112492 
L 312.896073 51.665027 
L 313.231208 35.704329 
L 313.566343 29.504778 
L 313.901478 40.869057 
L 314.236613 32.301752 
L 314.571748 40.081059 
L 314.906883 40.087969 
L 315.242019 36.031875 
L 315.577154 63.431955 
L 315.912289 36.529559 
L 316.247424 49.21923 
L 316.582559 26.349032 
L 316.917694 64.353622 
L 317.252829 34.434706 
L 317.587965 59.204586 
L 317.9231 59.484211 
L 318.258235 68.731012 
L 318.928505 43.621909 
L 319.26364 43.654264 
L 319.598775 52.51141 
L 319.93391 49.545021 
L 320.269046 48.859061 
L 320.604181 60.618455 
L 320.939316 48.229061 
L 321.274451 52.723489 
L 321.609586 49.75978 
L 321.944721 52.695604 
L 322.279856 63.117203 
L 322.614992 67.948791 
L 322.950127 25.692838 
L 323.285262 24.503068 
L 323.620397 46.931748 
L 323.955532 39.725908 
L 324.290667 54.443049 
L 324.625802 35.475797 
L 324.960938 53.624866 
L 325.296073 58.750251 
L 325.631208 42.609977 
L 325.966343 49.70322 
L 326.301478 40.266562 
L 326.971748 46.302634 
L 327.306883 53.895972 
L 327.642019 38.574327 
L 328.312289 63.023926 
L 328.647424 38.640185 
L 329.317694 50.681875 
L 329.652829 39.849863 
L 329.987965 55.709645 
L 330.3231 64.280708 
L 330.658235 66.208112 
L 330.99337 49.255538 
L 331.328505 47.014362 
L 331.66364 17.218541 
L 331.998775 67.359762 
L 332.33391 42.055491 
L 332.669046 57.937453 
L 333.004181 68.486916 
L 333.339316 66.759484 
L 333.674451 50.842187 
L 334.009586 40.944986 
L 334.344721 46.405171 
L 334.679856 41.328681 
L 335.014992 38.949013 
L 335.350127 53.143451 
L 335.685262 39.398648 
L 336.020397 55.461486 
L 336.355532 53.453582 
L 336.690667 58.382227 
L 337.025802 65.567005 
L 337.696073 54.947177 
L 338.031208 61.207063 
L 338.366343 61.373157 
L 338.701478 51.178515 
L 339.036613 49.2072 
L 339.371748 55.488694 
L 339.706883 65.845537 
L 340.042019 57.649962 
L 340.377154 59.552337 
L 340.712289 63.369689 
L 341.047424 65.401702 
L 341.382559 53.321114 
L 341.717694 68.062251 
L 342.052829 51.305009 
L 342.387965 61.626795 
L 342.7231 52.758937 
L 343.39337 60.708516 
L 343.728505 44.838902 
L 344.06364 62.31328 
L 344.398775 72.49169 
L 344.73391 62.461174 
L 345.069046 66.109027 
L 345.404181 72.673091 
L 345.739316 54.132679 
L 346.074451 62.338004 
L 346.409586 74.095824 
L 346.744721 60.617837 
L 347.079856 58.522667 
L 347.414992 74.956555 
L 347.750127 80.564254 
L 348.085262 75.59329 
L 348.420397 72.782039 
L 348.755532 78.145724 
L 349.090667 63.946238 
L 349.425802 59.955124 
L 350.096073 80.212345 
L 350.431208 65.795284 
L 350.766343 65.211676 
L 351.101478 73.12855 
L 351.436613 77.853482 
L 351.771748 75.878006 
L 352.106883 64.974704 
L 352.442019 64.119673 
L 352.777154 66.51659 
L 353.112289 69.814127 
L 353.447424 64.811861 
L 353.782559 69.533047 
L 354.117694 66.157316 
L 354.452829 74.413842 
L 354.787965 72.455149 
L 355.1231 79.940819 
L 355.458235 74.404751 
L 355.79337 77.619921 
L 356.128505 65.214201 
L 356.46364 96.115397 
L 356.798775 67.702949 
L 357.13391 69.211348 
L 357.469046 87.397722 
L 357.804181 65.077914 
L 358.139316 65.450739 
L 358.809586 78.842388 
L 359.144721 78.237934 
L 359.479856 76.855087 
L 359.814992 77.044859 
L 360.150127 92.646127 
L 360.485262 62.001729 
L 360.820397 78.758887 
L 361.155532 86.532531 
L 361.490667 76.372913 
L 361.825802 77.353705 
L 362.160938 76.048613 
L 362.496073 69.84463 
L 362.831208 79.731645 
L 363.166343 77.024517 
L 363.501478 70.693073 
L 363.836613 94.371967 
L 364.171748 60.887267 
L 364.506883 86.929932 
L 364.842019 82.716929 
L 365.177154 90.512365 
L 365.512289 120.790939 
L 366.182559 90.916563 
L 366.517694 98.129812 
L 366.852829 87.613903 
L 367.187965 103.599498 
L 367.5231 96.208311 
L 367.858235 77.318634 
L 368.19337 84.62483 
L 368.528505 71.229001 
L 368.86364 81.453502 
L 369.198775 80.926575 
L 369.53391 91.378196 
L 369.869046 76.041412 
L 370.204181 78.995908 
L 370.539316 84.159331 
L 370.874451 91.239876 
L 371.209586 90.051593 
L 371.544721 84.223886 
L 371.879856 93.287271 
L 372.214992 88.735122 
L 372.550127 88.760853 
L 373.220397 100.733496 
L 373.555532 101.240449 
L 373.890667 94.184364 
L 374.560938 104.685199 
L 374.896073 109.397785 
L 375.231208 95.700092 
L 375.566343 99.678608 
L 376.236613 114.091821 
L 376.571748 103.294956 
L 376.906883 100.57765 
L 377.242019 103.071167 
L 377.577154 102.189334 
L 377.912289 109.43282 
L 378.247424 92.926435 
L 378.582559 106.150619 
L 378.917694 99.572036 
L 379.252829 109.250248 
L 379.587965 114.968213 
L 379.9231 113.408934 
L 380.258235 101.656572 
L 380.59337 127.19444 
L 380.928505 103.407842 
L 381.598775 109.061839 
L 381.93391 129.125245 
L 382.269046 110.623013 
L 382.604181 119.036534 
L 382.939316 117.063507 
L 383.274451 98.78918 
L 383.609586 126.119583 
L 383.944721 107.678326 
L 384.614992 129.081441 
L 384.950127 116.610683 
L 385.285262 119.205882 
L 385.620397 153.018484 
L 385.955532 99.397849 
L 386.290667 130.018453 
L 386.625802 126.642779 
L 386.960938 132.490767 
L 386.960938 132.490767 
" clip-path="url(#p515beae11b)" style="fill: none; stroke: #1f77b4; stroke-width: 1.5; stroke-linecap: square"/>
   </g>
   <g id="patch_3">
    <path d="M 52.160938 173.52 
L 52.160938 7.2 
" style="fill: none; stroke: #000000; stroke-width: 0.8; stroke-linejoin: miter; stroke-linecap: square"/>
   </g>
   <g id="patch_4">
    <path d="M 386.960938 173.52 
L 386.960938 7.2 
" style="fill: none; stroke: #000000; stroke-width: 0.8; stroke-linejoin: miter; stroke-linecap: square"/>
   </g>
   <g id="patch_5">
    <path d="M 52.160938 173.52 
L 386.960938 173.52 
" style="fill: none; stroke: #000000; stroke-width: 0.8; stroke-linejoin: miter; stroke-linecap: square"/>
   </g>
   <g id="patch_6">
    <path d="M 52.160938 7.2 
L 386.960938 7.2 
" style="fill: none; stroke: #000000; stroke-width: 0.8; stroke-linejoin: miter; stroke-linecap: square"/>
   </g>
  </g>
 </g>
 <defs>
  <clipPath id="p515beae11b">
   <rect x="52.160938" y="7.2" width="334.8" height="166.32"/>
  </clipPath>
 </defs>
</svg>
