<?xml version="1.0" encoding="utf-8" standalone="no"?>
<!DOCTYPE svg PUBLIC "-//W3C//DTD SVG 1.1//EN"
  "http://www.w3.org/Graphics/SVG/1.1/DTD/svg11.dtd">
<svg xmlns:xlink="http://www.w3.org/1999/xlink" width="257.845312pt" height="183.35625pt" viewBox="0 0 257.845312 183.35625" xmlns="http://www.w3.org/2000/svg" version="1.1">
 <metadata>
  <rdf:RDF xmlns:dc="http://purl.org/dc/elements/1.1/" xmlns:cc="http://creativecommons.org/ns#" xmlns:rdf="http://www.w3.org/1999/02/22-rdf-syntax-ns#">
   <cc:Work>
    <dc:type rdf:resource="http://purl.org/dc/dcmitype/StillImage"/>
    <dc:date>2024-08-07T14:08:09.822659</dc:date>
    <dc:format>image/svg+xml</dc:format>
    <dc:creator>
     <cc:Agent>
      <dc:title>Matplotlib v3.5.1, https://matplotlib.org/</dc:title>
     </cc:Agent>
    </dc:creator>
   </cc:Work>
  </rdf:RDF>
 </metadata>
 <defs>
  <style type="text/css">*{stroke-linejoin: round; stroke-linecap: butt}</style>
 </defs>
 <g id="figure_1">
  <g id="patch_1">
   <path d="M 0 183.35625 
L 257.845312 183.35625 
L 257.845312 0 
L 0 0 
z
" style="fill: #ffffff"/>
  </g>
  <g id="axes_1">
   <g id="patch_2">
    <path d="M 55.345312 145.8 
L 250.645312 145.8 
L 250.645312 7.2 
L 55.345312 7.2 
z
" style="fill: #ffffff"/>
   </g>
   <g id="matplotlib.axis_1">
    <g id="xtick_1">
     <g id="line2d_1">
      <path d="M 81.472478 145.8 
L 81.472478 7.2 
" clip-path="url(#paefae782eb)" style="fill: none; stroke: #b0b0b0; stroke-width: 0.8; stroke-linecap: square"/>
     </g>
     <g id="line2d_2">
      <defs>
       <path id="mf47592b261" d="M 0 0 
L 0 3.5 
" style="stroke: #000000; stroke-width: 0.8"/>
      </defs>
      <g>
       <use xlink:href="#mf47592b261" x="81.472478" y="145.8" style="stroke: #000000; stroke-width: 0.8"/>
      </g>
     </g>
     <g id="text_1">
      <!-- −500 -->
      <g transform="translate(67.738884 160.398438)scale(0.1 -0.1)">
       <defs>
        <path id="DejaVuSans-2212" d="M 678 2272 
L 4684 2272 
L 4684 1741 
L 678 1741 
L 678 2272 
z
" transform="scale(0.015625)"/>
        <path id="DejaVuSans-35" d="M 691 4666 
L 3169 4666 
L 3169 4134 
L 1269 4134 
L 1269 2991 
Q 1406 3038 1543 3061 
Q 1681 3084 1819 3084 
Q 2600 3084 3056 2656 
Q 3513 2228 3513 1497 
Q 3513 744 3044 326 
Q 2575 -91 1722 -91 
Q 1428 -91 1123 -41 
Q 819 9 494 109 
L 494 744 
Q 775 591 1075 516 
Q 1375 441 1709 441 
Q 2250 441 2565 725 
Q 2881 1009 2881 1497 
Q 2881 1984 2565 2268 
Q 2250 2553 1709 2553 
Q 1456 2553 1204 2497 
Q 953 2441 691 2322 
L 691 4666 
z
" transform="scale(0.015625)"/>
        <path id="DejaVuSans-30" d="M 2034 4250 
Q 1547 4250 1301 3770 
Q 1056 3291 1056 2328 
Q 1056 1369 1301 889 
Q 1547 409 2034 409 
Q 2525 409 2770 889 
Q 3016 1369 3016 2328 
Q 3016 3291 2770 3770 
Q 2525 4250 2034 4250 
z
M 2034 4750 
Q 2819 4750 3233 4129 
Q 3647 3509 3647 2328 
Q 3647 1150 3233 529 
Q 2819 -91 2034 -91 
Q 1250 -91 836 529 
Q 422 1150 422 2328 
Q 422 3509 836 4129 
Q 1250 4750 2034 4750 
z
" transform="scale(0.015625)"/>
       </defs>
       <use xlink:href="#DejaVuSans-2212"/>
       <use xlink:href="#DejaVuSans-35" x="83.789062"/>
       <use xlink:href="#DejaVuSans-30" x="147.412109"/>
       <use xlink:href="#DejaVuSans-30" x="211.035156"/>
      </g>
     </g>
    </g>
    <g id="xtick_2">
     <g id="line2d_3">
      <path d="M 117.23419 145.8 
L 117.23419 7.2 
" clip-path="url(#paefae782eb)" style="fill: none; stroke: #b0b0b0; stroke-width: 0.8; stroke-linecap: square"/>
     </g>
     <g id="line2d_4">
      <g>
       <use xlink:href="#mf47592b261" x="117.23419" y="145.8" style="stroke: #000000; stroke-width: 0.8"/>
      </g>
     </g>
     <g id="text_2">
      <!-- −250 -->
      <g transform="translate(103.500596 160.398438)scale(0.1 -0.1)">
       <defs>
        <path id="DejaVuSans-32" d="M 1228 531 
L 3431 531 
L 3431 0 
L 469 0 
L 469 531 
Q 828 903 1448 1529 
Q 2069 2156 2228 2338 
Q 2531 2678 2651 2914 
Q 2772 3150 2772 3378 
Q 2772 3750 2511 3984 
Q 2250 4219 1831 4219 
Q 1534 4219 1204 4116 
Q 875 4013 500 3803 
L 500 4441 
Q 881 4594 1212 4672 
Q 1544 4750 1819 4750 
Q 2544 4750 2975 4387 
Q 3406 4025 3406 3419 
Q 3406 3131 3298 2873 
Q 3191 2616 2906 2266 
Q 2828 2175 2409 1742 
Q 1991 1309 1228 531 
z
" transform="scale(0.015625)"/>
       </defs>
       <use xlink:href="#DejaVuSans-2212"/>
       <use xlink:href="#DejaVuSans-32" x="83.789062"/>
       <use xlink:href="#DejaVuSans-35" x="147.412109"/>
       <use xlink:href="#DejaVuSans-30" x="211.035156"/>
      </g>
     </g>
    </g>
    <g id="xtick_3">
     <g id="line2d_5">
      <path d="M 152.995902 145.8 
L 152.995902 7.2 
" clip-path="url(#paefae782eb)" style="fill: none; stroke: #b0b0b0; stroke-width: 0.8; stroke-linecap: square"/>
     </g>
     <g id="line2d_6">
      <g>
       <use xlink:href="#mf47592b261" x="152.995902" y="145.8" style="stroke: #000000; stroke-width: 0.8"/>
      </g>
     </g>
     <g id="text_3">
      <!-- 0 -->
      <g transform="translate(149.814652 160.398438)scale(0.1 -0.1)">
       <use xlink:href="#DejaVuSans-30"/>
      </g>
     </g>
    </g>
    <g id="xtick_4">
     <g id="line2d_7">
      <path d="M 188.757614 145.8 
L 188.757614 7.2 
" clip-path="url(#paefae782eb)" style="fill: none; stroke: #b0b0b0; stroke-width: 0.8; stroke-linecap: square"/>
     </g>
     <g id="line2d_8">
      <g>
       <use xlink:href="#mf47592b261" x="188.757614" y="145.8" style="stroke: #000000; stroke-width: 0.8"/>
      </g>
     </g>
     <g id="text_4">
      <!-- 250 -->
      <g transform="translate(179.213864 160.398438)scale(0.1 -0.1)">
       <use xlink:href="#DejaVuSans-32"/>
       <use xlink:href="#DejaVuSans-35" x="63.623047"/>
       <use xlink:href="#DejaVuSans-30" x="127.246094"/>
      </g>
     </g>
    </g>
    <g id="xtick_5">
     <g id="line2d_9">
      <path d="M 224.519326 145.8 
L 224.519326 7.2 
" clip-path="url(#paefae782eb)" style="fill: none; stroke: #b0b0b0; stroke-width: 0.8; stroke-linecap: square"/>
     </g>
     <g id="line2d_10">
      <g>
       <use xlink:href="#mf47592b261" x="224.519326" y="145.8" style="stroke: #000000; stroke-width: 0.8"/>
      </g>
     </g>
     <g id="text_5">
      <!-- 500 -->
      <g transform="translate(214.975576 160.398438)scale(0.1 -0.1)">
       <use xlink:href="#DejaVuSans-35"/>
       <use xlink:href="#DejaVuSans-30" x="63.623047"/>
       <use xlink:href="#DejaVuSans-30" x="127.246094"/>
      </g>
     </g>
    </g>
    <g id="text_6">
     <!-- x -->
     <g transform="translate(150.035938 174.076563)scale(0.1 -0.1)">
      <defs>
       <path id="DejaVuSans-78" d="M 3513 3500 
L 2247 1797 
L 3578 0 
L 2900 0 
L 1881 1375 
L 863 0 
L 184 0 
L 1544 1831 
L 300 3500 
L 978 3500 
L 1906 2253 
L 2834 3500 
L 3513 3500 
z
" transform="scale(0.015625)"/>
      </defs>
      <use xlink:href="#DejaVuSans-78"/>
     </g>
    </g>
   </g>
   <g id="matplotlib.axis_2">
    <g id="ytick_1">
     <g id="line2d_11">
      <path d="M 55.345312 127.306594 
L 250.645312 127.306594 
" clip-path="url(#paefae782eb)" style="fill: none; stroke: #b0b0b0; stroke-width: 0.8; stroke-linecap: square"/>
     </g>
     <g id="line2d_12">
      <defs>
       <path id="maa24e76cd7" d="M 0 0 
L -3.5 0 
" style="stroke: #000000; stroke-width: 0.8"/>
      </defs>
      <g>
       <use xlink:href="#maa24e76cd7" x="55.345312" y="127.306594" style="stroke: #000000; stroke-width: 0.8"/>
      </g>
     </g>
     <g id="text_7">
      <!-- −500 -->
      <g transform="translate(20.878125 131.105813)scale(0.1 -0.1)">
       <use xlink:href="#DejaVuSans-2212"/>
       <use xlink:href="#DejaVuSans-35" x="83.789062"/>
       <use xlink:href="#DejaVuSans-30" x="147.412109"/>
       <use xlink:href="#DejaVuSans-30" x="211.035156"/>
      </g>
     </g>
    </g>
    <g id="ytick_2">
     <g id="line2d_13">
      <path d="M 55.345312 101.903342 
L 250.645312 101.903342 
" clip-path="url(#paefae782eb)" style="fill: none; stroke: #b0b0b0; stroke-width: 0.8; stroke-linecap: square"/>
     </g>
     <g id="line2d_14">
      <g>
       <use xlink:href="#maa24e76cd7" x="55.345312" y="101.903342" style="stroke: #000000; stroke-width: 0.8"/>
      </g>
     </g>
     <g id="text_8">
      <!-- −250 -->
      <g transform="translate(20.878125 105.702561)scale(0.1 -0.1)">
       <use xlink:href="#DejaVuSans-2212"/>
       <use xlink:href="#DejaVuSans-32" x="83.789062"/>
       <use xlink:href="#DejaVuSans-35" x="147.412109"/>
       <use xlink:href="#DejaVuSans-30" x="211.035156"/>
      </g>
     </g>
    </g>
    <g id="ytick_3">
     <g id="line2d_15">
      <path d="M 55.345312 76.50009 
L 250.645312 76.50009 
" clip-path="url(#paefae782eb)" style="fill: none; stroke: #b0b0b0; stroke-width: 0.8; stroke-linecap: square"/>
     </g>
     <g id="line2d_16">
      <g>
       <use xlink:href="#maa24e76cd7" x="55.345312" y="76.50009" style="stroke: #000000; stroke-width: 0.8"/>
      </g>
     </g>
     <g id="text_9">
      <!-- 0 -->
      <g transform="translate(41.982812 80.299309)scale(0.1 -0.1)">
       <use xlink:href="#DejaVuSans-30"/>
      </g>
     </g>
    </g>
    <g id="ytick_4">
     <g id="line2d_17">
      <path d="M 55.345312 51.096838 
L 250.645312 51.096838 
" clip-path="url(#paefae782eb)" style="fill: none; stroke: #b0b0b0; stroke-width: 0.8; stroke-linecap: square"/>
     </g>
     <g id="line2d_18">
      <g>
       <use xlink:href="#maa24e76cd7" x="55.345312" y="51.096838" style="stroke: #000000; stroke-width: 0.8"/>
      </g>
     </g>
     <g id="text_10">
      <!-- 250 -->
      <g transform="translate(29.257812 54.896057)scale(0.1 -0.1)">
       <use xlink:href="#DejaVuSans-32"/>
       <use xlink:href="#DejaVuSans-35" x="63.623047"/>
       <use xlink:href="#DejaVuSans-30" x="127.246094"/>
      </g>
     </g>
    </g>
    <g id="ytick_5">
     <g id="line2d_19">
      <path d="M 55.345312 25.693586 
L 250.645312 25.693586 
" clip-path="url(#paefae782eb)" style="fill: none; stroke: #b0b0b0; stroke-width: 0.8; stroke-linecap: square"/>
     </g>
     <g id="line2d_20">
      <g>
       <use xlink:href="#maa24e76cd7" x="55.345312" y="25.693586" style="stroke: #000000; stroke-width: 0.8"/>
      </g>
     </g>
     <g id="text_11">
      <!-- 500 -->
      <g transform="translate(29.257812 29.492805)scale(0.1 -0.1)">
       <use xlink:href="#DejaVuSans-35"/>
       <use xlink:href="#DejaVuSans-30" x="63.623047"/>
       <use xlink:href="#DejaVuSans-30" x="127.246094"/>
      </g>
     </g>
    </g>
    <g id="text_12">
     <!-- f(x) -->
     <g transform="translate(14.798437 85.121094)rotate(-90)scale(0.1 -0.1)">
      <defs>
       <path id="DejaVuSans-66" d="M 2375 4863 
L 2375 4384 
L 1825 4384 
Q 1516 4384 1395 4259 
Q 1275 4134 1275 3809 
L 1275 3500 
L 2222 3500 
L 2222 3053 
L 1275 3053 
L 1275 0 
L 697 0 
L 697 3053 
L 147 3053 
L 147 3500 
L 697 3500 
L 697 3744 
Q 697 4328 969 4595 
Q 1241 4863 1831 4863 
L 2375 4863 
z
" transform="scale(0.015625)"/>
       <path id="DejaVuSans-28" d="M 1984 4856 
Q 1566 4138 1362 3434 
Q 1159 2731 1159 2009 
Q 1159 1288 1364 580 
Q 1569 -128 1984 -844 
L 1484 -844 
Q 1016 -109 783 600 
Q 550 1309 550 2009 
Q 550 2706 781 3412 
Q 1013 4119 1484 4856 
L 1984 4856 
z
" transform="scale(0.015625)"/>
       <path id="DejaVuSans-29" d="M 513 4856 
L 1013 4856 
Q 1481 4119 1714 3412 
Q 1947 2706 1947 2009 
Q 1947 1309 1714 600 
Q 1481 -109 1013 -844 
L 513 -844 
Q 928 -128 1133 580 
Q 1338 1288 1338 2009 
Q 1338 2731 1133 3434 
Q 928 4138 513 4856 
z
" transform="scale(0.015625)"/>
      </defs>
      <use xlink:href="#DejaVuSans-66"/>
      <use xlink:href="#DejaVuSans-28" x="35.205078"/>
      <use xlink:href="#DejaVuSans-78" x="74.21875"/>
      <use xlink:href="#DejaVuSans-29" x="133.398438"/>
     </g>
    </g>
   </g>
   <g id="line2d_21">
    <path d="M 64.222585 114.430066 
L 64.306987 139.5 
L 64.359913 129.074961 
L 64.59308 13.703406 
L 64.687487 44.641224 
L 64.879174 139.093548 
L 64.936396 127.05325 
L 65.165268 14.109858 
L 65.253956 41.539084 
L 65.451361 138.687096 
L 65.511439 125.55203 
L 65.737455 14.51631 
L 65.82328 40.172869 
L 66.023549 138.28065 
L 66.085058 124.626805 
L 66.309643 14.922756 
L 66.394035 39.631595 
L 66.595736 137.874198 
L 66.658677 123.700055 
L 66.88183 15.329214 
L 66.963359 38.352493 
L 67.167924 137.46774 
L 67.232288 122.772262 
L 67.454017 15.735666 
L 67.534123 37.870005 
L 67.740111 137.061288 
L 67.805907 121.838981 
L 68.026205 16.142112 
L 68.104879 37.401074 
L 68.312298 136.654842 
L 68.379526 120.903002 
L 68.598392 16.548564 
L 68.675634 36.951531 
L 68.884486 136.248384 
L 68.953146 119.962198 
L 69.17058 16.955022 
L 69.24639 36.52135 
L 69.456673 135.841932 
L 69.525333 119.665571 
L 69.742767 17.361474 
L 69.818577 36.795269 
L 70.028861 135.435486 
L 70.098943 118.734711 
L 70.314954 17.76792 
L 70.389333 36.389105 
L 70.601048 135.029034 
L 70.671131 118.442468 
L 70.887142 18.174378 
L 70.96152 36.667701 
L 71.173235 134.622582 
L 71.243318 118.150229 
L 71.459329 18.580824 
L 71.533708 36.943704 
L 71.745423 134.21613 
L 71.815506 117.860454 
L 72.031517 18.987276 
L 72.105895 37.222296 
L 72.31761 133.809678 
L 72.387693 117.568224 
L 72.603704 19.393728 
L 72.678082 37.500876 
L 72.889798 133.403226 
L 72.95988 117.276 
L 73.175891 19.80018 
L 73.25027 37.779443 
L 73.461985 132.996774 
L 73.532068 116.983788 
L 73.748079 20.206632 
L 73.822457 38.055496 
L 74.034172 132.590322 
L 74.104255 116.69397 
L 74.320266 20.613084 
L 74.394645 38.33406 
L 74.60636 132.18387 
L 74.676443 116.401755 
L 74.892454 21.019536 
L 74.966832 38.612616 
L 75.178547 131.777418 
L 75.24863 116.109559 
L 75.464641 21.425988 
L 75.539019 38.888712 
L 75.750735 131.370966 
L 75.820817 115.819697 
L 76.036828 21.832434 
L 76.111207 39.16726 
L 76.322922 130.96452 
L 76.393005 115.527501 
L 76.609016 22.238886 
L 76.683394 39.445803 
L 76.895109 130.558061 
L 76.965192 115.235317 
L 77.181203 22.645344 
L 77.255582 39.721936 
L 77.467297 130.151609 
L 77.53738 114.94314 
L 77.75339 23.051796 
L 77.827769 40.000476 
L 78.039484 129.745164 
L 78.109567 114.653235 
L 78.325578 23.458242 
L 78.399956 40.279003 
L 78.611672 129.338705 
L 78.681754 114.36106 
L 78.897765 23.8647 
L 78.972144 40.557521 
L 79.183859 128.932253 
L 79.253942 114.068898 
L 79.469953 24.271153 
L 79.544331 40.833701 
L 79.756042 128.525811 
L 79.826138 113.774528 
L 80.042136 24.677595 
L 80.116523 41.114526 
L 80.328229 128.119362 
L 80.398325 113.482403 
L 80.614323 25.084044 
L 80.68871 41.39301 
L 80.900417 127.71291 
L 80.97194 112.627958 
L 81.18651 25.490499 
L 81.259466 41.089389 
L 81.472604 127.306455 
L 81.544128 112.340302 
L 81.758698 25.896951 
L 81.831653 41.370264 
L 82.044792 126.900006 
L 82.116315 112.052661 
L 82.330885 26.303397 
L 82.403841 41.653362 
L 82.616979 126.493557 
L 82.688502 111.767184 
L 82.903073 26.709849 
L 82.976028 41.936454 
L 83.189166 126.087102 
L 83.26069 111.47954 
L 83.47526 27.116304 
L 83.548215 42.217366 
L 83.761354 125.680649 
L 83.832877 111.191911 
L 84.047447 27.522756 
L 84.120403 42.500451 
L 84.333541 125.274201 
L 84.405065 110.906395 
L 84.619635 27.929205 
L 84.69259 42.783527 
L 84.905729 124.867749 
L 84.977252 110.618766 
L 85.191822 28.33566 
L 85.264778 43.066591 
L 85.477916 124.461293 
L 85.549439 110.33115 
L 85.76401 28.742112 
L 85.836965 43.347553 
L 86.050103 124.054841 
L 86.121627 110.04354 
L 86.336197 29.148561 
L 86.409152 43.630617 
L 86.622291 123.648392 
L 86.693814 109.757977 
L 86.908384 29.555013 
L 86.98134 43.913668 
L 87.194478 123.24194 
L 87.266002 109.470376 
L 87.480572 29.961465 
L 87.553527 44.194667 
L 87.766666 122.835488 
L 87.838189 109.182778 
L 88.052759 30.367918 
L 88.125714 44.477715 
L 88.338853 122.429039 
L 88.410376 108.897178 
L 88.624947 30.774366 
L 88.697902 44.760755 
L 88.91104 122.022587 
L 88.982564 108.609587 
L 89.197134 31.180822 
L 89.270089 45.043784 
L 89.483228 121.616132 
L 89.554751 108.322005 
L 89.769321 31.587274 
L 89.842277 45.324833 
L 90.055415 121.20968 
L 90.126939 108.034432 
L 90.341509 31.993723 
L 90.414464 45.607859 
L 90.627602 120.803231 
L 90.699126 107.748785 
L 90.913696 32.400175 
L 90.986651 45.890874 
L 91.19979 120.396779 
L 91.271313 107.461218 
L 91.485884 32.806627 
L 91.558839 46.171959 
L 91.771977 119.990327 
L 91.843501 107.173661 
L 92.058071 33.213079 
L 92.131026 46.454973 
L 92.344165 119.583878 
L 92.415688 106.88797 
L 92.630258 33.619528 
L 92.703214 46.737972 
L 92.916352 119.177423 
L 92.987875 106.600416 
L 93.202446 34.025983 
L 93.275401 47.020965 
L 93.488539 118.770971 
L 93.560063 106.312871 
L 93.774633 34.432435 
L 93.847588 47.302103 
L 94.060727 118.364519 
L 94.13225 106.025336 
L 94.346821 34.838884 
L 94.419776 47.585089 
L 94.632914 117.95807 
L 94.704438 105.739602 
L 94.919008 35.245339 
L 94.991963 47.868067 
L 95.205102 117.551615 
L 95.276625 105.452073 
L 95.491195 35.651791 
L 95.564151 48.149242 
L 95.777289 117.145166 
L 95.848812 105.16455 
L 96.063383 36.05824 
L 96.136338 48.432216 
L 96.349476 116.738714 
L 96.421 104.878775 
L 96.63557 36.464692 
L 96.708525 48.715181 
L 96.921664 116.332262 
L 96.993187 104.591258 
L 97.207758 36.871144 
L 97.280713 48.998136 
L 97.493851 115.92581 
L 97.565375 104.303748 
L 97.779945 37.277596 
L 97.8529 49.279361 
L 98.066039 115.519358 
L 98.137562 104.017933 
L 98.352132 37.684045 
L 98.425088 49.56231 
L 98.638226 115.112909 
L 98.709749 103.730432 
L 98.92432 38.0905 
L 98.997275 49.84525 
L 99.210413 114.706454 
L 99.281937 103.442937 
L 99.496507 38.496952 
L 99.569462 50.126512 
L 99.782601 114.300002 
L 99.854124 103.155451 
L 100.068694 38.903404 
L 100.14165 50.409452 
L 100.354788 113.893553 
L 100.426312 102.86959 
L 100.640882 39.309853 
L 100.713837 50.692378 
L 100.926976 113.487101 
L 100.998499 102.582107 
L 101.213069 39.716305 
L 101.286025 50.975295 
L 101.499163 113.080649 
L 101.570686 102.294638 
L 101.785257 40.122757 
L 101.858212 51.256607 
L 102.07135 112.674197 
L 102.142874 102.008738 
L 102.357444 40.529206 
L 102.430399 51.53952 
L 102.643538 112.267748 
L 102.715061 101.721268 
L 102.929631 40.935661 
L 103.002587 51.822423 
L 103.215725 111.861293 
L 103.287249 101.433811 
L 103.501819 41.342113 
L 103.574774 52.103777 
L 103.787913 111.454841 
L 103.859436 101.146363 
L 104.074006 41.748562 
L 104.146962 52.386673 
L 104.3601 111.048392 
L 104.431623 100.860415 
L 104.646194 42.155014 
L 104.719149 52.669563 
L 104.932287 110.64194 
L 105.003811 100.572972 
L 105.218381 42.561466 
L 105.291336 52.950956 
L 105.504475 110.235488 
L 105.575998 100.285536 
L 105.790568 42.967918 
L 105.863524 53.233843 
L 106.076662 109.829036 
L 106.148186 99.999549 
L 106.362756 43.37437 
L 106.435711 53.516719 
L 106.64885 109.422584 
L 106.720373 99.712119 
L 106.934943 43.780822 
L 107.007898 53.798868 
L 107.221037 109.016132 
L 107.29256 99.424697 
L 107.507131 44.187274 
L 107.580086 54.081732 
L 107.793224 108.60968 
L 107.864748 99.137978 
L 108.079318 44.593726 
L 108.152273 54.363886 
L 108.365412 108.203228 
L 108.436935 98.850567 
L 108.651505 45.000178 
L 108.724461 54.646738 
L 108.937599 107.796776 
L 109.009123 98.563844 
L 109.223693 45.40663 
L 109.296648 54.928899 
L 109.509786 107.390327 
L 109.58131 98.277111 
L 109.79588 45.813079 
L 109.868835 55.211069 
L 110.081974 106.983875 
L 110.153497 97.989715 
L 110.368068 46.219531 
L 110.441023 55.493908 
L 110.654161 106.577423 
L 110.725685 97.702977 
L 110.940255 46.625983 
L 111.01321 55.776082 
L 111.226349 106.170971 
L 111.297872 97.415593 
L 111.512442 47.032432 
L 111.585398 56.058908 
L 111.798536 105.764518 
L 111.870059 97.128849 
L 112.08463 47.438887 
L 112.157585 56.341088 
L 112.370723 105.358066 
L 112.442247 96.841477 
L 112.656817 47.845339 
L 112.729772 56.623275 
L 112.942911 104.951614 
L 113.014434 96.554728 
L 113.229005 48.251791 
L 113.30196 56.906089 
L 113.515098 104.545162 
L 113.586622 96.267971 
L 113.801192 48.658244 
L 113.874147 57.188283 
L 114.087286 104.138713 
L 114.158809 95.980612 
L 114.373379 49.064692 
L 114.446335 57.471083 
L 114.659473 103.732261 
L 114.730996 95.693849 
L 114.945567 49.471144 
L 115.018522 57.753284 
L 115.23166 103.325809 
L 115.303184 95.406501 
L 115.517754 49.877597 
L 115.590709 58.036073 
L 115.803848 102.919357 
L 115.875371 95.119733 
L 116.089942 50.284049 
L 116.162897 58.31828 
L 116.376037 102.512904 
L 116.447561 94.832394 
L 116.662129 50.690501 
L 116.735084 58.600491 
L 116.948223 102.106453 
L 117.019748 94.545069 
L 117.234316 51.096953 
L 117.307272 58.883266 
L 117.52041 101.700003 
L 117.591936 94.258295 
L 117.806504 51.503403 
L 117.879459 59.165485 
L 118.092597 101.293551 
L 118.164123 93.970981 
L 118.378691 51.909855 
L 118.451646 59.44825 
L 118.664785 100.887099 
L 118.73631 93.684204 
L 118.950878 52.316307 
L 119.023834 59.730475 
L 119.236972 100.480647 
L 119.308498 93.397417 
L 119.523066 52.722759 
L 119.596021 60.013227 
L 119.80916 100.074196 
L 119.880685 93.110116 
L 120.095253 53.12921 
L 120.168209 60.295459 
L 120.381347 99.667744 
L 120.452873 92.823324 
L 120.667441 53.535662 
L 120.740396 60.577695 
L 120.953534 99.261292 
L 121.02506 92.536035 
L 121.239628 53.942114 
L 121.312583 60.860435 
L 121.525722 98.85484 
L 121.597247 92.249238 
L 121.811815 54.348566 
L 121.884771 61.142678 
L 122.097909 98.44839 
L 122.169435 91.962433 
L 122.384003 54.755016 
L 122.456958 61.425406 
L 122.670097 98.041938 
L 122.741622 91.675156 
L 122.95619 55.161468 
L 123.029146 61.707656 
L 123.242284 97.635486 
L 123.31381 91.388346 
L 123.528378 55.56792 
L 123.601333 61.989913 
L 123.814471 97.229034 
L 123.885997 91.10108 
L 124.100565 55.974372 
L 124.17352 62.272627 
L 124.386659 96.822583 
L 124.458184 90.814264 
L 124.672752 56.380823 
L 124.745708 62.554889 
L 124.958846 96.416131 
L 125.030372 90.527011 
L 125.24494 56.787275 
L 125.317895 62.837592 
L 125.531034 96.009679 
L 125.602559 90.240189 
L 125.817127 57.193727 
L 125.890083 63.11986 
L 126.103221 95.603227 
L 126.174747 89.95336 
L 126.389315 57.600179 
L 126.46227 63.402551 
L 126.675408 95.196776 
L 126.746934 89.666121 
L 126.961502 58.006629 
L 127.034457 63.684825 
L 127.247596 94.790324 
L 127.319121 89.379284 
L 127.533689 58.413081 
L 127.606645 63.967109 
L 127.819783 94.383872 
L 127.891309 89.092057 
L 128.105877 58.819533 
L 128.178832 64.249785 
L 128.39197 93.97742 
L 128.463496 88.805217 
L 128.678064 59.225986 
L 128.751019 64.532072 
L 128.964158 93.57097 
L 129.035683 88.518 
L 129.250252 59.632436 
L 129.323207 64.814737 
L 129.536345 93.164518 
L 129.607871 88.231153 
L 129.822439 60.038888 
L 129.895394 65.097032 
L 130.108533 92.758066 
L 130.180058 87.944123 
L 130.394626 60.44534 
L 130.467582 65.379509 
L 130.68072 92.351614 
L 130.752246 87.657095 
L 130.966814 60.851792 
L 131.039769 65.661985 
L 131.252907 91.945163 
L 131.324433 87.370235 
L 131.539001 61.258243 
L 131.611956 65.944459 
L 131.825095 91.538711 
L 131.89662 87.083205 
L 132.111189 61.664695 
L 132.184144 66.226932 
L 132.397282 91.132259 
L 132.468808 86.796178 
L 132.683376 62.071147 
L 132.756331 66.509245 
L 132.96947 90.725807 
L 133.040995 86.509152 
L 133.255563 62.477599 
L 133.328519 66.791719 
L 133.541657 90.319357 
L 133.613183 86.222126 
L 133.827751 62.884049 
L 133.900706 67.074192 
L 134.113844 89.912905 
L 134.18537 85.935103 
L 134.399938 63.290501 
L 134.472893 67.356663 
L 134.686032 89.506453 
L 134.757555 85.648362 
L 134.972127 63.696954 
L 135.04508 67.638992 
L 135.25822 89.100001 
L 135.329743 85.361333 
L 135.544314 64.103405 
L 135.617267 67.921465 
L 135.830408 88.693549 
L 135.90193 85.074305 
L 136.116501 64.509857 
L 136.189455 68.203937 
L 136.402595 88.287097 
L 136.474117 84.787405 
L 136.688689 64.916309 
L 136.760211 68.356352 
L 136.974782 87.880645 
L 137.046305 84.500376 
L 137.260876 65.322761 
L 137.332399 68.643378 
L 137.54697 87.474194 
L 137.618492 84.213348 
L 137.833064 65.729212 
L 137.904586 68.930404 
L 138.119157 87.067742 
L 138.19068 83.926321 
L 138.405251 66.135664 
L 138.476773 69.217315 
L 138.691345 86.661291 
L 138.762867 83.639296 
L 138.977438 66.542115 
L 139.048961 69.504341 
L 139.262101 86.254865 
L 139.335054 83.352273 
L 139.548195 66.948521 
L 139.621148 69.791367 
L 139.834289 85.848455 
L 139.907242 83.065251 
L 140.120382 67.354931 
L 140.193335 70.07839 
L 140.406476 85.442045 
L 140.479429 82.778327 
L 140.69257 67.761341 
L 140.765523 70.365412 
L 140.978663 85.035635 
L 141.051617 82.491303 
L 141.264757 68.167751 
L 141.33771 70.652432 
L 141.550851 84.629224 
L 141.623804 82.204282 
L 141.836945 68.574161 
L 141.909898 70.939409 
L 142.123038 84.222813 
L 142.195991 81.917261 
L 142.409132 68.980572 
L 142.482085 71.226429 
L 142.695226 83.816403 
L 142.768179 81.630242 
L 142.981319 69.386982 
L 143.054272 71.513409 
L 143.267413 83.409992 
L 143.340366 81.343262 
L 143.553507 69.793393 
L 143.62646 71.800427 
L 143.8396 83.003581 
L 143.912554 81.056208 
L 144.125694 70.199804 
L 144.198648 72.087479 
L 144.411788 82.597172 
L 144.484741 80.769226 
L 144.697882 70.606213 
L 144.770835 72.374461 
L 144.983975 82.190761 
L 145.056929 80.482211 
L 145.270069 71.012624 
L 145.343023 72.661476 
L 145.556163 81.784351 
L 145.627686 80.253676 
L 145.842256 71.419034 
L 145.91521 72.948489 
L 146.12835 81.37794 
L 146.199873 79.962178 
L 146.414444 71.825445 
L 146.487397 73.235476 
L 146.700537 80.97153 
L 146.772061 79.670682 
L 146.986631 72.231855 
L 147.059585 73.522488 
L 147.272725 80.56512 
L 147.344248 79.379198 
L 147.558819 72.638265 
L 147.631772 73.809488 
L 147.844912 80.158709 
L 147.916436 79.087713 
L 148.131006 73.044676 
L 148.202529 74.058214 
L 148.4171 79.752299 
L 148.488623 78.796228 
L 148.703193 73.451086 
L 148.774716 74.349691 
L 148.989287 79.345888 
L 149.06081 78.504741 
L 149.27395 73.857401 
L 149.346904 74.641185 
L 149.560044 78.939644 
L 149.631567 78.239934 
L 149.846138 74.26367 
L 149.919091 74.932672 
L 150.132231 78.533375 
L 150.203754 77.944027 
L 150.418325 74.669939 
L 150.489848 75.204103 
L 150.704419 78.127106 
L 150.774511 77.665714 
L 150.989082 75.07604 
L 151.062036 75.500008 
L 151.275175 77.721126 
L 151.345268 77.378529 
L 151.559839 75.48191 
L 151.631362 75.773904 
L 151.845932 77.315427 
L 151.914595 77.09124 
L 152.130596 75.88725 
L 152.199258 76.058943 
L 152.413828 76.91113 
L 152.478199 76.803959 
L 152.695631 76.289373 
L 152.752849 76.346366 
L 152.977433 76.51294 
L 152.990307 76.504057 
L 153.156241 76.521588 
L 153.330759 76.704661 
L 153.376534 76.6374 
L 153.591104 76.09072 
L 153.664058 76.26551 
L 153.867184 77.112707 
L 153.934416 76.924325 
L 154.148987 75.684742 
L 154.226232 75.987375 
L 154.43365 77.51813 
L 154.502312 77.219158 
L 154.718313 75.279102 
L 154.794128 75.702818 
L 155.002976 77.924133 
L 155.0745 77.492285 
L 155.28907 74.87306 
L 155.363454 75.409644 
L 155.573733 78.330261 
L 155.646687 77.765411 
L 155.859827 74.466802 
L 155.934211 75.121973 
L 156.145921 78.736494 
L 156.217444 78.064282 
L 156.432014 74.060569 
L 156.506398 74.853605 
L 156.718108 79.142727 
L 156.789631 78.342106 
L 157.002771 73.654236 
L 157.077156 74.551957 
L 157.288865 79.549141 
L 157.361819 78.61993 
L 157.574958 73.247843 
L 157.649343 74.278837 
L 157.861052 79.955533 
L 157.934006 78.897745 
L 158.147146 72.84145 
L 158.2201 73.963518 
L 158.433239 80.361926 
L 158.506194 79.175569 
L 158.719333 72.435058 
L 158.792287 73.685704 
L 159.005427 80.768318 
L 159.078381 79.453394 
L 159.291521 72.028666 
L 159.364475 73.407879 
L 159.577614 81.174711 
L 159.650568 79.731207 
L 159.863708 71.622273 
L 159.936662 73.130068 
L 160.149802 81.581103 
L 160.221326 80.06674 
L 160.435895 71.21588 
L 160.50885 72.852227 
L 160.721989 81.987496 
L 160.793513 80.349176 
L 161.008083 70.809488 
L 161.081037 72.574416 
L 161.294176 82.393889 
L 161.3657 80.631643 
L 161.58027 70.403095 
L 161.653224 72.296607 
L 161.866364 82.800281 
L 161.937888 80.914078 
L 162.152458 69.996703 
L 162.225412 72.018799 
L 162.438551 83.206674 
L 162.510075 81.196548 
L 162.724645 69.59031 
L 162.797599 71.740953 
L 163.010739 83.613066 
L 163.082262 81.478982 
L 163.295402 69.18387 
L 163.369786 71.463146 
L 163.581495 84.019535 
L 163.654449 81.761457 
L 163.867589 68.777419 
L 163.941974 71.185341 
L 164.153683 84.425987 
L 164.226637 82.04389 
L 164.439776 68.370967 
L 164.514161 70.90749 
L 164.72587 84.832439 
L 164.798824 82.326322 
L 165.011964 67.964516 
L 165.086349 70.629685 
L 165.298057 85.23889 
L 165.371012 82.608753 
L 165.584151 67.558064 
L 165.658536 70.351882 
L 165.870245 85.645342 
L 165.943199 82.891182 
L 166.156338 67.151613 
L 166.230723 70.07408 
L 166.442432 86.051793 
L 166.515386 83.173714 
L 166.728526 66.745161 
L 166.80148 69.685304 
L 167.01462 86.458245 
L 167.087574 83.456145 
L 167.300713 66.338709 
L 167.373667 69.402876 
L 167.586807 86.864697 
L 167.659761 83.738574 
L 167.872901 65.932257 
L 167.945855 69.12045 
L 168.158994 87.271149 
L 168.231949 84.021001 
L 168.445088 65.525806 
L 168.518042 68.837905 
L 168.731182 87.6776 
L 168.804136 84.303427 
L 169.017275 65.119354 
L 169.09023 68.555477 
L 169.303369 88.084052 
L 169.376323 84.585852 
L 169.589463 64.712903 
L 169.662417 68.273051 
L 169.875557 88.490503 
L 169.948511 84.868275 
L 170.16165 64.306451 
L 170.234604 67.990627 
L 170.447744 88.896955 
L 170.520698 85.150834 
L 170.733838 63.899999 
L 170.806792 67.708203 
L 171.019931 89.303406 
L 171.092886 85.433258 
L 171.306025 63.493547 
L 171.37898 67.425781 
L 171.592121 89.709859 
L 171.665074 85.715536 
L 171.878215 63.087095 
L 171.951168 67.143361 
L 172.164308 90.116311 
L 172.237261 85.997953 
L 172.450402 62.680643 
L 172.523355 66.860943 
L 172.736496 90.522763 
L 172.809449 86.280368 
L 173.022589 62.274191 
L 173.095543 66.578525 
L 173.308683 90.929215 
L 173.381636 86.562942 
L 173.594777 61.867741 
L 173.66773 66.29611 
L 173.880871 91.335665 
L 173.953824 86.845359 
L 174.166964 61.461289 
L 174.239917 66.013696 
L 174.453058 91.742117 
L 174.526011 87.127775 
L 174.739152 61.054837 
L 174.812105 65.731114 
L 175.025245 92.148569 
L 175.098198 87.410188 
L 175.311339 60.648385 
L 175.384292 65.448698 
L 175.597433 92.555021 
L 175.670386 87.692601 
L 175.883526 60.241934 
L 175.956479 65.166283 
L 176.16962 92.961472 
L 176.242573 87.975011 
L 176.455714 59.835482 
L 176.528667 64.883871 
L 176.741807 93.367924 
L 176.814761 88.257421 
L 177.027901 59.42903 
L 177.100854 64.601273 
L 177.313995 93.774376 
L 177.386948 88.54002 
L 177.600089 59.022578 
L 177.673042 64.319051 
L 177.886182 94.180826 
L 177.959135 88.822236 
L 178.172276 58.616128 
L 178.245229 64.036447 
L 178.45837 94.587278 
L 178.531323 89.10484 
L 178.744463 58.209676 
L 178.817416 63.754237 
L 179.030557 94.99373 
L 179.10351 89.387452 
L 179.316651 57.803224 
L 179.389604 63.471625 
L 179.602744 95.400182 
L 179.675698 89.669654 
L 179.888838 57.396772 
L 179.961791 63.189428 
L 180.174932 95.806633 
L 180.247885 89.952272 
L 180.461026 56.990321 
L 180.533979 62.90681 
L 180.747119 96.213085 
L 180.820072 90.234463 
L 181.033213 56.583869 
L 181.106166 62.624187 
L 181.319307 96.619537 
L 181.39226 90.517086 
L 181.6054 56.177417 
L 181.678353 62.342002 
L 181.891494 97.025989 
L 181.964447 90.799266 
L 182.177588 55.770966 
L 182.250541 62.059372 
L 182.463681 97.432439 
L 182.536635 91.081895 
L 182.749775 55.364514 
L 182.822728 61.7772 
L 183.035869 97.838891 
L 183.108822 91.364532 
L 183.321963 54.958062 
L 183.394916 61.494565 
L 183.608056 98.245343 
L 183.681009 91.646697 
L 183.89415 54.55161 
L 183.967103 61.21192 
L 184.180244 98.651796 
L 184.253197 91.929341 
L 184.466337 54.14516 
L 184.53929 60.929762 
L 184.752431 99.058246 
L 184.825384 92.211494 
L 185.038525 53.738708 
L 185.111478 60.647112 
L 185.324618 99.464698 
L 185.397571 92.494141 
L 185.610712 53.332256 
L 185.683665 60.364966 
L 185.896806 99.87115 
L 185.969759 92.776799 
L 186.182899 52.925804 
L 186.255853 60.08231 
L 186.468993 100.277601 
L 186.541946 93.058939 
L 186.755087 52.519353 
L 186.82804 59.800174 
L 187.041181 100.684053 
L 187.114134 93.341601 
L 187.327274 52.112901 
L 187.400227 59.517514 
L 187.613368 101.090505 
L 187.686321 93.62373 
L 187.899462 51.706449 
L 187.972415 59.234843 
L 188.185555 101.496957 
L 188.258508 93.906397 
L 188.471649 51.299997 
L 188.544602 58.952722 
L 188.757743 101.903407 
L 188.830696 94.188514 
L 189.043836 50.893547 
L 189.11679 58.670047 
L 189.32993 102.309859 
L 189.402883 94.471187 
L 189.616022 50.487098 
L 189.688973 58.386798 
L 189.902115 102.716311 
L 189.975066 94.754443 
L 190.188209 50.080643 
L 190.26116 58.104679 
L 190.474303 103.12276 
L 190.547254 95.037141 
L 190.760396 49.674191 
L 190.833347 57.821981 
L 191.04649 103.529215 
L 191.119441 95.319251 
L 191.332584 49.267742 
L 191.405535 57.539277 
L 191.618678 103.935664 
L 191.691628 95.601954 
L 191.904771 48.86129 
L 191.977722 57.257175 
L 192.190865 104.342116 
L 192.263816 95.884054 
L 192.476959 48.454838 
L 192.54991 56.974464 
L 192.763052 104.748568 
L 192.836003 96.166764 
L 193.049146 48.048386 
L 193.122097 56.692372 
L 193.33524 105.15502 
L 193.408191 96.449481 
L 193.621333 47.641934 
L 193.694284 56.409656 
L 193.907427 105.561472 
L 193.980378 96.731566 
L 194.193521 47.235482 
L 194.266472 56.127576 
L 194.479615 105.967921 
L 194.552565 97.014287 
L 194.765708 46.829029 
L 194.838659 55.844854 
L 195.051802 106.374376 
L 195.124753 97.296362 
L 195.337896 46.422581 
L 195.410847 55.562125 
L 195.623989 106.780828 
L 195.69694 97.57909 
L 195.910083 46.016125 
L 195.983034 55.280058 
L 196.196177 107.18728 
L 196.269128 97.861825 
L 196.48227 45.609676 
L 196.555221 54.997322 
L 196.768364 107.593729 
L 196.841315 98.143887 
L 197.054458 45.203224 
L 197.127409 54.715268 
L 197.340551 108.000181 
L 197.413507 98.425245 
L 197.626645 44.796772 
L 197.6996 54.433917 
L 197.912739 108.406633 
L 197.985694 98.707978 
L 198.198833 44.39032 
L 198.271788 54.151187 
L 198.484926 108.813082 
L 198.557882 98.990007 
L 198.77102 43.983868 
L 198.843975 53.86845 
L 199.057114 109.219538 
L 199.130069 99.272744 
L 199.343207 43.577419 
L 199.416163 53.586428 
L 199.629301 109.62599 
L 199.702256 99.554761 
L 199.915395 43.170964 
L 199.98835 53.304415 
L 200.201488 110.032438 
L 200.274444 99.836768 
L 200.487582 42.764515 
L 200.560537 53.02093 
L 200.773676 110.438891 
L 200.846631 100.120254 
L 201.05977 42.358063 
L 201.132725 52.738922 
L 201.345863 110.845343 
L 201.418819 100.402257 
L 201.631957 41.951611 
L 201.704912 52.456923 
L 201.918051 111.251795 
L 201.991006 100.684251 
L 202.204144 41.545159 
L 202.2771 52.1734 
L 202.490238 111.658247 
L 202.563193 100.96778 
L 202.776332 41.13871 
L 202.849287 51.891404 
L 203.062425 112.064699 
L 203.135381 101.24977 
L 203.348519 40.732255 
L 203.421474 51.609419 
L 203.634613 112.471151 
L 203.707568 101.53175 
L 203.920707 40.325803 
L 203.993662 51.327446 
L 204.2068 112.8776 
L 204.279755 101.815317 
L 204.492894 39.919354 
L 204.565849 51.043873 
L 204.778988 113.284052 
L 204.851943 102.097293 
L 205.065081 39.512899 
L 205.138037 50.761901 
L 205.351175 113.690507 
L 205.42413 102.379259 
L 205.637269 39.10645 
L 205.710224 50.479941 
L 205.923362 114.096956 
L 205.996318 102.661216 
L 206.209456 38.699998 
L 206.282411 50.196328 
L 206.49555 114.503408 
L 206.568505 102.944832 
L 206.781643 38.293546 
L 206.854599 49.914371 
L 207.067737 114.90986 
L 207.140692 103.226786 
L 207.353831 37.887094 
L 207.426786 49.632423 
L 207.639925 115.316312 
L 207.71288 103.508727 
L 207.926018 37.480642 
L 207.998974 49.350485 
L 208.212112 115.722761 
L 208.285067 103.792383 
L 208.498206 37.074193 
L 208.571161 49.066826 
L 208.784299 116.129213 
L 208.857255 104.074322 
L 209.070393 36.667738 
L 209.143348 48.784891 
L 209.356487 116.535668 
L 209.429442 104.35625 
L 209.64258 36.261286 
L 209.715536 48.502968 
L 209.928674 116.942117 
L 210.001629 104.63817 
L 210.214768 35.854837 
L 210.287723 48.219268 
L 210.500862 117.348569 
L 210.573817 104.921873 
L 210.786955 35.448385 
L 210.859911 47.937349 
L 211.073049 117.755021 
L 211.146004 105.203789 
L 211.359143 35.041933 
L 211.432098 47.655438 
L 211.645236 118.161473 
L 211.718192 105.485694 
L 211.93133 34.635484 
L 212.004285 47.373537 
L 212.217424 118.567922 
L 212.290379 105.769437 
L 212.503517 34.229032 
L 212.576473 47.089788 
L 212.789611 118.974374 
L 212.862566 106.051338 
L 213.075705 33.822577 
L 213.14866 46.807893 
L 213.361799 119.380829 
L 213.434754 106.333229 
L 213.647892 33.416125 
L 213.720847 46.526005 
L 213.933986 119.787278 
L 214.006941 106.615112 
L 214.22008 33.009676 
L 214.293035 46.242221 
L 214.506173 120.19373 
L 214.579129 106.898905 
L 214.792267 32.603224 
L 214.865222 45.960336 
L 215.078361 120.600182 
L 215.151316 107.180784 
L 215.364454 32.196772 
L 215.43741 45.678463 
L 215.650548 121.006634 
L 215.723503 107.462651 
L 215.936642 31.790323 
L 216.009597 45.396602 
L 216.222735 121.413083 
L 216.295691 107.746481 
L 216.508829 31.383871 
L 216.581784 45.112766 
L 216.794923 121.819535 
L 216.867878 108.028345 
L 217.081017 30.977416 
L 217.153972 44.830905 
L 217.36711 122.22599 
L 217.440066 108.310199 
L 217.653204 30.570964 
L 217.726159 44.549057 
L 217.939298 122.632439 
L 218.012253 108.592044 
L 218.225391 30.164515 
L 218.298347 44.26518 
L 218.511485 123.038891 
L 218.58444 108.875924 
L 218.797579 29.758063 
L 218.870534 43.983335 
L 219.083672 123.445346 
L 219.156628 109.157766 
L 219.369766 29.351611 
L 219.442721 43.701499 
L 219.65586 123.851795 
L 219.728815 109.439596 
L 219.941954 28.945162 
L 220.014909 43.419676 
L 220.228047 124.258244 
L 220.301003 109.723512 
L 220.514141 28.53871 
L 220.587096 43.13575 
L 220.800235 124.664696 
L 220.87319 110.005342 
L 221.086328 28.132255 
L 221.159284 42.853926 
L 221.372422 125.071151 
L 221.445377 110.287159 
L 221.658516 27.725803 
L 221.731471 42.572115 
L 221.944609 125.4776 
L 222.017565 110.568964 
L 222.230703 27.319354 
L 222.303658 42.288155 
L 222.516797 125.884052 
L 222.589752 110.852934 
L 222.802891 26.912902 
L 222.875846 42.006344 
L 223.088984 126.290507 
L 223.16194 111.134736 
L 223.375078 26.506446 
L 223.448033 41.724548 
L 223.661172 126.696956 
L 223.734127 111.416531 
L 223.947265 26.099998 
L 224.020221 41.442759 
L 224.233359 127.103405 
L 224.306314 111.700535 
L 224.519453 25.693549 
L 224.592408 41.158746 
L 224.805546 127.50986 
L 224.878502 111.982327 
L 225.09164 25.287093 
L 225.164595 40.876963 
L 225.377734 127.916312 
L 225.450689 112.264104 
L 225.663827 24.880645 
L 225.736783 40.595186 
L 225.949921 128.322761 
L 226.022876 112.548154 
L 226.236011 24.474192 
L 226.308966 40.311139 
L 226.522113 128.729213 
L 226.59506 112.832223 
L 226.808207 24.06774 
L 226.87973 39.442566 
L 227.0943 129.135665 
L 227.168679 112.513585 
L 227.380394 23.661288 
L 227.451917 39.156243 
L 227.666488 129.542117 
L 227.740866 112.793076 
L 227.952581 23.254836 
L 228.024105 38.869932 
L 228.238675 129.948569 
L 228.313054 113.070211 
L 228.524769 22.848384 
L 228.596292 38.581308 
L 228.810863 130.355022 
L 228.885241 113.347336 
L 229.096956 22.441932 
L 229.16848 38.295 
L 229.38305 130.761474 
L 229.457428 113.62445 
L 229.669144 22.03548 
L 229.740667 38.008705 
L 229.955237 131.167926 
L 230.029616 113.903988 
L 230.241331 21.629034 
L 230.312854 37.722413 
L 230.527425 131.574378 
L 230.601803 114.181101 
L 230.813518 21.222576 
L 230.885042 37.433746 
L 231.099612 131.980823 
L 231.173991 114.458199 
L 231.385706 20.81613 
L 231.457229 37.147463 
L 231.671799 132.387275 
L 231.746178 114.73778 
L 231.957893 20.409678 
L 232.029417 36.861187 
L 232.243987 132.793728 
L 232.318365 115.014878 
L 232.530081 20.00322 
L 232.601604 36.572479 
L 232.816174 133.200186 
L 232.890553 115.29196 
L 233.102268 19.596774 
L 233.173791 36.286205 
L 233.388362 133.606632 
L 233.46274 115.569036 
L 233.674455 19.190322 
L 233.745979 35.999944 
L 233.960549 134.013084 
L 234.034927 115.848664 
L 234.246643 18.783876 
L 234.318166 35.711196 
L 234.532736 134.419542 
L 234.605683 116.786435 
L 234.81883 18.377418 
L 234.890354 35.424935 
L 235.104924 134.825988 
L 235.179302 116.4028 
L 235.391018 17.970966 
L 235.462541 35.13869 
L 235.677111 135.23244 
L 235.75149 116.682468 
L 235.963205 17.564514 
L 236.034728 34.85245 
L 236.249299 135.638886 
L 236.323677 116.959529 
L 236.535392 17.158062 
L 236.606916 34.563656 
L 236.821486 136.045344 
L 236.895864 117.236577 
L 237.10758 16.75161 
L 237.179103 34.27742 
L 237.393673 136.451796 
L 237.468052 117.513616 
L 237.679767 16.345158 
L 237.751291 33.991196 
L 237.965861 136.858248 
L 238.038807 118.479193 
L 238.251955 15.938706 
L 238.324901 34.377495 
L 238.538048 137.2647 
L 238.609572 119.440929 
L 238.824142 15.53226 
L 238.89852 34.791299 
L 239.110236 137.671146 
L 239.181759 119.727147 
L 239.396329 15.125808 
L 239.469276 33.814151 
L 239.682423 138.077598 
L 239.753946 120.013355 
L 239.968517 14.719356 
L 240.041463 33.532489 
L 240.25461 138.484056 
L 240.327557 119.611235 
L 240.540704 14.312898 
L 240.612228 32.554845 
L 240.826798 138.890502 
L 240.899744 119.892894 
L 241.112891 13.906452 
L 241.184415 32.268649 
L 241.398985 139.296954 
L 241.471932 120.174541 
L 241.685079 13.5 
L 241.756602 31.982457 
L 241.76804 37.918923 
L 241.76804 37.918923 
" clip-path="url(#paefae782eb)" style="fill: none; stroke: #1f77b4; stroke-width: 1.5; stroke-linecap: square"/>
   </g>
   <g id="line2d_22">
    <path d="M 154.42637 77.51622 
L 64.222585 114.430066 
L 64.222585 114.430066 
L 64.222585 114.430066 
L 64.222585 114.430066 
L 64.222585 114.430066 
L 64.222585 114.430066 
L 64.222585 114.430066 
L 64.222585 114.430066 
L 64.222585 114.430066 
L 64.222585 114.430066 
" clip-path="url(#paefae782eb)" style="fill: none; stroke: #ff7f0e; stroke-width: 1.5; stroke-linecap: square"/>
    <defs>
     <path id="m43918328cc" d="M 0 3 
C 0.795609 3 1.55874 2.683901 2.12132 2.12132 
C 2.683901 1.55874 3 0.795609 3 0 
C 3 -0.795609 2.683901 -1.55874 2.12132 -2.12132 
C 1.55874 -2.683901 0.795609 -3 0 -3 
C -0.795609 -3 -1.55874 -2.683901 -2.12132 -2.12132 
C -2.683901 -1.55874 -3 -0.795609 -3 0 
C -3 0.795609 -2.683901 1.55874 -2.12132 2.12132 
C -1.55874 2.683901 -0.795609 3 0 3 
z
" style="stroke: #ff7f0e"/>
    </defs>
    <g clip-path="url(#paefae782eb)">
     <use xlink:href="#m43918328cc" x="154.42637" y="77.51622" style="fill: #ff7f0e; stroke: #ff7f0e"/>
     <use xlink:href="#m43918328cc" x="64.222585" y="114.430066" style="fill: #ff7f0e; stroke: #ff7f0e"/>
     <use xlink:href="#m43918328cc" x="64.222585" y="114.430066" style="fill: #ff7f0e; stroke: #ff7f0e"/>
     <use xlink:href="#m43918328cc" x="64.222585" y="114.430066" style="fill: #ff7f0e; stroke: #ff7f0e"/>
     <use xlink:href="#m43918328cc" x="64.222585" y="114.430066" style="fill: #ff7f0e; stroke: #ff7f0e"/>
     <use xlink:href="#m43918328cc" x="64.222585" y="114.430066" style="fill: #ff7f0e; stroke: #ff7f0e"/>
     <use xlink:href="#m43918328cc" x="64.222585" y="114.430066" style="fill: #ff7f0e; stroke: #ff7f0e"/>
     <use xlink:href="#m43918328cc" x="64.222585" y="114.430066" style="fill: #ff7f0e; stroke: #ff7f0e"/>
     <use xlink:href="#m43918328cc" x="64.222585" y="114.430066" style="fill: #ff7f0e; stroke: #ff7f0e"/>
     <use xlink:href="#m43918328cc" x="64.222585" y="114.430066" style="fill: #ff7f0e; stroke: #ff7f0e"/>
     <use xlink:href="#m43918328cc" x="64.222585" y="114.430066" style="fill: #ff7f0e; stroke: #ff7f0e"/>
    </g>
   </g>
   <g id="patch_3">
    <path d="M 55.345312 145.8 
L 55.345312 7.2 
" style="fill: none; stroke: #000000; stroke-width: 0.8; stroke-linejoin: miter; stroke-linecap: square"/>
   </g>
   <g id="patch_4">
    <path d="M 250.645312 145.8 
L 250.645312 7.2 
" style="fill: none; stroke: #000000; stroke-width: 0.8; stroke-linejoin: miter; stroke-linecap: square"/>
   </g>
   <g id="patch_5">
    <path d="M 55.345313 145.8 
L 250.645313 145.8 
" style="fill: none; stroke: #000000; stroke-width: 0.8; stroke-linejoin: miter; stroke-linecap: square"/>
   </g>
   <g id="patch_6">
    <path d="M 55.345313 7.2 
L 250.645313 7.2 
" style="fill: none; stroke: #000000; stroke-width: 0.8; stroke-linejoin: miter; stroke-linecap: square"/>
   </g>
  </g>
 </g>
 <defs>
  <clipPath id="paefae782eb">
   <rect x="55.345312" y="7.2" width="195.3" height="138.6"/>
  </clipPath>
 </defs>
</svg>
