<?xml version="1.0" encoding="utf-8" standalone="no"?>
<!DOCTYPE svg PUBLIC "-//W3C//DTD SVG 1.1//EN"
  "http://www.w3.org/Graphics/SVG/1.1/DTD/svg11.dtd">
<svg xmlns:xlink="http://www.w3.org/1999/xlink" width="169.715408pt" height="171.586921pt" viewBox="0 0 169.715408 171.586921" xmlns="http://www.w3.org/2000/svg" version="1.1">
 <metadata>
  <rdf:RDF xmlns:dc="http://purl.org/dc/elements/1.1/" xmlns:cc="http://creativecommons.org/ns#" xmlns:rdf="http://www.w3.org/1999/02/22-rdf-syntax-ns#">
   <cc:Work>
    <dc:type rdf:resource="http://purl.org/dc/dcmitype/StillImage"/>
    <dc:date>2024-07-16T21:36:07.467553</dc:date>
    <dc:format>image/svg+xml</dc:format>
    <dc:creator>
     <cc:Agent>
      <dc:title>Matplotlib v3.5.1, https://matplotlib.org/</dc:title>
     </cc:Agent>
    </dc:creator>
   </cc:Work>
  </rdf:RDF>
 </metadata>
 <defs>
  <style type="text/css">*{stroke-linejoin: round; stroke-linecap: butt}</style>
 </defs>
 <g id="figure_1">
  <g id="patch_1">
   <path d="M 0 171.586921 
L 169.715408 171.586921 
L 169.715408 0 
L 0 0 
z
" style="fill: #ffffff"/>
  </g>
  <g id="patch_2">
   <path d="M 7.2 145.8 
L 145.8 145.8 
L 145.8 7.2 
L 7.2 7.2 
z
" style="fill: #ffffff"/>
  </g>
  <g id="pane3d_1">
   <g id="patch_3">
    <path d="M 17.665256 111.625682 
L 63.435502 73.260154 
L 62.799252 17.930204 
L 14.838663 52.929657 
" style="fill: #f2f2f2; opacity: 0.5; stroke: #f2f2f2; stroke-linejoin: miter"/>
   </g>
  </g>
  <g id="pane3d_2">
   <g id="patch_4">
    <path d="M 63.435502 73.260154 
L 136.880417 94.607691 
L 139.501407 37.371964 
L 62.799252 17.930204 
" style="fill: #e6e6e6; opacity: 0.5; stroke: #e6e6e6; stroke-linejoin: miter"/>
   </g>
  </g>
  <g id="pane3d_3">
   <g id="patch_5">
    <path d="M 17.665256 111.625682 
L 95.520453 137.053189 
L 136.880417 94.607691 
L 63.435502 73.260154 
" style="fill: #ececec; opacity: 0.5; stroke: #ececec; stroke-linejoin: miter"/>
   </g>
  </g>
  <g id="axis3d_1">
   <g id="line2d_1">
    <path d="M 17.665256 111.625682 
L 95.520453 137.053189 
" style="fill: none; stroke: #000000; stroke-width: 0.8; stroke-linecap: square"/>
   </g>
   <g id="text_1">
    <!-- x -->
    <g transform="translate(36.190346 162.307234)scale(0.1 -0.1)">
     <defs>
      <path id="DejaVuSans-78" d="M 3513 3500 
L 2247 1797 
L 3578 0 
L 2900 0 
L 1881 1375 
L 863 0 
L 184 0 
L 1544 1831 
L 300 3500 
L 978 3500 
L 1906 2253 
L 2834 3500 
L 3513 3500 
z
" transform="scale(0.015625)"/>
     </defs>
     <use xlink:href="#DejaVuSans-78"/>
    </g>
   </g>
   <g id="Line3DCollection_1">
    <path d="M 22.380575 113.165705 
L 67.902197 74.558445 
L 67.454802 19.11025 
" style="fill: none; stroke: #b0b0b0; stroke-width: 0.8"/>
    <path d="M 55.566605 124.004262 
L 99.270858 83.676077 
L 100.18343 27.406003 
" style="fill: none; stroke: #b0b0b0; stroke-width: 0.8"/>
    <path d="M 90.315667 135.353306 
L 131.990658 93.186431 
L 134.384718 36.075033 
" style="fill: none; stroke: #b0b0b0; stroke-width: 0.8"/>
   </g>
   <g id="xtick_1">
    <g id="line2d_2">
     <path d="M 22.776975 112.829515 
L 21.586075 113.839527 
" style="fill: none; stroke: #000000; stroke-width: 0.8; stroke-linecap: square"/>
    </g>
    <g id="text_2">
     <!-- −1 -->
     <g transform="translate(7.454595 136.528767)scale(0.1 -0.1)">
      <defs>
       <path id="DejaVuSans-2212" d="M 678 2272 
L 4684 2272 
L 4684 1741 
L 678 1741 
L 678 2272 
z
" transform="scale(0.015625)"/>
       <path id="DejaVuSans-31" d="M 794 531 
L 1825 531 
L 1825 4091 
L 703 3866 
L 703 4441 
L 1819 4666 
L 2450 4666 
L 2450 531 
L 3481 531 
L 3481 0 
L 794 0 
L 794 531 
z
" transform="scale(0.015625)"/>
      </defs>
      <use xlink:href="#DejaVuSans-2212"/>
      <use xlink:href="#DejaVuSans-31" x="83.789062"/>
     </g>
    </g>
   </g>
   <g id="xtick_2">
    <g id="line2d_3">
     <path d="M 55.94789 123.65243 
L 54.80236 124.709471 
" style="fill: none; stroke: #000000; stroke-width: 0.8; stroke-linecap: square"/>
    </g>
    <g id="text_3">
     <!-- 0 -->
     <g transform="translate(44.898548 147.812111)scale(0.1 -0.1)">
      <defs>
       <path id="DejaVuSans-30" d="M 2034 4250 
Q 1547 4250 1301 3770 
Q 1056 3291 1056 2328 
Q 1056 1369 1301 889 
Q 1547 409 2034 409 
Q 2525 409 2770 889 
Q 3016 1369 3016 2328 
Q 3016 3291 2770 3770 
Q 2525 4250 2034 4250 
z
M 2034 4750 
Q 2819 4750 3233 4129 
Q 3647 3509 3647 2328 
Q 3647 1150 3233 529 
Q 2819 -91 2034 -91 
Q 1250 -91 836 529 
Q 422 1150 422 2328 
Q 422 3509 836 4129 
Q 1250 4750 2034 4750 
z
" transform="scale(0.015625)"/>
      </defs>
      <use xlink:href="#DejaVuSans-30"/>
     </g>
    </g>
   </g>
   <g id="xtick_3">
    <g id="line2d_4">
     <path d="M 90.679959 134.984714 
L 89.585446 136.092146 
" style="fill: none; stroke: #000000; stroke-width: 0.8; stroke-linecap: square"/>
    </g>
    <g id="text_4">
     <!-- 1 -->
     <g transform="translate(79.730646 159.630877)scale(0.1 -0.1)">
      <use xlink:href="#DejaVuSans-31"/>
     </g>
    </g>
   </g>
  </g>
  <g id="axis3d_2">
   <g id="line2d_5">
    <path d="M 136.880417 94.607691 
L 95.520453 137.053189 
" style="fill: none; stroke: #000000; stroke-width: 0.8; stroke-linecap: square"/>
   </g>
   <g id="text_5">
    <!-- y -->
    <g transform="translate(141.167797 145.683654)scale(0.1 -0.1)">
     <defs>
      <path id="DejaVuSans-79" d="M 2059 -325 
Q 1816 -950 1584 -1140 
Q 1353 -1331 966 -1331 
L 506 -1331 
L 506 -850 
L 844 -850 
Q 1081 -850 1212 -737 
Q 1344 -625 1503 -206 
L 1606 56 
L 191 3500 
L 800 3500 
L 1894 763 
L 2988 3500 
L 3597 3500 
L 2059 -325 
z
" transform="scale(0.015625)"/>
     </defs>
     <use xlink:href="#DejaVuSans-79"/>
    </g>
   </g>
   <g id="Line3DCollection_2">
    <path d="M 18.155257 50.509358 
L 20.819213 108.981973 
L 98.382242 134.116289 
" style="fill: none; stroke: #b0b0b0; stroke-width: 0.8"/>
    <path d="M 39.885822 34.651381 
L 41.525154 91.625842 
L 117.126847 114.879713 
" style="fill: none; stroke: #b0b0b0; stroke-width: 0.8"/>
    <path d="M 59.991995 19.978812 
L 60.746858 75.513829 
L 134.460919 97.090691 
" style="fill: none; stroke: #b0b0b0; stroke-width: 0.8"/>
   </g>
   <g id="xtick_4">
    <g id="line2d_6">
     <path d="M 97.728616 133.904481 
L 99.691184 134.540452 
" style="fill: none; stroke: #000000; stroke-width: 0.8; stroke-linecap: square"/>
    </g>
    <g id="text_6">
     <!-- −1 -->
     <g transform="translate(103.898882 155.145417)scale(0.1 -0.1)">
      <use xlink:href="#DejaVuSans-2212"/>
      <use xlink:href="#DejaVuSans-31" x="83.789062"/>
     </g>
    </g>
   </g>
   <g id="xtick_5">
    <g id="line2d_7">
     <path d="M 116.491011 114.68414 
L 118.400099 115.271345 
" style="fill: none; stroke: #000000; stroke-width: 0.8; stroke-linecap: square"/>
    </g>
    <g id="text_7">
     <!-- 0 -->
     <g transform="translate(126.349632 135.361913)scale(0.1 -0.1)">
      <use xlink:href="#DejaVuSans-30"/>
     </g>
    </g>
   </g>
   <g id="xtick_6">
    <g id="line2d_8">
     <path d="M 133.842096 96.909555 
L 135.700045 97.453396 
" style="fill: none; stroke: #000000; stroke-width: 0.8; stroke-linecap: square"/>
    </g>
    <g id="text_8">
     <!-- 1 -->
     <g transform="translate(143.234942 117.068702)scale(0.1 -0.1)">
      <use xlink:href="#DejaVuSans-31"/>
     </g>
    </g>
   </g>
  </g>
  <g id="axis3d_3">
   <g id="line2d_9">
    <path d="M 136.880417 94.607691 
L 139.501407 37.371964 
" style="fill: none; stroke: #000000; stroke-width: 0.8; stroke-linecap: square"/>
   </g>
   <g id="Line3DCollection_3">
    <path d="M 136.930632 93.511118 
L 63.423287 72.197896 
L 17.611191 110.502989 
" style="fill: none; stroke: #b0b0b0; stroke-width: 0.8"/>
    <path d="M 138.162202 66.616789 
L 63.124011 46.172077 
L 16.284113 82.945357 
" style="fill: none; stroke: #b0b0b0; stroke-width: 0.8"/>
    <path d="M 139.446688 38.566888 
L 62.812508 19.082955 
L 14.897772 54.157093 
" style="fill: none; stroke: #b0b0b0; stroke-width: 0.8"/>
   </g>
   <g id="xtick_7">
    <g id="line2d_10">
     <path d="M 136.313678 93.332234 
L 138.166009 93.869311 
" style="fill: none; stroke: #000000; stroke-width: 0.8; stroke-linecap: square"/>
    </g>
    <g id="text_9">
     <!-- −1 -->
     <g transform="translate(147.773221 98.515807)scale(0.1 -0.1)">
      <use xlink:href="#DejaVuSans-2212"/>
      <use xlink:href="#DejaVuSans-31" x="83.789062"/>
     </g>
    </g>
   </g>
   <g id="xtick_8">
    <g id="line2d_11">
     <path d="M 137.531779 66.445026 
L 139.424579 66.960733 
" style="fill: none; stroke: #000000; stroke-width: 0.8; stroke-linecap: square"/>
    </g>
    <g id="text_10">
     <!-- 0 -->
     <g transform="translate(153.568228 71.725004)scale(0.1 -0.1)">
      <use xlink:href="#DejaVuSans-30"/>
     </g>
    </g>
   </g>
   <g id="xtick_9">
    <g id="line2d_12">
     <path d="M 138.802197 38.403029 
L 140.737271 38.895014 
" style="fill: none; stroke: #000000; stroke-width: 0.8; stroke-linecap: square"/>
    </g>
    <g id="text_11">
     <!-- 1 -->
     <g transform="translate(155.241948 43.789973)scale(0.1 -0.1)">
      <use xlink:href="#DejaVuSans-31"/>
     </g>
    </g>
   </g>
  </g>
  <g id="axes_1">
   <g id="line2d_13">
    <defs>
     <path id="mdf0706b285" d="M -3 3 
L 3 -3 
M -3 -3 
L 3 3 
" style="stroke: #ff0000"/>
    </defs>
    <g clip-path="url(#p13d105d4b0)">
     <use xlink:href="#mdf0706b285" x="78.372973" y="74.627027" style="fill: #ff0000; stroke: #ff0000"/>
    </g>
   </g>
   <g id="Line3DCollection_4">
    <path d="M 24.318635 81.868935 
L 24.710556 80.407083 
L 25.103462 78.967565 
L 25.497331 77.550469 
L 25.892142 76.155867 
L 26.287877 74.783829 
L 26.684512 73.434437 
L 27.082029 72.107753 
L 27.480405 70.803848 
L 27.879621 69.522781 
L 28.279656 68.264617 
L 28.680486 67.029418 
L 29.082092 65.817241 
L 29.484454 64.628137 
L 29.887548 63.462163 
L 30.291353 62.319369 
L 30.69585 61.199798 
L 31.101015 60.103501 
L 31.506827 59.030517 
L 31.913264 57.980887 
L 32.320305 56.954651 
L 32.727928 55.951842 
L 33.136113 54.972491 
L 33.544835 54.016632 
L 33.954075 53.084291 
L 34.363809 52.175495 
L 34.774016 51.290264 
L 35.184675 50.42862 
L 35.595762 49.590584 
L 36.007258 48.776166 
L 36.419139 47.985381 
L 36.831383 47.218241 
L 37.243968 46.474752 
L 37.656874 45.75492 
L 38.070078 45.058749 
L 38.483558 44.386238 
L 38.897292 43.737386 
L 39.311258 43.112188 
L 39.725435 42.510639 
L 40.1398 41.932727 
L 40.554332 41.378444 
L 40.96901 40.847773 
L 41.383811 40.340699 
L 41.798714 39.857202 
L 42.213697 39.397261 
L 42.628738 38.960853 
L 43.043817 38.547952 
L 43.458912 38.15853 
L 43.874002 37.792556 
L 44.289064 37.449996 
L 44.704077 37.130816 
L 45.119022 36.834979 
L 45.533875 36.562444 
L 45.948617 36.313168 
L 46.363227 36.087108 
L 46.777683 35.884218 
L 47.191965 35.704448 
L 47.606052 35.547747 
L 48.019923 35.414064 
L 48.433558 35.303341 
L 48.846936 35.215521 
L 49.260038 35.150545 
L 49.672843 35.108352 
L 50.08533 35.088877 
L 50.497481 35.092054 
L 50.909274 35.117817 
L 51.32069 35.166094 
L 51.731711 35.236814 
L 52.142314 35.329904 
L 52.552483 35.445287 
L 52.962197 35.582887 
L 53.371437 35.742621 
L 53.780184 35.924412 
L 54.18842 36.128173 
L 54.596125 36.35382 
L 55.003281 36.601267 
L 55.40987 36.870424 
L 55.815872 37.161202 
L 56.221272 37.473507 
L 56.626048 37.807245 
L 57.030186 38.162323 
L 57.433665 38.538641 
L 57.83647 38.936101 
L 58.238581 39.354604 
L 58.639982 39.794045 
L 59.040658 40.254323 
L 59.440588 40.73533 
L 59.839758 41.236963 
L 60.23815 41.759111 
L 60.635749 42.301665 
L 61.032539 42.864518 
L 61.428501 43.447552 
L 61.823622 44.050655 
L 62.217886 44.673714 
L 62.611275 45.316612 
L 63.003776 45.979229 
L 63.395374 46.661452 
L 63.786051 47.363154 
L 64.175795 48.084218 
L 64.564591 48.824522 
L 64.952423 49.583939 
" clip-path="url(#p13d105d4b0)" style="fill: none; stroke: #1f77b4; stroke-width: 1.5"/>
    <path d="M 31.326259 93.962164 
L 31.717396 92.505925 
L 32.109392 91.071739 
L 32.502226 89.659692 
L 32.895877 88.269855 
L 33.290328 86.902299 
L 33.685555 85.557103 
L 34.081538 84.234331 
L 34.478257 82.934053 
L 34.875691 81.656327 
L 35.27382 80.401219 
L 35.672621 79.168789 
L 36.072075 77.959094 
L 36.47216 76.772186 
L 36.872855 75.608121 
L 37.274138 74.46695 
L 37.675991 73.348714 
L 38.078388 72.253465 
L 38.481312 71.18124 
L 38.884739 70.132086 
L 39.288648 69.106036 
L 39.693019 68.103128 
L 40.09783 67.123389 
L 40.503058 66.166858 
L 40.908684 65.233556 
L 41.314685 64.323513 
L 41.72104 63.436752 
L 42.127727 62.57329 
L 42.534725 61.733151 
L 42.942013 60.916346 
L 43.349569 60.122888 
L 43.757371 59.352793 
L 44.165398 58.606065 
L 44.573629 57.882711 
L 44.982042 57.182736 
L 45.390616 56.506138 
L 45.799329 55.852921 
L 46.208161 55.223076 
L 46.61709 54.6166 
L 47.026094 54.033483 
L 47.435152 53.473717 
L 47.844244 52.937285 
L 48.253347 52.424174 
L 48.662442 51.934365 
L 49.071507 51.467837 
L 49.480521 51.024569 
L 49.889463 50.604535 
L 50.298312 50.207709 
L 50.707048 49.83406 
L 51.115649 49.483556 
L 51.524095 49.156164 
L 51.932366 48.851848 
L 52.340442 48.570568 
L 52.748301 48.312282 
L 53.155923 48.076949 
L 53.563289 47.864524 
L 53.970378 47.674958 
L 54.37717 47.508201 
L 54.783646 47.364205 
L 55.189785 47.242911 
L 55.595567 47.144266 
L 56.000974 47.06821 
L 56.405986 47.014685 
L 56.810582 46.983627 
L 57.214746 46.974972 
L 57.618456 46.988655 
L 58.021694 47.024606 
L 58.424441 47.082757 
L 58.826678 47.163032 
L 59.228387 47.265361 
L 59.629549 47.389666 
L 60.030146 47.535868 
L 60.430159 47.70389 
L 60.829571 47.893648 
L 61.228364 48.10506 
L 61.626519 48.33804 
L 62.02402 48.592501 
L 62.420848 48.868355 
L 62.816987 49.165512 
L 63.212419 49.483878 
L 63.607128 49.823362 
L 64.001094 50.183866 
L 64.394305 50.565296 
L 64.78674 50.96755 
L 65.178384 51.39053 
L 65.569223 51.834134 
L 65.959238 52.298258 
L 66.348414 52.782799 
L 66.736736 53.287649 
L 67.124187 53.812701 
L 67.510754 54.357851 
L 67.896419 54.922981 
L 68.281169 55.507983 
L 68.664989 56.112745 
L 69.047862 56.737151 
L 69.429775 57.381086 
L 69.810715 58.044436 
L 70.190665 58.727079 
L 70.569613 59.428898 
L 70.947545 60.149774 
L 71.324447 60.889583 
" clip-path="url(#p13d105d4b0)" style="fill: none; stroke: #1f77b4; stroke-width: 1.5"/>
    <path d="M 38.218828 103.780253 
L 38.609854 102.326915 
L 39.001619 100.895427 
L 39.3941 99.485873 
L 39.787279 98.098326 
L 40.181136 96.732856 
L 40.575648 95.389541 
L 40.970796 94.068445 
L 41.366559 92.769638 
L 41.762917 91.493179 
L 42.159849 90.239131 
L 42.557334 89.007557 
L 42.95535 87.798513 
L 43.353879 86.61205 
L 43.752897 85.448224 
L 44.152384 84.307087 
L 44.552321 83.18868 
L 44.952684 82.093055 
L 45.353454 81.020249 
L 45.754608 79.970308 
L 46.156126 78.943266 
L 46.557987 77.939162 
L 46.960171 76.958022 
L 47.362654 75.999885 
L 47.765417 75.064773 
L 48.168439 74.152716 
L 48.571696 73.263738 
L 48.97517 72.397856 
L 49.378839 71.555092 
L 49.782681 70.73546 
L 50.186676 69.938975 
L 50.590802 69.165649 
L 50.995038 68.415489 
L 51.399364 67.688502 
L 51.803758 66.984692 
L 52.208199 66.304062 
L 52.612667 65.646611 
L 53.01714 65.012334 
L 53.421598 64.401226 
L 53.826019 63.813282 
L 54.230383 63.248489 
L 54.63467 62.706835 
L 55.038858 62.188306 
L 55.442927 61.692883 
L 55.846857 61.220547 
L 56.250627 60.771278 
L 56.654217 60.345049 
L 57.057606 59.941835 
L 57.460775 59.561607 
L 57.863703 59.204334 
L 58.266369 58.869982 
L 58.668754 58.558517 
L 59.070839 58.269899 
L 59.472602 58.00409 
L 59.874026 57.761047 
L 60.275089 57.540725 
L 60.675774 57.343078 
L 61.076059 57.168058 
L 61.475926 57.015613 
L 61.875356 56.885692 
L 62.274329 56.778237 
L 62.672827 56.693193 
L 63.070832 56.630501 
L 63.468322 56.590099 
L 63.865283 56.571923 
L 64.261693 56.57591 
L 64.657535 56.601991 
L 65.052791 56.650098 
L 65.447442 56.720159 
L 65.841471 56.812102 
L 66.23486 56.925851 
L 66.627591 57.06133 
L 67.019647 57.218461 
L 67.41101 57.397162 
L 67.801664 57.597353 
L 68.191591 57.818949 
L 68.580774 58.061863 
L 68.969197 58.32601 
L 69.356843 58.6113 
L 69.743695 58.917641 
L 70.129739 59.244942 
L 70.514955 59.593109 
L 70.899331 59.962046 
L 71.282848 60.351656 
L 71.665492 60.761839 
L 72.047248 61.192496 
L 72.428099 61.643524 
L 72.808031 62.114823 
L 73.187029 62.606284 
L 73.565078 63.117802 
L 73.942165 63.649275 
L 74.318273 64.200585 
L 74.693388 64.771628 
L 75.067499 65.362292 
L 75.440588 65.972463 
L 75.812644 66.602026 
L 76.183653 67.25087 
L 76.553601 67.918873 
L 76.922474 68.605921 
L 77.290262 69.311896 
L 77.656949 70.036674 
" clip-path="url(#p13d105d4b0)" style="fill: none; stroke: #1f77b4; stroke-width: 1.5"/>
    <path d="M 45.032744 111.384675 
L 45.424332 109.931559 
L 45.816542 108.500163 
L 46.20935 107.090575 
L 46.602737 105.702867 
L 46.996684 104.337108 
L 47.391169 102.993377 
L 47.786171 101.671739 
L 48.18167 100.372262 
L 48.577645 99.095005 
L 48.974078 97.840034 
L 49.370944 96.607409 
L 49.768224 95.397187 
L 50.165899 94.20942 
L 50.563946 93.044164 
L 50.962344 91.90147 
L 51.361073 90.78138 
L 51.760112 89.683946 
L 52.15944 88.609204 
L 52.559036 87.557202 
L 52.958878 86.527975 
L 53.358946 85.521559 
L 53.759221 84.537983 
L 54.159678 83.577285 
L 54.5603 82.639488 
L 54.961064 81.724622 
L 55.361948 80.83271 
L 55.762933 79.963771 
L 56.163997 79.117827 
L 56.56512 78.294892 
L 56.966281 77.49498 
L 57.367458 76.718105 
L 57.768632 75.964275 
L 58.169781 75.233496 
L 58.570885 74.525773 
L 58.971924 73.841108 
L 59.372875 73.179502 
L 59.77372 72.54095 
L 60.174438 71.925448 
L 60.575007 71.332989 
L 60.975407 70.763565 
L 61.37562 70.21716 
L 61.775623 69.693761 
L 62.175398 69.193352 
L 62.574923 68.715913 
L 62.97418 68.261424 
L 63.373147 67.829859 
L 63.771805 67.421194 
L 64.170136 67.0354 
L 64.568117 66.672446 
L 64.965731 66.3323 
L 65.362957 66.014927 
L 65.759776 65.72029 
L 66.15617 65.448348 
L 66.552118 65.19906 
L 66.947602 64.972384 
L 67.342603 64.768272 
L 67.737102 64.586676 
L 68.13108 64.427547 
L 68.524519 64.290832 
L 68.9174 64.176477 
L 69.309705 64.084425 
L 69.701416 64.014617 
L 70.092514 63.966994 
L 70.482982 63.941492 
L 70.872802 63.938048 
L 71.261955 63.956594 
L 71.650425 63.997062 
L 72.038193 64.059383 
L 72.425245 64.143483 
L 72.81156 64.249288 
L 73.197123 64.376723 
L 73.581917 64.525709 
L 73.965926 64.696167 
L 74.349132 64.888016 
L 74.731519 65.101172 
L 75.113072 65.335551 
L 75.493773 65.591065 
L 75.873609 65.867628 
L 76.252561 66.165146 
L 76.630616 66.483532 
L 77.007756 66.82269 
L 77.383969 67.182526 
L 77.759237 67.562943 
L 78.133546 67.963842 
L 78.506883 68.385127 
L 78.879231 68.826692 
L 79.250577 69.28844 
L 79.620906 69.770263 
L 79.990205 70.272055 
L 80.35846 70.793717 
L 80.725657 71.335132 
L 81.091781 71.896195 
L 81.456822 72.476795 
L 81.820764 73.076819 
L 82.183595 73.696154 
L 82.545304 74.334689 
L 82.905875 74.992303 
L 83.265298 75.668883 
L 83.62356 76.36431 
L 83.980649 77.078464 
" clip-path="url(#p13d105d4b0)" style="fill: none; stroke: #1f77b4; stroke-width: 1.5"/>
    <path d="M 51.803487 116.813651 
L 52.196317 115.358076 
L 52.589652 113.92417 
L 52.983468 112.512019 
L 53.377748 111.121697 
L 53.772471 109.753272 
L 54.167614 108.406825 
L 54.563158 107.082418 
L 54.959082 105.780123 
L 55.355365 104.499999 
L 55.751989 103.242109 
L 56.148929 102.006516 
L 56.546166 100.793277 
L 56.943681 99.602444 
L 57.341451 98.434072 
L 57.739455 97.288215 
L 58.137674 96.164913 
L 58.536085 95.064218 
L 58.934669 93.986169 
L 59.333403 92.930813 
L 59.732267 91.898183 
L 60.131241 90.888318 
L 60.530305 89.901247 
L 60.929436 88.937007 
L 61.328614 87.995622 
L 61.727818 87.077122 
L 62.127027 86.181531 
L 62.526222 85.308868 
L 62.92538 84.459155 
L 63.324481 83.632405 
L 63.723506 82.828636 
L 64.122432 82.047859 
L 64.521239 81.290083 
L 64.919908 80.555315 
L 65.318417 79.84356 
L 65.716747 79.154819 
L 66.114877 78.489095 
L 66.512786 77.846383 
L 66.910455 77.226679 
L 67.307864 76.629976 
L 67.70499 76.056266 
L 68.101817 75.505534 
L 68.498323 74.977767 
L 68.894489 74.472949 
L 69.290295 73.991062 
L 69.685721 73.532083 
L 70.080748 73.095989 
L 70.475356 72.682755 
L 70.869527 72.292353 
L 71.26324 71.924752 
L 71.656476 71.57992 
L 72.049217 71.257822 
L 72.441443 70.958421 
L 72.833136 70.681678 
L 73.224277 70.427552 
L 73.614848 70.195998 
L 74.00483 69.986972 
L 74.394204 69.800426 
L 74.782953 69.636309 
L 75.171058 69.49457 
L 75.558502 69.375154 
L 75.945266 69.278005 
L 76.331333 69.203065 
L 76.716685 69.150274 
L 77.101306 69.119569 
L 77.485178 69.110887 
L 77.868282 69.12416 
L 78.250603 69.159321 
L 78.632124 69.216299 
L 79.012829 69.295023 
L 79.3927 69.395419 
L 79.771721 69.51741 
L 80.149875 69.660919 
L 80.527149 69.825868 
L 80.903523 70.012174 
L 81.278985 70.219755 
L 81.653517 70.448526 
L 82.027105 70.6984 
L 82.399734 70.969291 
L 82.771386 71.261106 
L 83.142051 71.573756 
L 83.511709 71.907148 
L 83.88035 72.261186 
L 84.247956 72.635775 
L 84.614515 73.030815 
L 84.980013 73.44621 
L 85.344434 73.881856 
L 85.707767 74.337655 
L 86.069997 74.813499 
L 86.431111 75.309283 
L 86.791097 75.824908 
L 87.14994 76.360256 
L 87.507628 76.915223 
L 87.864151 77.489699 
L 88.219492 78.083571 
L 88.573642 78.696725 
L 88.926589 79.329051 
L 89.278319 79.980429 
L 89.628822 80.650745 
L 89.978088 81.339882 
L 90.326102 82.047717 
" clip-path="url(#p13d105d4b0)" style="fill: none; stroke: #1f77b4; stroke-width: 1.5"/>
    <path d="M 58.566252 120.082802 
L 58.961016 118.622062 
L 59.356168 117.183014 
L 59.751687 115.765744 
L 60.147551 114.370327 
L 60.543743 112.996831 
L 60.940238 111.645338 
L 61.337017 110.315912 
L 61.73406 109.008622 
L 62.131345 107.72353 
L 62.528852 106.460699 
L 62.92656 105.220193 
L 63.324447 104.002069 
L 63.722494 102.806378 
L 64.120679 101.633178 
L 64.51898 100.482521 
L 64.917379 99.354449 
L 65.315853 98.249016 
L 65.714382 97.166257 
L 66.112943 96.106222 
L 66.511518 95.068945 
L 66.910084 94.054464 
L 67.308623 93.062809 
L 67.707111 92.094017 
L 68.10553 91.148113 
L 68.503858 90.225126 
L 68.902073 89.325081 
L 69.300156 88.447998 
L 69.698086 87.593898 
L 70.095843 86.762796 
L 70.493406 85.954708 
L 70.890754 85.169647 
L 71.287867 84.407621 
L 71.684726 83.668637 
L 72.081309 82.952702 
L 72.477597 82.259816 
L 72.873568 81.589982 
L 73.269205 80.943196 
L 73.664486 80.319452 
L 74.059391 79.718746 
L 74.4539 79.141068 
L 74.847995 78.586404 
L 75.241655 78.054742 
L 75.634862 77.546064 
L 76.027594 77.060353 
L 76.419834 76.597586 
L 76.811562 76.157741 
L 77.202758 75.740792 
L 77.593405 75.34671 
L 77.983482 74.975466 
L 78.372972 74.627027 
L 78.761855 74.301359 
L 79.150112 73.998423 
L 79.537727 73.718182 
L 79.924679 73.460593 
L 80.310952 73.225613 
L 80.696527 73.013196 
L 81.081386 72.823295 
L 81.465511 72.655859 
L 81.848885 72.510836 
L 82.231491 72.388172 
L 82.61331 72.28781 
L 82.994326 72.209692 
L 83.374521 72.153758 
L 83.753881 72.119945 
L 84.132386 72.108189 
L 84.510019 72.118423 
L 84.886767 72.150579 
L 85.262611 72.204586 
L 85.637535 72.280373 
L 86.011525 72.377866 
L 86.384563 72.496987 
L 86.756634 72.63766 
L 87.127724 72.799804 
L 87.497816 72.983339 
L 87.866895 73.188181 
L 88.234947 73.414244 
L 88.601956 73.661443 
L 88.967909 73.92969 
L 89.33279 74.218893 
L 89.696587 74.528961 
L 90.059283 74.859802 
L 90.420866 75.211319 
L 90.781321 75.583417 
L 91.140635 75.975996 
L 91.498797 76.388959 
L 91.855789 76.822202 
L 92.211602 77.275625 
L 92.566222 77.749123 
L 92.919636 78.242588 
L 93.271833 78.755921 
L 93.622798 79.289005 
L 93.972522 79.841734 
L 94.320992 80.413999 
L 94.668196 81.005686 
L 95.014122 81.61668 
L 95.35876 82.246871 
L 95.702098 82.896139 
L 96.044126 83.564369 
L 96.384833 84.251443 
L 96.724208 84.95724 
" clip-path="url(#p13d105d4b0)" style="fill: none; stroke: #1f77b4; stroke-width: 1.5"/>
    <path d="M 65.356542 121.185182 
L 65.753952 119.716513 
L 66.151634 118.269634 
L 66.549564 116.844634 
L 66.947724 115.441586 
L 67.346093 114.060561 
L 67.744648 112.701641 
L 68.143369 111.36489 
L 68.542235 110.05038 
L 68.941226 108.758171 
L 69.34032 107.488329 
L 69.739496 106.240917 
L 70.138732 105.015992 
L 70.53801 103.813609 
L 70.937306 102.633825 
L 71.336599 101.476691 
L 71.735871 100.342251 
L 72.135097 99.230558 
L 72.53426 98.14165 
L 72.933336 97.075576 
L 73.332305 96.03237 
L 73.731146 95.012072 
L 74.129841 94.01471 
L 74.528364 93.040323 
L 74.926699 92.088936 
L 75.324822 91.160579 
L 75.722714 90.255278 
L 76.120354 89.37305 
L 76.517721 88.51392 
L 76.914796 87.6779 
L 77.311557 86.865008 
L 77.707984 86.075257 
L 78.104057 85.308655 
L 78.499756 84.56521 
L 78.89506 83.844928 
L 79.28995 83.147809 
L 79.684406 82.473856 
L 80.078407 81.823064 
L 80.471935 81.195431 
L 80.864969 80.590949 
L 81.257488 80.009609 
L 81.649476 79.451398 
L 82.040911 78.916302 
L 82.431775 78.404305 
L 82.822049 77.915388 
L 83.211712 77.449529 
L 83.600747 77.006705 
L 83.989135 76.58689 
L 84.376856 76.190055 
L 84.763893 75.816172 
L 85.150226 75.465205 
L 85.535838 75.137121 
L 85.92071 74.831882 
L 86.304824 74.549448 
L 86.688162 74.289777 
L 87.070707 74.052826 
L 87.452441 73.838548 
L 87.833346 73.646896 
L 88.213405 73.477818 
L 88.592601 73.331261 
L 88.970917 73.207172 
L 89.348335 73.105493 
L 89.72484 73.026164 
L 90.100413 72.969126 
L 90.475041 72.934315 
L 90.848705 72.921667 
L 91.22139 72.931113 
L 91.593079 72.962585 
L 91.963758 73.016012 
L 92.33341 73.091321 
L 92.70202 73.188438 
L 93.069573 73.307285 
L 93.436053 73.447783 
L 93.801446 73.609854 
L 94.165737 73.793414 
L 94.528912 73.998379 
L 94.890956 74.224663 
L 95.251855 74.47218 
L 95.611596 74.74084 
L 95.970163 75.030551 
L 96.327544 75.341222 
L 96.683725 75.672758 
L 97.038693 76.025063 
L 97.392434 76.39804 
L 97.744936 76.791589 
L 98.096188 77.205611 
L 98.446174 77.640002 
L 98.794883 78.094661 
L 99.142304 78.569482 
L 99.488424 79.064356 
L 99.833233 79.579182 
L 100.176717 80.113844 
L 100.518865 80.668233 
L 100.859669 81.24224 
L 101.199114 81.83575 
L 101.537191 82.448647 
L 101.873891 83.08082 
L 102.209201 83.732147 
L 102.543111 84.402513 
L 102.875614 85.0918 
L 103.206697 85.799883 
" clip-path="url(#p13d105d4b0)" style="fill: none; stroke: #1f77b4; stroke-width: 1.5"/>
    <path d="M 72.210813 120.090746 
L 72.61161 118.611293 
L 73.01256 117.153808 
L 73.413639 115.718379 
L 73.814828 114.305082 
L 74.216107 112.913989 
L 74.617451 111.545182 
L 75.018842 110.198727 
L 75.420256 108.874696 
L 75.821674 107.573151 
L 76.223075 106.294158 
L 76.624435 105.037781 
L 77.025735 103.804079 
L 77.426954 102.593107 
L 77.828068 101.404921 
L 78.229058 100.239576 
L 78.629904 99.097114 
L 79.030583 97.977591 
L 79.431074 96.881044 
L 79.831356 95.807523 
L 80.231408 94.757063 
L 80.631209 93.729703 
L 81.030739 92.725473 
L 81.429976 91.744413 
L 81.8289 90.786546 
L 82.22749 89.851904 
L 82.625724 88.940513 
L 83.023583 88.05239 
L 83.421046 87.18756 
L 83.818092 86.346037 
L 84.214702 85.527837 
L 84.610853 84.732974 
L 85.006527 83.961456 
L 85.401704 83.21329 
L 85.796363 82.488483 
L 86.190484 81.787036 
L 86.584047 81.108951 
L 86.977034 80.454223 
L 87.369423 79.822848 
L 87.761196 79.21482 
L 88.152332 78.63013 
L 88.542813 78.068763 
L 88.932619 77.530706 
L 89.321732 77.015942 
L 89.710132 76.524452 
L 90.0978 76.056214 
L 90.484719 75.611204 
L 90.870868 75.189395 
L 91.256231 74.790759 
L 91.640787 74.415265 
L 92.02452 74.062879 
L 92.407411 73.733565 
L 92.789442 73.427286 
L 93.170596 73.144002 
L 93.550854 72.883669 
L 93.9302 72.646242 
L 94.308617 72.431676 
L 94.686086 72.239921 
L 95.062591 72.070925 
L 95.438116 71.924635 
L 95.812643 71.800995 
L 96.186156 71.699948 
L 96.558639 71.621432 
L 96.930075 71.565388 
L 97.30045 71.531749 
L 97.669746 71.520451 
L 98.037948 71.531425 
L 98.405041 71.5646 
L 98.771009 71.619905 
L 99.135838 71.697267 
L 99.499512 71.796607 
L 99.862017 71.91785 
L 100.223338 72.060914 
L 100.583461 72.225718 
L 100.942371 72.41218 
L 101.300055 72.620212 
L 101.656499 72.849729 
L 102.011689 73.100641 
L 102.365613 73.372858 
L 102.718255 73.666287 
L 103.069605 73.980835 
L 103.419648 74.316406 
L 103.768372 74.672902 
L 104.115765 75.050225 
L 104.461814 75.448273 
L 104.806508 75.866946 
L 105.149834 76.306138 
L 105.491781 76.765747 
L 105.832338 77.245663 
L 106.171493 77.745779 
L 106.509236 78.265991 
L 106.845554 78.80618 
L 107.180439 79.366238 
L 107.513879 79.946052 
L 107.845864 80.545506 
L 108.176384 81.164483 
L 108.50543 81.80287 
L 108.832991 82.460543 
L 109.159058 83.137385 
L 109.483624 83.833276 
L 109.806676 84.548092 
" clip-path="url(#p13d105d4b0)" style="fill: none; stroke: #1f77b4; stroke-width: 1.5"/>
    <path d="M 79.167147 116.745165 
L 79.572108 115.251949 
L 79.977101 113.78096 
L 80.3821 112.332288 
L 80.787086 110.90601 
L 81.192038 109.502199 
L 81.596932 108.120939 
L 82.001748 106.762297 
L 82.406463 105.426347 
L 82.811056 104.11315 
L 83.215508 102.822776 
L 83.619793 101.555288 
L 84.023891 100.310747 
L 84.427783 99.089208 
L 84.831443 97.890731 
L 85.234853 96.715367 
L 85.637991 95.563164 
L 86.040834 94.434174 
L 86.443364 93.328438 
L 86.845555 92.246005 
L 87.247389 91.186912 
L 87.648843 90.151198 
L 88.049899 89.138893 
L 88.450533 88.150038 
L 88.850726 87.184657 
L 89.250455 86.242781 
L 89.6497 85.324437 
L 90.048441 84.429643 
L 90.446656 83.558422 
L 90.844327 82.710791 
L 91.241431 81.886764 
L 91.637948 81.086356 
L 92.033859 80.309574 
L 92.429143 79.556427 
L 92.82378 78.82692 
L 93.21775 78.121055 
L 93.611033 77.438832 
L 94.00361 76.780248 
L 94.395461 76.145297 
L 94.786566 75.533975 
L 95.176905 74.946269 
L 95.566462 74.382166 
L 95.955214 73.841652 
L 96.343145 73.324709 
L 96.730235 72.831317 
L 97.116465 72.361456 
L 97.501816 71.915098 
L 97.886271 71.492216 
L 98.269812 71.092782 
L 98.652419 70.716765 
L 99.034075 70.364128 
L 99.414762 70.034836 
L 99.794463 69.72885 
L 100.17316 69.446128 
L 100.550836 69.186626 
L 100.927474 68.950299 
L 101.303056 68.737098 
L 101.677567 68.546974 
L 102.050988 68.379873 
L 102.423304 68.235742 
L 102.794499 68.114521 
L 103.164556 68.016153 
L 103.533459 67.940576 
L 103.901193 67.887727 
L 104.267743 67.857539 
L 104.633093 67.849946 
L 104.997226 67.864878 
L 105.36013 67.902262 
L 105.721788 67.962025 
L 106.082186 68.044092 
L 106.44131 68.148384 
L 106.799146 68.274822 
L 107.155678 68.423324 
L 107.510895 68.593807 
L 107.864782 68.786185 
L 108.217325 69.000371 
L 108.568512 69.236276 
L 108.918328 69.493809 
L 109.266764 69.772878 
L 109.613803 70.073388 
L 109.959435 70.395243 
L 110.303647 70.738347 
L 110.646428 71.102598 
L 110.987765 71.487896 
L 111.327646 71.894138 
L 111.666062 72.321221 
L 112.002999 72.769037 
L 112.338447 73.237481 
L 112.672396 73.726443 
L 113.004835 74.235812 
L 113.335755 74.765482 
L 113.665143 75.315331 
L 113.992991 75.88525 
L 114.31929 76.475123 
L 114.644028 77.084831 
L 114.967197 77.714256 
L 115.28879 78.363282 
L 115.608795 79.031783 
L 115.927205 79.719639 
L 116.244011 80.426727 
L 116.559205 81.152921 
" clip-path="url(#p13d105d4b0)" style="fill: none; stroke: #1f77b4; stroke-width: 1.5"/>
    <path d="M 86.266001 111.06794 
L 86.675953 109.55782 
L 87.085808 108.070273 
L 87.495543 106.605391 
L 87.905136 105.163252 
L 88.314566 103.743932 
L 88.723809 102.347516 
L 89.132844 100.974072 
L 89.541649 99.623676 
L 89.950202 98.296392 
L 90.358481 96.99229 
L 90.766463 95.711434 
L 91.174126 94.453888 
L 91.581451 93.219705 
L 91.988412 92.008948 
L 92.394989 90.821672 
L 92.801162 89.65792 
L 93.206906 88.51775 
L 93.612202 87.401202 
L 94.017026 86.308325 
L 94.421359 85.239157 
L 94.825177 84.193739 
L 95.228462 83.172101 
L 95.63119 82.174284 
L 96.033342 81.200313 
L 96.434894 80.250219 
L 96.835827 79.324028 
L 97.23612 78.421761 
L 97.635751 77.543441 
L 98.034701 76.689083 
L 98.432948 75.858701 
L 98.830472 75.052312 
L 99.227253 74.269922 
L 99.623271 73.51154 
L 100.018505 72.777171 
L 100.412937 72.066814 
L 100.806544 71.380474 
L 101.199308 70.718143 
L 101.59121 70.079817 
L 101.98223 69.465487 
L 102.372347 68.875146 
L 102.761544 68.308777 
L 103.149802 67.766365 
L 103.537101 67.247892 
L 103.923423 66.753336 
L 104.308749 66.282675 
L 104.693061 65.835883 
L 105.07634 65.412933 
L 105.458569 65.013793 
L 105.839729 64.638428 
L 106.219803 64.286806 
L 106.598774 63.958887 
L 106.976622 63.654631 
L 107.353333 63.373995 
L 107.728888 63.116934 
L 108.10327 62.883401 
L 108.476464 62.673345 
L 108.848452 62.486715 
L 109.219218 62.323459 
L 109.588746 62.183516 
L 109.95702 62.066829 
L 110.324024 61.973336 
L 110.689743 61.902977 
L 111.054162 61.855683 
L 111.417265 61.831387 
L 111.779037 61.830021 
L 112.139463 61.851511 
L 112.49853 61.895785 
L 112.856222 61.962765 
L 113.212526 62.052374 
L 113.567427 62.164534 
L 113.920912 62.299159 
L 114.272967 62.456168 
L 114.623579 62.635473 
L 114.972735 62.836988 
L 115.320422 63.060622 
L 115.666628 63.306284 
L 116.011339 63.57388 
L 116.354545 63.863316 
L 116.696232 64.174493 
L 117.036389 64.507314 
L 117.375004 64.861678 
L 117.712066 65.237483 
L 118.047564 65.634625 
L 118.381486 66.052997 
L 118.713823 66.492495 
L 119.044563 66.953007 
L 119.373696 67.434426 
L 119.701212 67.936638 
L 120.027102 68.459529 
L 120.351357 69.00299 
L 120.673965 69.566897 
L 120.994919 70.151137 
L 121.31421 70.755592 
L 121.631827 71.380139 
L 121.947764 72.024657 
L 122.262012 72.689026 
L 122.574562 73.373118 
L 122.885407 74.07681 
L 123.19454 74.799976 
L 123.501952 75.542486 
" clip-path="url(#p13d105d4b0)" style="fill: none; stroke: #1f77b4; stroke-width: 1.5"/>
    <path d="M 93.551058 102.94972 
L 93.966883 101.419348 
L 94.382478 99.911988 
L 94.797818 98.427736 
L 95.212882 96.966671 
L 95.627647 95.528871 
L 96.042089 94.114424 
L 96.456186 92.7234 
L 96.869916 91.355875 
L 97.283256 90.011917 
L 97.696184 88.691595 
L 98.108676 87.394978 
L 98.52071 86.122128 
L 98.932266 84.873103 
L 99.343318 83.647965 
L 99.753845 82.44677 
L 100.163827 81.269564 
L 100.573239 80.116405 
L 100.982061 78.987334 
L 101.390269 77.8824 
L 101.797842 76.801644 
L 102.204759 75.745106 
L 102.610999 74.712818 
L 103.016538 73.70482 
L 103.421357 72.721139 
L 103.825433 71.761806 
L 104.228744 70.826846 
L 104.631272 69.916282 
L 105.032992 69.030137 
L 105.433887 68.168425 
L 105.833934 67.331161 
L 106.233112 66.518361 
L 106.631402 65.730031 
L 107.028783 64.96618 
L 107.425234 64.226813 
L 107.820736 63.51193 
L 108.215269 62.821529 
L 108.608813 62.155609 
L 109.001348 61.514162 
L 109.392855 60.897179 
L 109.783314 60.304651 
L 110.172706 59.73656 
L 110.561013 59.192892 
L 110.948216 58.673626 
L 111.334295 58.17874 
L 111.719232 57.70821 
L 112.10301 57.26201 
L 112.48561 56.840109 
L 112.867014 56.442475 
L 113.247203 56.069072 
L 113.626162 55.719865 
L 114.003871 55.394814 
L 114.380315 55.093877 
L 114.755475 54.817007 
L 115.129336 54.564159 
L 115.50188 54.335283 
L 115.873092 54.130328 
L 116.242954 53.949238 
L 116.611451 53.79196 
L 116.978568 53.658431 
L 117.344288 53.548592 
L 117.708596 53.462378 
L 118.071477 53.399726 
L 118.432915 53.360566 
L 118.792898 53.344827 
L 119.151409 53.352439 
L 119.508434 53.383325 
L 119.86396 53.437409 
L 120.217972 53.514613 
L 120.570457 53.614857 
L 120.921401 53.738056 
L 121.27079 53.884125 
L 121.618613 54.052978 
L 121.964857 54.244526 
L 122.309508 54.458676 
L 122.652554 54.695338 
L 122.993984 54.954415 
L 123.333785 55.235811 
L 123.671947 55.539428 
L 124.008457 55.865164 
L 124.343305 56.212918 
L 124.676478 56.582587 
L 125.007968 56.974063 
L 125.337763 57.387241 
L 125.665852 57.822009 
L 125.992227 58.278259 
L 126.316876 58.755876 
L 126.639791 59.25475 
L 126.960962 59.774762 
L 127.280381 60.315795 
L 127.598039 60.877736 
L 127.913925 61.460457 
L 128.228033 62.063841 
L 128.540355 62.687766 
L 128.850882 63.332106 
L 129.159606 63.996735 
L 129.466521 64.68153 
L 129.771618 65.386359 
L 130.074891 66.111094 
L 130.376334 66.855605 
L 130.675939 67.619758 
" clip-path="url(#p13d105d4b0)" style="fill: none; stroke: #1f77b4; stroke-width: 1.5"/>
    <path d="M 24.318635 81.868935 
L 25.025641 83.182889 
L 25.731159 84.473354 
L 26.435225 85.740419 
L 27.137878 86.984178 
L 27.839158 88.204725 
L 28.5391 89.402139 
L 29.237744 90.57651 
L 29.935126 91.727916 
L 30.631285 92.856443 
L 31.326259 93.962164 
L 32.020082 95.045152 
L 32.712793 96.105481 
L 33.40443 97.143223 
L 34.095027 98.158442 
L 34.784621 99.151201 
L 35.47325 100.121569 
L 36.160949 101.069599 
L 36.847755 101.995355 
L 37.533702 102.898888 
L 38.218828 103.780253 
L 38.903167 104.639499 
L 39.586759 105.476678 
L 40.269634 106.291834 
L 40.951832 107.08501 
L 41.633387 107.856249 
L 42.314332 108.60559 
L 42.994705 109.33307 
L 43.674541 110.038721 
L 44.353876 110.722579 
L 45.032744 111.384675 
L 45.711179 112.025033 
L 46.389219 112.643682 
L 47.066898 113.240644 
L 47.74425 113.815941 
L 48.421312 114.36959 
L 49.098118 114.901611 
L 49.774704 115.412016 
L 50.451104 115.900818 
L 51.127353 116.368029 
L 51.803487 116.813651 
L 52.479541 117.237696 
L 53.15555 117.640163 
L 53.83155 118.021055 
L 54.507575 118.380371 
L 55.183662 118.718107 
L 55.859845 119.034257 
L 56.53616 119.328812 
L 57.212643 119.601764 
L 57.889328 119.853099 
L 58.566252 120.082802 
L 59.24345 120.290857 
L 59.920959 120.477242 
L 60.598814 120.64194 
L 61.277052 120.784923 
L 61.955708 120.906165 
L 62.634819 121.005638 
L 63.314421 121.083312 
L 63.994551 121.13915 
L 64.675246 121.17312 
L 65.356542 121.185182 
L 66.038477 121.175297 
L 66.721087 121.14342 
L 67.40441 121.089506 
L 68.088485 121.013508 
L 68.773347 120.915374 
L 69.459035 120.795054 
L 70.145587 120.65249 
L 70.833041 120.487625 
L 71.521438 120.300398 
L 72.210813 120.090746 
L 72.901207 119.858606 
L 73.592658 119.603907 
L 74.285208 119.326579 
L 74.978894 119.026549 
L 75.673757 118.703739 
L 76.369837 118.358074 
L 77.067175 117.989468 
L 77.765813 117.597841 
L 78.465788 117.183103 
L 79.167147 116.745165 
L 79.869926 116.283934 
L 80.574171 115.799315 
L 81.279922 115.291208 
L 81.987221 114.759515 
L 82.696116 114.204127 
L 83.406645 113.624942 
L 84.118853 113.021844 
L 84.832785 112.394724 
L 85.548485 111.743465 
L 86.266001 111.06794 
L 86.985373 110.368036 
L 87.70665 109.643622 
L 88.429879 108.894568 
L 89.155103 108.120743 
L 89.882371 107.322012 
L 90.611733 106.498229 
L 91.343233 105.649259 
L 92.07692 104.774951 
L 92.812847 103.875155 
L 93.551058 102.94972 
" clip-path="url(#p13d105d4b0)" style="fill: none; stroke: #1f77b4; stroke-width: 1.5"/>
    <path d="M 28.279656 68.264617 
L 28.985001 69.583979 
L 29.688929 70.879613 
L 30.391474 72.151607 
L 31.092677 73.400058 
L 31.792577 74.62506 
L 32.491208 75.82669 
L 33.188611 77.005041 
L 33.884822 78.160191 
L 34.579879 79.292226 
L 35.27382 80.401219 
L 35.96668 81.487244 
L 36.658496 82.550375 
L 37.349307 83.590684 
L 38.039147 84.608235 
L 38.728053 85.603093 
L 39.416063 86.575325 
L 40.103211 87.524986 
L 40.789535 88.45214 
L 41.475069 89.356836 
L 42.159849 90.239131 
L 42.843912 91.099074 
L 43.527296 91.936718 
L 44.210031 92.752104 
L 44.892158 93.545279 
L 45.573709 94.316283 
L 46.25472 95.065154 
L 46.935228 95.791932 
L 47.615265 96.496649 
L 48.294871 97.179339 
L 48.974078 97.840034 
L 49.652921 98.478756 
L 50.331436 99.095536 
L 51.00966 99.690396 
L 51.687626 100.263355 
L 52.36537 100.814434 
L 53.042927 101.343647 
L 53.720332 101.851011 
L 54.397621 102.336537 
L 55.074829 102.800235 
L 55.751989 103.242109 
L 56.429139 103.662169 
L 57.106314 104.060415 
L 57.783549 104.436848 
L 58.460879 104.791468 
L 59.138339 105.124269 
L 59.815967 105.435246 
L 60.493796 105.724389 
L 61.171863 105.991687 
L 61.850203 106.23713 
L 62.528852 106.460699 
L 63.207847 106.662378 
L 63.887223 106.842146 
L 64.567016 106.999982 
L 65.247263 107.135861 
L 65.928 107.249754 
L 66.609264 107.341632 
L 67.291091 107.411465 
L 67.973518 107.459216 
L 68.656582 107.484851 
L 69.34032 107.488329 
L 70.02477 107.46961 
L 70.709969 107.428648 
L 71.395953 107.365399 
L 72.082764 107.279812 
L 72.770436 107.171837 
L 73.459008 107.04142 
L 74.14852 106.888502 
L 74.839008 106.71303 
L 75.530514 106.514936 
L 76.223075 106.294158 
L 76.91673 106.05063 
L 77.611519 105.784283 
L 78.307483 105.495044 
L 79.004661 105.182838 
L 79.703094 104.847588 
L 80.402821 104.489214 
L 81.103884 104.107634 
L 81.806327 103.702759 
L 82.510186 103.274504 
L 83.215508 102.822776 
L 83.92233 102.34748 
L 84.6307 101.84852 
L 85.340655 101.325797 
L 86.052242 100.779206 
L 86.765505 100.208641 
L 87.480485 99.613995 
L 88.197227 98.995153 
L 88.915777 98.352002 
L 89.636179 97.684423 
L 90.358481 96.99229 
L 91.082725 96.275485 
L 91.808959 95.533877 
L 92.537231 94.767333 
L 93.267586 93.97572 
L 94.000072 93.1589 
L 94.73474 92.316728 
L 95.471634 91.449063 
L 96.210806 90.555755 
L 96.952308 89.63665 
L 97.696184 88.691595 
" clip-path="url(#p13d105d4b0)" style="fill: none; stroke: #1f77b4; stroke-width: 1.5"/>
    <path d="M 32.320305 56.954651 
L 33.022734 58.276188 
L 33.72382 59.573842 
L 34.423599 60.847702 
L 35.122109 62.097864 
L 35.819392 63.32442 
L 36.515479 64.527451 
L 37.210411 65.707048 
L 37.904225 66.86329 
L 38.596958 67.996261 
L 39.288648 69.106036 
L 39.979329 70.192689 
L 40.669039 71.256293 
L 41.357817 72.29692 
L 42.045695 73.314635 
L 42.73271 74.309502 
L 43.418902 75.281589 
L 44.104303 76.23095 
L 44.788951 77.157649 
L 45.47288 78.061736 
L 46.156126 78.943266 
L 46.838726 79.802289 
L 47.520716 80.638859 
L 48.202129 81.453014 
L 48.883004 82.244804 
L 49.563373 83.014267 
L 50.243271 83.761442 
L 50.922736 84.486368 
L 51.601802 85.189076 
L 52.280504 85.869603 
L 52.958878 86.527975 
L 53.636957 87.16422 
L 54.314778 87.778365 
L 54.992377 88.370433 
L 55.669787 88.940443 
L 56.347045 89.488416 
L 57.024184 90.014365 
L 57.701241 90.518306 
L 58.378251 91.000251 
L 59.055248 91.460207 
L 59.732267 91.898183 
L 60.409346 92.314184 
L 61.086517 92.708212 
L 61.763818 93.080267 
L 62.441283 93.430346 
L 63.118948 93.758446 
L 63.796848 94.064561 
L 64.47502 94.348681 
L 65.153499 94.610794 
L 65.832319 94.850887 
L 66.511518 95.068945 
L 67.191131 95.264948 
L 67.871195 95.438877 
L 68.551746 95.590708 
L 69.23282 95.720417 
L 69.914454 95.827975 
L 70.596685 95.913352 
L 71.279548 95.976516 
L 71.96308 96.017433 
L 72.647321 96.036063 
L 73.332305 96.03237 
L 74.018071 96.006309 
L 74.704657 95.957837 
L 75.392098 95.886905 
L 76.080437 95.793466 
L 76.769708 95.677466 
L 77.459949 95.538852 
L 78.151202 95.377565 
L 78.843502 95.193547 
L 79.536891 94.986734 
L 80.231408 94.757063 
L 80.92709 94.504465 
L 81.623979 94.22887 
L 82.322115 93.930206 
L 83.021537 93.608396 
L 83.722287 93.263363 
L 84.424405 92.895026 
L 85.127931 92.503301 
L 85.832911 92.088099 
L 86.539382 91.649335 
L 87.247389 91.186912 
L 87.956971 90.700738 
L 88.668175 90.190714 
L 89.381039 89.656739 
L 90.095611 89.09871 
L 90.811934 88.516516 
L 91.53005 87.910053 
L 92.250005 87.279202 
L 92.971844 86.62385 
L 93.695613 85.943878 
L 94.421359 85.239157 
L 95.149124 84.50957 
L 95.878957 83.754982 
L 96.610908 82.97526 
L 97.34502 82.170271 
L 98.081342 81.339876 
L 98.819927 80.483926 
L 99.560818 79.602281 
L 100.304066 78.694789 
L 101.049726 77.761295 
L 101.797842 76.801644 
" clip-path="url(#p13d105d4b0)" style="fill: none; stroke: #1f77b4; stroke-width: 1.5"/>
    <path d="M 36.419139 47.985381 
L 37.117426 49.305848 
L 37.81445 50.602363 
L 38.510244 51.875014 
L 39.204849 53.123895 
L 39.898303 54.3491 
L 40.590639 55.55071 
L 41.281897 56.728813 
L 41.972113 57.883489 
L 42.661324 59.014823 
L 43.349569 60.122888 
L 44.036879 61.207759 
L 44.723294 62.269507 
L 45.408851 63.308206 
L 46.093582 64.323918 
L 46.777525 65.316709 
L 47.460718 66.286646 
L 48.143193 67.233782 
L 48.824989 68.158182 
L 49.506137 69.059894 
L 50.186676 69.938975 
L 50.866641 70.795473 
L 51.546068 71.629441 
L 52.224989 72.440919 
L 52.903443 73.229955 
L 53.581463 73.996587 
L 54.259083 74.740854 
L 54.936341 75.462795 
L 55.613269 76.162441 
L 56.289904 76.839826 
L 56.966281 77.49498 
L 57.642433 78.127928 
L 58.318396 78.738697 
L 58.994207 79.327309 
L 59.669897 79.893785 
L 60.345505 80.438143 
L 61.021063 80.960398 
L 61.696607 81.460566 
L 62.372173 81.938655 
L 63.047794 82.394677 
L 63.723506 82.828636 
L 64.399344 83.240538 
L 65.075345 83.630387 
L 65.751542 83.99818 
L 66.427971 84.343916 
L 67.104667 84.66759 
L 67.781667 84.969195 
L 68.459005 85.248723 
L 69.136717 85.50616 
L 69.814839 85.741494 
L 70.493406 85.954708 
L 71.172455 86.145784 
L 71.852021 86.3147 
L 72.532141 86.461433 
L 73.212852 86.585959 
L 73.894188 86.688249 
L 74.576189 86.768272 
L 75.258889 86.825996 
L 75.942325 86.861385 
L 76.626536 86.874403 
L 77.311557 86.865008 
L 77.997427 86.83316 
L 78.684183 86.778811 
L 79.371861 86.701917 
L 80.060504 86.602425 
L 80.750146 86.480285 
L 81.440824 86.335441 
L 82.132581 86.167835 
L 82.825453 85.977408 
L 83.51948 85.764097 
L 84.214702 85.527837 
L 84.911156 85.268559 
L 85.608884 84.986195 
L 86.307926 84.680669 
L 87.008322 84.351906 
L 87.710113 83.999829 
L 88.413338 83.624354 
L 89.118041 83.225399 
L 89.824264 82.802875 
L 90.532045 82.356695 
L 91.241431 81.886764 
L 91.95246 81.392987 
L 92.665179 80.875266 
L 93.379626 80.333499 
L 94.095849 79.767583 
L 94.813892 79.177408 
L 95.533797 78.562868 
L 96.255609 77.923843 
L 96.979374 77.260223 
L 97.705138 76.571885 
L 98.432948 75.858701 
L 99.162847 75.120554 
L 99.894885 74.357309 
L 100.629109 73.568832 
L 101.365565 72.754989 
L 102.104301 71.915642 
L 102.84537 71.050641 
L 103.588816 70.159847 
L 104.334692 69.243105 
L 105.083049 68.300261 
L 105.833934 67.331161 
" clip-path="url(#p13d105d4b0)" style="fill: none; stroke: #1f77b4; stroke-width: 1.5"/>
    <path d="M 40.554332 41.378444 
L 41.247296 42.694629 
L 41.939078 43.986876 
L 42.629713 45.255273 
L 43.319238 46.499914 
L 44.007694 47.720892 
L 44.695111 48.918287 
L 45.381529 50.092187 
L 46.066984 51.242672 
L 46.751513 52.369823 
L 47.435152 53.473717 
L 48.117935 54.554424 
L 48.799898 55.612019 
L 49.48108 56.646571 
L 50.161513 57.658144 
L 50.841233 58.646803 
L 51.520277 59.612613 
L 52.198678 60.55563 
L 52.876474 61.475914 
L 53.553697 62.373515 
L 54.230383 63.248489 
L 54.906567 64.100885 
L 55.582287 64.930754 
L 56.257573 65.738135 
L 56.932464 66.523077 
L 57.606992 67.285617 
L 58.281191 68.025794 
L 58.955098 68.743645 
L 59.628746 69.439202 
L 60.302171 70.112499 
L 60.975407 70.763565 
L 61.648488 71.392424 
L 62.321449 71.999104 
L 62.994326 72.583626 
L 63.667152 73.14601 
L 64.339963 73.686275 
L 65.012791 74.204434 
L 65.685674 74.700504 
L 66.358646 75.174494 
L 67.03174 75.626412 
L 67.70499 76.056266 
L 68.378435 76.464059 
L 69.052107 76.849795 
L 69.726042 77.213472 
L 70.400275 77.555088 
L 71.074841 77.874638 
L 71.749775 78.172115 
L 72.425112 78.447509 
L 73.100889 78.70081 
L 73.77714 78.932001 
L 74.4539 79.141068 
L 75.131207 79.327992 
L 75.809095 79.492751 
L 76.4876 79.635322 
L 77.16676 79.75568 
L 77.84661 79.853797 
L 78.527186 79.929642 
L 79.208525 79.983181 
L 79.890664 80.014381 
L 80.573639 80.023204 
L 81.257488 80.009609 
L 81.942248 79.973554 
L 82.627957 79.914994 
L 83.314651 79.833882 
L 84.002371 79.730168 
L 84.691152 79.603799 
L 85.381032 79.454721 
L 86.072052 79.282877 
L 86.764248 79.088206 
L 87.457662 78.870645 
L 88.152332 78.63013 
L 88.848295 78.366593 
L 89.545594 78.079964 
L 90.244268 77.77017 
L 90.944356 77.437134 
L 91.645902 77.080778 
L 92.348943 76.701022 
L 93.053521 76.297782 
L 93.759682 75.870969 
L 94.467461 75.420496 
L 95.176905 74.946269 
L 95.888054 74.448193 
L 96.600953 73.926171 
L 97.315642 73.380101 
L 98.032166 72.80988 
L 98.750571 72.215398 
L 99.470898 71.59655 
L 100.193194 70.953217 
L 100.917503 70.285286 
L 101.643871 69.592639 
L 102.372347 68.875146 
L 103.102972 68.132691 
L 103.835795 67.365139 
L 104.570866 66.572358 
L 105.308229 65.754213 
L 106.047933 64.910565 
L 106.79003 64.041269 
L 107.534566 63.146182 
L 108.28159 62.225153 
L 109.031158 61.278027 
L 109.783314 60.304651 
" clip-path="url(#p13d105d4b0)" style="fill: none; stroke: #1f77b4; stroke-width: 1.5"/>
    <path d="M 44.704077 37.130816 
L 45.39059 38.439577 
L 46.076006 39.724499 
L 46.760358 40.985669 
L 47.443683 42.223179 
L 48.126019 43.437122 
L 48.8074 44.627576 
L 49.487862 45.794628 
L 50.167441 46.938357 
L 50.846173 48.058845 
L 51.524095 49.156164 
L 52.201239 50.230388 
L 52.877641 51.281586 
L 53.55334 52.30983 
L 54.228364 53.315182 
L 54.902753 54.297706 
L 55.576542 55.257467 
L 56.249762 56.194518 
L 56.922452 57.10892 
L 57.594642 58.000724 
L 58.266369 58.869982 
L 58.937667 59.716743 
L 59.608573 60.541059 
L 60.279117 61.342969 
L 60.949338 62.122518 
L 61.619266 62.879745 
L 62.288935 63.614687 
L 62.958383 64.327383 
L 63.627642 65.017862 
L 64.296746 65.686159 
L 64.965731 66.3323 
L 65.634628 66.956313 
L 66.303473 67.558222 
L 66.972301 68.138049 
L 67.641145 68.695813 
L 68.31004 69.231533 
L 68.97902 69.745224 
L 69.64812 70.236898 
L 70.317373 70.706567 
L 70.986814 71.154239 
L 71.656476 71.57992 
L 72.326396 71.983614 
L 72.996608 72.365324 
L 73.667146 72.725049 
L 74.338045 73.062786 
L 75.009339 73.37853 
L 75.681064 73.672274 
L 76.353255 73.944009 
L 77.025947 74.193723 
L 77.699174 74.421401 
L 78.372972 74.627027 
L 79.047376 74.810583 
L 79.722423 74.972048 
L 80.398147 75.111399 
L 81.074586 75.22861 
L 81.751773 75.323652 
L 82.429748 75.396497 
L 83.108543 75.44711 
L 83.788196 75.475458 
L 84.468746 75.481503 
L 85.150226 75.465205 
L 85.832675 75.426522 
L 86.516131 75.365409 
L 87.200629 75.28182 
L 87.88621 75.175704 
L 88.572909 75.047011 
L 89.260763 74.895685 
L 89.949814 74.721669 
L 90.640097 74.524905 
L 91.331653 74.30533 
L 92.02452 74.062879 
L 92.718737 73.797485 
L 93.414344 73.50908 
L 94.111381 73.197589 
L 94.809887 72.862938 
L 95.509904 72.505049 
L 96.211471 72.123843 
L 96.91463 71.719235 
L 97.619424 71.291139 
L 98.32589 70.839468 
L 99.034075 70.364128 
L 99.744017 69.865027 
L 100.455762 69.342066 
L 101.16935 68.795147 
L 101.884825 68.224165 
L 102.602234 67.629013 
L 103.321617 67.009586 
L 104.04302 66.365767 
L 104.766488 65.697445 
L 105.492066 65.0045 
L 106.219803 64.286806 
L 106.949741 63.544246 
L 107.681928 62.776689 
L 108.416413 61.984001 
L 109.15324 61.166051 
L 109.892459 60.322702 
L 110.634122 59.453807 
L 111.378272 58.559227 
L 112.124961 57.638812 
L 112.874242 56.692409 
L 113.626162 55.719865 
" clip-path="url(#p13d105d4b0)" style="fill: none; stroke: #1f77b4; stroke-width: 1.5"/>
    <path d="M 48.846936 35.215521 
L 49.525936 36.513832 
L 50.203923 37.788482 
L 50.880931 39.039559 
L 51.556996 40.267153 
L 52.232156 41.471354 
L 52.906442 42.65224 
L 53.579891 43.809897 
L 54.252538 44.9444 
L 54.924418 46.055833 
L 55.595567 47.144266 
L 56.266017 48.20977 
L 56.935803 49.252415 
L 57.604963 50.27227 
L 58.273525 51.269398 
L 58.941528 52.24386 
L 59.609006 53.195721 
L 60.275989 54.125033 
L 60.942517 55.031857 
L 61.608618 55.91624 
L 62.274329 56.778237 
L 62.939684 57.617894 
L 63.604717 58.435262 
L 64.26946 59.23038 
L 64.933949 60.003293 
L 65.598216 60.754038 
L 66.262293 61.482651 
L 66.926218 62.189171 
L 67.59002 62.873628 
L 68.253737 63.536054 
L 68.9174 64.176477 
L 69.581043 64.794921 
L 70.244699 65.391413 
L 70.908404 65.965973 
L 71.572189 66.51862 
L 72.236091 67.049372 
L 72.90014 67.558244 
L 73.564372 68.045249 
L 74.228821 68.510398 
L 74.89352 68.953697 
L 75.558502 69.375154 
L 76.223803 69.774773 
L 76.889456 70.152555 
L 77.555497 70.508501 
L 78.221958 70.842606 
L 78.888874 71.154867 
L 79.556279 71.445276 
L 80.224209 71.713824 
L 80.892699 71.960499 
L 81.56178 72.185287 
L 82.231491 72.388172 
L 82.901864 72.569135 
L 83.572936 72.728156 
L 84.244741 72.865213 
L 84.917316 72.980278 
L 85.590695 73.073326 
L 86.264916 73.144327 
L 86.940011 73.193247 
L 87.616019 73.220053 
L 88.292976 73.224708 
L 88.970917 73.207172 
L 89.649879 73.167404 
L 90.3299 73.10536 
L 91.011015 73.020994 
L 91.693265 72.914256 
L 92.376683 72.785096 
L 93.061307 72.63346 
L 93.747178 72.459292 
L 94.434331 72.262533 
L 95.122807 72.043122 
L 95.812643 71.800995 
L 96.503877 71.536087 
L 97.196549 71.248329 
L 97.8907 70.937648 
L 98.586367 70.603971 
L 99.283593 70.247222 
L 99.982415 69.867322 
L 100.682875 69.464187 
L 101.385016 69.037734 
L 102.088875 68.587876 
L 102.794499 68.114521 
L 103.501924 67.617578 
L 104.211197 67.096949 
L 104.922356 66.552538 
L 105.635448 65.984243 
L 106.350516 65.391956 
L 107.067601 64.775576 
L 107.786749 64.134988 
L 108.508004 63.470079 
L 109.231412 62.780735 
L 109.95702 62.066829 
L 110.684869 61.328248 
L 111.415009 60.564862 
L 112.147487 59.77654 
L 112.882348 58.963152 
L 113.61964 58.124563 
L 114.359414 57.26063 
L 115.101715 56.371216 
L 115.846594 55.456171 
L 116.594103 54.515346 
L 117.344288 53.548592 
" clip-path="url(#p13d105d4b0)" style="fill: none; stroke: #1f77b4; stroke-width: 1.5"/>
    <path d="M 52.962197 35.582887 
L 53.632693 36.867868 
L 54.302263 38.129446 
L 54.970938 39.367705 
L 55.638754 40.582734 
L 56.305748 41.774621 
L 56.971951 42.943441 
L 57.637398 44.08928 
L 58.302124 45.212212 
L 58.966162 46.312317 
L 59.629549 47.389666 
L 60.292314 48.444326 
L 60.954494 49.476368 
L 61.616123 50.485859 
L 62.277231 51.47286 
L 62.937854 52.43743 
L 63.598027 53.379635 
L 64.25778 54.299524 
L 64.917149 55.197158 
L 65.576164 56.072583 
L 66.23486 56.925851 
L 66.89327 57.757009 
L 67.55143 58.566107 
L 68.209368 59.353182 
L 68.867121 60.118278 
L 69.52472 60.861433 
L 70.182197 61.582682 
L 70.839587 62.282062 
L 71.496921 62.959602 
L 72.154235 63.615335 
L 72.81156 64.249288 
L 73.468929 64.861484 
L 74.126375 65.451949 
L 74.783932 66.020704 
L 75.441631 66.567767 
L 76.099508 67.093156 
L 76.757594 67.596885 
L 77.415923 68.078966 
L 78.074529 68.539411 
L 78.733443 68.978226 
L 79.3927 69.395419 
L 80.052333 69.790993 
L 80.712377 70.164949 
L 81.372864 70.517288 
L 82.033827 70.848007 
L 82.695302 71.1571 
L 83.357321 71.444561 
L 84.019918 71.710381 
L 84.68313 71.954548 
L 85.346987 72.177048 
L 86.011525 72.377866 
L 86.676779 72.556983 
L 87.342783 72.71438 
L 88.009572 72.850033 
L 88.677181 72.96392 
L 89.345644 73.05601 
L 90.014998 73.126277 
L 90.685277 73.174688 
L 91.356516 73.20121 
L 92.028752 73.205806 
L 92.70202 73.188438 
L 93.376356 73.149065 
L 94.051798 73.087645 
L 94.728379 73.004131 
L 95.40614 72.898476 
L 96.085115 72.77063 
L 96.76534 72.62054 
L 97.446856 72.448152 
L 98.129697 72.253407 
L 98.813903 72.036247 
L 99.499512 71.796607 
L 100.186561 71.534425 
L 100.87509 71.249633 
L 101.565137 70.94216 
L 102.256741 70.611934 
L 102.949944 70.25888 
L 103.644781 69.882921 
L 104.341296 69.483977 
L 105.03953 69.061962 
L 105.73952 68.616795 
L 106.44131 68.148384 
L 107.144939 67.65664 
L 107.850452 67.141469 
L 108.557887 66.602774 
L 109.267289 66.040457 
L 109.978702 65.454413 
L 110.692165 64.84454 
L 111.407725 64.210727 
L 112.125425 63.552866 
L 112.84531 62.870843 
L 113.567427 62.164534 
L 114.291816 61.433828 
L 115.018526 60.678598 
L 115.747605 59.898717 
L 116.479095 59.094056 
L 117.213046 58.264485 
L 117.949508 57.409862 
L 118.688523 56.530053 
L 119.430144 55.624914 
L 120.174422 54.694297 
L 120.921401 53.738056 
" clip-path="url(#p13d105d4b0)" style="fill: none; stroke: #1f77b4; stroke-width: 1.5"/>
    <path d="M 57.030186 38.162323 
L 57.691268 39.431278 
L 58.35151 40.677158 
L 59.010941 41.900045 
L 59.669597 43.100025 
L 60.327513 44.277186 
L 60.984719 45.4316 
L 61.64125 46.563351 
L 62.297139 47.672511 
L 62.95242 48.759159 
L 63.607128 49.823362 
L 64.26129 50.865188 
L 64.914943 51.884705 
L 65.568121 52.881979 
L 66.220853 53.857068 
L 66.873173 54.810032 
L 67.525116 55.740933 
L 68.17671 56.649821 
L 68.827992 57.536754 
L 69.47899 58.401777 
L 70.129739 59.244942 
L 70.78027 60.066294 
L 71.430619 60.865882 
L 72.080813 61.643742 
L 72.730889 62.399918 
L 73.380876 63.134445 
L 74.030806 63.847359 
L 74.680713 64.538695 
L 75.330629 65.208482 
L 75.980586 65.856753 
L 76.630616 66.483532 
L 77.28075 67.088844 
L 77.931023 67.672714 
L 78.581466 68.235161 
L 79.232111 68.776204 
L 79.882991 69.29586 
L 80.534138 69.794142 
L 81.185586 70.271064 
L 81.837365 70.726636 
L 82.48951 71.160864 
L 83.142051 71.573756 
L 83.795023 71.965316 
L 84.448458 72.335545 
L 85.10239 72.684442 
L 85.75685 73.012005 
L 86.411873 73.31823 
L 87.067491 73.603109 
L 87.723738 73.866634 
L 88.380648 74.108794 
L 89.038253 74.329574 
L 89.696587 74.528961 
L 90.355684 74.706936 
L 91.015578 74.863481 
L 91.676303 74.998571 
L 92.337894 75.112186 
L 93.000384 75.204296 
L 93.663809 75.274874 
L 94.328202 75.32389 
L 94.993599 75.35131 
L 95.660035 75.3571 
L 96.327544 75.341222 
L 96.996163 75.303636 
L 97.665927 75.2443 
L 98.336872 75.16317 
L 99.009035 75.0602 
L 99.68245 74.935341 
L 100.357154 74.788542 
L 101.033185 74.619749 
L 101.710578 74.428906 
L 102.389372 74.215955 
L 103.069605 73.980835 
L 103.751312 73.723484 
L 104.434532 73.443835 
L 105.119305 73.14182 
L 105.805668 72.81737 
L 106.49366 72.47041 
L 107.183319 72.100867 
L 107.874686 71.70866 
L 108.567803 71.29371 
L 109.262704 70.855934 
L 109.959435 70.395243 
L 110.658033 69.911553 
L 111.358542 69.404769 
L 112.061 68.8748 
L 112.76545 68.321548 
L 113.471937 67.744912 
L 114.1805 67.144793 
L 114.891182 66.521082 
L 115.604029 65.873674 
L 116.319082 65.202458 
L 117.036389 64.507314 
L 117.75599 63.788135 
L 118.477932 63.044796 
L 119.202262 62.277172 
L 119.929023 61.485141 
L 120.658262 60.668573 
L 121.39003 59.827333 
L 122.124368 58.961289 
L 122.861327 58.0703 
L 123.600958 57.154224 
L 124.343305 56.212918 
" clip-path="url(#p13d105d4b0)" style="fill: none; stroke: #1f77b4; stroke-width: 1.5"/>
    <path d="M 61.032539 42.864518 
L 61.683382 44.114955 
L 62.333469 45.342712 
L 62.982828 46.547867 
L 63.631494 47.730506 
L 64.279502 48.890712 
L 64.926879 50.028557 
L 65.573661 51.144122 
L 66.219879 52.237477 
L 66.865565 53.308698 
L 67.510754 54.357851 
L 68.155474 55.385003 
L 68.799758 56.390218 
L 69.443641 57.373561 
L 70.087149 58.33509 
L 70.730317 59.274861 
L 71.373179 60.192936 
L 72.015762 61.089362 
L 72.658101 61.964197 
L 73.300224 62.817484 
L 73.942165 63.649275 
L 74.583955 64.459611 
L 75.225627 65.248542 
L 75.867209 66.016102 
L 76.508736 66.762334 
L 77.150238 67.487273 
L 77.791744 68.190953 
L 78.433288 68.873408 
L 79.074901 69.534668 
L 79.716615 70.174762 
L 80.35846 70.793717 
L 81.000468 71.391555 
L 81.642671 71.968301 
L 82.2851 72.523973 
L 82.927787 73.05859 
L 83.570764 73.572171 
L 84.214061 74.064724 
L 84.857712 74.536266 
L 85.501747 74.986806 
L 86.146198 75.416352 
L 86.791097 75.824908 
L 87.436477 76.212479 
L 88.082369 76.579068 
L 88.728806 76.924673 
L 89.37582 77.249293 
L 90.023442 77.552923 
L 90.671706 77.835557 
L 91.320645 78.097184 
L 91.970291 78.337796 
L 92.620676 78.55738 
L 93.271833 78.755921 
L 93.923795 78.933401 
L 94.576597 79.089802 
L 95.23027 79.225104 
L 95.884849 79.339282 
L 96.540367 79.43231 
L 97.196859 79.504162 
L 97.854356 79.55481 
L 98.512895 79.584217 
L 99.172509 79.592354 
L 99.833233 79.579182 
L 100.495101 79.544666 
L 101.158148 79.48876 
L 101.822409 79.411426 
L 102.487922 79.312618 
L 103.154719 79.192287 
L 103.822835 79.050385 
L 104.49231 78.886859 
L 105.163176 78.701658 
L 105.835473 78.494721 
L 106.509236 78.265991 
L 107.184501 78.015409 
L 107.861306 77.742909 
L 108.539689 77.448426 
L 109.219687 77.131892 
L 109.90134 76.793237 
L 110.584683 76.432386 
L 111.269757 76.049265 
L 111.956602 75.643794 
L 112.645253 75.215895 
L 113.335755 74.765482 
L 114.028142 74.292471 
L 114.72246 73.796773 
L 115.418745 73.278298 
L 116.117039 72.736952 
L 116.817387 72.172637 
L 117.519825 71.585258 
L 118.224399 70.974708 
L 118.93115 70.340886 
L 119.64012 69.683686 
L 120.351357 69.00299 
L 121.064899 68.298694 
L 121.780792 67.570679 
L 122.499083 66.818824 
L 123.219813 66.043009 
L 123.943029 65.243109 
L 124.66878 64.418994 
L 125.397108 63.570536 
L 126.128062 62.697599 
L 126.861691 61.800045 
L 127.598039 60.877736 
" clip-path="url(#p13d105d4b0)" style="fill: none; stroke: #1f77b4; stroke-width: 1.5"/>
    <path d="M 64.952423 49.583939 
L 65.59229 50.813593 
L 66.231483 52.02102 
L 66.870029 53.206298 
L 67.507962 54.369509 
L 68.145316 55.510735 
L 68.782117 56.630043 
L 69.4184 57.727512 
L 70.054194 58.803211 
L 70.689533 59.857213 
L 71.324447 60.889583 
L 71.958965 61.900383 
L 72.593119 62.889679 
L 73.226942 63.857531 
L 73.86046 64.803996 
L 74.493708 65.729129 
L 75.126716 66.632989 
L 75.759513 67.515623 
L 76.392131 68.377085 
L 77.024599 69.21742 
L 77.656949 70.036674 
L 78.28921 70.834892 
L 78.921416 71.612118 
L 79.553594 72.368387 
L 80.185776 73.103741 
L 80.817992 73.818212 
L 81.450272 74.511837 
L 82.082648 75.184646 
L 82.715148 75.836667 
L 83.347805 76.467931 
L 83.980649 77.078464 
L 84.61371 77.668285 
L 85.247018 78.237421 
L 85.880606 78.785889 
L 86.514502 79.313707 
L 87.148739 79.820891 
L 87.783346 80.307455 
L 88.418355 80.773411 
L 89.053798 81.218769 
L 89.689703 81.643536 
L 90.326102 82.047717 
L 90.963028 82.431318 
L 91.600511 82.79434 
L 92.238582 83.136783 
L 92.877273 83.458645 
L 93.516615 83.759922 
L 94.156641 84.040607 
L 94.797381 84.300692 
L 95.438868 84.540167 
L 96.081133 84.759022 
L 96.724208 84.95724 
L 97.368126 85.134806 
L 98.012919 85.291702 
L 98.658619 85.427908 
L 99.30526 85.543401 
L 99.952874 85.638157 
L 100.601494 85.712149 
L 101.251153 85.765351 
L 101.901884 85.797727 
L 102.553721 85.80925 
L 103.206697 85.799883 
L 103.860846 85.76959 
L 104.516204 85.71833 
L 105.172802 85.646063 
L 105.830677 85.552747 
L 106.489863 85.438334 
L 107.150393 85.302779 
L 107.812304 85.146031 
L 108.475631 84.968036 
L 109.14041 84.768742 
L 109.806676 84.548092 
L 110.474465 84.306027 
L 111.143813 84.042487 
L 111.814759 83.757406 
L 112.487337 83.450722 
L 113.161586 83.122362 
L 113.837542 82.77226 
L 114.515243 82.400341 
L 115.19473 82.00653 
L 115.876036 81.590751 
L 116.559205 81.152921 
L 117.244272 80.69296 
L 117.931279 80.210782 
L 118.620262 79.706298 
L 119.311264 79.179421 
L 120.004327 78.630055 
L 120.699487 78.058108 
L 121.396788 77.463478 
L 122.09627 76.846068 
L 122.797977 76.205775 
L 123.501952 75.542486 
L 124.208234 74.8561 
L 124.916868 74.146503 
L 125.6279 73.413579 
L 126.341369 72.657212 
L 127.057322 71.877282 
L 127.775806 71.073663 
L 128.496862 70.246234 
L 129.220538 69.394861 
L 129.946883 68.519414 
L 130.675939 67.619758 
" clip-path="url(#p13d105d4b0)" style="fill: none; stroke: #1f77b4; stroke-width: 1.5"/>
   </g>
  </g>
 </g>
 <defs>
  <clipPath id="p13d105d4b0">
   <rect x="7.2" y="7.2" width="138.6" height="138.6"/>
  </clipPath>
 </defs>
</svg>
